<svg xmlns="http://www.w3.org/2000/svg" width="785.91" height="152.219" viewBox="0 0 785.91 152.219">
  <g id="Group_58654" data-name="Group 58654" transform="translate(-139.638 -689.46)">
    <path id="Path_51786" data-name="Path 51786" d="M360.251,630.2a13.035,13.035,0,0,1,11.85-14.309,13.38,13.38,0,0,1,7.579,1.461c.4-10.9,11.473-20.407,25.913-21.37,11.443-.769,21.55,4.075,26.118,11.482a6.468,6.468,0,0,1,1.906-.377,6.56,6.56,0,0,1,6.751,6.42,6.788,6.788,0,0,1-1.943,5.015,9.838,9.838,0,0,1,6.192,8.573c.156,5.073-3.934,9.385-9.363,10.266,0,.033,0,.065,0,.1q-30.526,1.265-60.956,4.3c0-.006,0-.013,0-.018A13.156,13.156,0,0,1,360.251,630.2Zm244.056.832a13.046,13.046,0,0,0-11.779-14.392,13.45,13.45,0,0,0-7.6,1.409c-.327-10.9-11.36-20.486-25.811-21.548-11.455-.851-21.6,3.927-26.222,11.3a6.361,6.361,0,0,0-1.906-.39,6.562,6.562,0,0,0-6.8,6.374,6.779,6.779,0,0,0,1.911,5.028,9.842,9.842,0,0,0-6.254,8.531c-.191,5.072,3.875,9.411,9.3,10.329,0,.033,0,.066,0,.1q30.542,1.47,61.009,4.723c0-.006,0-.013,0-.019A13.171,13.171,0,0,0,604.307,631.028Z" transform="translate(-25.632 98.807)" fill="#346313"/>
    <path id="Path_51787" data-name="Path 51787" d="M480.808,617.255c-.414-9.412,9.092-17.467,21.236-17.7a25.424,25.424,0,0,1,13.287,3.3,23.123,23.123,0,0,1,22.262-15.284c13.158.169,23.42,10.858,22.93,23.547-.02.6-.075,1.2-.138,1.789a10.721,10.721,0,0,1,8,10.763,10.853,10.853,0,0,1-8.641,10.1c0,.11-.008.219-.011.328q-30.179-1.045-60.362-.352c0-.071,0-.142-.005-.213C489.217,632.463,481.174,625.757,480.808,617.255Z" transform="translate(-70.373 101.898)" fill="#346313"/>
    <path id="Path_51788" data-name="Path 51788" d="M655.068,648.815a4.109,4.109,0,0,0,4.955,4.26c0,.052-.007.105-.011.157q25.645,1.766,51.22,4.791a5.935,5.935,0,1,0,1.395-11.786,6.071,6.071,0,0,0-2.358.182,9.831,9.831,0,0,0-18.6-4.3,4.172,4.172,0,0,0-3.894-.164,8.678,8.678,0,0,0,.452-2.041,9.079,9.079,0,0,0-18.09-1.556.326.326,0,0,0,0,.06,6.077,6.077,0,0,0-2.96-1.03,5.907,5.907,0,0,0-6.159,7.739l-.439-.03c0,.052-.008.1-.011.157a4.141,4.141,0,0,0-1.113-.234A4.09,4.09,0,0,0,655.068,648.815Zm30.37-3.284c0,.026.006.048.006.077l-.091-.008C685.383,645.576,685.41,645.557,685.438,645.53Z" transform="translate(-135.008 86.088)" fill="#b4ce5a"/>
    <path id="Path_51789" data-name="Path 51789" d="M627.321,643.477a4.038,4.038,0,0,0-1.134.082c0-.052.007-.1.011-.157l-.439-.03a5.807,5.807,0,0,0,.588-2.191,5.962,5.962,0,0,0-5.645-6.307,6.05,6.05,0,0,0-3.071.621c0-.02,0-.038.006-.06a9.071,9.071,0,0,0-18.117-.9,8.856,8.856,0,0,0,.172,2.084,4.161,4.161,0,0,0-3.875-.363,9.807,9.807,0,0,0-18.979,1.757,6.041,6.041,0,0,0-2.306-.5,5.935,5.935,0,1,0-.209,11.867q25.677.451,51.331,2.16c0-.052.006-.1.011-.157a4.058,4.058,0,0,0,1.1.232,4.081,4.081,0,1,0,.552-8.142Zm-25.731-2.913-.091,0a.48.48,0,0,0,.016-.076C601.542,640.512,601.566,640.54,601.59,640.564Z" transform="translate(-102.881 87.625)" fill="#9bb93b"/>
    <path id="Path_51790" data-name="Path 51790" d="M485.292,645.2a4.1,4.1,0,0,0,4.245,3.931,4.169,4.169,0,0,0,1.11-.194c0,.053,0,.1.005.157q25.658-.843,51.342-.43a5.934,5.934,0,1,0-2.13-11.446,9.8,9.8,0,0,0-18.9-2.395,4.155,4.155,0,0,0-3.883.232,8.777,8.777,0,0,0,.242-2.077,9.063,9.063,0,0,0-18.123.287c0,.023,0,.037.005.06a6.078,6.078,0,0,0-3.044-.724,5.907,5.907,0,0,0-5.335,8.323l-.44.014c0,.052,0,.105.005.157a4.219,4.219,0,0,0-1.129-.12A4.089,4.089,0,0,0,485.292,645.2Zm29.833-6.346c0,.026.014.052.015.077h-.091C515.074,638.908,515.1,638.886,515.125,638.858Z" transform="translate(-72.039 88.314)" fill="#b4ce5a"/>
    <path id="Path_51791" data-name="Path 51791" d="M398.775,650.035a4.1,4.1,0,0,0,4.444,3.705,4.166,4.166,0,0,0,1.1-.252l.013.157q25.589-2.173,51.251-3.089a5.935,5.935,0,1,0-2.72-11.321,9.8,9.8,0,0,0-19-1.412,4.157,4.157,0,0,0-3.866.433,8.783,8.783,0,0,0,.134-2.087,9.064,9.064,0,0,0-18.085,1.226c0,.018.008.039.008.06a6.072,6.072,0,0,0-3.078-.566,5.961,5.961,0,0,0-5.525,6.408,5.887,5.887,0,0,0,.627,2.18l-.438.037c0,.053.009.105.013.157a4.194,4.194,0,0,0-1.134-.062A4.088,4.088,0,0,0,398.775,650.035Zm29.471-7.884c.006.027.013.05.019.076l-.091.006A.559.559,0,0,1,428.246,642.151Z" transform="translate(-39.945 86.959)" fill="#9bb93b"/>
    <path id="Path_51792" data-name="Path 51792" d="M314.866,630.758c-.983-9.37-11.576-15.933-23.635-14.372a25.453,25.453,0,0,0-12.671,5.223,23.159,23.159,0,0,0-24.308-11.826c-13.01,2.111-21.606,14.208-19.248,26.682.109.594.248,1.177.4,1.749a10.727,10.727,0,0,0-6.337,11.829,10.859,10.859,0,0,0,10.057,8.712c.02.108.04.215.06.323q29.759-5.5,59.745-9.275l-.026-.211C308.786,647.047,315.762,639.218,314.866,630.758Z" transform="translate(23.065 93.773)" fill="#346313"/>
    <path id="Path_51793" data-name="Path 51793" d="M376.307,647.013a4.1,4.1,0,0,0-1.108.25l-.013-.157-.438.037a5.854,5.854,0,0,0,.253-2.255,5.96,5.96,0,0,0-6.519-5.393,6.072,6.072,0,0,0-2.942,1.072.277.277,0,0,0,0-.06,9.068,9.068,0,1,0-17.561,3.851,4.162,4.162,0,0,0-3.886.22,9.812,9.812,0,0,0-18.512,4.572,6.036,6.036,0,0,0-2.357-.149,5.935,5.935,0,1,0,1.565,11.765q25.478-3.391,51.076-5.527l-.013-.157a4.234,4.234,0,0,0,1.126.065,4.081,4.081,0,1,0-.669-8.134Zm-25.864.96-.09.009c0-.026.005-.05.005-.077C350.384,647.928,350.418,647.95,350.443,647.973Z" transform="translate(-9.994 85.241)" fill="#b4ce5a"/>
    <path id="Path_51794" data-name="Path 51794" d="M291.16,656.853a4.1,4.1,0,0,0-1.095.306c-.007-.052-.014-.1-.021-.157l-.437.059a5.89,5.89,0,0,0,.138-2.265,5.964,5.964,0,0,0-6.792-5.053,6.07,6.07,0,0,0-2.886,1.222c0-.021,0-.041-.005-.06a9.079,9.079,0,0,0-17.948,2.74,8.739,8.739,0,0,0,.586,2.007,4.173,4.173,0,0,0-3.875.419,9.829,9.829,0,0,0-18.28,5.518,6.1,6.1,0,0,0-2.365-.028,5.935,5.935,0,1,0,2.166,11.669q25.311-4.7,50.792-8.144c-.007-.052-.014-.1-.021-.156a4.032,4.032,0,0,0,1.129.006,4.079,4.079,0,1,0-1.086-8.085Zm-25.809,2.286c-.03.006-.06.009-.09.014,0-.025,0-.051,0-.077C265.29,659.1,265.324,659.116,265.351,659.138Z" transform="translate(21.439 81.214)" fill="#9bb93b"/>
    <path id="Path_51795" data-name="Path 51795" d="M251.623,671.448c-.053-.072-.189-.246-.323-.222-.113.02-.107.164-.287.315s-.33.115-.388.246.071.206.026.392a.514.514,0,0,1-.245.293c-.17.086-.275,0-.375.068-.147.1-.136.433-.027.68.1.218.257.328.855.7a4.444,4.444,0,0,0,.832.247c.027-.03.058-.065.086-.091a1.65,1.65,0,0,1,.514-.361A4.984,4.984,0,0,0,251.623,671.448Z" transform="translate(15.259 70.868)" fill="#fff"/>
    <path id="Path_51796" data-name="Path 51796" d="M256.526,673.855c.065-.057.233-.2.206-.331-.025-.111-.169-.1-.335-.26s-.136-.319-.271-.365-.206.087-.4.051a.489.489,0,0,1-.311-.222c-.1-.159-.012-.267-.089-.365-.11-.137-.447-.105-.69.019-.216.109-.316.274-.657.888a4.415,4.415,0,0,0-.2.837l.1.077a1.6,1.6,0,0,1,.394.482A5.269,5.269,0,0,0,256.526,673.855Z" transform="translate(13.826 70.479)" fill="#fff"/>
    <path id="Path_51797" data-name="Path 51797" d="M254.636,677.364c.05.069.184.247.125.367-.052.1-.186.057-.385.183s-.205.282-.345.3-.18-.126-.372-.133a.52.52,0,0,0-.352.151c-.131.137-.075.26-.169.337-.138.113-.46.01-.666-.163-.184-.154-.246-.335-.442-1a4.213,4.213,0,0,1-.01-.859,1.106,1.106,0,0,0,.113-.056,1.59,1.59,0,0,0,.493-.388A5.167,5.167,0,0,1,254.636,677.364Zm-5.338-.275c-.062.064-.216.226-.169.351.037.105.181.078.36.225.194.156.169.3.306.337s.194-.108.387-.091a.521.521,0,0,1,.331.19c.114.15.037.268.126.354.121.123.455.062.682-.086.205-.131.285-.3.564-.947a4.192,4.192,0,0,0,.117-.851c-.036-.025-.069-.045-.1-.069a1.5,1.5,0,0,1-.44-.441A5.164,5.164,0,0,0,249.3,677.089Z" transform="translate(15.557 69.078)" fill="#fff"/>
    <path id="Path_51798" data-name="Path 51798" d="M253.987,675.531a.656.656,0,1,1-.752-.491A.637.637,0,0,1,253.987,675.531Z" transform="translate(14.232 69.456)" fill="#f7bd5a"/>
    <path id="Path_51799" data-name="Path 51799" d="M306.54,664.2c-.088-.021-.32-.066-.407.042-.077.091.028.2-.011.439-.037.255-.183.311-.138.452s.2.114.289.291a.535.535,0,0,1,.007.394c-.076.181-.221.181-.251.3-.045.177.19.433.445.554.226.106.427.084,1.154-.021a4.631,4.631,0,0,0,.829-.361c0-.045,0-.087.006-.128a1.569,1.569,0,0,1,.16-.627A5.333,5.333,0,0,0,306.54,664.2Z" transform="translate(-5.531 73.482)" fill="#fff"/>
    <path id="Path_51800" data-name="Path 51800" d="M311.943,662.77c.015-.087.05-.316-.065-.4-.1-.067-.2.039-.445.019-.263-.023-.327-.157-.466-.108s-.106.2-.278.3a.551.551,0,0,1-.4.033c-.187-.065-.2-.2-.321-.228-.181-.034-.428.215-.534.476-.1.233-.061.426.089,1.138a4.4,4.4,0,0,0,.415.793c.042,0,.088,0,.13,0a1.646,1.646,0,0,1,.643.116A5.346,5.346,0,0,0,311.943,662.77Z" transform="translate(-6.795 74.188)" fill="#fff"/>
    <path id="Path_51801" data-name="Path 51801" d="M312.938,665.858c.089.02.316.072.35.206.029.109-.111.172-.181.4-.077.249.029.36-.07.467s-.232.025-.387.143a.527.527,0,0,0-.176.355c-.01.2.12.254.1.379-.036.18-.358.31-.64.316-.252.006-.424-.1-1.036-.5a4.641,4.641,0,0,1-.6-.671,1.008,1.008,0,0,0,.051-.119,1.636,1.636,0,0,0,.125-.635A5.455,5.455,0,0,1,312.938,665.858Zm-4.424,3.344c0,.091-.015.321.1.39.1.057.2-.055.439-.062.262,0,.337.126.472.062s.082-.213.245-.328a.537.537,0,0,1,.393-.071c.193.045.216.187.341.2.184.014.4-.252.483-.523.074-.236.018-.432-.2-1.124a4.6,4.6,0,0,0-.488-.751c-.046.008-.089.011-.13.016a1.651,1.651,0,0,1-.651-.054A5.283,5.283,0,0,0,308.514,669.2Z" transform="translate(-6.472 72.87)" fill="#fff"/>
    <path id="Path_51802" data-name="Path 51802" d="M298.071,665.187a.651.651,0,0,1,.067.926.672.672,0,0,1-.932.116.652.652,0,0,1-.068-.926A.671.671,0,0,1,298.071,665.187Zm-21-1.4c-.052-.072-.184-.246-.319-.227-.114.017-.11.16-.293.311s-.331.111-.392.24.07.209.02.392a.5.5,0,0,1-.25.289c-.172.084-.275-.008-.377.062-.15.1-.142.433-.037.679.094.222.252.331.845.71a4.606,4.606,0,0,0,.83.259l.087-.09a1.631,1.631,0,0,1,.52-.353A5.035,5.035,0,0,0,277.066,663.79Z" transform="translate(5.831 73.71)" fill="#f7bd5a"/>
    <path id="Path_51803" data-name="Path 51803" d="M281.935,666.27c.068-.055.238-.2.211-.328-.026-.109-.166-.1-.331-.266-.172-.179-.133-.32-.265-.371s-.205.08-.4.045a.5.5,0,0,1-.308-.227c-.092-.165-.006-.272-.083-.366-.108-.142-.447-.113-.691.008-.218.111-.321.269-.672.878a4.562,4.562,0,0,0-.215.834c.033.027.065.055.1.079a1.576,1.576,0,0,1,.387.488A5.2,5.2,0,0,0,281.935,666.27Z" transform="translate(4.405 73.301)" fill="#f7bd5a"/>
    <path id="Path_51804" data-name="Path 51804" d="M279.991,669.761c.053.072.179.249.119.369-.053.1-.186.056-.388.177s-.211.279-.351.294-.181-.128-.371-.139a.5.5,0,0,0-.355.146c-.135.136-.076.261-.174.334-.142.108-.459,0-.664-.173-.184-.155-.239-.338-.427-1.01a4.069,4.069,0,0,1,0-.859c.04-.015.077-.038.113-.054a1.582,1.582,0,0,0,.5-.381A5.089,5.089,0,0,1,279.991,669.761Zm-5.34-.358c-.065.062-.221.222-.176.349.036.1.177.081.356.231s.164.3.3.341.2-.1.389-.084a.489.489,0,0,1,.328.2c.108.153.036.267.12.356.123.125.454.067.684-.076.207-.129.292-.3.579-.939a4.147,4.147,0,0,0,.132-.85c-.037-.025-.07-.046-.1-.07a1.594,1.594,0,0,1-.434-.448A5.231,5.231,0,0,0,274.651,669.4Z" transform="translate(6.155 71.917)" fill="#f7bd5a"/>
    <path id="Path_51805" data-name="Path 51805" d="M279.375,665.315a.658.658,0,1,1-.746-.5A.636.636,0,0,1,279.375,665.315Zm37.232-4.662c-.048-.072-.176-.252-.31-.238-.117.014-.116.155-.3.3-.2.152-.333.1-.4.225s.061.21.006.392a.48.48,0,0,1-.259.28c-.173.074-.274-.017-.377.048-.15.091-.155.429-.061.678.087.222.24.338.815.74a4.15,4.15,0,0,0,.817.29c.031-.029.061-.06.09-.087a1.532,1.532,0,0,1,.53-.333A5.031,5.031,0,0,0,316.606,660.653Z" transform="translate(4.818 74.877)" fill="#fff"/>
    <path id="Path_51806" data-name="Path 51806" d="M343.037,663.31c.069-.053.247-.189.222-.321-.021-.114-.165-.1-.32-.278s-.12-.323-.25-.379-.209.074-.4.031a.5.5,0,0,1-.3-.238c-.089-.165,0-.268-.07-.369-.107-.142-.439-.127-.688-.017-.222.1-.326.257-.7.853a4.188,4.188,0,0,0-.243.825,1.239,1.239,0,0,1,.093.083,1.568,1.568,0,0,1,.368.5A5.169,5.169,0,0,0,343.037,663.31Z" transform="translate(-18.261 74.418)" fill="#fff"/>
    <path id="Path_51807" data-name="Path 51807" d="M340.988,666.747c.048.07.174.255.106.374-.055.1-.191.046-.393.163-.217.125-.216.271-.359.281s-.172-.137-.364-.152a.512.512,0,0,0-.359.131c-.137.128-.087.257-.185.328-.144.1-.455-.014-.655-.2-.176-.164-.23-.347-.388-1.026a4.382,4.382,0,0,1,.035-.859,1.207,1.207,0,0,0,.115-.05,1.524,1.524,0,0,0,.51-.362A5.124,5.124,0,0,1,340.988,666.747Zm-5.3-.554c-.065.062-.227.212-.187.342.034.109.174.086.347.244s.153.31.288.352.2-.094.389-.07a.515.515,0,0,1,.32.207c.1.159.026.271.107.36.118.133.447.084.684-.05.208-.122.3-.287.61-.916a4.355,4.355,0,0,0,.16-.845c-.034-.025-.069-.048-.1-.074a1.612,1.612,0,0,1-.416-.464A5.165,5.165,0,0,0,335.687,666.193Z" transform="translate(-16.48 73.078)" fill="#fff"/>
    <path id="Path_51808" data-name="Path 51808" d="M340.456,664.831a.654.654,0,1,1-.725-.529A.634.634,0,0,1,340.456,664.831Z" transform="translate(-17.839 73.438)" fill="#f7bd5a"/>
    <path id="Path_51809" data-name="Path 51809" d="M394.449,654.967c-.092-.024-.31-.082-.409.02-.081.087.016.2-.033.438-.053.255-.2.3-.162.444s.194.126.273.306a.5.5,0,0,1-.014.394c-.084.176-.228.172-.265.29-.055.175.167.44.415.576.222.12.418.108,1.152.04a4.535,4.535,0,0,0,.845-.316c0-.047.008-.089.012-.128a1.6,1.6,0,0,1,.193-.618A5.317,5.317,0,0,0,394.449,654.967Z" transform="translate(-38.117 76.911)" fill="#fff"/>
    <path id="Path_51810" data-name="Path 51810" d="M399.917,653.862c.018-.091.065-.313-.043-.4-.091-.074-.2.028-.445-.006-.259-.035-.317-.176-.458-.132s-.115.2-.294.289a.536.536,0,0,1-.4.011c-.184-.074-.183-.214-.309-.244-.176-.039-.434.194-.557.446-.108.227-.083.423.03,1.141a4.367,4.367,0,0,0,.371.815c.047,0,.089,0,.13,0a1.574,1.574,0,0,1,.635.15A5.381,5.381,0,0,0,399.917,653.862Z" transform="translate(-39.42 77.511)" fill="#fff"/>
    <path id="Path_51811" data-name="Path 51811" d="M400.666,657.067c.091.023.31.091.338.225.026.118-.121.162-.2.391-.088.245.009.359-.094.463s-.23.008-.393.123a.512.512,0,0,0-.2.345c-.021.194.105.262.076.383-.046.175-.372.293-.656.282-.253-.011-.416-.122-1.007-.552a4.617,4.617,0,0,1-.558-.7c.021-.041.04-.076.057-.116a1.652,1.652,0,0,0,.159-.627A5.4,5.4,0,0,1,400.666,657.067Zm-4.585,3.107c-.009.09-.033.318.084.395.1.066.2-.049.441-.038.259.008.332.147.467.087s.092-.209.262-.315a.534.534,0,0,1,.4-.05c.191.055.206.2.33.214.182.025.414-.233.508-.5.086-.237.042-.429-.139-1.133a4.455,4.455,0,0,0-.449-.775c-.044,0-.087.009-.13.009a1.658,1.658,0,0,1-.647-.088A5.272,5.272,0,0,0,396.081,660.174Z" transform="translate(-38.949 76.141)" fill="#fff"/>
    <path id="Path_51812" data-name="Path 51812" d="M386.775,655.007a.655.655,0,0,1,.018.928.671.671,0,0,1-.935.067.652.652,0,0,1-.02-.929A.67.67,0,0,1,386.775,655.007Zm-19.445-3.4c-.048-.072-.173-.257-.307-.243-.114.011-.121.156-.308.3-.2.152-.339.092-.4.218s.057.216,0,.393a.5.5,0,0,1-.265.276c-.176.075-.272-.023-.379.042-.151.093-.166.419-.074.676.084.225.235.345.8.755a4.224,4.224,0,0,0,.813.3c.03-.032.062-.057.092-.085a1.542,1.542,0,0,1,.538-.324A5.038,5.038,0,0,0,367.33,651.6Z" transform="translate(-27.622 78.235)" fill="#f7bd5a"/>
    <path id="Path_51813" data-name="Path 51813" d="M372.046,654.34c.07-.052.252-.187.228-.316-.019-.112-.162-.106-.316-.284s-.114-.325-.243-.384-.213.074-.4.023a.507.507,0,0,1-.3-.243c-.083-.167.008-.271-.063-.37-.1-.145-.438-.14-.689-.029-.226.095-.335.251-.717.84a4.4,4.4,0,0,0-.259.821c.034.026.062.059.091.084a1.537,1.537,0,0,1,.36.508A5.221,5.221,0,0,0,372.046,654.34Z" transform="translate(-29.017 77.755)" fill="#f7bd5a"/>
    <path id="Path_51814" data-name="Path 51814" d="M369.936,657.752c.047.074.167.259.1.376-.055.1-.191.045-.4.156-.221.122-.223.265-.366.274s-.171-.14-.362-.158a.5.5,0,0,0-.362.126c-.14.13-.089.254-.191.325-.147.1-.457-.022-.654-.209-.176-.167-.22-.35-.371-1.032a4.469,4.469,0,0,1,.051-.858c.04-.016.078-.031.115-.048a1.627,1.627,0,0,0,.519-.352A5.166,5.166,0,0,1,369.936,657.752Zm-5.306-.647c-.065.06-.23.209-.193.339.028.107.173.089.343.25s.146.313.282.357.2-.09.393-.064a.5.5,0,0,1,.316.213c.1.159.022.271.1.362.113.131.45.092.686-.038.215-.118.308-.283.628-.906a4.176,4.176,0,0,0,.176-.841c-.037-.026-.067-.049-.1-.076a1.6,1.6,0,0,1-.409-.471A5.217,5.217,0,0,0,364.63,657.105Z" transform="translate(-27.213 76.435)" fill="#f7bd5a"/>
    <path id="Path_51815" data-name="Path 51815" d="M369.444,655.022a.657.657,0,1,1-.717-.541A.636.636,0,0,1,369.444,655.022Zm33.7-1.629c-.045-.076-.16-.266-.3-.254-.115.007-.125.15-.316.284s-.342.082-.41.2.051.215-.014.392a.5.5,0,0,1-.273.267c-.179.071-.274-.033-.378.029-.155.087-.179.417-.095.674.075.231.221.349.776.781a4.443,4.443,0,0,0,.8.331c.036-.03.064-.057.094-.082a1.669,1.669,0,0,1,.545-.306A5.063,5.063,0,0,0,403.141,653.392Z" transform="translate(-28.588 77.576)" fill="#fff"/>
    <path id="Path_51816" data-name="Path 51816" d="M427.3,656.281c.074-.048.255-.178.237-.309-.014-.112-.159-.111-.306-.294s-.1-.328-.23-.391-.214.063-.4.01a.514.514,0,0,1-.286-.252c-.079-.172.016-.269-.051-.372-.1-.149-.431-.152-.685-.052-.226.089-.341.24-.741.816a4.478,4.478,0,0,0-.284.812c.032.031.06.057.088.087a1.511,1.511,0,0,1,.342.52A5.214,5.214,0,0,0,427.3,656.281Z" transform="translate(-49.515 77.052)" fill="#fff"/>
    <path id="Path_51817" data-name="Path 51817" d="M425.1,659.641c.044.076.159.267.086.379-.06.095-.191.038-.4.143-.226.111-.229.256-.372.262s-.168-.143-.355-.171a.519.519,0,0,0-.364.114c-.143.122-.1.252-.2.318-.15.1-.456-.038-.644-.23-.166-.174-.211-.356-.335-1.044a4.331,4.331,0,0,1,.077-.856c.04-.015.082-.03.117-.044a1.58,1.58,0,0,0,.528-.335A5.17,5.17,0,0,1,425.1,659.641Zm-5.259-.821c-.066.057-.236.2-.2.331.026.113.169.094.334.261s.137.316.269.366.2-.082.393-.05a.51.51,0,0,1,.309.223c.095.163.011.272.088.365.109.137.443.108.684-.015.214-.109.314-.273.654-.885a4.52,4.52,0,0,0,.2-.835c-.034-.026-.065-.05-.1-.079a1.546,1.546,0,0,1-.391-.484A5.2,5.2,0,0,0,419.841,658.82Z" transform="translate(-47.688 75.772)" fill="#fff"/>
    <path id="Path_51818" data-name="Path 51818" d="M424.684,657.651a.653.653,0,1,1-.7-.566A.635.635,0,0,1,424.684,657.651Z" transform="translate(-49.078 76.112)" fill="#f7bd5a"/>
    <path id="Path_51819" data-name="Path 51819" d="M478.993,650.517c-.089-.028-.307-.1-.408,0-.083.079.006.2-.055.435-.064.252-.212.293-.184.435s.188.135.257.319a.531.531,0,0,1-.033.394c-.1.175-.235.157-.28.276-.063.173.146.45.384.6.216.13.415.13,1.147.1a4.555,4.555,0,0,0,.859-.274c.006-.046.013-.085.019-.127a1.614,1.614,0,0,1,.223-.607A5.329,5.329,0,0,0,478.993,650.517Z" transform="translate(-69.439 78.567)" fill="#fff"/>
    <path id="Path_51820" data-name="Path 51820" d="M484.536,649.726c.023-.087.082-.311-.023-.4-.087-.079-.2.019-.443-.028-.259-.044-.308-.194-.451-.155s-.125.194-.307.274a.551.551,0,0,1-.4-.009c-.179-.081-.173-.226-.3-.259-.179-.053-.445.169-.579.418-.118.219-.1.417-.028,1.141a4.6,4.6,0,0,0,.33.832c.043,0,.09.005.13.01a1.676,1.676,0,0,1,.626.182A5.308,5.308,0,0,0,484.536,649.726Z" transform="translate(-70.802 79.062)" fill="#fff"/>
    <path id="Path_51821" data-name="Path 51821" d="M485.049,653.03c.089.029.3.107.327.242.016.117-.124.159-.221.381-.1.24-.008.359-.118.457s-.23,0-.4.1a.523.523,0,0,0-.211.334c-.031.19.094.265.056.388-.053.175-.386.276-.667.248-.248-.023-.409-.142-.976-.6a4.462,4.462,0,0,1-.522-.729c.02-.04.041-.074.062-.113a1.651,1.651,0,0,0,.19-.618A5.425,5.425,0,0,1,485.049,653.03Zm-4.731,2.871c-.017.089-.051.315.064.4.1.068.2-.038.442-.016.26.021.325.163.462.11s.1-.2.277-.3a.535.535,0,0,1,.4-.03c.182.065.194.206.318.23.179.037.427-.216.532-.471.1-.232.065-.425-.082-1.139a4.479,4.479,0,0,0-.408-.8c-.045,0-.091,0-.13,0a1.616,1.616,0,0,1-.64-.121A5.266,5.266,0,0,0,480.318,655.9Z" transform="translate(-70.189 77.653)" fill="#fff"/>
    <path id="Path_51822" data-name="Path 51822" d="M471.346,650.2a.653.653,0,0,1-.028.929.667.667,0,0,1-.936.019.655.655,0,0,1,.028-.929A.665.665,0,0,1,471.346,650.2Zm-19.226-4.381c-.043-.076-.156-.267-.293-.258-.115.009-.128.148-.322.279s-.342.075-.415.2.047.212-.021.391a.545.545,0,0,1-.279.262c-.179.064-.271-.036-.38.022-.159.084-.189.415-.108.672.07.23.216.357.764.795a4.558,4.558,0,0,0,.8.345,1.051,1.051,0,0,1,.1-.081,1.613,1.613,0,0,1,.553-.3A5.078,5.078,0,0,0,452.121,645.822Z" transform="translate(-59.047 80.386)" fill="#f7bd5a"/>
    <path id="Path_51823" data-name="Path 51823" d="M456.684,648.79c.074-.048.259-.172.244-.305-.014-.111-.158-.117-.3-.3-.152-.2-.1-.332-.224-.4s-.213.06-.4,0a.5.5,0,0,1-.282-.257c-.076-.176.021-.27-.045-.373-.1-.148-.429-.157-.686-.064-.23.084-.345.233-.758.8a4.369,4.369,0,0,0-.3.807c.029.028.061.061.087.089a1.588,1.588,0,0,1,.333.526A5.243,5.243,0,0,0,456.684,648.79Z" transform="translate(-60.41 79.838)" fill="#f7bd5a"/>
    <path id="Path_51824" data-name="Path 51824" d="M454.424,652.12c.044.078.154.267.08.38-.061.1-.194.037-.4.135-.228.109-.237.255-.378.255s-.162-.15-.354-.177a.523.523,0,0,0-.367.108c-.145.118-.1.252-.207.315-.15.091-.457-.045-.641-.242-.164-.172-.2-.36-.318-1.05a4.2,4.2,0,0,1,.093-.854.935.935,0,0,0,.118-.042,1.631,1.631,0,0,0,.535-.326A5.147,5.147,0,0,1,454.424,652.12Zm-5.26-.913c-.069.054-.24.2-.211.328.024.113.171.1.33.267.175.18.128.32.263.371s.209-.08.394-.043a.514.514,0,0,1,.306.228c.093.164.007.269.082.366.109.139.444.115.687,0,.218-.108.32-.266.672-.873a4.538,4.538,0,0,0,.219-.832c-.035-.028-.065-.052-.1-.081a1.571,1.571,0,0,1-.384-.491A5.265,5.265,0,0,0,449.164,651.207Z" transform="translate(-58.562 78.582)" fill="#f7bd5a"/>
    <path id="Path_51825" data-name="Path 51825" d="M454.046,649.895a.655.655,0,1,1-.688-.578A.633.633,0,0,1,454.046,649.895Zm33.681-.669c-.044-.076-.148-.272-.284-.267-.114,0-.131.142-.33.268s-.343.066-.419.184.041.217-.034.391a.516.516,0,0,1-.286.253c-.18.058-.269-.045-.379.01-.157.081-.2.41-.13.667.063.232.208.361.736.818a4.31,4.31,0,0,0,.782.371.877.877,0,0,1,.1-.077,1.567,1.567,0,0,1,.56-.279A5,5,0,0,0,487.728,649.225Z" transform="translate(-59.967 79.126)" fill="#fff"/>
    <path id="Path_51826" data-name="Path 51826" d="M511.685,652.337c.075-.043.263-.165.253-.3-.01-.113-.153-.12-.29-.309s-.087-.338-.211-.4-.214.054-.4-.01a.509.509,0,0,1-.272-.266c-.069-.172.028-.271-.033-.374-.09-.151-.425-.171-.681-.086-.23.077-.35.224-.781.778a4.486,4.486,0,0,0-.325.8c.031.032.059.065.084.092a1.584,1.584,0,0,1,.315.536A5.235,5.235,0,0,0,511.685,652.337Z" transform="translate(-80.815 78.538)" fill="#fff"/>
    <path id="Path_51827" data-name="Path 51827" d="M509.338,655.61c.042.077.145.274.067.382-.065.092-.193.028-.406.123s-.241.246-.385.243-.163-.154-.347-.189a.517.517,0,0,0-.369.1c-.15.113-.113.247-.217.308-.151.089-.45-.06-.631-.262-.161-.18-.193-.365-.282-1.06a4.359,4.359,0,0,1,.12-.851c.043-.012.084-.024.119-.038a1.553,1.553,0,0,0,.544-.308A5.056,5.056,0,0,1,509.338,655.61Zm-5.209-1.085c-.07.054-.245.189-.22.321.02.111.162.106.32.277s.12.323.25.379.208-.073.394-.03a.5.5,0,0,1,.3.238c.09.169,0,.268.07.369.105.142.437.128.684.02.221-.1.327-.257.7-.851a4.3,4.3,0,0,0,.245-.824c-.029-.027-.064-.056-.092-.083a1.551,1.551,0,0,1-.367-.5A5.186,5.186,0,0,0,504.129,654.526Z" transform="translate(-78.944 77.325)" fill="#fff"/>
    <path id="Path_51828" data-name="Path 51828" d="M509.036,653.551a.653.653,0,1,1-.666-.6A.633.633,0,0,1,509.036,653.551Z" transform="translate(-80.364 77.645)" fill="#f7bd5a"/>
    <path id="Path_51829" data-name="Path 51829" d="M563.6,649.158c-.087-.032-.3-.115-.408-.021-.086.081-.005.2-.077.432-.081.248-.227.282-.206.426s.179.145.241.331a.53.53,0,0,1-.053.391c-.1.165-.244.145-.294.262-.073.17.124.456.354.614.206.141.406.154,1.141.157a4.913,4.913,0,0,0,.871-.23c.008-.043.015-.086.025-.126a1.6,1.6,0,0,1,.254-.6A5.317,5.317,0,0,0,563.6,649.158Z" transform="translate(-100.783 79.076)" fill="#fff"/>
    <path id="Path_51830" data-name="Path 51830" d="M569.206,648.655c.03-.086.1-.307,0-.4-.083-.084-.205.006-.442-.05-.255-.06-.3-.208-.442-.177s-.134.186-.321.257a.546.546,0,0,1-.4-.029c-.177-.089-.159-.231-.282-.274-.174-.063-.452.15-.6.388-.129.212-.128.414-.086,1.138a4.486,4.486,0,0,0,.287.848l.128.016a1.7,1.7,0,0,1,.617.213A5.386,5.386,0,0,0,569.206,648.655Z" transform="translate(-102.201 79.494)" fill="#fff"/>
    <path id="Path_51831" data-name="Path 51831" d="M569.485,652.065c.087.033.3.119.314.259.01.118-.135.15-.24.369s-.025.362-.14.45-.233-.018-.4.082a.509.509,0,0,0-.228.323c-.041.194.078.265.037.389-.061.172-.4.256-.679.214-.249-.035-.4-.164-.946-.651a4.582,4.582,0,0,1-.484-.755c.025-.038.046-.075.069-.109a1.6,1.6,0,0,0,.22-.608A5.461,5.461,0,0,1,569.485,652.065Zm-4.872,2.63c-.019.092-.067.314.044.4.094.07.2-.026.442.006.259.035.315.176.456.133s.115-.2.292-.287a.527.527,0,0,1,.4-.01c.183.074.184.213.306.245.179.044.438-.192.555-.444.109-.225.085-.422-.025-1.141a4.6,4.6,0,0,0-.367-.817c-.045,0-.088,0-.13,0a1.677,1.677,0,0,1-.634-.154A5.323,5.323,0,0,0,564.613,654.694Z" transform="translate(-101.451 78.033)" fill="#fff"/>
    <path id="Path_51832" data-name="Path 51832" d="M555.985,648.054a.653.653,0,0,1-.076.925.667.667,0,0,1-.937-.028.654.654,0,0,1,.074-.925A.67.67,0,0,1,555.985,648.054ZM537,641.968c-.04-.079-.147-.272-.281-.272-.116,0-.133.145-.336.262s-.345.059-.424.175.037.217-.041.391a.51.51,0,0,1-.292.247c-.181.056-.269-.048-.381,0-.16.075-.207.4-.141.665.057.233.2.364.724.832a4.71,4.71,0,0,0,.778.385c.033-.027.069-.054.1-.076a1.579,1.579,0,0,1,.568-.268A5.048,5.048,0,0,0,537,641.968Z" transform="translate(-90.505 81.819)" fill="#f7bd5a"/>
    <path id="Path_51833" data-name="Path 51833" d="M541.4,645.156c.077-.046.268-.156.259-.292-.008-.112-.147-.121-.286-.314s-.081-.338-.2-.407-.216.048-.4-.016a.5.5,0,0,1-.268-.272c-.065-.175.033-.268-.026-.375-.088-.152-.42-.181-.683-.1-.231.072-.357.215-.8.764a4.683,4.683,0,0,0-.34.791c.029.031.057.064.082.093a1.565,1.565,0,0,1,.308.542A5.226,5.226,0,0,0,541.4,645.156Z" transform="translate(-91.835 81.211)" fill="#f7bd5a"/>
    <path id="Path_51834" data-name="Path 51834" d="M538.995,648.4c.04.078.139.276.06.383-.066.092-.193.024-.41.115s-.248.241-.391.236-.157-.156-.344-.194a.511.511,0,0,0-.372.089c-.153.115-.114.248-.223.3-.154.085-.452-.069-.629-.274-.155-.181-.188-.371-.264-1.064a4.357,4.357,0,0,1,.136-.849,1.22,1.22,0,0,0,.12-.036,1.6,1.6,0,0,0,.552-.3A5.157,5.157,0,0,1,538.995,648.4Zm-5.211-1.178c-.072.05-.248.186-.227.318.02.111.164.106.316.283s.115.323.244.384.209-.068.4-.023a.524.524,0,0,1,.294.243c.084.169-.009.272.064.371.1.144.437.136.686.031.221-.094.333-.25.716-.837a4.448,4.448,0,0,0,.26-.82l-.091-.084a1.578,1.578,0,0,1-.359-.51A5.15,5.15,0,0,0,533.784,647.221Z" transform="translate(-89.941 80.02)" fill="#f7bd5a"/>
    <path id="Path_51835" data-name="Path 51835" d="M538.733,646.316a.656.656,0,1,1-.659-.611A.634.634,0,0,1,538.733,646.316Zm34.434,1.792c-.035-.077-.133-.28-.27-.282-.115,0-.138.136-.343.251-.222.123-.345.047-.428.162s.03.22-.053.388a.51.51,0,0,1-.3.238c-.186.049-.263-.057-.38-.01-.16.069-.218.4-.163.661.048.23.182.371.693.856a4.673,4.673,0,0,0,.762.41.939.939,0,0,1,.1-.072,1.591,1.591,0,0,1,.574-.25A5.034,5.034,0,0,0,573.167,648.107Z" transform="translate(-91.376 80.333)" fill="#fff"/>
    <path id="Path_51836" data-name="Path 51836" d="M597.368,652.685c.077-.044.274-.149.267-.284,0-.111-.149-.129-.274-.323s-.069-.337-.19-.413-.218.044-.4-.031a.482.482,0,0,1-.258-.28c-.061-.177.045-.268-.014-.376-.081-.159-.414-.193-.676-.121-.235.065-.366.205-.821.737a4.319,4.319,0,0,0-.365.779c.027.031.054.066.079.1a1.541,1.541,0,0,1,.288.552A5.2,5.2,0,0,0,597.368,652.685Z" transform="translate(-112.6 78.436)" fill="#fff"/>
    <path id="Path_51837" data-name="Path 51837" d="M594.874,655.865c.037.079.131.282.048.386-.071.085-.194.02-.413.1-.238.092-.257.231-.4.223s-.155-.161-.337-.206a.492.492,0,0,0-.374.077c-.155.11-.126.242-.233.3-.156.08-.45-.084-.617-.294-.151-.187-.176-.374-.228-1.073a4.391,4.391,0,0,1,.164-.844,1.19,1.19,0,0,0,.121-.032,1.592,1.592,0,0,0,.559-.28A5.136,5.136,0,0,1,594.874,655.865Zm-5.15-1.35c-.072.05-.255.177-.237.309.016.111.16.11.305.294s.1.33.23.391.213-.062.4-.009a.492.492,0,0,1,.284.253c.08.171-.015.273.051.372.1.148.428.154.683.054.223-.086.339-.24.74-.813a4.227,4.227,0,0,0,.287-.81c-.029-.033-.058-.056-.087-.089a1.543,1.543,0,0,1-.341-.521A5.175,5.175,0,0,0,589.724,654.515Z" transform="translate(-110.687 77.287)" fill="#fff"/>
    <path id="Path_51838" data-name="Path 51838" d="M594.688,653.74a.653.653,0,1,1-.635-.633A.632.632,0,0,1,594.688,653.74Z" transform="translate(-112.133 77.588)" fill="#f7bd5a"/>
    <path id="Path_51839" data-name="Path 51839" d="M649.4,652.14c-.087-.039-.3-.132-.406-.042-.092.077-.016.2-.1.428-.09.242-.243.267-.227.415s.173.152.223.344a.521.521,0,0,1-.073.388c-.109.162-.252.132-.307.246-.079.167.1.46.323.631.2.152.4.169,1.133.214a4.57,4.57,0,0,0,.883-.185c.01-.041.02-.086.031-.125a1.644,1.644,0,0,1,.284-.581A5.3,5.3,0,0,0,649.4,652.14Z" transform="translate(-132.57 77.976)" fill="#fff"/>
    <path id="Path_51840" data-name="Path 51840" d="M655.057,651.928c.035-.087.112-.3.018-.4-.081-.087-.2,0-.438-.073-.252-.074-.284-.223-.433-.2s-.145.18-.334.242a.53.53,0,0,1-.4-.05c-.171-.1-.15-.24-.269-.288-.169-.07-.459.125-.618.357-.14.208-.15.4-.144,1.132a4.4,4.4,0,0,0,.244.861c.043.008.089.014.128.023a1.567,1.567,0,0,1,.605.245A5.4,5.4,0,0,0,655.057,651.928Z" transform="translate(-134.037 78.316)" fill="#fff"/>
    <path id="Path_51841" data-name="Path 51841" d="M655.1,655.426c.086.036.294.135.3.274.006.115-.142.145-.258.357-.125.228-.048.355-.164.443s-.23-.028-.408.062a.516.516,0,0,0-.245.311c-.045.191.065.273.017.391-.07.169-.413.235-.69.179-.245-.049-.394-.182-.912-.7a4.545,4.545,0,0,1-.445-.779c.027-.038.053-.07.074-.106a1.644,1.644,0,0,0,.252-.6A5.4,5.4,0,0,1,655.1,655.426Zm-5,2.376c-.022.089-.081.312.023.4.088.08.2-.018.442.03.257.047.305.191.449.157s.126-.192.306-.272a.542.542,0,0,1,.4.011c.18.082.172.226.293.26.176.052.444-.169.578-.414.118-.22.108-.416.034-1.141A4.434,4.434,0,0,0,652.3,656c-.045,0-.09-.006-.129-.011a1.582,1.582,0,0,1-.626-.186A5.294,5.294,0,0,0,650.1,657.8Z" transform="translate(-133.155 76.818)" fill="#fff"/>
    <path id="Path_51842" data-name="Path 51842" d="M641.472,649.351a.652.652,0,0,1-.122.921.671.671,0,0,1-.936-.077.653.653,0,0,1,.121-.92A.673.673,0,0,1,641.472,649.351Zm-19.321-9.306c-.037-.079-.131-.284-.267-.286-.114-.005-.142.135-.35.245s-.351.042-.434.155.026.218-.06.388a.509.509,0,0,1-.3.233c-.189.046-.267-.063-.382-.016-.164.069-.229.394-.175.657.048.238.179.374.683.868a4.463,4.463,0,0,0,.76.423l.1-.07a1.587,1.587,0,0,1,.582-.239A5.013,5.013,0,0,0,622.151,640.045Z" transform="translate(-122.063 82.538)" fill="#f7bd5a"/>
    <path id="Path_51843" data-name="Path 51843" d="M626.4,643.444c.078-.042.277-.143.274-.279,0-.111-.145-.13-.271-.328s-.063-.342-.184-.416-.218.037-.4-.037a.512.512,0,0,1-.255-.285c-.058-.178.047-.267-.007-.375-.078-.159-.413-.2-.679-.133-.237.058-.368.2-.838.722a4.546,4.546,0,0,0-.381.773c.028.034.055.065.078.1a1.6,1.6,0,0,1,.28.557A5.273,5.273,0,0,0,626.4,643.444Z" transform="translate(-123.363 81.87)" fill="#f7bd5a"/>
    <path id="Path_51844" data-name="Path 51844" d="M623.844,646.592c.036.08.124.283.042.386s-.2.015-.417.095c-.24.085-.262.228-.4.216s-.148-.168-.335-.211a.5.5,0,0,0-.377.07c-.159.1-.13.238-.239.292-.161.074-.45-.095-.616-.306-.147-.192-.167-.376-.211-1.076a4.266,4.266,0,0,1,.179-.84c.041-.01.081-.018.122-.03a1.64,1.64,0,0,0,.567-.271A5.16,5.16,0,0,1,623.844,646.592Zm-5.159-1.439c-.077.048-.257.173-.243.306.012.113.159.113.3.3s.1.328.225.4.214-.06.4,0a.523.523,0,0,1,.282.259c.075.174-.02.269.045.373.1.15.429.159.686.065.225-.084.345-.232.759-.8a4.5,4.5,0,0,0,.3-.805c-.031-.029-.061-.06-.087-.089a1.662,1.662,0,0,1-.334-.527A5.215,5.215,0,0,0,618.685,645.153Z" transform="translate(-121.426 80.745)" fill="#f7bd5a"/>
    <path id="Path_51845" data-name="Path 51845" d="M623.7,644.444a.658.658,0,1,1-.628-.644A.635.635,0,0,1,623.7,644.444Zm34.922,6.549c-.033-.083-.12-.284-.255-.3-.111-.01-.145.126-.355.233s-.348.03-.437.14.018.219-.074.385a.513.513,0,0,1-.311.222c-.184.041-.265-.074-.378-.03-.165.065-.24.386-.2.651.039.237.164.38.649.89a4.569,4.569,0,0,0,.74.449c.038-.026.07-.045.105-.067a1.572,1.572,0,0,1,.586-.219A5.053,5.053,0,0,0,658.617,650.993Z" transform="translate(-122.889 81.039)" fill="#fff"/>
    <path id="Path_51846" data-name="Path 51846" d="M682.9,658.594c.079-.039.279-.136.282-.27,0-.114-.137-.133-.257-.337s-.051-.338-.169-.421-.218.029-.393-.051a.494.494,0,0,1-.243-.293c-.055-.182.056-.264.006-.375-.072-.159-.4-.215-.67-.156-.238.05-.374.187-.857.694a4.271,4.271,0,0,0-.4.759l.074.1a1.53,1.53,0,0,1,.259.566A5.175,5.175,0,0,0,682.9,658.594Z" transform="translate(-144.328 76.267)" fill="#fff"/>
    <path id="Path_51847" data-name="Path 51847" d="M680.261,661.673c.032.08.119.289.028.387-.072.084-.2.01-.417.08-.237.077-.271.222-.408.2s-.14-.169-.326-.223a.522.522,0,0,0-.377.057c-.162.1-.137.233-.247.284-.16.071-.442-.109-.6-.326-.142-.2-.154-.386-.172-1.083a4.256,4.256,0,0,1,.206-.834c.042-.005.086-.018.122-.026a1.6,1.6,0,0,0,.573-.251A5.087,5.087,0,0,1,680.261,661.673Zm-5.076-1.612c-.077.045-.262.162-.252.3.01.113.154.123.29.309s.089.339.209.4.213-.052.4.01a.5.5,0,0,1,.271.267c.07.174-.026.269.032.374.09.154.42.172.679.089.225-.075.356-.218.781-.774a4.371,4.371,0,0,0,.328-.8c-.029-.033-.055-.062-.084-.092a1.579,1.579,0,0,1-.314-.538A5.233,5.233,0,0,0,675.185,660.061Z" transform="translate(-142.379 75.188)" fill="#fff"/>
    <path id="Path_51848" data-name="Path 51848" d="M680.192,659.487a.654.654,0,1,1-.6-.664A.633.633,0,0,1,680.192,659.487Z" transform="translate(-143.847 75.469)" fill="#f7bd5a"/>
    <path id="Path_51849" data-name="Path 51849" d="M734.906,660.691c-.082-.042-.293-.145-.4-.063s-.025.2-.121.422-.254.257-.248.4.164.162.206.355a.519.519,0,0,1-.092.384c-.123.155-.259.12-.32.23-.089.16.073.469.29.647.192.16.391.191,1.121.272a4.657,4.657,0,0,0,.893-.139c.011-.047.028-.081.038-.123a1.624,1.624,0,0,1,.313-.566A5.358,5.358,0,0,0,734.906,660.691Z" transform="translate(-164.251 74.81)" fill="#fff"/>
    <path id="Path_51850" data-name="Path 51850" d="M740.587,660.772c.035-.084.129-.3.038-.4-.074-.09-.2-.013-.435-.1s-.277-.235-.423-.221-.154.172-.346.223a.534.534,0,0,1-.394-.07c-.166-.108-.138-.246-.253-.3-.165-.078-.467.1-.636.325-.15.2-.169.4-.2,1.124a4.618,4.618,0,0,0,.2.873c.044.01.088.016.128.03a1.673,1.673,0,0,1,.592.276A5.341,5.341,0,0,0,740.587,660.772Z" transform="translate(-165.747 75.073)" fill="#fff"/>
    <path id="Path_51851" data-name="Path 51851" d="M740.414,664.339c.082.041.288.15.287.289,0,.117-.147.138-.277.343-.135.223-.065.355-.186.434s-.228-.041-.411.041a.523.523,0,0,0-.26.3c-.057.184.052.28,0,.391-.079.166-.425.212-.7.143-.245-.06-.384-.2-.876-.744a4.469,4.469,0,0,1-.405-.8,1.213,1.213,0,0,0,.079-.1,1.566,1.566,0,0,0,.282-.582A5.35,5.35,0,0,1,740.414,664.339Zm-5.123,2.116c-.029.09-.1.305,0,.4.083.082.2-.005.439.052.254.064.294.206.441.179s.132-.185.321-.256a.555.555,0,0,1,.4.031c.173.092.159.237.279.276.173.062.452-.143.6-.384.131-.211.131-.41.092-1.137a4.435,4.435,0,0,0-.283-.85c-.044-.005-.086-.01-.129-.018a1.68,1.68,0,0,1-.616-.218A5.305,5.305,0,0,0,735.291,666.456Z" transform="translate(-164.748 73.551)" fill="#fff"/>
    <path id="Path_51852" data-name="Path 51852" d="M727.283,658.139a.651.651,0,0,1-.169.912.671.671,0,0,1-.931-.124.653.653,0,0,1,.169-.914A.669.669,0,0,1,727.283,658.139Zm-19.024-9.352c-.056-.07-.2-.233-.336-.205-.111.027-.1.165-.268.328s-.325.133-.374.264.086.2.048.39a.5.5,0,0,1-.228.3c-.167.094-.275.011-.371.086-.141.109-.111.439.013.679.11.215.277.315.9.655a4.425,4.425,0,0,0,.847.206c.025-.034.054-.065.081-.095a1.606,1.606,0,0,1,.494-.385A5.11,5.11,0,0,0,708.259,648.787Z" transform="translate(-154.138 79.267)" fill="#f7bd5a"/>
    <path id="Path_51853" data-name="Path 51853" d="M713.316,650.958c.065-.06.225-.211.187-.341-.031-.108-.175-.088-.351-.245s-.157-.308-.292-.352-.2.093-.393.07a.524.524,0,0,1-.324-.207c-.107-.158-.029-.271-.111-.36-.117-.129-.455-.081-.69.052-.208.12-.3.291-.606.918a4.056,4.056,0,0,0-.153.845c.037.026.071.05.1.073a1.565,1.565,0,0,1,.423.462A5.269,5.269,0,0,0,713.316,650.958Z" transform="translate(-155.603 78.944)" fill="#f7bd5a"/>
    <path id="Path_51854" data-name="Path 51854" d="M711.609,654.511c.055.068.2.24.145.362-.046.1-.181.067-.375.2s-.192.291-.329.315-.189-.119-.381-.116a.511.511,0,0,0-.344.168c-.124.142-.063.264-.15.345-.133.115-.461.03-.677-.131-.2-.144-.266-.322-.5-.981a4.166,4.166,0,0,1-.059-.857c.038-.019.077-.043.109-.061a1.588,1.588,0,0,0,.471-.411A5.226,5.226,0,0,1,711.609,654.511Zm-5.36-.018c-.058.067-.2.235-.15.359.046.1.183.069.372.208s.187.293.325.321.193-.113.382-.108a.5.5,0,0,1,.342.174c.123.144.055.267.145.347.13.119.457.039.678-.119.194-.139.271-.316.511-.972a4.409,4.409,0,0,0,.07-.857.969.969,0,0,1-.108-.063,1.592,1.592,0,0,1-.466-.419A5.141,5.141,0,0,0,706.249,654.494Z" transform="translate(-153.935 77.503)" fill="#f7bd5a"/>
    <path id="Path_51855" data-name="Path 51855" d="M710.827,652.769a.629.629,0,0,1-.5.745.646.646,0,0,1-.782-.453.632.632,0,0,1,.5-.745A.643.643,0,0,1,710.827,652.769Z" transform="translate(-155.213 77.888)" fill="#fff"/>
    <path id="Path_51856" data-name="Path 51856" d="M1001.026,634.683a13.034,13.034,0,0,1,14.539-11.567,13.384,13.384,0,0,1,7.116,2.988c2.631-10.581,15.424-17.612,29.754-15.585,11.356,1.6,20.251,8.419,23.2,16.606a6.46,6.46,0,0,1,1.943.023,6.561,6.561,0,0,1,5.287,7.671,6.785,6.785,0,0,1-2.932,4.507,9.839,9.839,0,0,1,4.3,9.663c-.891,5-5.78,8.376-11.274,8.122-.006.033-.011.065-.016.1q-30.133-5.039-60.539-8.32c0-.006,0-.013,0-.018A13.159,13.159,0,0,1,1001.026,634.683Z" transform="translate(-263.308 93.512)" fill="#346313"/>
    <path id="Path_51857" data-name="Path 51857" d="M1174.819,630.514c-5.062,9.808-10.586,19.694-16.3,29.2-.308.516-.617,1.025-.925,1.534s-.616,1-.925,1.5v.008a.589.589,0,0,1,.039.347.433.433,0,0,1-.069.162v.008a.615.615,0,0,1-.478.308c-.2.339-.408.678-.616,1.017v.008c-.508.825-1.024,1.641-1.533,2.458q-1.225,1.965-2.473,3.9-7.316-1.467-14.647-2.835c.016-.07.023-.147.039-.216a24.869,24.869,0,0,1-7.243-3.683,21.266,21.266,0,0,1-3.152-2.812,19.514,19.514,0,0,1-1.526-1.872,15.633,15.633,0,0,1-3.074-9.146,13.546,13.546,0,0,1,.185-2.219,14.4,14.4,0,0,1,5.432-8.93c4.638-3.706,11.626-5.424,18.992-4.029a25.373,25.373,0,0,1,12.32,5.956A22.872,22.872,0,0,1,1174.819,630.514Z" transform="translate(-308.173 85.967)" fill="#346313"/>
    <path id="Path_51858" data-name="Path 51858" d="M1157.543,670.833c.308-.509.616-1.017.925-1.534a4.062,4.062,0,0,0-1.187-.447,4.145,4.145,0,0,0-2.219.154,9.033,9.033,0,1,0-17.128-5.424.153.153,0,0,1-.008.054,6.136,6.136,0,0,0-2.828-1.333,6.016,6.016,0,0,0-5.91,2.3,5.543,5.543,0,0,0-.917,1.834,5.944,5.944,0,0,0-.154.64,5.744,5.744,0,0,0-.038,1.78v.008c.023.17.054.324.085.486-.116-.023-.223-.047-.332-.062-.031-.008-.069-.008-.1-.016-.008.054-.023.1-.031.154a3.856,3.856,0,0,0-1.078-.347,4.15,4.15,0,0,0-1.665.047,4.279,4.279,0,0,0-1.417.632,4.054,4.054,0,0,0-1.464,1.872,4.337,4.337,0,0,0-.208.762,4.069,4.069,0,0,0,2.543,4.492,3.5,3.5,0,0,0,.809.232,4.255,4.255,0,0,0,1.125.038,1.03,1.03,0,0,0-.031.154q12.182,2.137,24.309,4.577c.292-.447.586-.894.863-1.341q1.248-1.93,2.473-3.9c.508-.817,1.025-1.633,1.533-2.458v-.008c.208-.339.416-.678.616-1.017a.614.614,0,0,0,.478-.308v-.008a.443.443,0,0,0,.069-.162.583.583,0,0,0-.039-.347v-.008C1156.927,671.835,1157.235,671.342,1157.543,670.833Zm-5.171,1.572-.093-.023c.031-.023.062-.038.093-.061Z" transform="translate(-308.128 76.383)" fill="#b4ce5a"/>
    <path id="Path_51859" data-name="Path 51859" d="M1097.041,661.658v-.008a4.284,4.284,0,0,0-.57-.555,6.078,6.078,0,0,0-5.224-1.279,9.391,9.391,0,0,0-1.163-5.178,9.849,9.849,0,0,0-17.135-.108,4.148,4.148,0,0,0-3.875-.37,8.816,8.816,0,0,0,.562-2.018,9.065,9.065,0,0,0-17.953-2.519v.061a6.1,6.1,0,0,0-2.9-1.186,6,6,0,0,0-5.625,2.381,5.713,5.713,0,0,0-1.1,2.75,5.838,5.838,0,0,0,.17,2.265c-.147-.016-.293-.038-.439-.054-.008.054-.016.108-.023.154a4.564,4.564,0,0,0-1.095-.293,4.1,4.1,0,0,0-1.872.208,3.963,3.963,0,0,0-1.7,1.141.066.066,0,0,0-.039.039,3.829,3.829,0,0,0-.847,1.6,3.708,3.708,0,0,0-.116.57,4.021,4.021,0,0,0,.64,2.7,4.093,4.093,0,0,0,2.951,1.849,4.231,4.231,0,0,0,1.125-.023,1.194,1.194,0,0,0-.016.154l.717.092.724.092h.031l1.11.139q24.19,3.027,48.21,7.2a5.8,5.8,0,0,0,1.025.085,5.97,5.97,0,0,0,5.224-3.074,5.626,5.626,0,0,0,.655-1.826A5.843,5.843,0,0,0,1097.041,661.658Zm-30.48-4.045v.077a.393.393,0,0,0-.092-.016A.282.282,0,0,1,1066.561,657.613Z" transform="translate(-276.325 81.729)" fill="#9bb93b"/>
    <path id="Path_51860" data-name="Path 51860" d="M955.827,623.8c.965-9.372-8.053-17.973-20.175-18.925a25.452,25.452,0,0,0-13.474,2.506,23.159,23.159,0,0,0-21.357-16.571c-13.166-.609-24.065,9.462-24.323,22.155-.015.6,0,1.2.033,1.794A10.727,10.727,0,0,0,867.9,625.03a10.858,10.858,0,0,0,8.051,10.593c0,.109-.005.219-.008.328q30.254.734,60.376,3.208c.006-.07.011-.141.018-.213C946.53,638.488,954.965,632.261,955.827,623.8Z" transform="translate(-213.949 100.704)" fill="#346313"/>
    <path id="Path_51861" data-name="Path 51861" d="M1014.637,653.648a4.255,4.255,0,0,0-1.132.016,1.086,1.086,0,0,1,.016-.154c-.147-.016-.293-.039-.439-.054a5.822,5.822,0,0,0,.324-5.093,6.022,6.022,0,0,0-4.877-3.683,6.173,6.173,0,0,0-3.105.447.168.168,0,0,0,.016-.062,9.1,9.1,0,0,0-16.943-5.362v.016a8.542,8.542,0,0,0-1.086,3.421,7.767,7.767,0,0,0-.023,1.195,8.56,8.56,0,0,0,.07.894,3.022,3.022,0,0,0-.37-.239,4.073,4.073,0,0,0-1.7-.562,3.893,3.893,0,0,0-1.125.046,3.649,3.649,0,0,0-.647.17,9.81,9.81,0,0,0-19.054.671,6.084,6.084,0,0,0-2.281-.632,5.933,5.933,0,0,0-1.494,11.758,5.369,5.369,0,0,0,.609.077q24.34,1.826,48.541,4.777c.609.07,1.217.146,1.826.223l.724.092h.031c.007-.054.016-.108.023-.154a4.51,4.51,0,0,0,1.087.293,4.1,4.1,0,0,0,3.305-1.071,4.021,4.021,0,0,0,1.279-2.458A4.093,4.093,0,0,0,1014.637,653.648Zm-25.6-4.384c0-.031.016-.054.016-.077a.7.7,0,0,1,.069.085A.311.311,0,0,0,989.039,649.264Z" transform="translate(-246.57 84.245)" fill="#b4ce5a"/>
    <path id="Path_51862" data-name="Path 51862" d="M929.082,645.695a4.022,4.022,0,0,0-1.141.077c.008-.054.008-.108.016-.162-.147-.008-.293-.016-.439-.031a5.914,5.914,0,0,0,.6-2.188,5.444,5.444,0,0,0-.016-1.009,5.982,5.982,0,0,0-5.593-5.332,6.137,6.137,0,0,0-3.074.6c0-.016.008-.038.008-.054a9.08,9.08,0,0,0-18.129-1.009,8.842,8.842,0,0,0,.162,2.08,4.211,4.211,0,0,0-3.883-.385,9.83,9.83,0,0,0-19.024,1.641,6.04,6.04,0,0,0-8.383,4.514,6.493,6.493,0,0,0-.069.778,5.993,5.993,0,0,0,5.863,6.063q25.738.6,51.384,2.474c0-.054.008-.108.008-.162a4.187,4.187,0,0,0,1.61.247,4.078,4.078,0,0,0,.1-8.144Zm-25.819-3.074c0-.023.016-.047.016-.077.023.031.054.054.077.085C903.325,642.629,903.294,642.621,903.263,642.621Z" transform="translate(-214.773 86.844)" fill="#9bb93b"/>
    <path id="Path_51863" data-name="Path 51863" d="M890.174,647.54c-.037-.082-.134-.279-.27-.284-.115,0-.138.138-.345.25-.223.123-.347.045-.43.16s.027.217-.055.389a.515.515,0,0,1-.3.237c-.185.049-.268-.06-.381-.011-.165.072-.222.4-.166.66.052.233.184.374.694.857a4.351,4.351,0,0,0,.764.413c.033-.024.07-.052.1-.072a1.632,1.632,0,0,1,.577-.247A4.992,4.992,0,0,0,890.174,647.54Z" transform="translate(-221.482 79.758)" fill="#fff"/>
    <path id="Path_51864" data-name="Path 51864" d="M894.462,650.881c.076-.042.269-.146.27-.282,0-.115-.145-.13-.274-.324s-.067-.34-.189-.413-.22.042-.4-.031a.483.483,0,0,1-.258-.281c-.062-.175.043-.264-.012-.375-.079-.156-.416-.2-.679-.123-.235.062-.366.2-.826.734a4.4,4.4,0,0,0-.369.778l.079.1a1.608,1.608,0,0,1,.287.552A5.257,5.257,0,0,0,894.462,650.881Z" transform="translate(-222.789 79.104)" fill="#fff"/>
    <path id="Path_51865" data-name="Path 51865" d="M891.948,654.054c.035.077.13.279.047.386-.072.088-.194.018-.415.1s-.259.234-.4.222-.15-.16-.337-.207a.52.52,0,0,0-.376.076c-.157.108-.126.238-.234.3-.158.082-.452-.085-.618-.3-.149-.189-.172-.378-.226-1.074a4.205,4.205,0,0,1,.167-.843,1.139,1.139,0,0,0,.121-.031,1.581,1.581,0,0,0,.562-.279A5.135,5.135,0,0,1,891.948,654.054Zm-5.167-1.367c-.074.05-.257.177-.238.309.015.111.162.114.306.294s.1.328.23.393.211-.065.4-.009a.524.524,0,0,1,.285.254c.08.171-.019.27.05.372.094.145.432.154.685.056.228-.086.342-.24.746-.811a4.238,4.238,0,0,0,.29-.809l-.087-.089a1.509,1.509,0,0,1-.34-.522A5.179,5.179,0,0,0,886.781,652.687Z" transform="translate(-220.865 77.962)" fill="#fff"/>
    <path id="Path_51866" data-name="Path 51866" d="M891.77,651.926a.656.656,0,1,1-.636-.635A.637.637,0,0,1,891.77,651.926Z" transform="translate(-222.319 78.261)" fill="#f7bd5a"/>
    <path id="Path_51867" data-name="Path 51867" d="M945.4,651.609c-.082-.038-.3-.13-.407-.043s-.015.2-.1.428c-.089.242-.243.267-.228.414s.171.152.223.345a.532.532,0,0,1-.074.387c-.111.161-.254.132-.308.245-.081.164.1.462.321.633.2.15.4.17,1.134.217a4.559,4.559,0,0,0,.886-.183c.011-.044.021-.084.032-.125a1.577,1.577,0,0,1,.286-.581A5.355,5.355,0,0,0,945.4,651.609Z" transform="translate(-242.356 78.173)" fill="#fff"/>
    <path id="Path_51868" data-name="Path 51868" d="M951.068,651.413c.033-.082.115-.3.019-.4-.082-.086-.207,0-.44-.074-.253-.076-.288-.221-.433-.2s-.145.177-.335.24a.552.552,0,0,1-.4-.05c-.17-.1-.15-.24-.267-.289-.17-.07-.464.122-.62.355-.144.208-.147.4-.147,1.132a4.4,4.4,0,0,0,.242.862c.042.009.087.014.128.024a1.65,1.65,0,0,1,.605.246A5.345,5.345,0,0,0,951.068,651.413Z" transform="translate(-243.826 78.51)" fill="#fff"/>
    <path id="Path_51869" data-name="Path 51869" d="M951.106,654.916c.082.038.294.136.3.274.006.113-.144.146-.26.355-.127.227-.045.358-.165.443s-.232-.024-.408.06a.525.525,0,0,0-.245.311c-.05.191.065.273.016.39-.072.169-.414.23-.692.177-.248-.046-.394-.186-.911-.7a4.629,4.629,0,0,1-.445-.779,1.015,1.015,0,0,0,.074-.106,1.648,1.648,0,0,0,.254-.6A5.437,5.437,0,0,1,951.106,654.916Zm-5.018,2.363c-.023.088-.081.311.021.4.089.077.2-.013.442.03.257.051.3.193.449.157s.123-.191.308-.271a.542.542,0,0,1,.4.011c.18.084.172.228.293.262.177.052.445-.164.58-.412.121-.216.106-.418.036-1.141a4.619,4.619,0,0,0-.323-.835c-.047,0-.089-.008-.13-.011a1.638,1.638,0,0,1-.626-.187A5.3,5.3,0,0,0,946.088,657.279Z" transform="translate(-242.938 77.009)" fill="#fff"/>
    <path id="Path_51870" data-name="Path 51870" d="M936.917,650.966a.651.651,0,0,1-.125.92.671.671,0,0,1-.936-.079.653.653,0,0,1,.124-.92A.671.671,0,0,1,936.917,650.966Zm-20.269-5.686c-.036-.081-.13-.279-.266-.287-.115-.007-.141.134-.35.244s-.347.041-.433.154.025.219-.062.388a.5.5,0,0,1-.305.232c-.186.047-.267-.065-.382-.017-.167.069-.228.4-.176.657.047.237.178.376.681.869a4.654,4.654,0,0,0,.759.425l.1-.07a1.627,1.627,0,0,1,.582-.238A5.019,5.019,0,0,0,916.648,645.28Z" transform="translate(-231.294 80.597)" fill="#f7bd5a"/>
    <path id="Path_51871" data-name="Path 51871" d="M920.888,648.685c.078-.04.274-.145.274-.277,0-.113-.141-.134-.269-.328-.131-.211-.065-.34-.183-.417s-.218.036-.4-.037a.5.5,0,0,1-.255-.286c-.057-.18.05-.267-.006-.376-.077-.161-.414-.2-.678-.134-.236.064-.37.2-.838.722a4.545,4.545,0,0,0-.382.772c.026.033.052.067.078.1a1.587,1.587,0,0,1,.279.557A5.2,5.2,0,0,0,920.888,648.685Z" transform="translate(-232.591 79.927)" fill="#f7bd5a"/>
    <path id="Path_51872" data-name="Path 51872" d="M918.329,651.829c.037.081.124.281.04.386-.072.088-.193.017-.416.094-.238.082-.264.23-.4.215s-.15-.162-.334-.212a.5.5,0,0,0-.378.07c-.159.106-.127.24-.238.291-.162.077-.45-.092-.615-.306-.148-.189-.165-.379-.21-1.076a4.077,4.077,0,0,1,.181-.841c.042-.007.084-.021.122-.03a1.579,1.579,0,0,0,.567-.269A5.11,5.11,0,0,1,918.329,651.829Zm-5.153-1.448c-.076.047-.262.172-.244.305.014.109.157.116.3.3.154.2.1.332.225.4s.214-.06.4,0a.488.488,0,0,1,.281.259c.074.172-.02.269.044.373.094.148.43.159.685.067.229-.084.347-.229.76-.8a4.221,4.221,0,0,0,.3-.8c-.031-.032-.059-.059-.087-.089a1.593,1.593,0,0,1-.333-.528A5.242,5.242,0,0,0,913.176,650.381Z" transform="translate(-230.653 78.805)" fill="#f7bd5a"/>
    <path id="Path_51873" data-name="Path 51873" d="M918.186,649.681a.658.658,0,1,1-.627-.644A.636.636,0,0,1,918.186,649.681Zm37.394,3.093c-.032-.081-.12-.283-.255-.3-.117-.01-.146.128-.357.232-.228.108-.347.028-.437.138s.016.218-.076.385a.48.48,0,0,1-.311.221c-.185.037-.264-.072-.379-.031-.165.059-.24.388-.2.65.039.235.166.38.645.893a4.147,4.147,0,0,0,.739.452l.106-.067a1.554,1.554,0,0,1,.587-.217A4.99,4.99,0,0,0,955.58,652.773Z" transform="translate(-232.116 79.098)" fill="#fff"/>
    <path id="Path_51874" data-name="Path 51874" d="M981.3,658.354c.079-.037.281-.134.283-.268,0-.116-.14-.133-.256-.338s-.051-.34-.167-.423-.22.03-.393-.051a.5.5,0,0,1-.243-.294c-.053-.18.056-.262.008-.376-.076-.16-.4-.215-.669-.158-.237.051-.372.184-.861.691a4.174,4.174,0,0,0-.408.757c.03.034.05.068.074.1a1.57,1.57,0,0,1,.257.566A5.152,5.152,0,0,0,981.3,658.354Z" transform="translate(-255.008 76.357)" fill="#fff"/>
    <path id="Path_51875" data-name="Path 51875" d="M978.652,661.423c.032.079.117.286.026.387-.074.084-.2.006-.418.079-.238.078-.267.22-.409.2s-.14-.17-.325-.223a.516.516,0,0,0-.378.055c-.161.1-.138.233-.249.283-.162.069-.442-.107-.6-.328-.139-.2-.154-.388-.169-1.084a4.412,4.412,0,0,1,.21-.833c.044-.007.084-.016.123-.026a1.516,1.516,0,0,0,.574-.249A5.139,5.139,0,0,1,978.652,661.423Zm-5.074-1.632c-.077.048-.266.161-.254.3.011.114.152.12.289.31s.085.334.209.4.216-.051.4.012a.515.515,0,0,1,.27.268c.067.176-.031.27.031.375.089.154.421.174.68.092.229-.076.355-.219.785-.771a4.392,4.392,0,0,0,.331-.794c-.028-.031-.057-.062-.082-.093a1.6,1.6,0,0,1-.312-.539A5.151,5.151,0,0,0,973.578,659.791Z" transform="translate(-253.054 75.286)" fill="#fff"/>
    <path id="Path_51876" data-name="Path 51876" d="M978.593,659.233a.655.655,0,1,1-.6-.666A.634.634,0,0,1,978.593,659.233Z" transform="translate(-254.524 75.563)" fill="#f7bd5a"/>
    <path id="Path_51877" data-name="Path 51877" d="M1033.3,660.652c-.085-.042-.287-.143-.4-.065-.1.069-.026.2-.123.422-.1.239-.254.254-.25.4s.164.164.2.355a.5.5,0,0,1-.094.383c-.119.155-.259.121-.32.229-.089.16.073.466.287.649.193.162.388.191,1.119.276a4.568,4.568,0,0,0,.892-.136c.01-.045.026-.086.038-.123a1.588,1.588,0,0,1,.316-.566A5.365,5.365,0,0,0,1033.3,660.652Z" transform="translate(-274.925 74.824)" fill="#fff"/>
    <path id="Path_51878" data-name="Path 51878" d="M1038.977,660.755c.036-.086.128-.293.04-.4-.074-.091-.2-.015-.434-.1-.247-.087-.274-.238-.422-.223s-.153.172-.347.222a.538.538,0,0,1-.393-.07c-.165-.111-.135-.247-.252-.3-.165-.075-.465.1-.637.322-.152.2-.168.4-.206,1.122a4.344,4.344,0,0,0,.2.873c.045.009.088.021.126.03a1.577,1.577,0,0,1,.591.277A5.335,5.335,0,0,0,1038.977,660.755Z" transform="translate(-276.421 75.081)" fill="#fff"/>
    <path id="Path_51879" data-name="Path 51879" d="M1038.787,664.325c.085.041.284.152.284.29,0,.121-.151.133-.277.342s-.065.354-.187.433-.227-.039-.41.04a.512.512,0,0,0-.262.3c-.06.186.048.278,0,.391-.081.162-.425.21-.7.141-.245-.063-.382-.2-.872-.748a4.547,4.547,0,0,1-.4-.8c.029-.035.055-.066.08-.1a1.644,1.644,0,0,0,.284-.581A5.394,5.394,0,0,1,1038.787,664.325Zm-5.127,2.1c-.028.086-.1.305,0,.4.082.084.207-.007.44.053.251.062.294.213.439.181s.134-.186.321-.255a.536.536,0,0,1,.4.032c.175.093.161.236.279.277.174.062.453-.143.6-.382.133-.215.129-.411.1-1.137a4.51,4.51,0,0,0-.279-.851c-.043-.008-.088-.009-.128-.018a1.637,1.637,0,0,1-.615-.22A5.27,5.27,0,0,0,1033.66,666.423Z" transform="translate(-275.414 73.559)" fill="#fff"/>
    <path id="Path_51880" data-name="Path 51880" d="M1025.823,659.251a.655.655,0,0,1-.173.912.671.671,0,0,1-.929-.127.651.651,0,0,1,.172-.912A.67.67,0,0,1,1025.823,659.251Zm-18.332-7.33c-.031-.081-.116-.286-.25-.3-.114-.013-.15.128-.362.225-.23.106-.351.02-.44.13s.011.223-.082.384a.5.5,0,0,1-.316.215c-.187.037-.262-.079-.38-.038-.167.06-.249.376-.211.646.036.237.159.386.632.9a4.217,4.217,0,0,0,.734.465c.036-.025.072-.043.107-.064a1.532,1.532,0,0,1,.593-.206A4.985,4.985,0,0,0,1007.491,651.921Z" transform="translate(-264.966 78.139)" fill="#f7bd5a"/>
    <path id="Path_51881" data-name="Path 51881" d="M1011.534,655.542c.079-.036.284-.131.288-.263.005-.113-.137-.137-.251-.342s-.045-.342-.159-.425-.223.029-.394-.059a.507.507,0,0,1-.239-.3c-.047-.181.063-.264.014-.375-.07-.164-.4-.227-.669-.17-.24.046-.379.177-.875.674a4.451,4.451,0,0,0-.423.75c.028.032.048.07.072.1a1.527,1.527,0,0,1,.248.572A5.241,5.241,0,0,0,1011.534,655.542Z" transform="translate(-266.222 77.408)" fill="#f7bd5a"/>
    <path id="Path_51882" data-name="Path 51882" d="M1008.835,658.574c.03.082.111.288.02.388-.074.084-.2.005-.42.071-.242.074-.272.214-.414.193s-.138-.172-.322-.229a.507.507,0,0,0-.38.048c-.164.1-.14.23-.254.279-.165.069-.444-.116-.6-.339-.138-.2-.143-.388-.15-1.086a4.513,4.513,0,0,1,.226-.829c.043-.007.083-.015.123-.024a1.63,1.63,0,0,0,.58-.239A5.165,5.165,0,0,1,1008.835,658.574Zm-5.058-1.724c-.076.045-.269.158-.259.291.006.111.151.123.284.315s.079.336.2.408.215-.047.4.019a.5.5,0,0,1,.266.274c.067.176-.034.269.025.375.083.152.421.182.679.1.235-.072.359-.213.8-.757a4.156,4.156,0,0,0,.345-.787c-.031-.033-.055-.062-.082-.094a1.59,1.59,0,0,1-.3-.545A5.21,5.21,0,0,0,1003.777,656.85Z" transform="translate(-264.253 76.361)" fill="#f7bd5a"/>
    <path id="Path_51883" data-name="Path 51883" d="M1008.82,656.364a.656.656,0,1,1-.59-.678A.636.636,0,0,1,1008.82,656.364Zm33.311,5.334c-.028-.083-.1-.294-.239-.31-.114-.017-.153.121-.367.213-.23.1-.351.011-.443.116s.006.22-.094.381a.5.5,0,0,1-.322.205c-.19.033-.261-.089-.376-.05-.17.054-.261.371-.232.64.026.241.145.387.6.924a4.409,4.409,0,0,0,.715.488l.109-.06a1.664,1.664,0,0,1,.6-.187A5.108,5.108,0,0,0,1042.13,661.7Z" transform="translate(-265.734 76.632)" fill="#fff"/>
    <path id="Path_51884" data-name="Path 51884" d="M1065.213,668.805c.082-.032.286-.122.3-.254.009-.113-.134-.141-.239-.35s-.035-.343-.144-.43-.222.018-.39-.072a.511.511,0,0,1-.227-.306c-.042-.184.071-.259.026-.374-.066-.166-.391-.238-.66-.192-.24.04-.383.165-.893.646a4.51,4.51,0,0,0-.445.736c.025.037.047.068.069.1a1.514,1.514,0,0,1,.228.579A5.225,5.225,0,0,0,1065.213,668.805Z" transform="translate(-286.143 72.503)" fill="#fff"/>
    <path id="Path_51885" data-name="Path 51885" d="M1062.445,671.765c.028.082.1.294.006.388-.079.081-.2,0-.42.057-.244.062-.277.2-.418.181s-.135-.175-.313-.24a.517.517,0,0,0-.38.036c-.165.09-.147.227-.262.271-.167.063-.438-.131-.583-.358-.127-.2-.133-.392-.113-1.091a4.282,4.282,0,0,1,.251-.822l.123-.019a1.586,1.586,0,0,0,.586-.22A5.244,5.244,0,0,1,1062.445,671.765Zm-4.982-1.885c-.077.043-.272.147-.267.282,0,.116.146.126.273.324s.069.338.187.413.217-.038.394.031a.507.507,0,0,1,.256.282c.06.179-.045.268.011.375.079.157.411.2.673.126.232-.062.364-.2.822-.732a4.547,4.547,0,0,0,.37-.776c-.028-.032-.054-.063-.078-.1a1.55,1.55,0,0,1-.284-.554A5.207,5.207,0,0,0,1057.462,669.88Z" transform="translate(-284.161 71.504)" fill="#fff"/>
    <path id="Path_51886" data-name="Path 51886" d="M1062.495,669.524a.653.653,0,1,1-.565-.7A.635.635,0,0,1,1062.495,669.524Z" transform="translate(-285.646 71.759)" fill="#f7bd5a"/>
    <path id="Path_51887" data-name="Path 51887" d="M1116.951,673.688c-.081-.045-.28-.16-.4-.085-.1.06-.036.2-.144.415-.114.234-.267.243-.269.389s.156.17.186.365a.53.53,0,0,1-.113.379c-.13.151-.262.105-.33.212-.1.157.05.47.254.662.185.172.379.212,1.1.333a4.523,4.523,0,0,0,.9-.091l.044-.121a1.609,1.609,0,0,1,.343-.549A5.314,5.314,0,0,0,1116.951,673.688Z" transform="translate(-305.917 69.994)" fill="#fff"/>
    <path id="Path_51888" data-name="Path 51888" d="M1122.623,674.077c.04-.081.145-.287.06-.4-.07-.1-.2-.023-.428-.118-.244-.1-.262-.254-.41-.244s-.162.165-.357.205a.551.551,0,0,1-.389-.091c-.159-.116-.123-.257-.235-.315-.164-.089-.471.074-.652.289-.16.19-.187.388-.262,1.111a4.55,4.55,0,0,0,.151.882c.043.01.087.023.125.036a1.675,1.675,0,0,1,.576.307A5.264,5.264,0,0,0,1122.623,674.077Z" transform="translate(-307.438 70.176)" fill="#fff"/>
    <path id="Path_51889" data-name="Path 51889" d="M1122.217,677.7c.081.047.275.167.27.3-.008.118-.154.131-.294.327-.147.214-.081.35-.209.423s-.224-.051-.411.019a.526.526,0,0,0-.276.283c-.07.18.037.278-.025.391-.088.16-.435.19-.7.105-.238-.074-.371-.222-.832-.79a4.46,4.46,0,0,1-.36-.821c.028-.035.055-.065.084-.1a1.633,1.633,0,0,0,.313-.566A5.413,5.413,0,0,1,1122.217,677.7ZM1117,679.539c-.035.084-.115.3-.02.4.081.086.205.005.435.075.25.075.284.226.429.2s.144-.177.333-.238a.531.531,0,0,1,.394.052c.165.1.148.242.264.291.167.073.462-.123.618-.351.141-.208.151-.4.154-1.131a4.51,4.51,0,0,0-.235-.864c-.045-.006-.089-.016-.128-.025a1.61,1.61,0,0,1-.6-.25A5.21,5.21,0,0,0,1117,679.539Z" transform="translate(-306.32 68.637)" fill="#fff"/>
    <path id="Path_51890" data-name="Path 51890" d="M1109.58,671.947a.653.653,0,0,1-.219.9.668.668,0,0,1-.92-.174.655.655,0,0,1,.218-.9A.665.665,0,0,1,1109.58,671.947Zm-17.91-8.24c-.027-.083-.1-.293-.234-.313-.114-.015-.156.118-.372.207s-.35,0-.446.108,0,.217-.1.379a.546.546,0,0,1-.327.2c-.188.025-.258-.091-.376-.057-.172.05-.271.367-.243.635.022.24.138.393.584.935a4.476,4.476,0,0,0,.708.5,1.152,1.152,0,0,1,.11-.059,1.591,1.591,0,0,1,.6-.176A5.108,5.108,0,0,0,1091.669,663.707Z" transform="translate(-296.168 73.772)" fill="#f7bd5a"/>
    <path id="Path_51891" data-name="Path 51891" d="M1095.514,667.517c.082-.031.289-.116.3-.249.009-.111-.131-.147-.233-.355-.107-.226-.026-.345-.138-.433s-.22.015-.389-.079a.5.5,0,0,1-.223-.31c-.038-.187.076-.26.033-.374-.063-.165-.387-.242-.659-.2-.242.035-.386.157-.907.63a4.376,4.376,0,0,0-.459.728c.023.033.047.072.067.105a1.571,1.571,0,0,1,.218.583A5.214,5.214,0,0,0,1095.514,667.517Z" transform="translate(-297.383 72.989)" fill="#f7bd5a"/>
    <path id="Path_51892" data-name="Path 51892" d="M1092.692,670.435c.027.085.1.293,0,.388-.079.081-.2,0-.423.05-.245.06-.284.2-.423.172s-.128-.181-.309-.246a.524.524,0,0,0-.382.03c-.165.086-.151.226-.267.265-.165.058-.438-.138-.578-.369-.126-.2-.125-.394-.095-1.093a4.208,4.208,0,0,1,.267-.817.845.845,0,0,0,.124-.016,1.619,1.619,0,0,0,.591-.209A5.244,5.244,0,0,1,1092.692,670.435Zm-4.964-1.975c-.079.038-.276.145-.274.277,0,.116.147.131.268.33s.06.34.181.417.221-.035.395.04a.514.514,0,0,1,.252.286c.057.18-.048.265.005.375.078.159.411.2.673.138.235-.06.368-.2.837-.715a4.506,4.506,0,0,0,.385-.769c-.028-.035-.053-.064-.077-.1a1.57,1.57,0,0,1-.275-.559A5.248,5.248,0,0,0,1087.729,668.46Z" transform="translate(-295.385 72.017)" fill="#f7bd5a"/>
    <path id="Path_51893" data-name="Path 51893" d="M1092.784,668.177a.655.655,0,1,1-.554-.706A.632.632,0,0,1,1092.784,668.177Zm33.1,6.27c-.028-.083-.089-.3-.223-.32-.111-.023-.157.112-.377.194s-.349-.006-.447.094,0,.221-.114.376a.515.515,0,0,1-.332.189c-.188.019-.255-.1-.373-.068-.171.047-.28.36-.264.627.014.24.128.4.552.952a4.342,4.342,0,0,0,.689.524.917.917,0,0,1,.111-.055,1.553,1.553,0,0,1,.606-.157A5.067,5.067,0,0,0,1125.887,674.446Z" transform="translate(-296.88 72.263)" fill="#fff"/>
    <path id="Path_51894" data-name="Path 51894" d="M1148.623,682.3c.082-.026.291-.108.308-.238.013-.113-.125-.149-.22-.362s-.016-.349-.123-.437-.221.008-.385-.091a.5.5,0,0,1-.211-.316c-.032-.182.083-.259.045-.373-.057-.166-.381-.255-.649-.225-.241.028-.389.147-.924.6a4.486,4.486,0,0,0-.481.713c.023.038.044.076.063.107a1.572,1.572,0,0,1,.2.589A5.212,5.212,0,0,0,1148.623,682.3Z" transform="translate(-317.093 67.52)" fill="#fff"/>
    <path id="Path_51895" data-name="Path 51895" d="M1145.719,685.137c.025.084.085.3-.013.388s-.194-.013-.423.036-.286.191-.427.159-.128-.184-.3-.255a.515.515,0,0,0-.381.017c-.17.081-.161.218-.276.257-.166.056-.428-.152-.564-.386-.121-.209-.114-.4-.059-1.1a4.375,4.375,0,0,1,.293-.808c.044,0,.087-.006.125-.013a1.552,1.552,0,0,0,.6-.19A5.082,5.082,0,0,1,1145.719,685.137ZM1140.844,683c-.079.038-.279.135-.282.269,0,.113.137.136.256.338s.051.341.167.422.218-.028.392.052a.5.5,0,0,1,.241.294c.053.184-.059.262-.007.375.074.161.4.215.666.16.236-.051.373-.184.858-.689a4.314,4.314,0,0,0,.409-.756c-.023-.033-.051-.068-.073-.1a1.561,1.561,0,0,1-.255-.567A5.185,5.185,0,0,0,1140.844,683Z" transform="translate(-315.083 66.6)" fill="#fff"/>
    <path id="Path_51896" data-name="Path 51896" d="M1145.889,680.981a.653.653,0,1,1-.528-.724A.633.633,0,0,1,1145.889,680.981Zm18.967-3.586c-.023-.086-.088-.3-.218-.325-.113-.025-.16.115-.382.188s-.35-.013-.451.085-.009.22-.121.374a.508.508,0,0,1-.337.182c-.189.018-.253-.1-.374-.076-.172.041-.285.351-.275.622.008.24.118.4.537.963a4.739,4.739,0,0,0,.683.537c.038-.02.078-.038.113-.053a1.587,1.587,0,0,1,.611-.146A5.04,5.04,0,0,0,1164.856,677.395Z" transform="translate(-316.579 68.7)" fill="#f7bd5a"/>
    <path id="Path_51897" data-name="Path 51897" d="M1174.9,680.88a.589.589,0,0,1,.039.347.433.433,0,0,1-.069.162c-.062-.023-.093-.047-.093-.062a1,1,0,0,0-.039-.185v-.008a1.635,1.635,0,0,0-.154-.4c-.016-.031-.039-.069-.062-.108,0,0,.016-.031.046-.077a3.466,3.466,0,0,1,.447-.624,2.521,2.521,0,0,1,.809-.555c-.308.509-.616,1-.925,1.5A.066.066,0,0,0,1174.9,680.88Zm-.031.516a.615.615,0,0,1-.478.308c-.2.339-.408.678-.616,1.017.008-.1.016-.208.031-.339a3.505,3.505,0,0,1,.262-.717c.023-.054.038-.085.038-.085.046-.008.085-.008.131-.016a1.491,1.491,0,0,0,.277-.054,1.172,1.172,0,0,0,.324-.123C1174.84,681.381,1174.853,681.388,1174.866,681.4Zm-3.485-.314c-.081.034-.282.131-.287.264,0,.113.138.137.251.342s.045.34.16.425.219-.024.393.059a.524.524,0,0,1,.237.3c.048.182-.064.264-.014.375.07.162.4.224.666.171.237-.047.377-.176.873-.672a4.439,4.439,0,0,0,.423-.749c-.025-.034-.049-.068-.072-.1a1.583,1.583,0,0,1-.247-.572A5.183,5.183,0,0,0,1171.38,681.082Z" transform="translate(-326.407 67.847)" fill="#f7bd5a"/>
    <path id="Path_51907" data-name="Path 51907" d="M836.272,712.414c0,7.474-11.156,14.593-31.32,21.058-59.9,19.216-199.265,32.684-361.639,32.684-170.34,0-315.362-14.825-369.875-35.558-14.94-5.678-23.077-11.8-23.077-18.183,0-9,16.189-17.49,44.8-24.941,65.708-17.12,196.961-28.8,348.154-28.8,167.791,0,311.025,14.385,367.371,34.626C827.219,699.238,836.272,705.679,836.272,712.414Z" transform="translate(89.276 75.523)" fill="#9bc43f"/>
    <path id="Path_51908" data-name="Path 51908" d="M837.089,693.3c-35.011,32.068-210.73,18.137-279.974-4.022C478.425,664.1,291.2,717.167,306.2,693.543c14.793-23.315-106.675,4.769-184.633-6.071,65.708-17.12,196.961-28.8,348.154-28.8C637.512,658.672,780.748,673.057,837.089,693.3Z" transform="translate(62.867 75.523)" fill="#bbd44d"/>
    <path id="Path_51909" data-name="Path 51909" d="M818.553,769.049c-59.9,19.216-199.265,32.684-361.639,32.684-170.34,0-315.362-14.825-369.875-35.558,20.777-4.443,143.558-21.179,190.87-3.98,12.2,4.433-35.479,1.753-26.531,13.164C270.457,799.689,766,777.657,818.553,769.049Z" transform="translate(75.672 39.946)" fill="#82ab26"/>
    <path id="Path_51977" data-name="Path 51977" d="M590.946,749.377c-1.787,1.893,2.562,3.911,2.562,3.911A3.049,3.049,0,0,0,590.946,749.377Z" transform="translate(-111.068 41.881)" fill="#ffe699"/>
    <path id="Path_51978" data-name="Path 51978" d="M584.393,753.094c1.273,2.036,6.652,1.34,6.652,1.34S587.464,751.932,584.393,753.094Z" transform="translate(-108.798 40.616)" fill="#ffe699"/>
    <path id="Path_51979" data-name="Path 51979" d="M585.581,757.606c3.425.725,5.99-2.189,5.99-2.189S586.069,755.452,585.581,757.606Z" transform="translate(-109.238 39.641)" fill="#ffe699"/>
    <path id="Path_51980" data-name="Path 51980" d="M593.05,759.442c3.129-1.1,1.049-4.154,1.049-4.154S590.606,757.833,593.05,759.442Z" transform="translate(-111.687 39.688)" fill="#ffe699"/>
    <path id="Path_51981" data-name="Path 51981" d="M599.708,758.441c.6-2.145-4.642-3.151-4.642-3.151A4.724,4.724,0,0,0,599.708,758.441Z" transform="translate(-112.756 39.688)" fill="#ffe699"/>
    <path id="Path_51982" data-name="Path 51982" d="M601.831,754.819c-2.36-1.653-7.017.1-7.017.1S599.609,756.54,601.831,754.819Z" transform="translate(-112.663 40.125)" fill="#ffe699"/>
    <path id="Path_51983" data-name="Path 51983" d="M598.9,750.1a3.975,3.975,0,0,0-3.932,3.48S599.949,752.182,598.9,750.1Z" transform="translate(-112.719 41.612)" fill="#ffe699"/>
    <path id="Path_51984" data-name="Path 51984" d="M595.386,753.3c.232.353-.06.752-.649.89a1.484,1.484,0,0,1-1.487-.389c-.231-.353.06-.752.65-.89A1.48,1.48,0,0,1,595.386,753.3Zm25.388-2.961c-1.414,1.5,2.025,3.093,2.025,3.093A2.411,2.411,0,0,0,620.773,750.341Z" transform="translate(-112.053 41.523)" fill="#fff"/>
    <path id="Path_51985" data-name="Path 51985" d="M631.666,753.28c1.007,1.61,5.26,1.059,5.26,1.059S634.094,752.361,631.666,753.28Z" transform="translate(-126.331 40.523)" fill="#fff"/>
    <path id="Path_51986" data-name="Path 51986" d="M632.6,756.848c2.708.573,4.736-1.731,4.736-1.731S632.991,755.144,632.6,756.848Z" transform="translate(-126.68 39.752)" fill="#fff"/>
    <path id="Path_51987" data-name="Path 51987" d="M638.51,758.3c2.474-.873.829-3.285.829-3.285S636.578,757.027,638.51,758.3Z" transform="translate(-128.615 39.789)" fill="#fff"/>
    <path id="Path_51988" data-name="Path 51988" d="M643.775,757.508c.473-1.7-3.67-2.491-3.67-2.491A3.734,3.734,0,0,0,643.775,757.508Z" transform="translate(-129.461 39.789)" fill="#fff"/>
    <path id="Path_51989" data-name="Path 51989" d="M645.454,754.645c-1.866-1.307-5.548.081-5.548.081S643.7,756,645.454,754.645Z" transform="translate(-129.388 40.135)" fill="#fff"/>
    <path id="Path_51990" data-name="Path 51990" d="M643.135,750.913a3.142,3.142,0,0,0-3.109,2.752S643.965,752.559,643.135,750.913Z" transform="translate(-129.432 41.311)" fill="#fff"/>
    <path id="Path_51991" data-name="Path 51991" d="M640.357,754.62c.183.279-.047.595-.513.7a1.172,1.172,0,0,1-1.176-.308c-.183-.279.047-.594.513-.7A1.172,1.172,0,0,1,640.357,754.62Z" transform="translate(-128.905 40.063)" fill="#ffe699"/>
    <path id="Path_51992" data-name="Path 51992" d="M614.888,738.477c-1.788,1.893,2.562,3.911,2.562,3.911A3.05,3.05,0,0,0,614.888,738.477Z" transform="translate(-119.948 45.924)" fill="#fff"/>
    <path id="Path_51993" data-name="Path 51993" d="M608.335,742.194c1.273,2.036,6.652,1.339,6.652,1.339S611.406,741.032,608.335,742.194Z" transform="translate(-117.678 44.659)" fill="#fff"/>
    <path id="Path_51994" data-name="Path 51994" d="M609.522,746.706c3.425.725,5.991-2.189,5.991-2.189S610.01,744.552,609.522,746.706Z" transform="translate(-118.118 43.683)" fill="#fff"/>
    <path id="Path_51995" data-name="Path 51995" d="M616.992,748.543c3.129-1.1,1.049-4.154,1.049-4.154S614.548,746.934,616.992,748.543Z" transform="translate(-120.566 43.73)" fill="#fff"/>
    <path id="Path_51996" data-name="Path 51996" d="M623.65,747.542c.6-2.145-4.642-3.151-4.642-3.151A4.724,4.724,0,0,0,623.65,747.542Z" transform="translate(-121.637 43.729)" fill="#fff"/>
    <path id="Path_51997" data-name="Path 51997" d="M625.773,743.92c-2.36-1.653-7.016.1-7.016.1S623.551,745.64,625.773,743.92Z" transform="translate(-121.543 44.167)" fill="#fff"/>
    <path id="Path_51998" data-name="Path 51998" d="M622.839,739.2a3.975,3.975,0,0,0-3.932,3.48S623.89,741.283,622.839,739.2Z" transform="translate(-121.599 45.655)" fill="#fff"/>
    <path id="Path_51999" data-name="Path 51999" d="M619.328,743.89c.231.353-.06.752-.649.89a1.484,1.484,0,0,1-1.487-.389c-.231-.353.06-.752.649-.89A1.484,1.484,0,0,1,619.328,743.89Zm-1.42,10.149c-1.561,1.653,2.236,3.415,2.236,3.415A2.663,2.663,0,0,0,617.908,754.039Z" transform="translate(-120.933 44.077)" fill="#ffc88f"/>
    <path id="Path_52000" data-name="Path 52000" d="M612.435,763.525c1.112,1.778,5.808,1.17,5.808,1.17S615.116,762.51,612.435,763.525Z" transform="translate(-119.198 36.732)" fill="#ffc88f"/>
    <path id="Path_52001" data-name="Path 52001" d="M613.471,767.464c2.99.633,5.23-1.911,5.23-1.911S613.9,765.583,613.471,767.464Z" transform="translate(-119.583 35.881)" fill="#ffc88f"/>
    <path id="Path_52002" data-name="Path 52002" d="M619.992,769.067c2.732-.964.916-3.627.916-3.627S617.858,767.663,619.992,769.067Z" transform="translate(-121.721 35.923)" fill="#ffc88f"/>
    <path id="Path_52003" data-name="Path 52003" d="M625.8,768.193c.522-1.872-4.053-2.751-4.053-2.751A4.124,4.124,0,0,0,625.8,768.193Z" transform="translate(-122.654 35.922)" fill="#ffc88f"/>
    <path id="Path_52004" data-name="Path 52004" d="M627.659,765.031c-2.06-1.443-6.125.09-6.125.09S625.718,766.533,627.659,765.031Z" transform="translate(-122.573 36.304)" fill="#ffc88f"/>
    <path id="Path_52005" data-name="Path 52005" d="M625.1,760.912a3.469,3.469,0,0,0-3.433,3.038S626.015,762.729,625.1,760.912Z" transform="translate(-122.622 37.603)" fill="#ffc88f"/>
    <path id="Path_52006" data-name="Path 52006" d="M622.032,765.005c.2.308-.052.656-.567.777a1.294,1.294,0,0,1-1.3-.339c-.2-.308.052-.656.567-.777A1.292,1.292,0,0,1,622.032,765.005Z" transform="translate(-122.041 36.226)" fill="#fff"/>
    <path id="Path_52007" data-name="Path 52007" d="M893.073,693.18c-1.448,1.533,2.075,3.168,2.075,3.168A2.47,2.47,0,0,0,893.073,693.18Z" transform="translate(-223.158 62.725)" fill="#ffe699"/>
    <path id="Path_52008" data-name="Path 52008" d="M887.765,696.19c1.032,1.65,5.388,1.085,5.388,1.085S890.252,695.25,887.765,696.19Z" transform="translate(-221.319 61.7)" fill="#ffe699"/>
    <path id="Path_52009" data-name="Path 52009" d="M888.727,699.846c2.774.588,4.852-1.773,4.852-1.773S889.121,698.1,888.727,699.846Z" transform="translate(-221.676 60.909)" fill="#ffe699"/>
    <path id="Path_52010" data-name="Path 52010" d="M894.777,701.333c2.535-.895.85-3.365.85-3.365S892.8,700.03,894.777,701.333Z" transform="translate(-223.659 60.948)" fill="#ffe699"/>
    <path id="Path_52011" data-name="Path 52011" d="M900.17,700.523c.484-1.737-3.76-2.552-3.76-2.552A3.826,3.826,0,0,0,900.17,700.523Z" transform="translate(-224.525 60.947)" fill="#ffe699"/>
    <path id="Path_52012" data-name="Path 52012" d="M901.89,697.589c-1.912-1.339-5.684.084-5.684.084S900.09,698.982,901.89,697.589Z" transform="translate(-224.45 61.302)" fill="#ffe699"/>
    <path id="Path_52013" data-name="Path 52013" d="M899.514,693.766a3.22,3.22,0,0,0-3.185,2.819S900.365,695.452,899.514,693.766Z" transform="translate(-224.496 62.507)" fill="#ffe699"/>
    <path id="Path_52014" data-name="Path 52014" d="M888.9,692.243c.187.286-.048.609-.526.721a1.2,1.2,0,0,1-1.2-.315c-.187-.286.048-.609.526-.721A1.2,1.2,0,0,1,888.9,692.243Zm-14.62-9.38c-1.448,1.533,2.075,3.168,2.075,3.168A2.47,2.47,0,0,0,874.281,682.863Z" transform="translate(-216.188 66.551)" fill="#fff"/>
    <path id="Path_52015" data-name="Path 52015" d="M868.973,685.873c1.032,1.649,5.389,1.085,5.389,1.085S871.46,684.932,868.973,685.873Z" transform="translate(-214.35 65.526)" fill="#fff"/>
    <path id="Path_52016" data-name="Path 52016" d="M869.935,689.528c2.774.588,4.853-1.773,4.853-1.773S870.33,687.783,869.935,689.528Z" transform="translate(-214.706 64.736)" fill="#fff"/>
    <path id="Path_52017" data-name="Path 52017" d="M875.985,691.016c2.535-.895.85-3.364.85-3.364S874.006,689.714,875.985,691.016Z" transform="translate(-216.689 64.774)" fill="#fff"/>
    <path id="Path_52018" data-name="Path 52018" d="M881.378,690.205c.484-1.737-3.76-2.552-3.76-2.552A3.827,3.827,0,0,0,881.378,690.205Z" transform="translate(-217.556 64.774)" fill="#fff"/>
    <path id="Path_52019" data-name="Path 52019" d="M883.1,687.272c-1.912-1.339-5.684.084-5.684.084S881.3,688.665,883.1,687.272Z" transform="translate(-217.48 65.129)" fill="#fff"/>
    <path id="Path_52020" data-name="Path 52020" d="M880.722,683.449a3.22,3.22,0,0,0-3.185,2.819S881.573,685.135,880.722,683.449Z" transform="translate(-217.525 66.333)" fill="#fff"/>
    <path id="Path_52021" data-name="Path 52021" d="M872.419,687.247c.188.286-.048.609-.526.721a1.2,1.2,0,0,1-1.2-.315c-.187-.286.048-.609.526-.721A1.2,1.2,0,0,1,872.419,687.247ZM861.67,692.52c-1.264,1.339,1.811,2.766,1.811,2.766A2.156,2.156,0,0,0,861.67,692.52Z" transform="translate(-211.527 65.056)" fill="#ffc88f"/>
    <path id="Path_52022" data-name="Path 52022" d="M857.036,698.467c.9,1.44,4.7.947,4.7.947S859.208,697.645,857.036,698.467Z" transform="translate(-209.922 60.844)" fill="#ffc88f"/>
    <path id="Path_52023" data-name="Path 52023" d="M857.876,701.658a4.846,4.846,0,0,0,4.236-1.548S858.221,700.134,857.876,701.658Z" transform="translate(-210.233 60.153)" fill="#ffc88f"/>
    <path id="Path_52024" data-name="Path 52024" d="M863.159,702.956c2.213-.781.742-2.937.742-2.937S861.43,701.819,863.159,702.956Z" transform="translate(-211.965 60.188)" fill="#ffc88f"/>
    <path id="Path_52025" data-name="Path 52025" d="M867.867,702.248c.423-1.517-3.283-2.228-3.283-2.228A3.34,3.34,0,0,0,867.867,702.248Z" transform="translate(-212.722 60.188)" fill="#ffc88f"/>
    <path id="Path_52026" data-name="Path 52026" d="M869.369,699.687c-1.669-1.169-4.962.073-4.962.073S867.8,700.9,869.369,699.687Z" transform="translate(-212.656 60.496)" fill="#ffc88f"/>
    <path id="Path_52027" data-name="Path 52027" d="M867.295,696.35a2.81,2.81,0,0,0-2.781,2.461S868.038,697.822,867.295,696.35Z" transform="translate(-212.695 61.549)" fill="#ffc88f"/>
    <path id="Path_52028" data-name="Path 52028" d="M864.81,699.666c.164.25-.042.532-.459.629a1.049,1.049,0,0,1-1.052-.275c-.164-.25.042-.532.459-.629A1.048,1.048,0,0,1,864.81,699.666Z" transform="translate(-212.224 60.433)" fill="#fff"/>
    <path id="Path_52029" data-name="Path 52029" d="M183.385,713.505c-1.448,1.533,2.075,3.168,2.075,3.168A2.47,2.47,0,0,0,183.385,713.505Z" transform="translate(40.067 55.186)" fill="#ffe699"/>
    <path id="Path_52030" data-name="Path 52030" d="M178.078,716.515c1.032,1.649,5.388,1.085,5.388,1.085S180.565,715.575,178.078,716.515Z" transform="translate(41.906 54.161)" fill="#ffe699"/>
    <path id="Path_52031" data-name="Path 52031" d="M179.04,720.17c2.774.588,4.852-1.773,4.852-1.773S179.434,718.425,179.04,720.17Z" transform="translate(41.549 53.371)" fill="#ffe699"/>
    <path id="Path_52032" data-name="Path 52032" d="M185.09,721.658c2.535-.895.85-3.365.85-3.365S183.111,720.355,185.09,721.658Z" transform="translate(39.565 53.41)" fill="#ffe699"/>
    <path id="Path_52033" data-name="Path 52033" d="M190.483,720.847c.484-1.737-3.76-2.552-3.76-2.552A3.826,3.826,0,0,0,190.483,720.847Z" transform="translate(38.699 53.409)" fill="#ffe699"/>
    <path id="Path_52034" data-name="Path 52034" d="M192.2,717.914c-1.912-1.339-5.684.084-5.684.084S190.4,719.307,192.2,717.914Z" transform="translate(38.775 53.764)" fill="#ffe699"/>
    <path id="Path_52035" data-name="Path 52035" d="M189.827,714.091a3.22,3.22,0,0,0-3.185,2.819S190.678,715.777,189.827,714.091Z" transform="translate(38.729 54.968)" fill="#ffe699"/>
    <path id="Path_52036" data-name="Path 52036" d="M179.214,712.567c.187.286-.048.609-.526.721a1.2,1.2,0,0,1-1.2-.315c-.187-.286.048-.609.526-.721A1.2,1.2,0,0,1,179.214,712.567Zm-14.62-9.38c-1.448,1.533,2.075,3.168,2.075,3.168A2.47,2.47,0,0,0,164.594,703.187Z" transform="translate(47.037 59.013)" fill="#fff"/>
    <path id="Path_52037" data-name="Path 52037" d="M159.286,706.2c1.032,1.649,5.389,1.085,5.389,1.085S161.773,705.257,159.286,706.2Z" transform="translate(48.876 57.988)" fill="#fff"/>
    <path id="Path_52038" data-name="Path 52038" d="M160.248,709.853c2.774.588,4.853-1.773,4.853-1.773S160.642,708.108,160.248,709.853Z" transform="translate(48.52 57.197)" fill="#fff"/>
    <path id="Path_52039" data-name="Path 52039" d="M166.3,711.34c2.535-.895.85-3.364.85-3.364S164.319,710.037,166.3,711.34Z" transform="translate(46.536 57.236)" fill="#fff"/>
    <path id="Path_52040" data-name="Path 52040" d="M171.691,710.53c.484-1.737-3.76-2.552-3.76-2.552A3.826,3.826,0,0,0,171.691,710.53Z" transform="translate(45.67 57.235)" fill="#fff"/>
    <path id="Path_52041" data-name="Path 52041" d="M173.411,707.6c-1.912-1.339-5.684.084-5.684.084S171.611,708.989,173.411,707.6Z" transform="translate(45.745 57.59)" fill="#fff"/>
    <path id="Path_52042" data-name="Path 52042" d="M171.035,703.774a3.22,3.22,0,0,0-3.185,2.819S171.886,705.46,171.035,703.774Z" transform="translate(45.699 58.795)" fill="#fff"/>
    <path id="Path_52043" data-name="Path 52043" d="M162.731,707.572c.187.286-.048.609-.526.721a1.2,1.2,0,0,1-1.2-.315c-.187-.286.048-.609.526-.721A1.2,1.2,0,0,1,162.731,707.572Zm-10.748,5.274c-1.264,1.339,1.811,2.766,1.811,2.766A2.156,2.156,0,0,0,151.983,712.845Z" transform="translate(51.697 57.518)" fill="#ffc88f"/>
    <path id="Path_52044" data-name="Path 52044" d="M147.349,718.791c.9,1.44,4.7.947,4.7.947S149.521,717.97,147.349,718.791Z" transform="translate(53.304 53.306)" fill="#ffc88f"/>
    <path id="Path_52045" data-name="Path 52045" d="M148.189,721.982a4.846,4.846,0,0,0,4.236-1.548S148.534,720.458,148.189,721.982Z" transform="translate(52.992 52.615)" fill="#ffc88f"/>
    <path id="Path_52046" data-name="Path 52046" d="M153.471,723.281c2.213-.781.742-2.937.742-2.937S151.743,722.144,153.471,723.281Z" transform="translate(51.261 52.648)" fill="#ffc88f"/>
    <path id="Path_52047" data-name="Path 52047" d="M158.18,722.573c.423-1.517-3.283-2.228-3.283-2.228A3.34,3.34,0,0,0,158.18,722.573Z" transform="translate(50.504 52.648)" fill="#ffc88f"/>
    <path id="Path_52048" data-name="Path 52048" d="M159.682,720.011c-1.669-1.169-4.962.073-4.962.073S158.11,721.228,159.682,720.011Z" transform="translate(50.569 52.958)" fill="#ffc88f"/>
    <path id="Path_52049" data-name="Path 52049" d="M157.607,716.675a2.81,2.81,0,0,0-2.781,2.461S158.35,718.146,157.607,716.675Z" transform="translate(50.53 54.01)" fill="#ffc88f"/>
    <path id="Path_52050" data-name="Path 52050" d="M155.123,719.99c.164.25-.042.532-.459.629a1.047,1.047,0,0,1-1.051-.275c-.164-.25.042-.532.459-.629A1.049,1.049,0,0,1,155.123,719.99Z" transform="translate(51.001 52.895)" fill="#fff"/>
  </g>
</svg>
