<svg xmlns="http://www.w3.org/2000/svg" width="23.525" height="22.345" viewBox="0 0 23.525 22.345">
  <g id="Group_56332" data-name="Group 56332" transform="translate(-409 -510)">
    <path id="Path_50300" data-name="Path 50300" d="M25.168,12.742,16.142,3.988a3.365,3.365,0,0,0-4.763,0L2.353,12.742A1.178,1.178,0,0,0,4,14.428l.353-.346v8.911A2.352,2.352,0,0,0,6.7,25.345H9.057a2.352,2.352,0,0,0,2.352-2.352V20.641a1.176,1.176,0,0,1,1.176-1.176h2.352a1.176,1.176,0,0,1,1.176,1.176v2.352a2.352,2.352,0,0,0,2.352,2.352h2.352a2.352,2.352,0,0,0,2.352-2.352V14.082l.353.346a1.178,1.178,0,0,0,1.646-1.685Z" transform="translate(407.002 507)" fill="#fff"/>
    <circle id="Ellipse_1746" data-name="Ellipse 1746" cx="2.217" cy="2.217" r="2.217" transform="translate(418.544 518.586)" fill="#00be55"/>
  </g>
</svg>
