<svg xmlns="http://www.w3.org/2000/svg" width="19.184" height="21.376" viewBox="0 0 19.184 21.376">
  <g id="Group_56795" data-name="Group 56795" transform="translate(-3.25 -2.25)">
    <path id="Path_51777" data-name="Path 51777" d="M7.25,2.25H6A2.748,2.748,0,0,0,3.25,5V15.78A4.191,4.191,0,0,1,6,14.75H7.25Z" fill="#f0f0f0"/>
    <path id="Path_51778" data-name="Path 51778" d="M18,2.25H8.75v12.5H20a2.316,2.316,0,0,1,.75.13V5A2.748,2.748,0,0,0,18,2.25Z" transform="translate(1.684)" fill="#f0f0f0"/>
    <path id="Path_51779" data-name="Path 51779" d="M21.611,16.25H6.265A2.894,2.894,0,0,0,3.25,19a2.894,2.894,0,0,0,3.015,2.75H20.515A1.842,1.842,0,0,0,22.434,20V17A.789.789,0,0,0,21.611,16.25Z" transform="translate(0 1.876)" fill="#f0f0f0"/>
    <path id="Path_51780" data-name="Path 51780" d="M6.265,15.953A4.594,4.594,0,0,0,3.25,17.082V5.265A3.013,3.013,0,0,1,6.265,2.25h1.37v13.7ZM19.419,2.25H9.279v13.7H21.611a2.539,2.539,0,0,1,.822.143V5.265A3.013,3.013,0,0,0,19.419,2.25ZM21.611,17.6H6.265a3.015,3.015,0,1,0,0,6.029H20.515a1.92,1.92,0,0,0,1.918-1.918V18.419A.822.822,0,0,0,21.611,17.6Z" fill="#f0f0f0"/>
  </g>
</svg>
