<svg xmlns="http://www.w3.org/2000/svg" width="60.66" height="82.301" viewBox="0 0 60.66 82.301">
  <g id="Group_54781" data-name="Group 54781" transform="translate(-3214.185 -121.612)">
    <path id="Path_49873" data-name="Path 49873" d="M3237.065,121.63a3.053,3.053,0,0,1,1.48.195,4.622,4.622,0,0,1-.7.429,6.178,6.178,0,0,0-.605.423,7.315,7.315,0,0,0,.942-.071,6.548,6.548,0,0,1,2.471.441l-1.253.462a11.578,11.578,0,0,1,1.657.781,9.884,9.884,0,0,1,3.624,3.966,10.575,10.575,0,0,1,.575,7.922,8.579,8.579,0,0,1-4.347,5.061,27.976,27.976,0,0,1-1.866,6.421,55.023,55.023,0,0,1-2.456,4.969,32.131,32.131,0,0,0-2.336,4.676,4.191,4.191,0,0,0-.283,1.981,1.522,1.522,0,0,0,.567,1.024,1.019,1.019,0,0,0,.632.179,3.5,3.5,0,0,0,1.33-.442,25.475,25.475,0,0,0,2.361-1.509,23.932,23.932,0,0,1,2.049-1.268,13.49,13.49,0,0,1,3.552-1.275,13.678,13.678,0,0,1,3.876-.209,22.418,22.418,0,0,1,10.406,3.678c-.03-2.85.246-5.742,1.864-8.183a6.61,6.61,0,0,1,4.085-2.826,5.836,5.836,0,0,1,4.367,1.017,5.53,5.53,0,0,1-.616.237,5.887,5.887,0,0,0-1,.482c-2.035,1.267-2.975,3.871-3.5,6.088a12.842,12.842,0,0,1,4.252-2.906,4.85,4.85,0,0,1,3.946.259,4.979,4.979,0,0,1,2.7,2.7l-.175-.083a1.325,1.325,0,0,0-.535-.134c-1.935-.112-4.247,1.822-5.713,2.973-.447.35-.931.68-1.353,1.057a8.208,8.208,0,0,1,2.823-.323,5.386,5.386,0,0,1,3.67,1.854,3.945,3.945,0,0,1,.9,2.2,8.793,8.793,0,0,1-.087,1.231,2.793,2.793,0,0,0-.941-.8c-1.383-.679-2.992-.341-4.417,0l-3.039.888a6.787,6.787,0,0,1,.863.422,1.173,1.173,0,0,1,.524.762,1.263,1.263,0,0,1-.307.92,3.927,3.927,0,0,1-1.147.922,9.517,9.517,0,0,1-4.681,1.091l-1-.013a1.448,1.448,0,0,0-.3-.007,3.231,3.231,0,0,0-.38.429,7.887,7.887,0,0,1-1.181,1.027,18.672,18.672,0,0,1-8.657,3.026,5.376,5.376,0,0,1-.175,1.6,2.485,2.485,0,0,1-1.28,1.531l-.05.027-.3,6.142c-.008.7-.044,1.44,0,2.14.021.311.257.56.282.889a1.277,1.277,0,0,1-.35.893l-.037.044.935,11.661a5.416,5.416,0,0,1,2.053.359,1.9,1.9,0,0,1,.9,1.056,1.313,1.313,0,0,1-.007.831c-.014.02-.1.118-.13.114a1.5,1.5,0,0,1-.246-.154,2.9,2.9,0,0,0-.516-.225,2.811,2.811,0,0,0-1.927.046,7.4,7.4,0,0,0-1.809,1.168,6.819,6.819,0,0,1-2.167,1.154,5.342,5.342,0,0,1-1.484.193,5.152,5.152,0,0,0-.952.034,1.817,1.817,0,0,0-.635.276c-.184.124-.385.337-.6.36-.305-.372-.2-1.235-.157-1.683-.909-.055-1.818-.463-2.71-.1-.282.116-.526.318-.8.456l-.082-.027a.444.444,0,0,1-.053-.148,3,3,0,0,1,.755-2.138l-.177-.142a2.76,2.76,0,0,0-.67-.391,3.157,3.157,0,0,0-1.525.012,3.7,3.7,0,0,1,1.183-1.392c2.206-1.6,5.471-1.179,7.989-.765l1.485.317-.467-10.879a1.437,1.437,0,0,1-.417-.889,1.357,1.357,0,0,1,.221-.7,2.263,2.263,0,0,0,.166-.255,3.126,3.126,0,0,0,.009-.672l0-2.934-1.556,3.276a1.227,1.227,0,0,1,.135.908,1.063,1.063,0,0,1-.584.681,1.9,1.9,0,0,1-1.288.128,5.348,5.348,0,0,1-.96-.459l-1.413-.626-7.6-3.428-2.383-1.092a15.047,15.047,0,0,0-1.762-.812l-.071-.022a5,5,0,0,0-1.56.023,13.4,13.4,0,0,0,.544,1.552,6.393,6.393,0,0,1,.816,2.289,9.566,9.566,0,0,1-.207,1.655,5.281,5.281,0,0,0,0,1.395l.008.055a11.445,11.445,0,0,0-2.159-1.943,3.706,3.706,0,0,1-.48.962c-.435.572-1.072.94-1.376,1.618a2.557,2.557,0,0,0-.154.632.407.407,0,0,1-.329-.105,3,3,0,0,1-.684-.768,5.746,5.746,0,0,1-.9-2.3,3.28,3.28,0,0,0-.824.56,2.355,2.355,0,0,0-.864,1.675,3.119,3.119,0,0,1-.558-.933,6.359,6.359,0,0,1,.6-4.728c.8-1.589,2.6-4,4.331-4.569a4.939,4.939,0,0,1,2.934.09,3.815,3.815,0,0,1,1.237.624c.093.078.147.2.239.265a3.975,3.975,0,0,0,.6.288l1.334.638,7.762,3.571,3.926,1.791a1.411,1.411,0,0,0,.364-.222,2.056,2.056,0,0,0,.3-.58c.349-.78.613-1.608.889-2.417.321-.94.693-1.882.927-2.848a8.538,8.538,0,0,0,.207-1.581l-.529-.419a2.939,2.939,0,0,1-.855-1.505,6.824,6.824,0,0,1-.072-1.042l-1.746-.3a21.9,21.9,0,0,1-5.023-1.617c-.656-.312-1.3-.643-1.918-1.019a7.854,7.854,0,0,0-.959-.61,5.264,5.264,0,0,0-.65-.162,9.685,9.685,0,0,1-5.876-4.19,6.821,6.821,0,0,1-.935-3.486c-.019-3.465,2.031-6.372,3.862-9.144l2.547-4.046a26.744,26.744,0,0,0,2.875-6.783l-.839,1.256a5.78,5.78,0,0,1-3.917,2.607,4.035,4.035,0,0,1-3.047-.578,1.635,1.635,0,0,1-.688-1.043c-.05-.531.369-.959.667-1.349.247-.323.478-.646.749-.95.389-.438.815-.843,1.18-1.3a14.847,14.847,0,0,1-6.732.78,8.005,8.005,0,0,0-2.341-.072c-1.777.432-2.763,2.83-3.066,4.452-.069.367-.109.739-.149,1.11a1.548,1.548,0,0,1-.169.712.272.272,0,0,1-.23.112,1.172,1.172,0,0,1-.866-.31,4.371,4.371,0,0,1-.926-1.185,11.22,11.22,0,0,1-1.515-4.429,8.185,8.185,0,0,1,1.485-5.837c1.313-1.58,3.517-1.987,5.434-2.275l2.887-.357a8.119,8.119,0,0,1-.522-1.774,5.267,5.267,0,0,1,.953-3.931,8.361,8.361,0,0,0,.5-.958,7.339,7.339,0,0,1,1.974-2.267,10.3,10.3,0,0,1,7.378-1.956c.1.012.531-.432.643-.512A4.4,4.4,0,0,1,3237.065,121.63Z" transform="translate(0 0)" fill="#020101"/>
    <path id="Path_49874" data-name="Path 49874" d="M3513.029,833.292a.926.926,0,0,1,.712.129c.044.035.063.1.1.14l.04.026-.069.18-1.1-.142C3512.864,833.519,3512.965,833.472,3513.029,833.292Z" transform="translate(-266.238 -634.695)" fill="#ea3e5f"/>
    <path id="Path_49875" data-name="Path 49875" d="M3538.74,837.182a2.435,2.435,0,0,1,1.769.653,1.139,1.139,0,0,1,.272.59l-.075-.016-.059-.1a.428.428,0,0,0-.174-.217l-.04-.024a6.74,6.74,0,0,0-1-.475c-.2-.085-.393-.2-.6-.272l-.062-.02Z" transform="translate(-289.455 -638.181)" fill="#ea3e5f"/>
    <path id="Path_49876" data-name="Path 49876" d="M3334.17,204.431l.005-.043a.511.511,0,0,1,.22-.318.558.558,0,0,1,.48-.057l.183.043a1.017,1.017,0,0,1-.215.765.351.351,0,0,1-.27.093.368.368,0,0,1-.274-.2Z" transform="translate(-107.009 -73.465)" fill="#fff"/>
    <path id="Path_49877" data-name="Path 49877" d="M3515.589,824.4l-.01-1.1a5.123,5.123,0,0,0,.954.011.705.705,0,0,1-.159.541l.1.072a2.364,2.364,0,0,1-.03.766l-.039-.026c-.036-.04-.056-.1-.1-.14A.927.927,0,0,0,3515.589,824.4Z" transform="translate(-268.799 -625.806)" fill="#ed6979"/>
    <path id="Path_49878" data-name="Path 49878" d="M3492.057,650.516a11.95,11.95,0,0,1,.042,1.2,3.468,3.468,0,0,1-.031.818,7.973,7.973,0,0,1-.578,1.3l-.73,1.6a3.632,3.632,0,0,1-.379.719.321.321,0,0,1-.08.074l-.134-.065a.886.886,0,0,0,.177-.353l.328-.808c.291-.665.647-1.283.88-1.974l.3-1.006a4.218,4.218,0,0,1,.144-.553A3.108,3.108,0,0,0,3492.057,650.516Z" transform="translate(-246.134 -471.703)" fill="#dc9046"/>
    <path id="Path_49879" data-name="Path 49879" d="M3467.76,843.048a2.5,2.5,0,0,1,.287-.663,4.549,4.549,0,0,1,2.952-1.863l-.023.13c-.354.216-.744.374-1.092.6a7.72,7.72,0,0,0-1.228.965l-.825.861Z" transform="translate(-226.151 -641.16)" fill="#ed6979"/>
    <path id="Path_49880" data-name="Path 49880" d="M3326.18,201.741a9.087,9.087,0,0,0-.3,1.008,1.106,1.106,0,0,0,.177.849.725.725,0,0,0,.466.266c.548.015.756-.5,1.071-.83l.026.044a.914.914,0,0,1-.315.61,1.9,1.9,0,0,1-1.3.567.667.667,0,0,1-.423-.309,2.1,2.1,0,0,1-.349-1.535,1.815,1.815,0,0,1,.713-1.226,1.038,1.038,0,0,1,.8-.2,1.28,1.28,0,0,1,.776.522.719.719,0,0,1,.011.5c-.208-.121-.2-.505-.467-.641l-.183-.043a.559.559,0,0,0-.48.057.509.509,0,0,0-.22.318Z" transform="translate(-99.018 -70.774)" fill="#1aa4c2"/>
    <path id="Path_49881" data-name="Path 49881" d="M3432.961,851.984l.083.073.439-.163a7.866,7.866,0,0,1,1.105.009l.063.008a7.212,7.212,0,0,1,1.47.383,6.027,6.027,0,0,0-.434.809,6.151,6.151,0,0,0-2.705-.229l-.063.021a2.125,2.125,0,0,0-.6.351A2.838,2.838,0,0,1,3432.961,851.984Z" transform="translate(-194.542 -651.287)" fill="#d0213a"/>
    <path id="Path_49882" data-name="Path 49882" d="M3471.624,703.826c.36-.156.664-.37,1.057-.223a1.025,1.025,0,0,1,.59.556.736.736,0,0,1-.018.585,1.043,1.043,0,0,1-.613.5,1.651,1.651,0,0,1-1.3-.158l-.26-.167-.116-.489.017-.054C3471.089,704.069,3471.354,703.965,3471.624,703.826Z" transform="translate(-229.009 -519.005)" fill="#f7c0ad"/>
    <path id="Path_49883" data-name="Path 49883" d="M3507.432,709.065a1.377,1.377,0,0,1,.616.108,1.054,1.054,0,0,1,.534.646.833.833,0,0,1-.063.68,1.128,1.128,0,0,1-.8.529,1.423,1.423,0,0,1-.624-.128,1.088,1.088,0,0,1-.551-.651.781.781,0,0,1,.077-.655A1.117,1.117,0,0,1,3507.432,709.065Z" transform="translate(-260.711 -523.918)" fill="#f7c0ad"/>
    <path id="Path_49884" data-name="Path 49884" d="M3267.643,672.163a.542.542,0,0,0,.06.267,1.077,1.077,0,0,0,.527-.292,5.8,5.8,0,0,0,.906-1.558l.912-1.736c.12-.205.266-.515.487-.617a13.158,13.158,0,0,0-.8,2.633l-.119,1.007a1.578,1.578,0,0,1-.031.322,1.554,1.554,0,0,1-.227.139,3.544,3.544,0,0,0-1.486,1.387.29.29,0,0,1-.071.108A4.127,4.127,0,0,1,3267.643,672.163Z" transform="translate(-47.656 -487.498)" fill="#d0213a"/>
    <path id="Path_49885" data-name="Path 49885" d="M3514.99,728.54a3.388,3.388,0,0,0,.768-.095l.7,9.761-.481.269-.168-2.6-.258-4.236-.121-2.019a6.283,6.283,0,0,0-.025-1.072.891.891,0,0,1-.371,0Z" transform="translate(-268.273 -541.204)" fill="#dc9046"/>
    <path id="Path_49886" data-name="Path 49886" d="M3509.709,634.943l-.041-.4a4.609,4.609,0,0,0,1.061.064c.242-.018.473-.079.713-.1l-.324,6.882v.779a1.3,1.3,0,0,1-.02.4l-.527-.205.045-.028a2.683,2.683,0,0,0,.052-.929l.016-2.521.178-3.779Z" transform="translate(-263.527 -457.426)" fill="#dc9046"/>
    <path id="Path_49887" data-name="Path 49887" d="M3485.51,641.538l-.564-.219c.473-1.062.852-2.149,1.236-3.245.262-.752.548-1.5.752-2.267a8.34,8.34,0,0,0,.2-1.017,4.563,4.563,0,0,1,.092-.674l.061.025a2,2,0,0,1,.068.59l.042,1.158a3.115,3.115,0,0,1-.062.955,4.224,4.224,0,0,0-.143.553l-.3,1.006c-.234.691-.591,1.309-.881,1.974l-.328.808A.88.88,0,0,1,3485.51,641.538Z" transform="translate(-241.478 -457.076)" fill="#f6af80"/>
    <path id="Path_49888" data-name="Path 49888" d="M3492.57,609.278c.241.223.423.487.667.709a3.318,3.318,0,0,0,2.37.622,8.632,8.632,0,0,0,1.072-.095,5.616,5.616,0,0,1,.8-.143,2.571,2.571,0,0,1-.4.7,2.058,2.058,0,0,1-1.449.751,2.637,2.637,0,0,1-2.037-.557A2.777,2.777,0,0,1,3492.57,609.278Z" transform="translate(-248.278 -434.925)" fill="#f38e9f"/>
    <path id="Path_49889" data-name="Path 49889" d="M3251.677,292.308l.949-.013-.273.786c-.022.055-.257.577-.268.58a1.575,1.575,0,0,1-.33-.03,3.842,3.842,0,0,0-1.968.168c-1.475.64-2.174,2.281-2.727,3.677l-.188.8-.029.013a7.719,7.719,0,0,1,1.367-3.971A5.1,5.1,0,0,1,3251.677,292.308Z" transform="translate(-29.127 -152.224)" fill="#97304c"/>
    <path id="Path_49890" data-name="Path 49890" d="M3347.9,655.659a15.217,15.217,0,0,1,2.162.995l1.246.577,3.206,1.586,4.618,2.044c.622.278,1.277.532,1.875.855l.115.489-13.45-6.094A3.785,3.785,0,0,0,3347.9,655.659Z" transform="translate(-119.049 -476.29)" fill="#dc9046"/>
    <path id="Path_49891" data-name="Path 49891" d="M3510.04,638.528l1.154.169-.178,3.779L3511,645a2.731,2.731,0,0,1-.052.929l-.046.028a2.326,2.326,0,0,0-.684.047l-.073.016Z" transform="translate(-263.859 -461.011)" fill="#f6af80"/>
    <path id="Path_49892" data-name="Path 49892" d="M3376.75,296.84a6.054,6.054,0,0,1,.666-.011,7.683,7.683,0,0,1-3,3.8.38.38,0,0,1-.566-.5,2.421,2.421,0,0,1,.406-1.771A3.628,3.628,0,0,1,3376.75,296.84Z" transform="translate(-142.365 -156.264)" fill="#d0213a"/>
    <path id="Path_49893" data-name="Path 49893" d="M3294.67,666.356c.782-.76,1-3.335,1.269-4.454a9,9,0,0,1,.63-1.786c.1-.2.207-.455.429-.532.081.15-.026.555-.061.723a5.955,5.955,0,0,0-.367,3.1,1.558,1.558,0,0,0,.26.628c.056.087.5.61.5.646a1.351,1.351,0,0,1-.067.183,3.293,3.293,0,0,1-.366.707,4.434,4.434,0,0,1-.852.778,2.785,2.785,0,0,0-.687,1.13A5.092,5.092,0,0,1,3294.67,666.356Z" transform="translate(-71.781 -479.789)" fill="#d0213a"/>
    <path id="Path_49894" data-name="Path 49894" d="M3492,604.911l-.07-.478a32.192,32.192,0,0,0,5.158-.052,5.507,5.507,0,0,1-.177,1.623,5.657,5.657,0,0,0-.8.143,8.639,8.639,0,0,1-1.072.095,3.317,3.317,0,0,1-2.369-.623C3492.423,605.4,3492.24,605.134,3492,604.911Z" transform="translate(-247.707 -430.558)" fill="#ed6979"/>
    <path id="Path_49895" data-name="Path 49895" d="M3444.257,832.531a14.966,14.966,0,0,1,2.062-.068l.059.049a.465.465,0,0,1-.141.36c-.535.092-1.079.133-1.612.24a5.064,5.064,0,0,0-3.2,1.864,7.229,7.229,0,0,0-1.471-.383l-.062-.008a7.889,7.889,0,0,0-1.106-.009l-.439.164-.082-.073a3.977,3.977,0,0,1,.418-.469C3440.058,832.8,3442.394,832.544,3444.257,832.531Z" transform="translate(-199.847 -633.971)" fill="#ea3e5f"/>
    <path id="Path_49896" data-name="Path 49896" d="M3438.26,835.241a4,4,0,0,1,.418-.469c1.375-1.4,3.711-1.654,5.574-1.667a5.143,5.143,0,0,1-.65.1l.013.027a.692.692,0,0,0,.37-.041l.232.01-1.876.315a6.9,6.9,0,0,0-3.56,1.636l-.439.163Z" transform="translate(-199.842 -634.545)" fill="#ed6979"/>
    <path id="Path_49897" data-name="Path 49897" d="M3512.363,738.374l-.284.041a.791.791,0,0,1-.609-.171.55.55,0,0,1-.067-.226c-.1-.975-.081-1.986-.138-2.968l-.327-6.719.438.107.044.008a.893.893,0,0,0,.37,0,6.284,6.284,0,0,1,.025,1.072l.12,2.019.258,4.236Z" transform="translate(-264.659 -541.103)" fill="#f6af80"/>
    <path id="Path_49898" data-name="Path 49898" d="M3423.12,824.73a5.665,5.665,0,0,1,1.726-.411,16.352,16.352,0,0,1,3.9.016,13.784,13.784,0,0,1,1.522.23,5.745,5.745,0,0,1,1.009.175.228.228,0,0,1,.071.208,3.862,3.862,0,0,1-1.212.062c-1.941.007-4.037-.044-5.782.926a7.926,7.926,0,0,0-.965.687,4.206,4.206,0,0,0-1.231-.713,3.053,3.053,0,0,0-.716-.084,4.081,4.081,0,0,1,1.676-1.1Z" transform="translate(-184.841 -626.611)" fill="#d0213a"/>
    <path id="Path_49899" data-name="Path 49899" d="M3436.97,824.73a5.664,5.664,0,0,1,1.725-.411,16.355,16.355,0,0,1,3.9.016,13.788,13.788,0,0,1,1.522.23.378.378,0,0,1-.27.012l.04.041c-.073.042-.038.036-.1.035-1.451-.026-2.882-.083-4.335,0l-1.824.135a2.082,2.082,0,0,1-.556-.005A.234.234,0,0,1,3436.97,824.73Z" transform="translate(-198.692 -626.611)" fill="#ea3e5f"/>
    <path id="Path_49900" data-name="Path 49900" d="M3321.848,639.273a3,3,0,0,1,1.65.76,1.775,1.775,0,0,1-.213,1.157l-.139.216-1.569.085a7.377,7.377,0,0,0-.609-1.571c-.011.094-.024.179-.044.27a2.235,2.235,0,0,0,.115.79,15.149,15.149,0,0,0,.665,2.276,10.066,10.066,0,0,1,.83,2.173,8.2,8.2,0,0,1-.2,2.183l-1.1-.893a1.137,1.137,0,0,0,.166-.226c.448-.733-.127-1.519-.4-2.208a8.264,8.264,0,0,1-.341-1.121,5.942,5.942,0,0,1-.193-1.919c.033-.334.123-.675.174-1.009a2.159,2.159,0,0,1,.111-.67l.171,0,.1-.037c.476.182.76.641,1.191.912l.066-.021a.734.734,0,0,0,.12-.257C3322.435,639.856,3322.03,639.5,3321.848,639.273Z" transform="translate(-94.769 -461.676)" fill="#d0213a"/>
    <path id="Path_49901" data-name="Path 49901" d="M3354.457,273.963l-.3,1.242c-.027.1-.243.936-.283.963a5.483,5.483,0,0,1-.732.048,4.486,4.486,0,0,0-1.474.54,3.4,3.4,0,0,0-1.606,1.933,2.267,2.267,0,0,0,.326,1.781l-.139.047a2.683,2.683,0,0,1-2.123-.119,2.12,2.12,0,0,1-.771-1.125,12.267,12.267,0,0,1,1.47-1.779,6.251,6.251,0,0,1,.653-.65,3.113,3.113,0,0,1,.665-.318l1.079-.507c.55-.289,1.1-.579,1.625-.912Z" transform="translate(-118.764 -135.874)" fill="#7f0b19"/>
    <path id="Path_49902" data-name="Path 49902" d="M3349.78,648.536l.208-.864,9.228,4.268,2.32,1.048a14.355,14.355,0,0,1,2.009,1c-.271.138-.535.243-.643.551l-.017.054c-.6-.322-1.253-.577-1.875-.854l-4.618-2.044-3.206-1.586-1.246-.577A15.193,15.193,0,0,0,3349.78,648.536Z" transform="translate(-120.931 -469.167)" fill="#fbc36e"/>
    <path id="Path_49903" data-name="Path 49903" d="M3670.96,497.432c.179-.043.353-.049.53-.107a14.59,14.59,0,0,0,1.609-.733,12.782,12.782,0,0,1,5.155-1.583,4.916,4.916,0,0,1,1.539.219,5.576,5.576,0,0,1,.764.321c.208.106.417.295.659.286l.035,0a2.731,2.731,0,0,1,.3,1.723,3.575,3.575,0,0,0-2.722-.929,13.669,13.669,0,0,0-4.087.81l-1.3.39a2.513,2.513,0,0,1-.7.143,3.228,3.228,0,0,1-.719-.2A7.372,7.372,0,0,1,3670.96,497.432Z" transform="translate(-407.375 -333.013)" fill="#ed6979"/>
    <path id="Path_49904" data-name="Path 49904" d="M3646.3,373.166a4.736,4.736,0,0,1,1.41.6,5.4,5.4,0,0,0-3.417,2.71,11.335,11.335,0,0,0-1.583,4.544,22.594,22.594,0,0,0-1.882,2.739c-.277.5-.486,1.029-.752,1.531l-.793-.541a2.51,2.51,0,0,0,.251-.556l.4-.909c1.132-2.462,1.8-5.089,3.336-7.365a9.591,9.591,0,0,1,1.26-1.566,5.346,5.346,0,0,1,1.112-.833,3.364,3.364,0,0,0,.622-.327Z" transform="translate(-379.12 -224.348)" fill="#ed6979"/>
    <path id="Path_49905" data-name="Path 49905" d="M3448.111,501.429a.454.454,0,0,1,.135.027,2.869,2.869,0,0,1,.354.406,17.034,17.034,0,0,0,2.219,2.177,20.247,20.247,0,0,0,2.957,1.875,27.65,27.65,0,0,0,4.05,1.667,16.471,16.471,0,0,0,3.041.766,4.389,4.389,0,0,0,.882.069,2.153,2.153,0,0,0,.874-.311.592.592,0,0,0,.119-.115l.037-.039c.188.207.494.474.531.763a.573.573,0,0,1-.321.305c-1.674.8-4.666.143-6.338-.445a15.957,15.957,0,0,1-7.035-4.692A12.415,12.415,0,0,1,3448.111,501.429Z" transform="translate(-208.627 -338.74)" fill="#ed6979"/>
    <path id="Path_49906" data-name="Path 49906" d="M3310.059,253.682c.151.076.281.176.428.257a4.158,4.158,0,0,0,.707.267,4.458,4.458,0,0,1-.214.761,2.193,2.193,0,0,1-.16.494,2.426,2.426,0,0,1-.4.333,14.429,14.429,0,0,1-2.84,1.779,17.508,17.508,0,0,1-5.8,1.737,18.13,18.13,0,0,1-3.44-.026,7.418,7.418,0,0,0,.483-1.324,13.186,13.186,0,0,0,3.8.058,12.861,12.861,0,0,0,5.617-2.481,9.262,9.262,0,0,0,1.16-1.01,1.632,1.632,0,0,0,.352-.466l.03-.055A1.632,1.632,0,0,1,3310.059,253.682Z" transform="translate(-75.054 -117.787)" fill="#f6af80"/>
    <path id="Path_49907" data-name="Path 49907" d="M3669.154,427.752a4.836,4.836,0,0,1,1.165,1.21,4.186,4.186,0,0,0-1.155-.034c-1.6.219-3.119,1.449-4.377,2.392l-5.9,4.254-.81-.71a6.55,6.55,0,0,0,.651-.558l1.052-.936a32.985,32.985,0,0,1,4.845-3.854,14.6,14.6,0,0,1,2.862-1.318,6.55,6.55,0,0,1,.766-.209C3668.5,427.937,3668.969,427.928,3669.154,427.752Z" transform="translate(-395.884 -273.031)" fill="#ed6979"/>
    <path id="Path_49908" data-name="Path 49908" d="M3471.993,821.458l.483-.236.207,1.785a5.621,5.621,0,0,0,.109.878.6.6,0,0,0,.208-.4,2.607,2.607,0,0,0-.017-.613,1.907,1.907,0,0,1,.562.079l.029.119.063.02c.2.068.4.187.6.272a6.83,6.83,0,0,1,1,.475l.038.024a.431.431,0,0,1,.176.217l.058.1.075.016a.293.293,0,0,1-.009.234,7.107,7.107,0,0,0-.827-.338,2.993,2.993,0,0,0-1.951.251,11.652,11.652,0,0,0-2.1,1.394,4.966,4.966,0,0,1-2.253.905l-.077.01c-1.017.123-1.894-.184-2.729.6l.064-.734a2.878,2.878,0,0,1,.165-.682l.072.028.825-.861a7.637,7.637,0,0,1,1.228-.965c.348-.224.736-.382,1.091-.6l.024-.13a3.572,3.572,0,0,1,.876-.151,9.007,9.007,0,0,1,1.627-.02l.169-.016.052-.1.069-.18a2.35,2.35,0,0,0,.029-.766l-.095-.072A.691.691,0,0,0,3471.993,821.458Z" transform="translate(-224.261 -623.947)" fill="#d0213a"/>
    <path id="Path_49909" data-name="Path 49909" d="M3469.641,838.878a3.591,3.591,0,0,1,.877-.151,9,9,0,0,1,1.627-.02l.115.078a1.878,1.878,0,0,1-.246.6,2.834,2.834,0,0,1-.632.577,11.114,11.114,0,0,1-1.208.831,3.941,3.941,0,0,1-2.165.533,2.622,2.622,0,0,0-.7,0l-.042.009a1.778,1.778,0,0,0-.934.757c-.028.043-.014.028-.061.055l-.036-.064a2.864,2.864,0,0,1,.165-.682l.072.028.824-.861a7.723,7.723,0,0,1,1.228-.965c.349-.224.737-.382,1.092-.6Z" transform="translate(-224.794 -639.516)" fill="#ea3e5f"/>
    <path id="Path_49910" data-name="Path 49910" d="M3306.372,173.2a2.679,2.679,0,0,1,.556.061,2.58,2.58,0,0,1,1.521,1.3,6.124,6.124,0,0,1,.292.6.989.989,0,0,1,.069.155,2.366,2.366,0,0,1-.218.43,4.875,4.875,0,0,0-.346.937,1.267,1.267,0,0,0-.656-.621,1.158,1.158,0,0,0-.932.044,1.9,1.9,0,0,0-.923,1.144,2.445,2.445,0,0,0,.206,1.922,3.518,3.518,0,0,0,.406.439,9.351,9.351,0,0,1-1.69.206c-.093,0-.511.04-.552-.015a2.249,2.249,0,0,1-.181-.423,5.012,5.012,0,0,1,.649-5.2A2.53,2.53,0,0,1,3306.372,173.2Z" transform="translate(-79.63 -46.012)" fill="#fff"/>
    <path id="Path_49911" data-name="Path 49911" d="M3667.384,481.831c-.069-.018-.078,0-.116-.067a1.286,1.286,0,0,0,.514-.556c-.035-.417-.544-.816-.831-1.094a11.628,11.628,0,0,1,2.906-1.828,6.778,6.778,0,0,1,5.205-.431,4.458,4.458,0,0,1,2.614,2.376l-.035,0c-.242.009-.452-.18-.66-.285a5.5,5.5,0,0,0-.763-.321,4.913,4.913,0,0,0-1.539-.219,12.783,12.783,0,0,0-5.155,1.583,14.711,14.711,0,0,1-1.608.733C3667.735,481.781,3667.563,481.787,3667.384,481.831Z" transform="translate(-403.798 -317.411)" fill="#f38e9f"/>
    <path id="Path_49912" data-name="Path 49912" d="M3534.581,527.032a4.5,4.5,0,0,1,1.423.259l3.353.861a35.736,35.736,0,0,0,6.973.978,11.486,11.486,0,0,0,4.622-.542,2.709,2.709,0,0,0,1.225-.781,1.7,1.7,0,0,0,.2-.378l.008-.018a.938.938,0,0,1,.388.483.778.778,0,0,1-.111.62,5.234,5.234,0,0,1-2.935,1.642,14.324,14.324,0,0,1-4.012.342,21.259,21.259,0,0,1-7.262-1.412,20.815,20.815,0,0,1-2.125-1.118Z" transform="translate(-285.745 -361.565)" fill="#ed6979"/>
    <path id="Path_49913" data-name="Path 49913" d="M3267.84,645.247l.137-.987a9.632,9.632,0,0,1,2.243-4.064,8.229,8.229,0,0,1,1.753-1.674,3.938,3.938,0,0,1,2.958-.342c.182.223.587.583.545.894a.744.744,0,0,1-.12.257l-.066.021c-.43-.271-.715-.73-1.191-.912l-.1.037-.171,0a2.2,2.2,0,0,0-.111.67c-.05.333-.14.675-.173,1.009a5.929,5.929,0,0,0,.193,1.919,8.307,8.307,0,0,0,.342,1.121c.275.689.851,1.475.4,2.208a1.152,1.152,0,0,1-.167.226,3.694,3.694,0,0,1-1.257-1.531l-.02-.069a4.675,4.675,0,0,1-.093-1.31c0-.539.006-1.081.06-1.618.036-.168.142-.573.062-.723-.222.077-.333.334-.43.532a8.994,8.994,0,0,0-.629,1.786c-.273,1.119-.488,3.694-1.269,4.454a4.514,4.514,0,0,1-.415-1.247c-.318-2.046.517-4.347,1.4-6.177a5.666,5.666,0,0,0-1,1.587c-.222.1-.368.412-.487.617l-.913,1.736a5.784,5.784,0,0,1-.905,1.558,1.083,1.083,0,0,1-.527.292A.527.527,0,0,1,3267.84,645.247Z" transform="translate(-47.853 -460.582)" fill="#ea3e5f"/>
    <path id="Path_49914" data-name="Path 49914" d="M3629.483,383.592l-1.159-.775a5.89,5.89,0,0,1-.023-.908,15.317,15.317,0,0,1,.353-3.413,8.907,8.907,0,0,1,3.583-5.732,5.57,5.57,0,0,1,4.264-.756l-.033.028a3.352,3.352,0,0,1-.621.327,5.337,5.337,0,0,0-1.112.833,9.567,9.567,0,0,0-1.26,1.566c-1.531,2.276-2.2,4.9-3.336,7.365l-.4.909A2.487,2.487,0,0,1,3629.483,383.592Z" transform="translate(-369.324 -223.19)" fill="#f38e9f"/>
    <path id="Path_49915" data-name="Path 49915" d="M3649.432,423.971l-1.048-.768a13.616,13.616,0,0,1,1.563-2.865,13.823,13.823,0,0,1,4.585-4.047,6.314,6.314,0,0,1,1.994-.711,5.455,5.455,0,0,1,3.983,1.279c-.182.176-.65.185-.9.236a6.583,6.583,0,0,0-.766.209,14.645,14.645,0,0,0-2.862,1.318,33.028,33.028,0,0,0-4.844,3.854l-1.052.936A6.766,6.766,0,0,1,3649.432,423.971Z" transform="translate(-387.24 -262.138)" fill="#f38e9f"/>
    <path id="Path_49916" data-name="Path 49916" d="M3350.15,244.372a3.8,3.8,0,0,1,.985.071,2.567,2.567,0,0,1,1.74.985,2.193,2.193,0,0,1,.211,1.674,7.421,7.421,0,0,1-3.335,4.135l-.11-.612-1.208,1.727a8.752,8.752,0,0,1-1.724,2.038,5.2,5.2,0,0,1-3.677,1.044,2.646,2.646,0,0,1-1.845-.963,1.2,1.2,0,0,1-.166-.44,1.9,1.9,0,0,1,.515-1l.073.179.157.347a1.922,1.922,0,0,0,1.176.886,2.984,2.984,0,0,0,2.322-.385,8.136,8.136,0,0,0,3.246-4.288,24.306,24.306,0,0,0,.682-2.572l.335-1.22a4,4,0,0,0,1.578.144l.021-.06a1.119,1.119,0,0,0-.661-.27l-1.321-.307a1.487,1.487,0,0,1-.588-.258.636.636,0,0,1-.229-.5.69.69,0,0,1,.375-.147A10.788,10.788,0,0,1,3350.15,244.372Z" transform="translate(-113.118 -109.477)" fill="#f6af80"/>
    <path id="Path_49917" data-name="Path 49917" d="M3396.158,148.014a6.628,6.628,0,0,1,1.174.784,9.49,9.49,0,0,1,3.095,4.376,10.156,10.156,0,0,1-.429,7.694,7.532,7.532,0,0,1-3.891,3.727,6.786,6.786,0,0,1-.868.219,1.623,1.623,0,0,0-.827.285l.024.039a9.854,9.854,0,0,0,1.671-.221,28.449,28.449,0,0,1-2.039,6.6l-1.947,3.937-1.566,2.883a9.587,9.587,0,0,0-1.426,4.2,2.284,2.284,0,0,0,.394,1.362,1.4,1.4,0,0,0,.954.547,2.536,2.536,0,0,0,.473.011l-.069.142a1.677,1.677,0,0,1-.967.01l-.052-.019a1.406,1.406,0,0,1-.266-.117,1.873,1.873,0,0,1-.826-1.154l-.017-.066a3.243,3.243,0,0,1-.027-1.215c.26-2.125,1.5-3.795,2.516-5.609a37.936,37.936,0,0,0,1.817-3.562c.344-.8.587-1.634.873-2.456l1.413-4.336a.7.7,0,0,0-.314.013c-.327.038-.652.105-.98.127a5.963,5.963,0,0,1-1.158-.015l-.769-.075.061-.409a.317.317,0,0,1,.066-.214,1.31,1.31,0,0,1,.238-.147l.605-.379a9.32,9.32,0,0,0,.86-.716l.049.01a3.827,3.827,0,0,0,2.513-.941l.191-.146a8.682,8.682,0,0,0,3.073-5.572,11.392,11.392,0,0,0-2.274-8c-.2-.247-.4-.486-.625-.712a3.032,3.032,0,0,1-.7-.807Z" transform="translate(-155.627 -23.547)" fill="#ed6979"/>
    <path id="Path_49918" data-name="Path 49918" d="M3352.857,175.657a3.26,3.26,0,0,1,2.575.739,4.1,4.1,0,0,1,1.351,2.821,4.824,4.824,0,0,1-1.011,3.542,3.419,3.419,0,0,1-2.437,1.153,3.526,3.526,0,0,1-2.278-.669,4.277,4.277,0,0,1-1.705-2.83,4.4,4.4,0,0,1,.785-3.12A4.075,4.075,0,0,1,3352.857,175.657Z" transform="translate(-120.509 -48.18)" fill="#fff"/>
    <path id="Path_49919" data-name="Path 49919" d="M3378.538,202.668a1.447,1.447,0,0,1,.957.152,1.936,1.936,0,0,1,.894,1.207,2.5,2.5,0,0,1-.2,1.973,1.993,1.993,0,0,1-1.3.98,1.67,1.67,0,0,1-.969-.2,1.813,1.813,0,0,1-.864-1.132,2.619,2.619,0,0,1,.221-1.994A2,2,0,0,1,3378.538,202.668Z" transform="translate(-145.162 -72.271)" fill="#020101"/>
    <path id="Path_49920" data-name="Path 49920" d="M3380.513,204.784a1.448,1.448,0,0,1,.956.331,2.075,2.075,0,0,1,.611,1.451,2.152,2.152,0,0,1-.526,1.609,1.3,1.3,0,0,1-.971.49,1.531,1.531,0,0,1-.657-.114l-.056-.031-.105-.056a1.7,1.7,0,0,1-.736-1.1,2.442,2.442,0,0,1,.336-1.827A1.733,1.733,0,0,1,3380.513,204.784Z" transform="translate(-146.97 -74.177)" fill="#1aa4c2"/>
    <path id="Path_49921" data-name="Path 49921" d="M3387.05,207.622a1.29,1.29,0,0,1,.034-.344.618.618,0,0,1,.307-.369.573.573,0,0,1,.4-.005.933.933,0,0,1,.442.548.826.826,0,0,1-.254.643.583.583,0,0,1-.441.064.574.574,0,0,1-.341-.28Z" transform="translate(-154.17 -76.038)" fill="#fff"/>
    <path id="Path_49922" data-name="Path 49922" d="M3385.929,212.249a1.462,1.462,0,0,1,.483,1.1,1.751,1.751,0,0,1-.422,1.2.83.83,0,0,1-.646.217.894.894,0,0,1-.63-.319,1.693,1.693,0,0,1-.216-1.242,5.092,5.092,0,0,1,.248-.782l.148.256a.569.569,0,0,0,.34.28.584.584,0,0,0,.442-.064A.831.831,0,0,0,3385.929,212.249Z" transform="translate(-151.865 -80.835)" fill="#020101"/>
    <path id="Path_49923" data-name="Path 49923" d="M3286.536,228.045l-1.042.891a14.64,14.64,0,0,1-5.625,2.73,12.416,12.416,0,0,1-4.247.061,4.444,4.444,0,0,0-.141-1.535,6.234,6.234,0,0,0-2.2-3.105,8.513,8.513,0,0,0-.979-.575l5.926-.769a3.305,3.305,0,0,0,2.26-1.181l.033-.049a7.284,7.284,0,0,0,.525,1.3,3.989,3.989,0,0,0,2.42,1.912,4.212,4.212,0,0,0,3.334-.561l.1.355-.061.151a1.655,1.655,0,0,0-.273.323Z" transform="translate(-51.834 -91.771)" fill="#f7c0ad"/>
    <path id="Path_49924" data-name="Path 49924" d="M3222.6,245.177a2.635,2.635,0,0,1,1.768-.3,3.968,3.968,0,0,1,.827.434,5.185,5.185,0,0,1,1.982,2.336,4.652,4.652,0,0,1,.439,1.966,1.392,1.392,0,0,1-.479,0,4.716,4.716,0,0,0-.828.015,5.623,5.623,0,0,0-4.254,3.722,11.042,11.042,0,0,0-.639,4.34,3.956,3.956,0,0,1-1.41-1.761v0l-.626-1.415a8.763,8.763,0,0,1,.134-6.752A5.094,5.094,0,0,1,3222.6,245.177Z" transform="translate(-4.089 -109.882)" fill="#97304c"/>
    <path id="Path_49925" data-name="Path 49925" d="M3222.6,248.123a1.487,1.487,0,0,1,.921.251c-.377.184-.778.3-1.151.5a5.01,5.01,0,0,0-2.283,2.8,8.933,8.933,0,0,0-.513,3.377,21.628,21.628,0,0,0,.272,2.385c.066.4.181.811.214,1.212a.289.289,0,0,1-.054.226l-.626-1.415a8.762,8.762,0,0,1,.134-6.752A5.094,5.094,0,0,1,3222.6,248.123Z" transform="translate(-4.089 -112.829)" fill="#ed6979"/>
    <path id="Path_49926" data-name="Path 49926" d="M3411.9,504.337c1.116,3.076,4.044,5.219,6.908,6.558a13.771,13.771,0,0,0,5.885,1.4,5.994,5.994,0,0,0,1.939-.271c.252-.09.66-.283.766-.545a.5.5,0,0,0-.039-.4,3.633,3.633,0,0,0-.587-.651,13.944,13.944,0,0,0-1.164-1.057c.658.154,1.309.4,1.965.569a20.849,20.849,0,0,0,4.084.64,12.94,12.94,0,0,1-5.657,3.223,23.154,23.154,0,0,1-6.655,1.006,21.953,21.953,0,0,1-11.867-3.211,5.438,5.438,0,0,0,3.849-1.1,1.783,1.783,0,0,0,.388-.511c-.266.185-.5.409-.769.591a4.212,4.212,0,0,1-2.429.642,6.838,6.838,0,0,0,2.393-.994,3.888,3.888,0,0,0,1.376-2.984,7.873,7.873,0,0,0-.207-1.572,3.864,3.864,0,0,1-.193-1.266Z" transform="translate(-172.394 -341.333)" fill="#ed6979"/>
    <path id="Path_49927" data-name="Path 49927" d="M3327.282,142.786a10.127,10.127,0,0,0,1.046-1.183,4.1,4.1,0,0,0,.882-2.908,2.114,2.114,0,0,0-.937-1.374,5.093,5.093,0,0,0-3.849-.361,2.478,2.478,0,0,1,.255-.336,5.386,5.386,0,0,0,.847-3.836,4.264,4.264,0,0,0-1.67-2.918,3.465,3.465,0,0,0-2.652-.6,4.444,4.444,0,0,0-2.89,1.878l-.506-.9a2.58,2.58,0,0,0-1.661-1.183,2.813,2.813,0,0,0-2.223.7l.417-.844a3,3,0,0,1,1.793-1.4,2.091,2.091,0,0,1,1.764.519,2.476,2.476,0,0,0-.277-.449,1.529,1.529,0,0,0-1.154-.479,9.426,9.426,0,0,1,4.912-1.738,12.668,12.668,0,0,1,2.042.078,4.047,4.047,0,0,1,.572-.587,3.961,3.961,0,0,1,3.006-.875,4.166,4.166,0,0,0-1.564,1.26,8.186,8.186,0,0,1,3.532-.06,10.269,10.269,0,0,0-1.67.56,7.78,7.78,0,0,1,2.187.814l.022.066a3.006,3.006,0,0,0,.7.807c.221.226.427.465.626.712a11.4,11.4,0,0,1,2.274,8,8.682,8.682,0,0,1-3.073,5.572l-.191.146a3.827,3.827,0,0,1-2.513.941Z" transform="translate(-88.953 -2.082)" fill="#f38e9f"/>
    <path id="Path_49928" data-name="Path 49928" d="M3377.509,157.981a2.883,2.883,0,0,1,1.83.562,3.97,3.97,0,0,1,1.411,2.645,9.384,9.384,0,0,0-1.112-1.835,3.109,3.109,0,0,0-1.246-.833,4.127,4.127,0,0,0-3.174.558A3.555,3.555,0,0,1,3377.509,157.981Z" transform="translate(-143.618 -32.436)" fill="#020101"/>
    <path id="Path_49929" data-name="Path 49929" d="M3344.706,314.847l.769.075a5.959,5.959,0,0,0,1.158.015c.328-.022.653-.089.98-.127a.7.7,0,0,1,.314-.013l-1.413,4.336c-.286.821-.53,1.656-.873,2.456a37.644,37.644,0,0,1-1.817,3.562c-1.018,1.814-2.255,3.484-2.516,5.609a3.274,3.274,0,0,0,.027,1.215l.017.066a1.88,1.88,0,0,0,.827,1.154,1.424,1.424,0,0,0,.267.117l.051.018a1.677,1.677,0,0,0,.967-.01l.068-.142c1.99-.38,3.447-2.07,5.179-3.013,6.7-3.652,14.471-.673,20.3,3.28a20.186,20.186,0,0,1,2.255,1.772c.209.191.548.45.625.733a.28.28,0,0,1-.093.128l-.033.047a1.713,1.713,0,0,1-.547.385,16.646,16.646,0,0,1-1.731-.58l-5.159-2.094a28.864,28.864,0,0,0-10.672-2.489,13.14,13.14,0,0,0-2.318.223,8.294,8.294,0,0,1-.931.224l-.073,0-.074.062c.63,0,1.28-.172,1.91-.233a17.776,17.776,0,0,1,3.954.106,32.876,32.876,0,0,1,7.76,2.142l5.769,2.345,2.046.705a14.923,14.923,0,0,1,3.154,1.2l-.008.018a1.692,1.692,0,0,1-.2.378,2.71,2.71,0,0,1-1.224.781,11.489,11.489,0,0,1-4.623.542,35.752,35.752,0,0,1-6.974-.978l-3.353-.861a4.5,4.5,0,0,0-1.423-.259,4.737,4.737,0,0,0-.745-.267,13.285,13.285,0,0,0,1.745,1.047,22.971,22.971,0,0,1,4.316,2.965l-.037.039a.577.577,0,0,1-.12.115,2.15,2.15,0,0,1-.874.311,4.379,4.379,0,0,1-.881-.069,16.481,16.481,0,0,1-3.042-.766,27.629,27.629,0,0,1-4.049-1.667,20.151,20.151,0,0,1-2.957-1.875,17.058,17.058,0,0,1-2.22-2.177,2.8,2.8,0,0,0-.353-.406.452.452,0,0,0-.135-.027.431.431,0,0,0,.026.314l-.013.067a3.856,3.856,0,0,0,.193,1.266,7.8,7.8,0,0,1,.207,1.572,3.884,3.884,0,0,1-1.376,2.985,6.826,6.826,0,0,1-2.392.994,8.715,8.715,0,0,1-2.223-.257,9.142,9.142,0,0,1-5.608-3.847,6.659,6.659,0,0,1-.99-3.42c-.079-4.28,3.239-7.846,5.347-11.289A29.478,29.478,0,0,0,3344.706,314.847Z" transform="translate(-108.206 -172.278)" fill="#f38e9f"/>
    <path id="Path_49930" data-name="Path 49930" d="M3472.52,463.84c.086-.213.409-.375.612-.464a6.5,6.5,0,0,1,1.528-.39,15.53,15.53,0,0,1,5.483.241,29.676,29.676,0,0,1,5.479,1.638,62.946,62.946,0,0,0,8.363,3.258l-.033.047a1.719,1.719,0,0,1-.547.385,16.738,16.738,0,0,1-1.732-.58l-5.159-2.093a28.859,28.859,0,0,0-10.673-2.49,13.152,13.152,0,0,0-2.317.223,8.288,8.288,0,0,1-.93.224Z" transform="translate(-230.396 -304.321)" fill="#ed6979"/>
  </g>
</svg>
