<svg xmlns="http://www.w3.org/2000/svg" width="47.377" height="69.518" viewBox="0 0 47.377 69.518">
  <g id="Group_56065" data-name="Group 56065" transform="translate(-257.993 -23.893)">
    <g id="Group_56063" data-name="Group 56063" transform="translate(258.135 24.037)">
      <g id="Group_56038" data-name="Group 56038" transform="translate(4.167 49.929)">
        <g id="Group_56035" data-name="Group 56035" transform="translate(20.166 5.23)">
          <path id="Path_50940" data-name="Path 50940" d="M778.938,1181.525q.124,1.473.185,3.044c.078,2.083.051,4.059-.048,5.915a1.613,1.613,0,0,1-1.228,1.484,12.247,12.247,0,0,1-5.159.132,1.616,1.616,0,0,1-1.316-1.641c.019-.576.034-1.239.035-1.968a20.493,20.493,0,0,0-.319-4.919,12.57,12.57,0,0,0-1.388-3.46c3.239.471,6,.943,9.238,1.414Z" transform="translate(-769.7 -1180.11)" fill="#eea647"/>
          <path id="Path_50941" data-name="Path 50941" d="M812.3,1344.048a1.61,1.61,0,0,1-1.231,1.5,12.259,12.259,0,0,1-5.143.124,1.611,1.611,0,0,1-1.306-1.641c0-.118.008-.236.011-.354q.022-.812.024-1.591a9.941,9.941,0,0,0,4.734.36,9.8,9.8,0,0,0,3.022-1.046l-.11,2.648Z" transform="translate(-802.95 -1333.685)" fill="#491600"/>
        </g>
        <g id="Group_56037" data-name="Group 56037" transform="translate(0 0)">
          <path id="Path_50942" data-name="Path 50942" d="M357.271,1076.561l-1.312,2.633c.113.315.247.65.407,1,.028.06.055.12.083.178a1.55,1.55,0,0,1-.4,1.853,10.713,10.713,0,0,1-4.837,2.317,1.55,1.55,0,0,1-1.646-.747c-.1-.176-.206-.367-.312-.571a14.256,14.256,0,0,1-1-2.416c-.7-2.506.84-5.35,2.62-8.634.326-.6.613-1.089.81-1.414l5.58,5.8Z" transform="translate(-348.088 -1070.76)" fill="#eea647"/>
          <g id="Group_56036" data-name="Group 56036" transform="translate(2.368 2.209)">
            <path id="Path_50943" data-name="Path 50943" d="M400.029,1117.3a1.616,1.616,0,0,0-2.011.007,1.313,1.313,0,0,0-.418.931,1.416,1.416,0,0,0,.385.907c.372.461,1.274,1.194,1.937.831s.594-1.414.584-1.545a1.609,1.609,0,0,0-.476-1.13Zm-.033,3.644a.758.758,0,0,0-.232.509c-.014.091-.089.57.153.758a.916.916,0,0,0,1.236-.567.743.743,0,0,0-.371-.733A.718.718,0,0,0,400,1120.942Z" transform="translate(-397.6 -1116.95)" fill="#c66e12"/>
          </g>
          <path id="Path_50944" data-name="Path 50944" d="M365.038,1248.388a1.567,1.567,0,0,1-.412,1.872,10.711,10.711,0,0,1-4.8,2.3,1.572,1.572,0,0,1-1.669-.762c-.156-.273-.311-.564-.463-.871-.23-.467-.42-.916-.58-1.336a26.843,26.843,0,0,0,7.443-2.37c.1.273.211.559.342.854.047.107.095.211.143.312Z" transform="translate(-356.678 -1238.78)" fill="#491600"/>
        </g>
      </g>
      <g id="Group_56039" data-name="Group 56039" transform="translate(39.636 47.428)">
        <path id="Path_50945" data-name="Path 50945" d="M1089.62,1018.547a4.573,4.573,0,0,1,1.824.021,5.1,5.1,0,0,1,3.608,3.28c-.128.121-1.246-1.594-3.362-1.927a4.9,4.9,0,0,0-1.966.105q-.052-.739-.1-1.478Z" transform="translate(-1089.62 -1018.465)" fill="#eea647"/>
        <path id="Path_50946" data-name="Path 50946" d="M1154.328,1045.211c.849-.557,2.1.062,2.719.636a4.086,4.086,0,0,1,.588,4.474,3.569,3.569,0,0,0-1.138-1.224,3.464,3.464,0,0,0-.761-.376,4,4,0,0,0,.255.463,3.935,3.935,0,0,0,.4.521,3.123,3.123,0,0,1-2.661-2.087A2.25,2.25,0,0,1,1154.328,1045.211Z" transform="translate(-1150.564 -1043.724)" fill="#491600"/>
      </g>
      <g id="Group_56044" data-name="Group 56044" transform="translate(7.227 26.457)">
        <path id="Path_50947" data-name="Path 50947" d="M415.109,580.031a60.386,60.386,0,0,0-2.019,9.225c-1.185,8.578-2.071,15,1.618,19.677,4.343,5.507,12.47,5.4,15.505,5.291,1.925-.069,13.4-.487,15.451-6.867a9.1,9.1,0,0,0-2.1-8.323,9.468,9.468,0,0,0-4.228-2.583c-6.761-2.1-12.417,3.291-14.688,1.086-.258-.25-.663-.783-.461-4.469a63.62,63.62,0,0,1,1.858-11.527l-10.94-1.51Z" transform="translate(-412.061 -580.03)" fill="#eea647"/>
        <path id="Path_50948" data-name="Path 50948" d="M443.064,1134.512a32.078,32.078,0,0,1-7.274-3.622l0,0a13.367,13.367,0,0,0,2.324,3.473c4.479,4.569,11.836,4.47,14.691,4.367,1.391-.05,7.774-.283,11.978-2.816a16.153,16.153,0,0,0,2.509-2.194h0c-3.949,1.485-13.633,4.465-24.231.788Z" transform="translate(-434.655 -1104.541)" fill="#fcefde"/>
        <g id="Group_56042" data-name="Group 56042" transform="translate(1.731 25.505)">
          <g id="Group_56040" data-name="Group 56040" transform="translate(21.139)">
            <path id="Path_50949" data-name="Path 50949" d="M901.24,1113.25c0,.119-.013.3-.027.518a25.568,25.568,0,0,1-1.586,7.275,18.257,18.257,0,0,0-.789,7.222,1.9,1.9,0,0,1-1.413,1.958,9.012,9.012,0,0,1-4.79-.058,1.886,1.886,0,0,1-1.357-1.765q-.024-.922-.05-1.719a23.671,23.671,0,0,0-.461-5.022,13.258,13.258,0,0,1-.482-2,10.026,10.026,0,0,1-.021-2.48Z" transform="translate(-890.197 -1113.25)" fill="#eea647"/>
            <path id="Path_50950" data-name="Path 50950" d="M919.36,1386.315a1.886,1.886,0,0,1-1.4,1.943,9.022,9.022,0,0,1-4.791-.055,1.888,1.888,0,0,1-1.366-1.766q-.018-.679-.039-1.359c0-.12-.008-.24-.011-.361a15.542,15.542,0,0,0,5.08.107,15.344,15.344,0,0,0,2.479-.574c-.007.456,0,.933.018,1.43Q919.34,1386,919.36,1386.315Z" transform="translate(-910.719 -1371.287)" fill="#491600"/>
          </g>
          <g id="Group_56041" data-name="Group 56041" transform="translate(0 1.144)">
            <path id="Path_50951" data-name="Path 50951" d="M460.677,1141.615c.113,1.2.2,2.458.246,3.767.076,2.069.05,4.026-.046,5.856a1.789,1.789,0,0,1-1.3,1.628,11.08,11.08,0,0,1-5.513.135,1.788,1.788,0,0,1-1.387-1.837c.029-.546.051-1.173.053-1.862.012-3.869.022-7.368-2.158-10.111a8.876,8.876,0,0,0-2.311-2.03l12.417,4.454Z" transform="translate(-448.26 -1137.16)" fill="#eea647"/>
            <path id="Path_50952" data-name="Path 50952" d="M548.689,1381.631a1.775,1.775,0,0,1-1.282,1.615,11.08,11.08,0,0,1-5.545.139,1.78,1.78,0,0,1-1.377-1.831q.019-.355.034-.72.027-.732.029-1.427a13.295,13.295,0,0,0,8.226-.287q-.014,1.023-.064,2.1c-.006.138-.013.274-.02.41Z" transform="translate(-536.071 -1367.547)" fill="#491600"/>
          </g>
        </g>
        <g id="Group_56043" data-name="Group 56043" transform="translate(1.548 3.792)">
          <path id="Path_50953" data-name="Path 50953" d="M607.92,660.029a2.7,2.7,0,0,0,.779,1.814,2.727,2.727,0,0,0,2.695.6q.079-.474.165-.955.2-1.12.43-2.188Zm.4,8.963a2.635,2.635,0,0,0,2.331,2.273c-.015-.862-.007-1.77.032-2.719.033-.817.087-1.6.156-2.35a2.664,2.664,0,0,0-2.518,2.8Z" transform="translate(-600.099 -659.3)" fill="#c66e12"/>
          <ellipse id="Ellipse_2186" data-name="Ellipse 2186" cx="1.302" cy="1.02" rx="1.302" ry="1.02" transform="translate(1.884 4.562) rotate(-77.72)" fill="#c66e12"/>
          <ellipse id="Ellipse_2187" data-name="Ellipse 2187" cx="1.307" cy="1.071" rx="1.307" ry="1.071" transform="translate(5.823 6.358) rotate(-60)" fill="#c66e12"/>
          <path id="Path_50954" data-name="Path 50954" d="M448.718,803.5c-.673.178-.949.879-1.15,1.391a2.151,2.151,0,0,0-.136,1.789,1.938,1.938,0,0,0,1.343.943,1.456,1.456,0,0,0,1.22-.123c.227-.19.231-.424.225-2.168,0-.828-.008-1.247-.2-1.472A1.327,1.327,0,0,0,448.718,803.5Zm-2.788,5.322a1.9,1.9,0,0,0-1.122.907,2.2,2.2,0,0,0-.338,1.691,2.039,2.039,0,0,0,2,1.553,1.615,1.615,0,0,0,.907-.415,2.185,2.185,0,0,0,.589-1.635,2.074,2.074,0,0,0-.374-1.615,1.715,1.715,0,0,0-1.661-.486Zm5.56,3.6a2.648,2.648,0,0,0-2.511.574c-.313.25-.8.637-.759,1.127a1.158,1.158,0,0,0,.472.718,2.723,2.723,0,0,0,1.958.81c.166-.006,1.354-.053,1.712-.83a1.793,1.793,0,0,0-.023-1.2,1.75,1.75,0,0,0-.526-.987A1.536,1.536,0,0,0,451.491,812.417Zm12.474,2.88c-.545.493-.816.74-.9,1.086a2.352,2.352,0,0,0,1.886,2.5,2.725,2.725,0,0,0,2.891-1.927,2.256,2.256,0,0,0-.051-1.609,2.134,2.134,0,0,0-1.937-1.2C465.209,814.173,464.794,814.547,463.965,815.3Zm-6.826.84a2.105,2.105,0,0,0-.841,1.4,1.208,1.208,0,0,0,.154.763,1.223,1.223,0,0,0,.456.4,2.13,2.13,0,0,0,1.286.392,1.87,1.87,0,0,0,1.51-1.058,1.726,1.726,0,0,0,.149-1.055,1.677,1.677,0,0,0-1.218-1.341,1.83,1.83,0,0,0-1.5.5Zm-3.5,7.056a2.019,2.019,0,0,0-.476,1.562c.114.446.463.69.875.977.441.307,1.158.808,1.7.552.573-.269.616-1.212.65-1.96.029-.648.047-1.035-.225-1.372a1.665,1.665,0,0,0-2.075-.252,1.648,1.648,0,0,0-.451.492Zm-2.155-4.573a1.615,1.615,0,0,0-2.011.007,1.312,1.312,0,0,0-.418.931,1.417,1.417,0,0,0,.385.907c.372.461,1.274,1.194,1.937.83s.594-1.413.584-1.545a1.609,1.609,0,0,0-.476-1.13Zm3.661-8.879c-.586.324-1.324.841-1.324,1.477,0,1.634,4.877,3.893,6.442,2.337.97-.964.346-3.073.188-3.57a17.1,17.1,0,0,1-2.26.64,3.635,3.635,0,0,1-2.09.038,1.592,1.592,0,0,1-.82-.627,1.3,1.3,0,0,1-.135-.3Zm14.084-.795a3.265,3.265,0,0,0,.1,2.1c.338.788.783.752,1.354,1.794.461.84.363,1.212.857,1.624a1.776,1.776,0,0,0,1.354.431c.911-.161,1.687-1.337,1.675-2.911a10.014,10.014,0,0,0-5.339-3.035Zm5.348,7.714a2.243,2.243,0,0,0,.961,1.253,3.824,3.824,0,0,0,1.232.665,9.082,9.082,0,0,0-.781-4.361,3.3,3.3,0,0,0-.52.43,2.519,2.519,0,0,0-.892,2.014Zm.737,9.033c.216-.6.425-1.256.615-1.953a26.339,26.339,0,0,0,.637-3.034,3.185,3.185,0,0,0-2.3,3.078,2.9,2.9,0,0,0,1.048,1.909Zm-13.378-16.152a2.49,2.49,0,0,0,.671,1.363,2.59,2.59,0,0,0,4.437-2.21,15.743,15.743,0,0,0-5.107.847Zm-11.251-1.314a1.006,1.006,0,0,0-.308.676c-.03.19-.121.764.2,1.006.4.3,1.1-.163,1.2-.23a.812.812,0,0,0-.046-1.5.954.954,0,0,0-1.046.044Zm18.793,10.323a.879.879,0,0,0-.695.032c-.171.056-.688.224-.752.6-.068.4.377.763.7.9a.822.822,0,0,0,.614.056.912.912,0,0,0,.492-.723.869.869,0,0,0-.359-.862Zm-17.641,6.561a.879.879,0,0,0-.695.032c-.171.055-.688.224-.752.6-.068.4.377.763.7.9a.821.821,0,0,0,.614.056.912.912,0,0,0,.492-.723.869.869,0,0,0-.359-.862Zm18.713-.784a1.152,1.152,0,0,0-.695.032,1.366,1.366,0,0,0-.752.6,1.449,1.449,0,0,0-.046,1.252c.024.058.373.882,1.025.892a1.274,1.274,0,0,0,.933-.584,1.473,1.473,0,0,0,.369-.891,1.33,1.33,0,0,0-.833-1.3Zm2.029-8.39a1.194,1.194,0,0,0-1.023.031,1.067,1.067,0,0,0-.7.53.913.913,0,0,0,.038.646c.148.45.628,1.4,1.214,1.322.5-.068.755-.833.815-1.261.021-.151.133-.962-.346-1.268Zm-.374,4.468c-.967-.316-1.726.668-1.892.882a.887.887,0,0,0-.229.528,1.191,1.191,0,0,0,.571.885c.753.505,2.26.352,2.556-.5a1.53,1.53,0,0,0-1.006-1.8Zm-19.439-3.441a.758.758,0,0,0-.232.509c-.014.091-.088.57.153.758a.916.916,0,0,0,1.236-.567.743.743,0,0,0-.371-.733.718.718,0,0,0-.787.033Z" transform="translate(-444.415 -796.56)" fill="#c66e12"/>
        </g>
      </g>
      <g id="Group_56062" data-name="Group 56062" transform="translate(0 0)">
        <g id="Group_56047" data-name="Group 56047" transform="translate(0 4.586)">
          <g id="Group_56045" data-name="Group 56045" transform="translate(23.882 3.231)">
            <path id="Path_50955" data-name="Path 50955" d="M760.27,192.008a9.576,9.576,0,0,1,1.637-.881,8.744,8.744,0,0,1,5.3-.607,8.262,8.262,0,0,1,3.756,1.953c-.267.4-.664.966-1.19,1.608a10.606,10.606,0,0,1-1.3,1.434A6.9,6.9,0,0,1,764.187,197a7.146,7.146,0,0,1-1.35-.112l-2.567-4.875Z" transform="translate(-760.27 -190.34)" fill="#eea647"/>
            <path id="Path_50956" data-name="Path 50956" d="M786.676,223.466c-.554-.027-1.385-.082-2.393-.205a26.592,26.592,0,0,0-2.852-.369,6.789,6.789,0,0,0-3.057.535,5.968,5.968,0,0,0-1.605,1.074l1.777,3.375a7.187,7.187,0,0,0,1.35.112,6.894,6.894,0,0,0,4.292-1.482,10.578,10.578,0,0,0,1.3-1.434c.526-.641.922-1.206,1.19-1.608Z" transform="translate(-775.981 -221.333)" fill="#fcefde"/>
          </g>
          <g id="Group_56046" data-name="Group 56046">
            <path id="Path_50957" data-name="Path 50957" d="M271.45,125.981a9.561,9.561,0,0,0-1.363-1.263,8.745,8.745,0,0,0-4.981-1.919,8.253,8.253,0,0,0-4.125.948c.158.456.4,1.1.748,1.854a10.578,10.578,0,0,0,.9,1.713,6.9,6.9,0,0,0,3.783,2.512,7.132,7.132,0,0,0,1.335.23Z" transform="translate(-260.979 -122.792)" fill="#eea647"/>
            <path id="Path_50958" data-name="Path 50958" d="M260.97,142.73c.543.113,1.361.268,2.368.4a26.466,26.466,0,0,1,2.853.359,6.792,6.792,0,0,1,2.825,1.285,5.958,5.958,0,0,1,1.284,1.443l-2.568,2.822a7.214,7.214,0,0,1-1.335-.23,6.9,6.9,0,0,1-3.782-2.512,10.582,10.582,0,0,1-.9-1.713c-.348-.753-.59-1.4-.748-1.854Z" transform="translate(-260.97 -141.776)" fill="#fcefde"/>
          </g>
        </g>
        <g id="Group_56058" data-name="Group 56058" transform="translate(2.771 5.706)">
          <path id="Path_50959" data-name="Path 50959" d="M343.3,162.4c.184-.916,1.394-7.48-2.928-12.308a10.351,10.351,0,0,0-14.33-1.828c-5.4,3.588-5.872,10.247-5.923,11.179a5.658,5.658,0,0,0-1.215,3.413c.083,4.292,6.346,7.744,11.407,8.412,5.141.679,12.147-1.107,13.31-5.259a5.69,5.69,0,0,0-.32-3.609Z" transform="translate(-318.902 -146.19)" fill="#eea647"/>
          <g id="Group_56057" data-name="Group 56057" transform="translate(0 4.245)">
            <g id="Group_56052" data-name="Group 56052" transform="translate(4.233)">
              <path id="Path_50960" data-name="Path 50960" d="M701.311,267.08a1.9,1.9,0,0,1,2.762.455.158.158,0,0,1-.253.187,1.428,1.428,0,0,0-1.045-.527,1.532,1.532,0,0,0-1.043.406.336.336,0,1,1-.421-.521Z" transform="translate(-687.113 -265.165)" fill="#491600"/>
              <g id="Group_56049" data-name="Group 56049" transform="translate(12.431 4.325)">
                <path id="Path_50961" data-name="Path 50961" d="M667.28,328.892c.123-1.809,1.059-3.185,2.272-3.474a2.269,2.269,0,0,1,1.435.153c1.253.606,1.874,2.564,1.451,4.848a11.006,11.006,0,0,0-1.346-.678,11.165,11.165,0,0,0-3.812-.85Z" transform="translate(-667.28 -325.365)" fill="#fcefde"/>
                <g id="Group_56048" data-name="Group 56048" transform="translate(0 0.362)">
                  <path id="Path_50962" data-name="Path 50962" d="M671.2,335.655a2.446,2.446,0,0,0-2.138-2.72l-.053-.005a3.723,3.723,0,0,0-1.731,3.166,10.738,10.738,0,0,1,3.436.726,2.389,2.389,0,0,0,.485-1.168Z" transform="translate(-667.28 -332.93)" fill="#c66e12"/>
                  <path id="Path_50963" data-name="Path 50963" d="M669.917,351.627a1.631,1.631,0,0,0,.507-.989,1.668,1.668,0,0,0-1.457-1.854,1.689,1.689,0,0,0-.979.167,4.578,4.578,0,0,0-.707,2.227A10.812,10.812,0,0,1,669.917,351.627Z" transform="translate(-667.28 -348.013)" fill="#491600"/>
                  <ellipse id="Ellipse_2188" data-name="Ellipse 2188" cx="0.474" cy="0.42" rx="0.474" ry="0.42" transform="matrix(0.3, -0.954, 0.954, 0.3, 2.165, 1.791)" fill="#fcefde"/>
                </g>
                <path id="Path_50964" data-name="Path 50964" d="M669.9,325.708a2.348,2.348,0,0,1,1.459.156,3.063,3.063,0,0,1,1.5,2.255,3.194,3.194,0,0,0-1.518-2.537,2.27,2.27,0,0,0-1.435-.153c-1.169.278-2.079,1.564-2.255,3.276A3.386,3.386,0,0,1,669.9,325.708Z" transform="translate(-667.632 -325.374)" fill="#491600"/>
              </g>
              <path id="Path_50965" data-name="Path 50965" d="M456.214,236.086a1.411,1.411,0,0,0-2.05-.409.158.158,0,0,1-.2-.243,1.834,1.834,0,0,1,2.17-.252,2.272,2.272,0,0,1,.624.511.336.336,0,1,1-.543.392h0Z" transform="translate(-451.688 -234.938)" fill="#491600"/>
              <g id="Group_56051" data-name="Group 56051" transform="translate(0 2.769)">
                <path id="Path_50966" data-name="Path 50966" d="M412.776,297.02c.335-1.783-.225-3.349-1.328-3.933a2.268,2.268,0,0,0-1.427-.212c-1.365.272-2.458,2.012-2.621,4.329a10.922,10.922,0,0,1,1.472-.318,11.15,11.15,0,0,1,3.9.134Z" transform="translate(-407.4 -292.837)" fill="#fcefde"/>
                <g id="Group_56050" data-name="Group 56050" transform="translate(1.671 0.656)">
                  <path id="Path_50967" data-name="Path 50967" d="M442.353,308.67a2.446,2.446,0,0,1,2.752-2.1l.053.008a3.722,3.722,0,0,1,.881,3.5,10.733,10.733,0,0,0-3.508-.159,2.383,2.383,0,0,1-.177-1.252Z" transform="translate(-442.333 -306.554)" fill="#c66e12"/>
                  <path id="Path_50968" data-name="Path 50968" d="M459,325.245a1.635,1.635,0,0,1-.242-1.084,1.668,1.668,0,0,1,1.876-1.429,1.69,1.69,0,0,1,.905.408,4.578,4.578,0,0,1,.126,2.333,10.8,10.8,0,0,0-2.665-.228Z" transform="translate(-457.961 -321.945)" fill="#491600"/>
                  <ellipse id="Ellipse_2189" data-name="Ellipse 2189" cx="0.42" cy="0.474" rx="0.42" ry="0.474" transform="translate(1.07 0.747) rotate(-2.89)" fill="#fcefde"/>
                </g>
                <path id="Path_50969" data-name="Path 50969" d="M421.637,293.36a2.347,2.347,0,0,0-1.452-.215,3.063,3.063,0,0,0-2.016,1.807,3.194,3.194,0,0,1,2.106-2.075,2.271,2.271,0,0,1,1.427.212c1.062.563,1.62,2.036,1.36,3.737a3.385,3.385,0,0,0-1.427-3.465Z" transform="translate(-417.655 -292.838)" fill="#491600"/>
              </g>
            </g>
            <g id="Group_56056" data-name="Group 56056" transform="translate(0 7.199)">
              <path id="Path_50970" data-name="Path 50970" d="M330.3,399.087c5.141.679,12.147-1.107,13.31-5.259a5.69,5.69,0,0,0-.319-3.609h0a22.8,22.8,0,0,0-7.195-3.765,24.278,24.278,0,0,0-15.986.81,5.658,5.658,0,0,0-1.215,3.413c.083,4.292,6.346,7.744,11.407,8.412Z" transform="translate(-318.893 -385.449)" fill="#fcefde"/>
              <g id="Group_56055" data-name="Group 56055" transform="translate(6.603 1.821)">
                <g id="Group_56053" data-name="Group 56053">
                  <path id="Path_50971" data-name="Path 50971" d="M468.82,425.022c-.037.049-.186-.088-.527-.16-.447-.094-.717.033-.849-.144a.341.341,0,0,1-.063-.212.311.311,0,0,1,.1-.192c.174-.16.591-.025.858.142.306.191.535.5.484.566Zm-11.889-1c.024.056.2-.039.551-.022.456.022.686.212.858.074a.338.338,0,0,0,.114-.189.313.313,0,0,0-.045-.21c-.128-.2-.566-.173-.866-.078-.343.108-.643.35-.611.426Z" transform="translate(-456.929 -423.528)" fill="#491600"/>
                </g>
                <g id="Group_56054" data-name="Group 56054" transform="translate(4.388 4.331)">
                  <path id="Path_50972" data-name="Path 50972" d="M556.664,514.153a.059.059,0,0,0-.1-.055,5.9,5.9,0,0,1-.762.747,6.621,6.621,0,0,1-4.646,1.366,6.511,6.511,0,0,1-2.376-.711.08.08,0,0,0-.1.124,4.857,4.857,0,0,0,5.577,1.5,4.7,4.7,0,0,0,2.406-2.972Z" transform="translate(-548.66 -514.077)" fill="#491600"/>
                  <path id="Path_50973" data-name="Path 50973" d="M636.814,558.251a3.948,3.948,0,0,1-2.694,1.19,2.2,2.2,0,0,1,2.694-1.19Z" transform="translate(-630.032 -556.038)" fill="#e55a6b"/>
                </g>
              </g>
            </g>
          </g>
        </g>
        <g id="Group_56061" data-name="Group 56061" transform="translate(11.577)">
          <g id="Group_56059" data-name="Group 56059">
            <path id="Path_50974" data-name="Path 50974" d="M503.01,108.1a3.395,3.395,0,0,0,1.495-3.138l2.35-.09a3.087,3.087,0,0,0,.548,1.584,3.005,3.005,0,0,0,.7.709Z" transform="translate(-503.01 -101.141)" fill="#eea647"/>
            <path id="Path_50975" data-name="Path 50975" d="M512.709,29.26a2.42,2.42,0,0,1-2.665,1.969,2.347,2.347,0,0,1-2.153-1.924,2.41,2.41,0,0,1,4.819-.045Z" transform="translate(-507.649 -26.905)" fill="#c66e12"/>
          </g>
          <g id="Group_56060" data-name="Group 56060" transform="translate(6.77 0.948)">
            <path id="Path_50976" data-name="Path 50976" d="M649.249,121.51a3.4,3.4,0,0,1-.659-3.413l-2.252-.677a3.094,3.094,0,0,1-.928,1.4,3.014,3.014,0,0,1-.86.51l4.7,2.184Z" transform="translate(-644.55 -114.038)" fill="#eea647"/>
            <path id="Path_50977" data-name="Path 50977" d="M663.986,48.466a2.419,2.419,0,0,0,2.085,2.575,2.348,2.348,0,0,0,2.568-1.322,2.41,2.41,0,0,0-4.653-1.253Z" transform="translate(-663.03 -46.719)" fill="#c66e12"/>
          </g>
        </g>
      </g>
    </g>
    <path id="Path_50978" data-name="Path 50978" d="M275.389,93.41a11.255,11.255,0,0,1-2.525-.287,1.929,1.929,0,0,1-1.5-1.985c.033-.616.051-1.239.053-1.855a24.42,24.42,0,0,0-.653-7.192c-.072-.047-.142-.093-.209-.139l-.228.457c.114.314.242.627.381.931l.079.17a1.7,1.7,0,0,1-.435,2.037,10.864,10.864,0,0,1-4.888,2.341,1.7,1.7,0,0,1-1.809-.821c-.107-.187-.212-.379-.311-.57a14.47,14.47,0,0,1-1.008-2.443c-.717-2.562.835-5.425,2.632-8.741.192-.354.393-.71.6-1.058-.779-3.97-.1-8.877.683-14.555a60.753,60.753,0,0,1,1.167-6.112,15,15,0,0,1-4.585-2.974,6.127,6.127,0,0,1-2.067-4.2,5.743,5.743,0,0,1,1.218-3.466,16.861,16.861,0,0,1,2.083-7.029c-.182-.035-.363-.077-.54-.125a6.981,6.981,0,0,1-3.862-2.568,10.673,10.673,0,0,1-.909-1.736c-.282-.609-.535-1.238-.753-1.868a.143.143,0,0,1,.069-.174,8.432,8.432,0,0,1,4.2-.964,8.924,8.924,0,0,1,5.063,1.949,9.732,9.732,0,0,1,1.094.97,12.751,12.751,0,0,1,1.639-.874,3.241,3.241,0,0,0,.661-.881,3.275,3.275,0,0,0,.354-1.456,2.271,2.271,0,0,1-1.266-1.742,2.166,2.166,0,0,1,.575-1.645,2.595,2.595,0,0,1,3.893-.066,2.171,2.171,0,0,1,.636,1.663,2.206,2.206,0,0,1-1.169,1.721,2.873,2.873,0,0,0,.476,1.144,2.832,2.832,0,0,0,.276.333,9.917,9.917,0,0,1,2.37.325,2.8,2.8,0,0,0,.381-.272,2.867,2.867,0,0,0,.748-.987,2.205,2.205,0,0,1-.7-1.96,2.17,2.17,0,0,1,1.033-1.45,2.6,2.6,0,0,1,3.752,1.041,2.167,2.167,0,0,1,.144,1.737,2.27,2.27,0,0,1-1.663,1.368,3.245,3.245,0,0,0,.672,2.9,13.208,13.208,0,0,1,.96.936,9.646,9.646,0,0,1,1.4-.727,8.921,8.921,0,0,1,5.389-.616,8.43,8.43,0,0,1,3.821,1.986.144.144,0,0,1,.023.186c-.369.555-.772,1.1-1.2,1.619a10.658,10.658,0,0,1-1.315,1.452,6.985,6.985,0,0,1-4.383,1.516c-.243,0-.488-.007-.732-.028a16.876,16.876,0,0,1,.249,7.318,5.725,5.725,0,0,1,.309,3.661c-.648,2.313-3.155,4.135-6.883,5.007a64.136,64.136,0,0,0-1.244,8.928c-.205,3.753.232,4.177.418,4.358.967.938,2.664.387,4.812-.31,2.707-.879,6.076-1.972,9.818-.81a9.707,9.707,0,0,1,4.292,2.624,9.253,9.253,0,0,1,1.332,1.933,4.6,4.6,0,0,1,1.32.094,4.957,4.957,0,0,1,2.27,1.213,3.01,3.01,0,0,1,2.455.843,4.222,4.222,0,0,1,.624,4.631.144.144,0,0,1-.259.019,3.436,3.436,0,0,0-1.092-1.175,3.314,3.314,0,0,0-.368-.21l.061.1a3.8,3.8,0,0,0,.386.5.144.144,0,0,1-.127.239A3.271,3.271,0,0,1,300.8,75.4a2.878,2.878,0,0,1,.15-2A4.414,4.414,0,0,0,299,73.012a9.193,9.193,0,0,1,.42,2.957.132.132,0,0,1,0,.036c-.007.173-.016.348-.027.52a25.054,25.054,0,0,1-1.492,7.021c-.038.109-.073.206-.1.291A18.464,18.464,0,0,0,297.018,91a2.041,2.041,0,0,1-1.52,2.106,9.159,9.159,0,0,1-4.866-.059,2.016,2.016,0,0,1-1.431-1.6c-.34.041-.684.067-1.024.079a12.429,12.429,0,0,1-2.747-.208A1.75,1.75,0,0,1,284,89.54c.022-.651.033-1.312.035-1.964,0-1.222,0-2.042-.034-2.765l-.478.019a34.918,34.918,0,0,1-3.642-.037c.01.206.017.389.023.566.071,1.947.056,3.921-.045,5.869a1.933,1.933,0,0,1-1.407,1.758,11.233,11.233,0,0,1-2.913.424h-.145ZM270.5,81.6a.145.145,0,0,1,.082.026c.12.084.244.168.38.256a.145.145,0,0,1,.059.077,24.406,24.406,0,0,1,.682,7.329c0,.62-.02,1.249-.053,1.869a1.642,1.642,0,0,0,1.276,1.689,10.935,10.935,0,0,0,5.441-.134,1.646,1.646,0,0,0,1.2-1.5c.1-1.939.116-3.9.045-5.844-.008-.22-.018-.45-.031-.724a.144.144,0,0,1,.154-.15,34.352,34.352,0,0,0,3.773.048c.142-.005.357-.013.617-.025a.143.143,0,0,1,.15.135c.044.766.045,1.616.042,2.924,0,.655-.013,1.319-.035,1.973a1.465,1.465,0,0,0,1.2,1.5,12.146,12.146,0,0,0,2.683.2c.379-.014.762-.045,1.138-.1a.145.145,0,0,1,.108.03.141.141,0,0,1,.054.1,1.732,1.732,0,0,0,1.245,1.495,8.874,8.874,0,0,0,4.713.057,1.755,1.755,0,0,0,1.306-1.809,18.747,18.747,0,0,1,.8-7.278c.029-.086.064-.184.1-.294a24.8,24.8,0,0,0,1.477-6.943c.01-.158.018-.319.025-.477a.122.122,0,0,1,0-.035,8.951,8.951,0,0,0-.462-3.074.143.143,0,0,1,.017-.125.145.145,0,0,1,.109-.063,4.729,4.729,0,0,1,2.425.474.144.144,0,0,1,.057.209,2.475,2.475,0,0,0-.2,1.9,2.893,2.893,0,0,0,2.157,1.907q-.081-.11-.155-.224a4.144,4.144,0,0,1-.265-.48.143.143,0,0,1,.177-.2,3.623,3.623,0,0,1,.793.392,3.705,3.705,0,0,1,1.024,1.016,3.836,3.836,0,0,0-.651-4.041,2.644,2.644,0,0,0-2.255-.757.144.144,0,0,1-.141-.032,4.7,4.7,0,0,0-2.2-1.2,4.318,4.318,0,0,0-1.329-.08.144.144,0,0,1-.141-.078,9,9,0,0,0-1.334-1.956,9.407,9.407,0,0,0-4.164-2.542c-3.655-1.135-6.976-.057-9.644.809a12.709,12.709,0,0,1-3.5.825,2.174,2.174,0,0,1-1.6-.581c-.251-.243-.717-.7-.5-4.58a64.519,64.519,0,0,1,1.269-9.061.144.144,0,0,1,.109-.11c3.673-.84,6.137-2.6,6.761-4.825a5.471,5.471,0,0,0-.315-3.518.142.142,0,0,1-.007-.081,16.509,16.509,0,0,0-.293-7.427.143.143,0,0,1,.155-.182,7.1,7.1,0,0,0,.907.048,6.7,6.7,0,0,0,4.2-1.447A10.494,10.494,0,0,0,291.41,35.5c.393-.48.767-.981,1.112-1.493a8.12,8.12,0,0,0-3.6-1.837,8.649,8.649,0,0,0-5.217.6,9.424,9.424,0,0,0-1.46.768.144.144,0,0,1-.184-.024,13.016,13.016,0,0,0-1.026-1.009l-.015-.015a3.535,3.535,0,0,1-.715-3.251.144.144,0,0,1,.109-.1,2.008,2.008,0,0,0,1.539-1.205,1.884,1.884,0,0,0-.131-1.509,2.308,2.308,0,0,0-3.344-.927,1.887,1.887,0,0,0-.9,1.257,1.951,1.951,0,0,0,.687,1.77.143.143,0,0,1,.035.162,3.172,3.172,0,0,1-.867,1.184,3.115,3.115,0,0,1-.475.332.142.142,0,0,1-.108.014,9.622,9.622,0,0,0-2.415-.331.142.142,0,0,1-.1-.042,3.124,3.124,0,0,1-.891-1.776.144.144,0,0,1,.074-.148,1.95,1.95,0,0,0,1.109-1.541,1.889,1.889,0,0,0-.558-1.444A2.308,2.308,0,0,0,270.6,25a1.885,1.885,0,0,0-.505,1.428,2.007,2.007,0,0,0,1.187,1.553.144.144,0,0,1,.08.126,3.578,3.578,0,0,1-.386,1.677,3.527,3.527,0,0,1-.738.977.151.151,0,0,1-.04.027,12.468,12.468,0,0,0-1.722.926.143.143,0,0,1-.181-.022,9.45,9.45,0,0,0-1.141-1.025,8.647,8.647,0,0,0-4.9-1.89,8.122,8.122,0,0,0-3.943.875c.206.582.441,1.161.7,1.724a10.546,10.546,0,0,0,.883,1.691,6.7,6.7,0,0,0,3.7,2.456,7.011,7.011,0,0,0,.715.155.143.143,0,0,1,.1.215,16.506,16.506,0,0,0-2.15,7.12.143.143,0,0,1-.027.077,5.485,5.485,0,0,0-1.188,3.326,5.852,5.852,0,0,0,1.983,4,14.809,14.809,0,0,0,4.608,2.962.144.144,0,0,1,.083.166,60.571,60.571,0,0,0-1.191,6.2c-.784,5.678-1.461,10.582-.674,14.514a.141.141,0,0,1-.017.1c-.212.36-.42.728-.62,1.1-1.767,3.261-3.293,6.077-2.607,8.526a14.2,14.2,0,0,0,.986,2.388c.1.188.2.376.305.56a1.415,1.415,0,0,0,1.5.683,10.568,10.568,0,0,0,4.76-2.279,1.417,1.417,0,0,0,.361-1.694q-.041-.085-.081-.174c-.151-.33-.289-.67-.411-1.011a.141.141,0,0,1,.007-.112l.329-.66a.143.143,0,0,1,.093-.075.146.146,0,0,1,.035,0Z" transform="translate(0 0)" fill="#491600"/>
    <g id="Group_56064" data-name="Group 56064" transform="translate(264.923 27.967)">
      <path id="Path_50979" data-name="Path 50979" d="M403.834,155.3a11.83,11.83,0,0,0,2.409,5.461.065.065,0,0,1-.1.082,12.027,12.027,0,0,1-1.951-3.28,12.221,12.221,0,0,1-.64-2.213.144.144,0,1,1,.283-.05h0Zm1.734-20.871a17.973,17.973,0,0,0,7.123,1.617.065.065,0,0,1,0,.13,18.17,18.17,0,0,1-7.238-1.485.143.143,0,0,1,.116-.262ZM412.409,111a8.24,8.24,0,0,0-2.945.322.065.065,0,0,1-.04-.123,8.351,8.351,0,0,1,1.474-.378,8.541,8.541,0,0,1,1.524-.108.143.143,0,1,1-.012.287h0Zm-5.941,1.8A11.564,11.564,0,0,0,403,115.891a.065.065,0,0,1-.105-.076,11.773,11.773,0,0,1,3.426-3.254.144.144,0,1,1,.148.246h0Zm8.391-1.754a9.23,9.23,0,0,1,2.687,1.215.065.065,0,0,1-.069.11,9.01,9.01,0,0,0-2.686-1.046.144.144,0,1,1,.068-.279Zm5.323,3.341a11.713,11.713,0,0,1,2.521,4.157.065.065,0,0,1-.121.045,11.483,11.483,0,0,0-2.6-4,.144.144,0,1,1,.206-.2h0Zm-2.663,51.393a25.125,25.125,0,0,0-.333-3.911.065.065,0,0,1,.128-.024,25.33,25.33,0,0,1,.492,3.927.144.144,0,1,1-.287.008h0Zm18.769-13.274a6.537,6.537,0,0,1,.426,1.12.065.065,0,0,1-.122.043,6.335,6.335,0,0,0-.552-1.021.144.144,0,1,1,.249-.143h0ZM416.232,109.6a2.606,2.606,0,0,0,1.32.747.065.065,0,0,1-.022.128,2.817,2.817,0,0,1-1.5-.667.144.144,0,1,1,.2-.208h0Zm-6.936-.518a2.279,2.279,0,0,0,1.424.281.065.065,0,0,1,.023.128,2.486,2.486,0,0,1-1.576-.153.144.144,0,1,1,.129-.256Zm30.634,44.956a.991.991,0,0,0-.7.5.065.065,0,0,1-.119-.053,1.2,1.2,0,0,1,.744-.723.144.144,0,1,1,.076.277h0Zm-12.767,18.431c-.03-.795-.061-1.941-.1-2.724a28.554,28.554,0,0,0-.359-4.055c-.1-.443-.27-.864-.38-1.308a7.334,7.334,0,0,1-.21-1.361,8.187,8.187,0,0,1,.029-1.374.065.065,0,0,1,.129.012,8.066,8.066,0,0,0-.01,1.351,7.2,7.2,0,0,0,.225,1.329c.115.439.292.864.4,1.307a28.559,28.559,0,0,1,.422,4.085c.052.78.1,1.94.141,2.729a.144.144,0,1,1-.287.008h0Z" transform="translate(-402.883 -109.06)" fill="#491600"/>
    </g>
  </g>
</svg>
