<svg id="_506645472" xmlns="http://www.w3.org/2000/svg" width="19.658" height="21.774" viewBox="0 0 19.658 21.774">
  <path id="_506645616" d="M4.748,2.417,7.6,2.026a1.341,1.341,0,0,1,.834.152.991.991,0,0,1,.513.688l2.835,16.593v.029a.951.951,0,0,1-.257.787,1.283,1.283,0,0,1-.729.379h-.041l-2.852.4a1.341,1.341,0,0,1-.834-.152.992.992,0,0,1-.513-.694L3.721,3.618V3.589a.951.951,0,0,1,.262-.782,1.283,1.283,0,0,1,.764-.391ZM6.731,18.258,11,17.663l.117.863-4.269.589-.117-.857ZM4.386,4.552l4.275-.589.117.857L4.5,5.415l-.117-.857Z" transform="translate(7.868 0.703)" fill="#00be55" fill-rule="evenodd"/>
  <path id="_506645832" d="M2.929,1.547H5.811a1.231,1.231,0,0,1,.834.315,1.085,1.085,0,0,1,.367.811V22.094a1.091,1.091,0,0,1-.367.811,1.242,1.242,0,0,1-.834.315H2.929a1.242,1.242,0,0,1-.834-.315,1.091,1.091,0,0,1-.367-.817V2.673a1.079,1.079,0,0,1,.367-.8,1.242,1.242,0,0,1,.834-.315Zm-.723,2.38H6.534V4.8H2.206V3.927Zm0,16.039H6.534v.869H2.206V19.96Z" transform="translate(-1.728 -1.547)" fill="#00be55" fill-rule="evenodd"/>
  <path id="_506645568" d="M3.992,1.547H6.874a1.225,1.225,0,0,1,.834.315,1.062,1.062,0,0,1,.367.811V22.094a1.091,1.091,0,0,1-.367.811,1.242,1.242,0,0,1-.834.315H3.992a1.242,1.242,0,0,1-.834-.315,1.091,1.091,0,0,1-.367-.817V2.673a1.079,1.079,0,0,1,.367-.8,1.242,1.242,0,0,1,.834-.315Zm-.723,2.38H7.6V4.8H3.269V3.927Zm0,16.039H7.6v.869H3.269V19.96Z" transform="translate(3.409 -1.547)" fill="#00be55" fill-rule="evenodd"/>
  <path id="_506645016" d="M4.95,5.034Z" transform="translate(13.842 15.28)" fill="#00be55"/>
</svg>
