<svg xmlns="http://www.w3.org/2000/svg" width="28.14" height="24.623" viewBox="0 0 28.14 24.623">
  <path id="Path_51286" data-name="Path 51286" d="M14.618,14.89,27.9,7.8a.435.435,0,0,0,.24-.377.393.393,0,0,0-.205-.377L15.3-.173a.36.36,0,0,0-.445,0L2.088,6.982a.421.421,0,0,0-.24.377.454.454,0,0,0,.205.342l12.153,7.155A.364.364,0,0,0,14.618,14.89Zm8.045-.068a4.909,4.909,0,0,1,3.389,1.4,4.836,4.836,0,0,1,0,6.744,4.909,4.909,0,0,1-3.389,1.4,4.846,4.846,0,0,1-3.389-1.4,4.836,4.836,0,0,1,0-6.744A4.846,4.846,0,0,1,22.663,14.821Zm2.739,2.02a3.884,3.884,0,0,0-5.477,0,3.844,3.844,0,0,0,0,5.512,3.884,3.884,0,0,0,5.477,0,3.926,3.926,0,0,0,0-5.512Zm-2.6,1.951c.034.034.034.068.068.1s.034.068.068.1l2.088.548a.614.614,0,0,1,.24.171.386.386,0,0,1,.034.274.614.614,0,0,1-.171.24.364.364,0,0,1-.274.034l-2.191-.582c-.034,0-.068.034-.1.034h-.137a.474.474,0,0,1-.514-.514.508.508,0,0,1,.034-.24.6.6,0,0,1,.137-.171v-1.4a.351.351,0,0,1,.342-.342.389.389,0,0,1,.274.1.311.311,0,0,1,.1.24Zm-.445-7.086v2.259a5.653,5.653,0,0,0-5.34,5.2h-8.9a.468.468,0,0,1-.479-.479V11.98L13.8,15.609a1.146,1.146,0,0,0,1.232,0ZM2.431,8.9l-.1.993a.9.9,0,0,1,.582.959.81.81,0,0,1-.377.65A23.18,23.18,0,0,1,2.7,17.423,2.278,2.278,0,0,1,0,17.218a22.9,22.9,0,0,1,1.472-5.751.861.861,0,0,1-.342-.787.878.878,0,0,1,.753-.822l.137-1.2Z" transform="translate(0 0.25)" fill="#00be55" fill-rule="evenodd"/>
</svg>
