<svg id="Group_56334" data-name="Group 56334" xmlns="http://www.w3.org/2000/svg" width="25.673" height="25.673" viewBox="0 0 25.673 25.673">
  <rect id="Rectangle_21889" data-name="Rectangle 21889" width="25.673" height="25.673" fill="none"/>
  <path id="Path_51291" data-name="Path 51291" d="M9.365,204.642H4.407A2.407,2.407,0,0,1,2,202.235V193.41A2.407,2.407,0,0,1,4.407,191h17.65a2.407,2.407,0,0,1,2.407,2.407v8.825a2.407,2.407,0,0,1-2.407,2.407H17.1l-.481,2.407h2.23a.8.8,0,1,1,0,1.6H7.616a.8.8,0,1,1,0-1.6h2.23Zm5.616,2.407.481-2.407H11l.481,2.407Z" transform="translate(-0.395 -186.992)" fill="#fff" fill-rule="evenodd"/>
</svg>
