<svg xmlns="http://www.w3.org/2000/svg" width="13.046" height="16.219" viewBox="0 0 13.046 16.219">
  <g id="Group_53609" data-name="Group 53609" transform="translate(-183 -103)">
    <path id="Path_44608" data-name="Path 44608" d="M196.046,113.647v-6.979a.5.5,0,0,0-.145-.351l-3.172-3.172a.5.5,0,0,0-.351-.145h-7.9A1.48,1.48,0,0,0,183,104.478v13.263a1.48,1.48,0,0,0,1.478,1.478h10.091a1.48,1.48,0,0,0,1.478-1.478v-2.825h-.991v2.825a.487.487,0,0,1-.487.487H184.478a.487.487,0,0,1-.487-.487V104.478a.487.487,0,0,1,.487-.487h7.4v1.694a1.48,1.48,0,0,0,1.478,1.478h1.694v6.483Zm-3.172-7.961v-.994l1.48,1.48h-.994A.487.487,0,0,1,192.874,105.686Z" fill="#707070"/>
    <path id="Path_44609" data-name="Path 44609" d="M373.71,411.815v-.991h-.634l.163-.653-.962-.24-.223.894h-1.516l.163-.653-.962-.24-.223.894h-.882v.991h.634l-.387,1.547H368v.991h.634l-.163.653.962.241.223-.894h1.516l-.163.653.962.241.223-.894h.882v-.991h-.634l.387-1.547Zm-2.29,1.547H369.9l.387-1.547h1.516Z" transform="translate(-181.332 -300.844)" fill="#707070"/>
  </g>
</svg>
