<svg xmlns="http://www.w3.org/2000/svg" xmlns:xlink="http://www.w3.org/1999/xlink" width="398" height="197.649" viewBox="0 0 398 197.649">
  <defs>
    <linearGradient id="linear-gradient" x1="0.039" y1="0.274" x2="1.12" y2="1" gradientUnits="objectBoundingBox">
      <stop offset="0" stop-color="#9dc5e7"/>
      <stop offset="1" stop-color="#bcb888"/>
    </linearGradient>
    <clipPath id="clip-path">
      <path id="Path_61522" data-name="Path 61522" d="M1224,1053.82h398V894.97s-25.536-37.053-116.234-38.777-142.651,97.373-142.651,97.373-114.081-43.3-139.115-11.2Z" transform="translate(-1224 -856.171)" fill="url(#linear-gradient)"/>
    </clipPath>
    <clipPath id="clip-path-2">
      <rect id="Rectangle_22020" data-name="Rectangle 22020" width="398" height="391.376" transform="translate(0 0)" fill="#fff"/>
    </clipPath>
    <linearGradient id="linear-gradient-2" x1="-31.562" y1="71.644" x2="43.372" y2="-93.462" gradientUnits="objectBoundingBox">
      <stop offset="0"/>
      <stop offset="1" stop-color="#2e2e2e"/>
    </linearGradient>
    <linearGradient id="linear-gradient-3" x1="-20.689" y1="47.672" x2="54.27" y2="-117.438" xlink:href="#linear-gradient-2"/>
    <linearGradient id="linear-gradient-4" x1="-26.121" y1="59.655" x2="48.811" y2="-105.445" xlink:href="#linear-gradient-2"/>
    <linearGradient id="linear-gradient-5" x1="-15.236" y1="35.682" x2="59.671" y2="-129.413" xlink:href="#linear-gradient-2"/>
    <linearGradient id="linear-gradient-6" x1="11.961" y1="-24.245" x2="86.904" y2="-189.32" xlink:href="#linear-gradient-2"/>
    <linearGradient id="linear-gradient-7" x1="-9.797" y1="23.695" x2="65.109" y2="-141.401" xlink:href="#linear-gradient-2"/>
    <linearGradient id="linear-gradient-8" x1="6.519" y1="-12.263" x2="81.451" y2="-177.363" xlink:href="#linear-gradient-2"/>
    <linearGradient id="linear-gradient-9" x1="-4.36" y1="11.708" x2="70.563" y2="-153.372" xlink:href="#linear-gradient-2"/>
    <linearGradient id="linear-gradient-10" x1="1.08" y1="-0.277" x2="76.041" y2="-165.391" xlink:href="#linear-gradient-2"/>
  </defs>
  <g id="Group_58710" data-name="Group 58710" transform="translate(-1502 -1090.903)">
    <path id="Path_61449" data-name="Path 61449" d="M1224,1052.115h398V894.635s-25.536-36.734-116.234-38.442-142.651,96.533-142.651,96.533S1249.034,909.8,1224,941.62Z" transform="translate(278 234.731)" fill="#ffe291"/>
    <g id="Mask_Group_56998" data-name="Mask Group 56998" transform="translate(1502 1090.903)" clip-path="url(#clip-path)">
      <g id="Group_58709" data-name="Group 58709" transform="translate(0 -147.327)" opacity="0.3" clip-path="url(#clip-path-2)">
        <g id="Group_58671" data-name="Group 58671" transform="translate(-10.247 -11.092)">
          <path id="Path_61450" data-name="Path 61450" d="M6.805-8.162.723-2.732l-6.082-5.43H-7.415L.723-.9l8.14-7.266Z" transform="translate(7.415 8.162)" fill="#fff"/>
          <path id="Path_61451" data-name="Path 61451" d="M42.4-8.162l-6.082,5.43L30.24-8.162H28.182L36.323-.9l8.138-7.266Z" transform="translate(21.011 8.162)" fill="#fff"/>
          <path id="Path_61452" data-name="Path 61452" d="M113.6-8.162l-6.082,5.43-6.082-5.43H99.377L107.517-.9l8.14-7.266Z" transform="translate(48.204 8.162)" fill="#fff"/>
          <path id="Path_61453" data-name="Path 61453" d="M78-8.162,71.92-2.732l-6.082-5.43H63.78L71.92-.9l8.14-7.266Z" transform="translate(34.607 8.162)" fill="#fff"/>
          <path id="Path_61454" data-name="Path 61454" d="M149.2-8.162l-6.082,5.43-6.083-5.43h-2.058L143.118-.9l8.14-7.266Z" transform="translate(61.801 8.162)" fill="#fff"/>
          <path id="Path_61455" data-name="Path 61455" d="M291.6-8.162l-6.083,5.43-6.083-5.43h-2.058L285.512-.9l8.141-7.266Z" transform="translate(116.187 8.162)" fill="#fff"/>
          <path id="Path_61456" data-name="Path 61456" d="M184.8-8.162l-6.082,5.43-6.083-5.43h-2.056L178.718-.9l8.138-7.266Z" transform="translate(75.398 8.162)" fill="#fff"/>
          <path id="Path_61457" data-name="Path 61457" d="M255.995-8.162l-6.082,5.43-6.083-5.43h-2.058L249.913-.9l8.138-7.266Z" transform="translate(102.59 8.162)" fill="#fff"/>
          <path id="Path_61458" data-name="Path 61458" d="M220.394-8.162l-6.082,5.43-6.082-5.43h-2.058L214.312-.9l8.14-7.266Z" transform="translate(88.993 8.162)" fill="#fff"/>
        </g>
        <g id="Group_58672" data-name="Group 58672" transform="translate(-46.07 -11.092)">
          <path id="Path_61459" data-name="Path 61459" d="M94.84-8.162,75.566,9.048,56.292-8.162H54.234L75.566,10.884,96.9-8.162Z" transform="translate(66.784 8.162)" fill="#fff"/>
          <path id="Path_61460" data-name="Path 61460" d="M130.437-8.162,111.163,9.048,91.889-8.162H89.831l21.332,19.046L132.494-8.162Z" transform="translate(80.38 8.162)" fill="#fff"/>
          <path id="Path_61461" data-name="Path 61461" d="M59.243-8.162,39.969,9.048,20.694-8.162H18.636L39.969,10.884,61.3-8.162Z" transform="translate(53.188 8.162)" fill="#fff"/>
          <path id="Path_61462" data-name="Path 61462" d="M166.038-8.162,146.764,9.048,127.486-8.162H125.43l21.334,19.046L168.1-8.162Z" transform="translate(93.977 8.162)" fill="#fff"/>
          <path id="Path_61463" data-name="Path 61463" d="M23.643-8.162,4.369,9.048-14.9-8.162H-16.96L4.369,10.884,25.7-8.162Z" transform="translate(39.592 8.162)" fill="#fff"/>
          <path id="Path_61464" data-name="Path 61464" d="M-33.337,6.216l16.1-14.378h-2.056L-33.337,4.378Z" transform="translate(33.337 8.162)" fill="#fff"/>
          <path id="Path_61465" data-name="Path 61465" d="M308.436-8.162,289.158,9.048,269.881-8.162h-2.056l21.333,19.046L310.491-8.162Z" transform="translate(148.364 8.162)" fill="#fff"/>
          <path id="Path_61466" data-name="Path 61466" d="M237.231-8.162,217.957,9.048,198.685-8.162h-2.058l21.33,19.046,21.33-19.046Z" transform="translate(121.17 8.162)" fill="#fff"/>
          <path id="Path_61467" data-name="Path 61467" d="M201.635-8.162,182.364,9.048,163.089-8.162h-2.058l21.333,19.046L203.693-8.162Z" transform="translate(107.575 8.162)" fill="#fff"/>
          <path id="Path_61468" data-name="Path 61468" d="M272.834-8.162,253.56,9.048,234.282-8.162h-2.058L253.56,10.884,274.89-8.162Z" transform="translate(134.766 8.162)" fill="#fff"/>
        </g>
        <g id="Group_58673" data-name="Group 58673" transform="translate(-46.07 -4.066)">
          <path id="Path_61469" data-name="Path 61469" d="M428.692-2.908,404.185,18.969l-24.6-21.961-24.6,21.961-24.6-21.961-24.6,21.961L281.2-2.992,256.6,18.969,232-2.992,207.4,18.969,182.8-2.992l-24.6,21.961-24.6-21.961-24.6,21.961L84.416-2.992,59.82,18.969,35.22-2.992l-24.6,21.961L-13.97-2.992-33.337,14.3v1.837L-13.97-1.156,10.624,20.8,35.22-1.156,59.82,20.8l24.6-21.961,24.6,21.961,24.6-21.961,24.6,21.961L182.8-1.156,207.4,20.8,232-1.156,256.6,20.8,281.2-1.156,305.791,20.8l24.6-21.961,24.6,21.961,24.6-21.961,24.6,21.961L428.692-1.073Z" transform="translate(33.337 2.992)" fill="#fff"/>
        </g>
        <g id="Group_58674" data-name="Group 58674" transform="translate(-46.07 7.713)">
          <path id="Path_61470" data-name="Path 61470" d="M428.692,5.76,404.185,27.637l-24.6-21.961-24.6,21.961-24.6-21.961-24.6,21.961L281.2,5.676,256.6,27.637,232,5.676,207.4,27.637,182.8,5.676l-24.6,21.961-24.6-21.961-24.6,21.961L84.416,5.676,59.82,27.637,35.22,5.676l-24.6,21.961L-13.97,5.676-33.337,22.967V24.8L-13.97,7.512,10.624,29.474,35.22,7.512l24.6,21.962,24.6-21.962,24.6,21.962,24.6-21.962,24.6,21.962L182.8,7.512l24.6,21.962L232,7.512l24.6,21.962L281.2,7.512l24.594,21.962,24.6-21.962,24.6,21.962,24.6-21.962,24.6,21.962L428.692,7.595Z" transform="translate(33.337 -5.676)" fill="#fff"/>
        </g>
        <g id="Group_58675" data-name="Group 58675" transform="translate(-46.07 19.49)">
          <path id="Path_61471" data-name="Path 61471" d="M428.692,14.426,404.185,36.3l-24.6-21.961L354.989,36.3l-24.6-21.961L305.791,36.3,281.2,14.342,256.6,36.3,232,14.342,207.4,36.3,182.8,14.342,158.206,36.3l-24.6-21.961L109.013,36.3l-24.6-21.961L59.82,36.3,35.22,14.342,10.624,36.3-13.97,14.342-33.337,31.633V33.47L-13.97,16.178,10.624,38.14l24.6-21.962L59.82,38.14l24.6-21.962,24.6,21.962,24.6-21.962,24.6,21.962,24.6-21.962L207.4,38.14,232,16.178,256.6,38.14,281.2,16.178,305.791,38.14l24.6-21.962,24.6,21.962,24.6-21.962,24.6,21.962,24.507-21.879Z" transform="translate(33.337 -14.342)" fill="#fff"/>
        </g>
        <g id="Group_58676" data-name="Group 58676" transform="translate(-46.07 31.269)">
          <path id="Path_61472" data-name="Path 61472" d="M428.692,23.094,404.185,44.971l-24.6-21.961-24.6,21.961-24.6-21.961-24.6,21.961L281.2,23.01,256.6,44.971,232,23.01,207.4,44.971,182.8,23.01l-24.6,21.961-24.6-21.961-24.6,21.961L84.416,23.01,59.82,44.971,35.22,23.01l-24.6,21.961L-13.97,23.01-33.337,40.3v1.837L-13.97,24.846,10.624,46.806l24.6-21.961,24.6,21.961,24.6-21.961,24.6,21.961,24.6-21.961,24.6,21.961,24.6-21.961,24.6,21.961L232,24.846l24.6,21.961L281.2,24.846l24.594,21.961,24.6-21.961,24.6,21.961,24.6-21.961,24.6,21.961,24.507-21.878Z" transform="translate(33.337 -23.01)" fill="#fff"/>
        </g>
        <g id="Group_58677" data-name="Group 58677" transform="translate(-46.07 43.046)">
          <path id="Path_61473" data-name="Path 61473" d="M428.692,31.76,404.185,53.637l-24.6-21.961-24.6,21.961-24.6-21.961-24.6,21.961L281.2,31.676,256.6,53.637,232,31.676,207.4,53.637,182.8,31.676l-24.6,21.961-24.6-21.961-24.6,21.961-24.6-21.961L59.82,53.637,35.22,31.676l-24.6,21.961L-13.97,31.676-33.337,48.967V50.8L-13.97,33.512,10.624,55.474l24.6-21.962,24.6,21.962,24.6-21.962,24.6,21.962,24.6-21.962,24.6,21.962,24.6-21.962,24.6,21.962L232,33.512l24.6,21.962L281.2,33.512l24.594,21.962,24.6-21.962,24.6,21.962,24.6-21.962,24.6,21.962,24.507-21.879Z" transform="translate(33.337 -31.676)" fill="#fff"/>
        </g>
        <g id="Group_58678" data-name="Group 58678" transform="translate(-46.07 54.825)">
          <path id="Path_61474" data-name="Path 61474" d="M428.692,40.428,404.185,62.3l-24.6-21.961L354.989,62.3l-24.6-21.961L305.791,62.3,281.2,40.344,256.6,62.3,232,40.344,207.4,62.3,182.8,40.344,158.206,62.3l-24.6-21.961L109.013,62.3l-24.6-21.961L59.82,62.3,35.22,40.344,10.624,62.3-13.97,40.344-33.337,57.635v1.837L-13.97,42.18,10.624,64.14,35.22,42.18,59.82,64.14l24.6-21.961,24.6,21.961,24.6-21.961,24.6,21.961L182.8,42.18,207.4,64.14,232,42.18,256.6,64.14,281.2,42.18,305.791,64.14l24.6-21.961,24.6,21.961,24.6-21.961,24.6,21.961,24.507-21.878Z" transform="translate(33.337 -40.344)" fill="#fff"/>
        </g>
        <g id="Group_58679" data-name="Group 58679" transform="translate(-46.07 66.602)">
          <path id="Path_61475" data-name="Path 61475" d="M428.692,49.094,404.185,70.971l-24.6-21.961-24.6,21.961-24.6-21.961-24.6,21.961L281.2,49.01,256.6,70.971,232,49.01,207.4,70.971,182.8,49.01l-24.6,21.961-24.6-21.961-24.6,21.961L84.416,49.01,59.82,70.971,35.22,49.01l-24.6,21.961L-13.97,49.01-33.337,66.3v1.837L-13.97,50.846,10.624,72.806l24.6-21.961,24.6,21.961,24.6-21.961,24.6,21.961,24.6-21.961,24.6,21.961,24.6-21.961,24.6,21.961L232,50.846l24.6,21.961L281.2,50.846l24.594,21.961,24.6-21.961,24.6,21.961,24.6-21.961,24.6,21.961,24.507-21.878Z" transform="translate(33.337 -49.01)" fill="#fff"/>
        </g>
        <g id="Group_58680" data-name="Group 58680" transform="translate(-46.07 78.381)">
          <path id="Path_61476" data-name="Path 61476" d="M428.692,57.762,404.185,79.639l-24.6-21.961-24.6,21.961-24.6-21.961-24.6,21.961L281.2,57.678,256.6,79.639,232,57.678,207.4,79.639,182.8,57.678l-24.6,21.961-24.6-21.961-24.6,21.961-24.6-21.961L59.82,79.639,35.22,57.678l-24.6,21.961L-13.97,57.678-33.337,74.969v1.837L-13.97,59.514,10.624,81.474l24.6-21.961,24.6,21.961,24.6-21.961,24.6,21.961,24.6-21.961,24.6,21.961,24.6-21.961,24.6,21.961L232,59.514l24.6,21.961L281.2,59.514l24.594,21.961,24.6-21.961,24.6,21.961,24.6-21.961,24.6,21.961L428.692,59.6Z" transform="translate(33.337 -57.678)" fill="#fff"/>
        </g>
        <g id="Group_58681" data-name="Group 58681" transform="translate(-46.07 90.158)">
          <path id="Path_61477" data-name="Path 61477" d="M428.692,66.428,404.185,88.3l-24.6-21.961L354.989,88.3l-24.6-21.961L305.791,88.3,281.2,66.344,256.6,88.3,232,66.344,207.4,88.3,182.8,66.344,158.206,88.3l-24.6-21.961L109.013,88.3l-24.6-21.961L59.82,88.3,35.22,66.344,10.624,88.3-13.97,66.344-33.337,83.635v1.837L-13.97,68.18,10.624,90.14,35.22,68.18,59.82,90.14l24.6-21.961,24.6,21.961,24.6-21.961,24.6,21.961L182.8,68.18,207.4,90.14,232,68.18,256.6,90.14,281.2,68.18,305.791,90.14l24.6-21.961,24.6,21.961,24.6-21.961,24.6,21.961,24.507-21.878Z" transform="translate(33.337 -66.344)" fill="#fff"/>
        </g>
        <g id="Group_58682" data-name="Group 58682" transform="translate(-46.07 101.937)">
          <path id="Path_61478" data-name="Path 61478" d="M428.692,75.1,404.185,96.973l-24.6-21.961-24.6,21.961-24.6-21.961-24.6,21.961L281.2,75.012,256.6,96.973,232,75.012,207.4,96.973,182.8,75.012l-24.6,21.961-24.6-21.961-24.6,21.961-24.6-21.961L59.82,96.973,35.22,75.012l-24.6,21.961L-13.97,75.012-33.337,92.3V94.14L-13.97,76.848,10.624,98.808l24.6-21.961,24.6,21.961,24.6-21.961,24.6,21.961,24.6-21.961,24.6,21.961,24.6-21.961,24.6,21.961L232,76.848l24.6,21.961L281.2,76.848l24.594,21.961,24.6-21.961,24.6,21.961,24.6-21.961,24.6,21.961,24.507-21.878Z" transform="translate(33.337 -75.012)" fill="#fff"/>
        </g>
        <g id="Group_58683" data-name="Group 58683" transform="translate(-46.07 113.714)">
          <path id="Path_61479" data-name="Path 61479" d="M428.692,83.762l-24.507,21.876-24.6-21.961-24.6,21.961-24.6-21.961-24.6,21.961L281.2,83.678,256.6,105.639,232,83.678l-24.6,21.961L182.8,83.678l-24.6,21.961-24.6-21.961-24.6,21.961-24.6-21.961-24.6,21.961L35.22,83.678l-24.6,21.961L-13.97,83.678l-19.367,17.291v1.837L-13.97,85.514l24.594,21.961,24.6-21.961,24.6,21.961,24.6-21.961,24.6,21.961,24.6-21.961,24.6,21.961,24.6-21.961,24.6,21.961L232,85.514l24.6,21.961L281.2,85.514l24.594,21.961,24.6-21.961,24.6,21.961,24.6-21.961,24.6,21.961L428.692,85.6Z" transform="translate(33.337 -83.678)" fill="#fff"/>
        </g>
        <g id="Group_58684" data-name="Group 58684" transform="translate(-46.07 125.493)">
          <path id="Path_61480" data-name="Path 61480" d="M428.692,92.43l-24.507,21.876-24.6-21.961-24.6,21.961-24.6-21.961-24.6,21.961L281.2,92.346,256.6,114.307,232,92.346l-24.6,21.961L182.8,92.346l-24.6,21.961-24.6-21.961-24.6,21.961-24.6-21.961-24.6,21.961L35.22,92.346l-24.6,21.961L-13.97,92.346l-19.367,17.291v1.837L-13.97,94.182l24.594,21.961,24.6-21.961,24.6,21.961,24.6-21.961,24.6,21.961,24.6-21.961,24.6,21.961,24.6-21.961,24.6,21.961L232,94.182l24.6,21.961L281.2,94.182l24.594,21.961,24.6-21.961,24.6,21.961,24.6-21.961,24.6,21.961,24.507-21.878Z" transform="translate(33.337 -92.346)" fill="#fff"/>
        </g>
        <g id="Group_58685" data-name="Group 58685" transform="translate(-46.07 137.27)">
          <path id="Path_61481" data-name="Path 61481" d="M428.692,101.1l-24.507,21.876-24.6-21.961-24.6,21.961-24.6-21.961-24.6,21.961L281.2,101.012,256.6,122.973,232,101.012l-24.6,21.961-24.6-21.961-24.6,21.961-24.6-21.961-24.6,21.961-24.6-21.961-24.6,21.961-24.6-21.961-24.6,21.961L-13.97,101.012-33.337,118.3v1.837l19.367-17.293,24.594,21.961,24.6-21.961,24.6,21.961,24.6-21.961,24.6,21.961,24.6-21.961,24.6,21.961,24.6-21.961,24.6,21.961L232,102.848l24.6,21.961L281.2,102.848l24.594,21.961,24.6-21.961,24.6,21.961,24.6-21.961,24.6,21.961,24.507-21.878Z" transform="translate(33.337 -101.012)" fill="#fff"/>
        </g>
        <g id="Group_58686" data-name="Group 58686" transform="translate(-46.07 149.049)">
          <path id="Path_61482" data-name="Path 61482" d="M428.692,109.764l-24.507,21.876-24.6-21.961-24.6,21.961-24.6-21.961-24.6,21.961L281.2,109.68,256.6,131.641,232,109.68l-24.6,21.961L182.8,109.68l-24.6,21.961-24.6-21.961-24.6,21.961-24.6-21.961-24.6,21.961L35.22,109.68l-24.6,21.961L-13.97,109.68l-19.367,17.291v1.837l19.367-17.293,24.594,21.961,24.6-21.961,24.6,21.961,24.6-21.961,24.6,21.961,24.6-21.961,24.6,21.961,24.6-21.961,24.6,21.961L232,111.516l24.6,21.961L281.2,111.516l24.594,21.961,24.6-21.961,24.6,21.961,24.6-21.961,24.6,21.961L428.692,111.6Z" transform="translate(33.337 -109.68)" fill="#fff"/>
        </g>
        <g id="Group_58687" data-name="Group 58687" transform="translate(-46.07 160.826)">
          <path id="Path_61483" data-name="Path 61483" d="M428.692,118.43l-24.507,21.876-24.6-21.961-24.6,21.961-24.6-21.961-24.6,21.961L281.2,118.346,256.6,140.307,232,118.346l-24.6,21.961-24.6-21.961-24.6,21.961-24.6-21.961-24.6,21.961-24.6-21.961-24.6,21.961-24.6-21.961-24.6,21.961L-13.97,118.346l-19.367,17.291v1.837l19.367-17.293,24.594,21.961,24.6-21.961,24.6,21.961,24.6-21.961,24.6,21.961,24.6-21.961,24.6,21.961,24.6-21.961,24.6,21.961L232,120.182l24.6,21.961L281.2,120.182l24.594,21.961,24.6-21.961,24.6,21.961,24.6-21.961,24.6,21.961,24.507-21.878Z" transform="translate(33.337 -118.346)" fill="#fff"/>
        </g>
        <g id="Group_58688" data-name="Group 58688" transform="translate(-46.07 172.605)">
          <path id="Path_61484" data-name="Path 61484" d="M428.692,127.1l-24.507,21.876-24.6-21.961-24.6,21.961-24.6-21.961-24.6,21.961L281.2,127.014,256.6,148.975,232,127.014l-24.6,21.961-24.6-21.961-24.6,21.961-24.6-21.961-24.6,21.961-24.6-21.961-24.6,21.961-24.6-21.961-24.6,21.961L-13.97,127.014l-19.367,17.291v1.837L-13.97,128.85,10.624,150.81l24.6-21.961,24.6,21.961,24.6-21.961,24.6,21.961,24.6-21.961,24.6,21.961,24.6-21.961,24.6,21.961L232,128.85l24.6,21.961L281.2,128.85l24.594,21.961,24.6-21.961,24.6,21.961,24.6-21.961,24.6,21.961,24.507-21.878Z" transform="translate(33.337 -127.014)" fill="#fff"/>
        </g>
        <g id="Group_58689" data-name="Group 58689" transform="translate(-46.07 184.381)">
          <path id="Path_61485" data-name="Path 61485" d="M428.692,135.764l-24.507,21.876-24.6-21.961-24.6,21.961-24.6-21.961-24.6,21.961L281.2,135.68,256.6,157.641,232,135.68l-24.6,21.961L182.8,135.68l-24.6,21.961-24.6-21.961-24.6,21.961-24.6-21.961-24.6,21.961L35.22,135.68l-24.6,21.961L-13.97,135.68l-19.367,17.291v1.837l19.367-17.293,24.594,21.96,24.6-21.96,24.6,21.96,24.6-21.96,24.6,21.96,24.6-21.96,24.6,21.96,24.6-21.96,24.6,21.96,24.6-21.96,24.6,21.96,24.594-21.96,24.594,21.96,24.6-21.96,24.6,21.96,24.6-21.96,24.6,21.96L428.692,137.6Z" transform="translate(33.337 -135.68)" fill="#fff"/>
        </g>
        <g id="Group_58690" data-name="Group 58690" transform="translate(-46.07 196.161)">
          <path id="Path_61486" data-name="Path 61486" d="M428.692,144.432l-24.507,21.876-24.6-21.961-24.6,21.961-24.6-21.961-24.6,21.961L281.2,144.348,256.6,166.309,232,144.348l-24.6,21.961-24.6-21.961-24.6,21.961-24.6-21.961-24.6,21.961-24.6-21.961-24.6,21.961-24.6-21.961-24.6,21.961L-13.97,144.348l-19.367,17.291v1.837l19.367-17.293,24.594,21.961,24.6-21.961,24.6,21.961,24.6-21.961,24.6,21.961,24.6-21.961,24.6,21.961,24.6-21.961,24.6,21.961L232,146.184l24.6,21.961L281.2,146.184l24.594,21.961,24.6-21.961,24.6,21.961,24.6-21.961,24.6,21.961,24.507-21.878Z" transform="translate(33.337 -144.348)" fill="#fff"/>
        </g>
        <g id="Group_58691" data-name="Group 58691" transform="translate(-46.07 207.937)">
          <path id="Path_61487" data-name="Path 61487" d="M428.692,153.1l-24.507,21.876-24.6-21.961-24.6,21.961-24.6-21.961-24.6,21.961L281.2,153.014,256.6,174.975,232,153.014l-24.6,21.961-24.6-21.961-24.6,21.961-24.6-21.961-24.6,21.961-24.6-21.961-24.6,21.961-24.6-21.961-24.6,21.961L-13.97,153.014l-19.367,17.291v1.837L-13.97,154.85,10.624,176.81l24.6-21.961,24.6,21.961,24.6-21.961,24.6,21.961,24.6-21.961,24.6,21.961,24.6-21.961,24.6,21.961L232,154.85l24.6,21.961L281.2,154.85l24.594,21.961,24.6-21.961,24.6,21.961,24.6-21.961,24.6,21.961,24.507-21.878Z" transform="translate(33.337 -153.014)" fill="#fff"/>
        </g>
        <g id="Group_58692" data-name="Group 58692" transform="translate(-46.07 219.717)">
          <path id="Path_61488" data-name="Path 61488" d="M428.692,161.766l-24.507,21.876-24.6-21.961-24.6,21.961-24.6-21.961-24.6,21.961L281.2,161.682,256.6,183.643,232,161.682l-24.6,21.961-24.6-21.961-24.6,21.961-24.6-21.961-24.6,21.961-24.6-21.961-24.6,21.961-24.6-21.961-24.6,21.961L-13.97,161.682l-19.367,17.291v1.837l19.367-17.293,24.594,21.961,24.6-21.961,24.6,21.961,24.6-21.961,24.6,21.961,24.6-21.961,24.6,21.961,24.6-21.961,24.6,21.961L232,163.518l24.6,21.961L281.2,163.518l24.594,21.961,24.6-21.961,24.6,21.961,24.6-21.961,24.6,21.961L428.692,163.6Z" transform="translate(33.337 -161.682)" fill="#fff"/>
        </g>
        <g id="Group_58693" data-name="Group 58693" transform="translate(-46.07 231.493)">
          <path id="Path_61489" data-name="Path 61489" d="M428.692,170.432l-24.507,21.876-24.6-21.961-24.6,21.961-24.6-21.961-24.6,21.961L281.2,170.348,256.6,192.309,232,170.348l-24.6,21.961-24.6-21.961-24.6,21.961-24.6-21.961-24.6,21.961-24.6-21.961-24.6,21.961-24.6-21.961-24.6,21.961L-13.97,170.348l-19.367,17.291v1.837l19.367-17.293,24.594,21.961,24.6-21.961,24.6,21.961,24.6-21.961,24.6,21.961,24.6-21.961,24.6,21.961,24.6-21.961,24.6,21.961L232,172.184l24.6,21.961L281.2,172.184l24.594,21.961,24.6-21.961,24.6,21.961,24.6-21.961,24.6,21.961,24.507-21.878Z" transform="translate(33.337 -170.348)" fill="#fff"/>
        </g>
        <g id="Group_58694" data-name="Group 58694" transform="translate(-46.07 243.273)">
          <path id="Path_61490" data-name="Path 61490" d="M428.692,179.1l-24.507,21.876-24.6-21.96-24.6,21.96-24.6-21.96-24.6,21.96L281.2,179.016,256.6,200.977,232,179.016l-24.6,21.96-24.6-21.96-24.6,21.96-24.6-21.96-24.6,21.96-24.6-21.96-24.6,21.96-24.6-21.96-24.6,21.96-24.594-21.96-19.367,17.291v1.837l19.367-17.293,24.594,21.961,24.6-21.961,24.6,21.961,24.6-21.961,24.6,21.961,24.6-21.961,24.6,21.961,24.6-21.961,24.6,21.961L232,180.852l24.6,21.961L281.2,180.852l24.594,21.961,24.6-21.961,24.6,21.961,24.6-21.961,24.6,21.961,24.507-21.878Z" transform="translate(33.337 -179.016)" fill="#fff"/>
        </g>
        <g id="Group_58695" data-name="Group 58695" transform="translate(-46.07 255.049)">
          <path id="Path_61491" data-name="Path 61491" d="M428.692,187.766l-24.507,21.876-24.6-21.96-24.6,21.96-24.6-21.96-24.6,21.96L281.2,187.682,256.6,209.643,232,187.682l-24.6,21.96-24.6-21.96-24.6,21.96-24.6-21.96-24.6,21.96-24.6-21.96-24.6,21.96-24.6-21.96-24.6,21.96-24.594-21.96-19.367,17.291v1.837l19.367-17.293,24.594,21.96,24.6-21.96,24.6,21.96,24.6-21.96,24.6,21.96,24.6-21.96,24.6,21.96,24.6-21.96,24.6,21.96,24.6-21.96,24.6,21.96,24.594-21.96,24.594,21.96,24.6-21.96,24.6,21.96,24.6-21.96,24.6,21.96L428.692,189.6Z" transform="translate(33.337 -187.682)" fill="#fff"/>
        </g>
        <g id="Group_58696" data-name="Group 58696" transform="translate(-46.07 266.829)">
          <path id="Path_61492" data-name="Path 61492" d="M428.692,196.434l-24.507,21.876-24.6-21.96-24.6,21.96-24.6-21.96-24.6,21.96L281.2,196.35,256.6,218.311,232,196.35l-24.6,21.96-24.6-21.96-24.6,21.96-24.6-21.96-24.6,21.96-24.6-21.96-24.6,21.96-24.6-21.96-24.6,21.96L-13.97,196.35l-19.367,17.291v1.837l19.367-17.293,24.594,21.96,24.6-21.96,24.6,21.96,24.6-21.96,24.6,21.96,24.6-21.96,24.6,21.96,24.6-21.96,24.6,21.96,24.6-21.96,24.6,21.96,24.594-21.96,24.594,21.96,24.6-21.96,24.6,21.96,24.6-21.96,24.6,21.96,24.507-21.878Z" transform="translate(33.337 -196.35)" fill="#fff"/>
        </g>
        <g id="Group_58697" data-name="Group 58697" transform="translate(-46.07 278.605)">
          <path id="Path_61493" data-name="Path 61493" d="M428.692,205.1l-24.507,21.876-24.6-21.96-24.6,21.96-24.6-21.96-24.6,21.96L281.2,205.016,256.6,226.977,232,205.016l-24.6,21.96-24.6-21.96-24.6,21.96-24.6-21.96-24.6,21.96-24.6-21.96-24.6,21.96-24.6-21.96-24.6,21.96-24.594-21.96-19.367,17.291v1.837l19.367-17.293,24.594,21.96,24.6-21.96,24.6,21.96,24.6-21.96,24.6,21.96,24.6-21.96,24.6,21.96,24.6-21.96,24.6,21.96,24.6-21.96,24.6,21.96,24.594-21.96,24.594,21.96,24.6-21.96,24.6,21.96,24.6-21.96,24.6,21.96,24.507-21.878Z" transform="translate(33.337 -205.016)" fill="#fff"/>
        </g>
        <g id="Group_58698" data-name="Group 58698" transform="translate(-46.07 290.384)">
          <path id="Path_61494" data-name="Path 61494" d="M428.692,213.768l-24.507,21.876-24.6-21.96-24.6,21.96-24.6-21.96-24.6,21.96L281.2,213.684,256.6,235.645,232,213.684l-24.6,21.96-24.6-21.96-24.6,21.96-24.6-21.96-24.6,21.96-24.6-21.96-24.6,21.96-24.6-21.96-24.6,21.96-24.594-21.96-19.367,17.291v1.837L-13.97,215.52,10.624,237.48l24.6-21.961,24.6,21.961,24.6-21.961,24.6,21.961,24.6-21.961,24.6,21.961,24.6-21.961,24.6,21.961L232,215.52l24.6,21.961L281.2,215.52l24.594,21.961,24.6-21.961,24.6,21.961,24.6-21.961,24.6,21.961L428.692,215.6Z" transform="translate(33.337 -213.684)" fill="#fff"/>
        </g>
        <g id="Group_58699" data-name="Group 58699" transform="translate(-46.07 302.161)">
          <path id="Path_61495" data-name="Path 61495" d="M428.692,222.434l-24.507,21.876-24.6-21.96-24.6,21.96-24.6-21.96-24.6,21.96L281.2,222.35,256.6,244.311,232,222.35l-24.6,21.96-24.6-21.96-24.6,21.96-24.6-21.96-24.6,21.96-24.6-21.96-24.6,21.96-24.6-21.96-24.6,21.96L-13.97,222.35l-19.367,17.291v1.837l19.367-17.293,24.594,21.96,24.6-21.96,24.6,21.96,24.6-21.96,24.6,21.96,24.6-21.96,24.6,21.96,24.6-21.96,24.6,21.96,24.6-21.96,24.6,21.96,24.594-21.96,24.594,21.96,24.6-21.96,24.6,21.96,24.6-21.96,24.6,21.96,24.507-21.878Z" transform="translate(33.337 -222.35)" fill="#fff"/>
        </g>
        <g id="Group_58700" data-name="Group 58700" transform="translate(-46.07 313.94)">
          <path id="Path_61496" data-name="Path 61496" d="M428.692,231.1l-24.507,21.876-24.6-21.961-24.6,21.961-24.6-21.961-24.6,21.961L281.2,231.018,256.6,252.979,232,231.018l-24.6,21.961-24.6-21.961-24.6,21.961-24.6-21.961-24.6,21.961-24.6-21.961-24.6,21.961-24.6-21.961-24.6,21.961L-13.97,231.018l-19.367,17.291v1.837l19.367-17.293,24.594,21.961,24.6-21.961,24.6,21.961,24.6-21.961,24.6,21.961,24.6-21.961,24.6,21.961,24.6-21.961,24.6,21.961L232,232.854l24.6,21.961L281.2,232.854l24.594,21.961,24.6-21.961,24.6,21.961,24.6-21.961,24.6,21.961,24.507-21.878Z" transform="translate(33.337 -231.018)" fill="#fff"/>
        </g>
        <g id="Group_58701" data-name="Group 58701" transform="translate(-46.07 325.717)">
          <path id="Path_61497" data-name="Path 61497" d="M428.692,239.768l-24.507,21.876-24.6-21.961-24.6,21.961-24.6-21.961-24.6,21.961L281.2,239.684,256.6,261.645,232,239.684l-24.6,21.961-24.6-21.961-24.6,21.961-24.6-21.961-24.6,21.961-24.6-21.961-24.6,21.961-24.6-21.961-24.6,21.961L-13.97,239.684l-19.367,17.291v1.837L-13.97,241.52,10.624,263.48l24.6-21.961,24.6,21.961,24.6-21.961,24.6,21.961,24.6-21.961,24.6,21.961,24.6-21.961,24.6,21.961L232,241.52l24.6,21.961L281.2,241.52l24.594,21.961,24.6-21.961,24.6,21.961,24.6-21.961,24.6,21.961L428.692,241.6Z" transform="translate(33.337 -239.684)" fill="#fff"/>
        </g>
        <g id="Group_58702" data-name="Group 58702" transform="translate(-46.07 337.496)">
          <path id="Path_61498" data-name="Path 61498" d="M428.692,248.436l-24.507,21.876-24.6-21.961-24.6,21.961-24.6-21.961-24.6,21.961L281.2,248.352,256.6,270.313,232,248.352l-24.6,21.961-24.6-21.961-24.6,21.961-24.6-21.961-24.6,21.961-24.6-21.961-24.6,21.961-24.6-21.961-24.6,21.961L-13.97,248.352l-19.367,17.291v1.837l19.367-17.293,24.594,21.961,24.6-21.961,24.6,21.961,24.6-21.961,24.6,21.961,24.6-21.961,24.6,21.961,24.6-21.961,24.6,21.961L232,250.188l24.6,21.961L281.2,250.188l24.594,21.961,24.6-21.961,24.6,21.961,24.6-21.961,24.6,21.961,24.507-21.878Z" transform="translate(33.337 -248.352)" fill="#fff"/>
        </g>
        <g id="Group_58703" data-name="Group 58703" transform="translate(-46.07 349.273)">
          <path id="Path_61499" data-name="Path 61499" d="M428.692,257.1l-24.507,21.876-24.6-21.961-24.6,21.961-24.6-21.961-24.6,21.961L281.2,257.018,256.6,278.979,232,257.018l-24.6,21.961-24.6-21.961-24.6,21.961-24.6-21.961-24.6,21.961-24.6-21.961-24.6,21.961-24.6-21.961-24.6,21.961L-13.97,257.018l-19.367,17.291v1.837l19.367-17.293,24.594,21.961,24.6-21.961,24.6,21.961,24.6-21.961,24.6,21.961,24.6-21.961,24.6,21.961,24.6-21.961,24.6,21.961L232,258.854l24.6,21.961L281.2,258.854l24.594,21.961,24.6-21.961,24.6,21.961,24.6-21.961,24.6,21.961,24.507-21.878Z" transform="translate(33.337 -257.018)" fill="#fff"/>
        </g>
        <g id="Group_58704" data-name="Group 58704" transform="translate(-46.07 361.051)">
          <path id="Path_61500" data-name="Path 61500" d="M428.692,265.771l-24.507,21.876-24.6-21.962-24.6,21.962-24.6-21.962-24.6,21.962L281.2,265.685,256.6,287.647,232,265.685l-24.6,21.962-24.6-21.962-24.6,21.962-24.6-21.962-24.6,21.962-24.6-21.962-24.6,21.962-24.6-21.962-24.6,21.962L-13.97,265.685l-19.367,17.293v1.837l19.367-17.293,24.594,21.961,24.6-21.961,24.6,21.961,24.6-21.961,24.6,21.961,24.6-21.961,24.6,21.961,24.6-21.961,24.6,21.961L232,267.522l24.6,21.961L281.2,267.522l24.594,21.961,24.6-21.961,24.6,21.961,24.6-21.961,24.6,21.961,24.507-21.878Z" transform="translate(33.337 -265.685)" fill="#fff"/>
        </g>
        <g id="Group_58705" data-name="Group 58705" transform="translate(-46.07 372.829)">
          <path id="Path_61501" data-name="Path 61501" d="M428.692,274.436l-24.507,21.876-24.6-21.961-24.6,21.961-24.6-21.961-24.6,21.961L281.2,274.352,256.6,296.313,232,274.352l-24.6,21.961-24.6-21.961-24.6,21.961-24.6-21.961-24.6,21.961-24.6-21.961-24.6,21.961-24.6-21.961-24.6,21.961L-13.97,274.352l-19.367,17.291v1.837l19.367-17.293,24.594,21.961,24.6-21.961,24.6,21.961,24.6-21.961,24.6,21.961,24.6-21.961,24.6,21.961,24.6-21.961,24.6,21.961L232,276.188l24.6,21.961L281.2,276.188l24.594,21.961,24.6-21.961,24.6,21.961,24.6-21.961,24.6,21.961,24.507-21.878Z" transform="translate(33.337 -274.352)" fill="#fff"/>
        </g>
        <g id="Group_58706" data-name="Group 58706" transform="translate(-46.07 384.608)">
          <path id="Path_61502" data-name="Path 61502" d="M428.692,283.1l-24.507,21.876-24.6-21.961-24.6,21.961-24.6-21.961-24.6,21.961L281.2,283.02,256.6,304.981,232,283.02l-24.6,21.961L182.8,283.02l-24.6,21.961-24.6-21.961-24.6,21.961-24.6-21.961-24.6,21.961L35.22,283.02l-24.6,21.961L-13.97,283.02l-19.367,17.291v1.837l19.367-17.293,24.594,21.961,24.6-21.961,24.6,21.961,24.6-21.961,24.6,21.961,24.6-21.961,24.6,21.961,24.6-21.961,24.6,21.961L232,284.856l24.6,21.961L281.2,284.856l24.594,21.961,24.6-21.961,24.6,21.961,24.6-21.961,24.6,21.961,24.507-21.878Z" transform="translate(33.337 -283.02)" fill="#fff"/>
        </g>
        <g id="Group_58707" data-name="Group 58707" transform="translate(-42.155 396.383)">
          <path id="Path_61503" data-name="Path 61503" d="M149.543,305.482l13.4-11.96,13.4,11.96h2.056l-15.454-13.8-15.453,13.8Z" transform="translate(98.486 -291.685)" fill="#fff"/>
          <path id="Path_61504" data-name="Path 61504" d="M185.142,305.482l13.394-11.96,13.394,11.96h2.058l-15.451-13.8-15.452,13.8Z" transform="translate(112.083 -291.685)" fill="#fff"/>
          <path id="Path_61505" data-name="Path 61505" d="M256.336,305.482l13.4-11.96,13.4,11.96h2.058l-15.456-13.8-15.452,13.8Z" transform="translate(139.275 -291.685)" fill="#fff"/>
          <path id="Path_61506" data-name="Path 61506" d="M220.735,305.482l13.4-11.96,13.4,11.96h2.056l-15.454-13.8-15.453,13.8Z" transform="translate(125.678 -291.685)" fill="#fff"/>
          <path id="Path_61507" data-name="Path 61507" d="M305.242,291.748,289.88,305.46h2.058l13.3-11.877Z" transform="translate(152.873 -291.662)" fill="#fff"/>
          <path id="Path_61508" data-name="Path 61508" d="M42.746,305.482l13.4-11.96,13.4,11.96h2.058l-15.453-13.8-15.452,13.8Z" transform="translate(57.696 -291.685)" fill="#fff"/>
          <path id="Path_61509" data-name="Path 61509" d="M-28.448,305.482l13.4-11.96,13.4,11.96H.4l-15.452-13.8-15.452,13.8Z" transform="translate(30.504 -291.685)" fill="#fff"/>
          <path id="Path_61510" data-name="Path 61510" d="M78.343,305.482l13.4-11.96,13.4,11.96h2.056l-15.453-13.8-15.452,13.8Z" transform="translate(71.292 -291.685)" fill="#fff"/>
          <path id="Path_61511" data-name="Path 61511" d="M113.942,305.482l13.4-11.96,13.4,11.96h2.056l-15.454-13.8-15.453,13.8Z" transform="translate(84.888 -291.685)" fill="#fff"/>
          <path id="Path_61512" data-name="Path 61512" d="M7.149,305.482l13.394-11.96,13.4,11.96H36l-15.454-13.8-15.452,13.8Z" transform="translate(44.099 -291.685)" fill="#fff"/>
        </g>
        <g id="Group_58708" data-name="Group 58708" transform="translate(-28.963 408.163)">
          <path id="Path_61513" data-name="Path 61513" d="M265.882,302.371l.2-.181.2.181h2.058l-2.262-2.018-2.259,2.018Z" transform="translate(129.729 -300.353)" fill="url(#linear-gradient-2)"/>
          <path id="Path_61514" data-name="Path 61514" d="M194.685,302.371l.2-.181.2.181h2.056l-2.26-2.018-2.261,2.018Z" transform="translate(102.536 -300.353)" fill="url(#linear-gradient-3)"/>
          <path id="Path_61515" data-name="Path 61515" d="M230.281,302.371l.2-.181.2.181h2.058l-2.261-2.018-2.261,2.018Z" transform="translate(116.132 -300.353)" fill="url(#linear-gradient-4)"/>
          <path id="Path_61516" data-name="Path 61516" d="M159.089,302.371l.2-.181.2.181h2.058l-2.262-2.018-2.261,2.018Z" transform="translate(88.94 -300.353)" fill="url(#linear-gradient-5)"/>
          <path id="Path_61517" data-name="Path 61517" d="M-18.9,302.371l.2-.181.2.181h2.056l-2.261-2.018-2.259,2.018Z" transform="translate(20.958 -300.353)" fill="url(#linear-gradient-6)"/>
          <path id="Path_61518" data-name="Path 61518" d="M123.488,302.371l.2-.181.2.181h2.058l-2.262-2.018-2.261,2.018Z" transform="translate(75.342 -300.353)" fill="url(#linear-gradient-7)"/>
          <path id="Path_61519" data-name="Path 61519" d="M16.693,302.371l.2-.181.2.181h2.058L16.9,300.353l-2.259,2.018Z" transform="translate(34.553 -300.353)" fill="url(#linear-gradient-8)"/>
          <path id="Path_61520" data-name="Path 61520" d="M87.89,302.371l.2-.181.2.181h2.056l-2.261-2.018-2.261,2.018Z" transform="translate(61.746 -300.353)" fill="url(#linear-gradient-9)"/>
          <path id="Path_61521" data-name="Path 61521" d="M52.292,302.371l.2-.181.2.181h2.056L52.5,300.353l-2.259,2.018Z" transform="translate(48.15 -300.353)" fill="url(#linear-gradient-10)"/>
        </g>
      </g>
    </g>
  </g>
</svg>
