<svg xmlns="http://www.w3.org/2000/svg" width="22.647" height="22.647" viewBox="0 0 22.647 22.647">
  <path id="Path_42477" data-name="Path 42477" d="M22.371,21.069l-3.892-3.806h0l-.091-.139a.917.917,0,0,0-1.287,0h0a9.186,9.186,0,0,1-11.911.385,8.7,8.7,0,0,1-1.932-11.5A9.144,9.144,0,0,1,14.667,2.652,8.766,8.766,0,0,1,19.553,13.28a.882.882,0,0,0,.206.874.93.93,0,0,0,.877.263.909.909,0,0,0,.671-.611h0a10.57,10.57,0,0,0-5.661-12.74A11.045,11.045,0,0,0,1.913,4.626a10.481,10.481,0,0,0,1.54,13.808,11.085,11.085,0,0,0,14.194.584l3.446,3.369a.927.927,0,0,0,1.287,0,.888.888,0,0,0,0-1.268h0Z" fill="#707070"/>
</svg>
