<svg xmlns="http://www.w3.org/2000/svg" width="60" height="60" viewBox="0 0 60 60">
  <g id="Group_56707" data-name="Group 56707" transform="translate(-290.729 -48.506)">
    <circle id="Ellipse_2268" data-name="Ellipse 2268" cx="30" cy="30" r="30" transform="translate(290.729 48.506)" fill="#3e6477"/>
    <path id="Path_51725" data-name="Path 51725" d="M360.468,117.817h0l.006.006q.294.273.546.556l5.674,5.77a30.182,30.182,0,0,1-26.387,27.6l-28.123-28.6h0a2.561,2.561,0,0,1-.614-.958c-.812-2.284,1.872-5.365,5.995-6.881a13.866,13.866,0,0,1,2.426-.655,3.89,3.89,0,0,1,3.852-3.637,3.8,3.8,0,0,1,1.261.215,3.885,3.885,0,0,1,3.824-3.377,3.814,3.814,0,0,1,2.653,1.073,3.834,3.834,0,0,1,6.858-.471,3.817,3.817,0,0,1,5.454-.489h0l0,0a3.928,3.928,0,0,1,.462.47l1.517,1.543a3.816,3.816,0,0,1,4.056.913h0l3.659,3.721a13.776,13.776,0,0,1,2.656.693A12.659,12.659,0,0,1,360.468,117.817Z" transform="translate(-16.142 -43.501)" fill="#2a4d5e" fill-rule="evenodd"/>
    <g id="Group_56684" data-name="Group 56684" transform="translate(295.284 63.522)">
      <g id="Group_56682" data-name="Group 56682" transform="translate(0 0)">
        <path id="Path_51726" data-name="Path 51726" d="M356.18,115.307a12.141,12.141,0,0,0-5.268-.785,4.048,4.048,0,0,0,.091-.851,3.893,3.893,0,0,0-3.857-3.928,3.785,3.785,0,0,0-1.984.559,3.879,3.879,0,0,0-3.8-3.26,3.821,3.821,0,0,0-2.962,1.412,3.827,3.827,0,0,0-6.848.471,3.805,3.805,0,0,0-2.649-1.073,3.881,3.881,0,0,0-3.819,3.377,3.791,3.791,0,0,0-1.26-.214,3.887,3.887,0,0,0-3.846,3.637,13.889,13.889,0,0,0-2.422.655c-4.117,1.516-6.8,4.6-5.986,6.881.7,1.959,3.734,2.7,7.182,1.908a4.029,4.029,0,0,0-.048.622,3.893,3.893,0,0,0,3.857,3.928,3.813,3.813,0,0,0,.763-.077,4.025,4.025,0,0,0-.04.568,3.893,3.893,0,0,0,3.857,3.928,3.785,3.785,0,0,0,1.961-.545c2.855,2.455,6.055,4,7.922,4,2.083,0,5.824-1.925,8.895-4.887a3.8,3.8,0,0,0,1.229.2A3.893,3.893,0,0,0,351,127.91c0-.1,0-.209-.012-.312a3.907,3.907,0,0,0,3.143-3.724c3.788,1.122,7.28.433,8.032-1.685C362.977,119.9,360.3,116.824,356.18,115.307Z" transform="translate(-311.425 -106.551)" fill="#f1e7db" fill-rule="evenodd"/>
        <path id="Path_51727" data-name="Path 51727" d="M340.681,163.055a3.928,3.928,0,1,0-3.928-3.928A3.936,3.936,0,0,0,340.681,163.055Z" transform="translate(-329.34 -140.96)" fill="#fff" fill-rule="evenodd"/>
        <path id="Path_51728" data-name="Path 51728" d="M356.618,178.153a3.928,3.928,0,1,0-3.928-3.928A3.936,3.936,0,0,0,356.618,178.153Z" transform="translate(-340.871 -151.639)" fill="#fff" fill-rule="evenodd"/>
        <circle id="Ellipse_2269" data-name="Ellipse 2269" cx="3.928" cy="3.928" r="3.928" transform="translate(30.545 23.483) rotate(-67.5)" fill="#fff"/>
        <circle id="Ellipse_2270" data-name="Ellipse 2270" cx="3.928" cy="3.928" r="3.928" transform="translate(33.503 19.309) rotate(-67.5)" fill="#fff"/>
        <path id="Path_51729" data-name="Path 51729" d="M444.843,134.463c-4.193-1.516-8.263-.895-9.088,1.389s1.9,5.365,6.1,6.881,8.262.894,9.088-1.39S449.036,135.98,444.843,134.463Z" transform="translate(-400.201 -125.707)" fill="#fff" fill-rule="evenodd"/>
        <path id="Path_51730" data-name="Path 51730" d="M447.929,143.805c-3.145-1.137-6.06-1.046-6.513.2s1.732,3.185,4.876,4.322,6.061,1.046,6.513-.2S451.074,144.943,447.929,143.805Z" transform="translate(-404.268 -132.337)" fill="#c6e8f7" fill-rule="evenodd"/>
        <path id="Path_51731" data-name="Path 51731" d="M317.67,134.463c4.193-1.516,8.262-.895,9.088,1.389s-1.9,5.365-6.1,6.881-8.262.894-9.088-1.39S313.477,135.98,317.67,134.463Z" transform="translate(-311.425 -125.707)" fill="#fff" fill-rule="evenodd"/>
        <path id="Path_51732" data-name="Path 51732" d="M324.184,143.805c3.145-1.137,6.061-1.046,6.513.2s-1.731,3.185-4.876,4.322-6.061,1.046-6.513-.2S321.039,144.943,324.184,143.805Z" transform="translate(-316.959 -132.337)" fill="#c6e8f7" fill-rule="evenodd"/>
        <path id="Path_51733" data-name="Path 51733" d="M379.56,132.487c0,7.8-9.758,14.714-13.646,14.714s-13.646-6.918-13.646-14.714C352.268,118.037,379.56,118.037,379.56,132.487Z" transform="translate(-340.313 -117.23)" fill="#c6e8f7" fill-rule="evenodd"/>
        <line id="Line_2474" data-name="Line 2474" y2="4.896" transform="translate(25.598 21.528)" fill="none" stroke="#3e6477" stroke-linecap="round" stroke-linejoin="round" stroke-width="2.4"/>
        <path id="Path_51734" data-name="Path 51734" d="M393.569,188.786c-1.906,3.154-8.028,3.123-9.785,0" transform="translate(-363.078 -164.716)" fill="none" stroke="#3e6477" stroke-linecap="round" stroke-linejoin="round" stroke-width="2.4" fill-rule="evenodd"/>
        <path id="Path_51735" data-name="Path 51735" d="M394.865,177.659c1.284,0,2.331-.775,2.331-1.726s-1.047-1.726-2.331-1.726-2.331.775-2.331,1.726S393.581,177.659,394.865,177.659Z" transform="translate(-369.268 -154.404)" fill="#de97a0" fill-rule="evenodd"/>
        <path id="Path_51736" data-name="Path 51736" d="M384.3,114.408a3.928,3.928,0,1,0-3.928-3.928A3.936,3.936,0,0,0,384.3,114.408Z" transform="translate(-360.622 -106.552)" fill="#fff" fill-rule="evenodd"/>
        <path id="Path_51737" data-name="Path 51737" d="M362.751,118.852a3.928,3.928,0,1,0-3.928-3.928A3.936,3.936,0,0,0,362.751,118.852Z" transform="translate(-345.247 -109.695)" fill="#fff" fill-rule="evenodd"/>
        <path id="Path_51738" data-name="Path 51738" d="M345.079,129.658a3.928,3.928,0,1,0-3.928-3.928A3.936,3.936,0,0,0,345.079,129.658Z" transform="translate(-332.637 -117.338)" fill="#fff" fill-rule="evenodd"/>
        <circle id="Ellipse_2271" data-name="Ellipse 2271" cx="3.928" cy="3.928" r="3.928" transform="translate(25.994 0.491)" fill="#fff"/>
        <path id="Path_51739" data-name="Path 51739" d="M426.235,125.311a3.928,3.928,0,1,0-3.928-3.928A3.936,3.936,0,0,0,426.235,125.311Z" transform="translate(-390.547 -114.263)" fill="#fff" fill-rule="evenodd"/>
        <g id="Group_56681" data-name="Group 56681" transform="translate(19.342 14.273)">
          <path id="Path_51740" data-name="Path 51740" d="M380.209,155.315c.6,0,1.08.828,1.08,1.85s-.483,1.85-1.08,1.85-1.08-.828-1.08-1.85S379.613,155.315,380.209,155.315Z" transform="translate(-379.129 -155.315)" fill="#4d4d4d" fill-rule="evenodd"/>
          <path id="Path_51741" data-name="Path 51741" d="M415.571,155.315c.6,0,1.079.828,1.079,1.85s-.483,1.85-1.079,1.85-1.08-.828-1.08-1.85S414.975,155.315,415.571,155.315Z" transform="translate(-404.141 -155.315)" fill="#4d4d4d" fill-rule="evenodd"/>
        </g>
      </g>
      <path id="Path_51742" data-name="Path 51742" d="M356.18,115.307a12.141,12.141,0,0,0-5.268-.785,4.048,4.048,0,0,0,.091-.851,3.893,3.893,0,0,0-3.857-3.928,3.785,3.785,0,0,0-1.984.559,3.879,3.879,0,0,0-3.8-3.26,3.821,3.821,0,0,0-2.962,1.412,3.827,3.827,0,0,0-6.848.471,3.805,3.805,0,0,0-2.649-1.073,3.881,3.881,0,0,0-3.819,3.377,3.791,3.791,0,0,0-1.26-.214,3.887,3.887,0,0,0-3.846,3.637,13.889,13.889,0,0,0-2.422.655c-4.117,1.516-6.8,4.6-5.986,6.881.7,1.959,3.734,2.7,7.182,1.908a4.029,4.029,0,0,0-.048.622,3.893,3.893,0,0,0,3.857,3.928,3.813,3.813,0,0,0,.763-.077,4.025,4.025,0,0,0-.04.568,3.893,3.893,0,0,0,3.857,3.928,3.785,3.785,0,0,0,1.961-.545c2.855,2.455,6.055,4,7.922,4,2.083,0,5.824-1.925,8.895-4.887a3.8,3.8,0,0,0,1.229.2A3.893,3.893,0,0,0,351,127.91c0-.1,0-.209-.012-.312a3.907,3.907,0,0,0,3.143-3.724c3.788,1.122,7.28.433,8.032-1.685C362.977,119.9,360.3,116.824,356.18,115.307Z" transform="translate(-311.425 -106.551)" fill="#f1e7db" fill-rule="evenodd"/>
      <path id="Path_51743" data-name="Path 51743" d="M340.681,163.055a3.928,3.928,0,1,0-3.928-3.928A3.936,3.936,0,0,0,340.681,163.055Z" transform="translate(-329.34 -140.96)" fill="#fff" fill-rule="evenodd"/>
      <path id="Path_51744" data-name="Path 51744" d="M356.618,178.153a3.928,3.928,0,1,0-3.928-3.928A3.936,3.936,0,0,0,356.618,178.153Z" transform="translate(-340.871 -151.639)" fill="#fff" fill-rule="evenodd"/>
      <circle id="Ellipse_2272" data-name="Ellipse 2272" cx="3.928" cy="3.928" r="3.928" transform="translate(30.545 23.483) rotate(-67.5)" fill="#fff"/>
      <circle id="Ellipse_2273" data-name="Ellipse 2273" cx="3.928" cy="3.928" r="3.928" transform="translate(33.503 19.309) rotate(-67.5)" fill="#fff"/>
      <path id="Path_51745" data-name="Path 51745" d="M444.843,134.463c-4.193-1.516-8.263-.895-9.088,1.389s1.9,5.365,6.1,6.881,8.262.894,9.088-1.39S449.036,135.98,444.843,134.463Z" transform="translate(-400.201 -125.707)" fill="#fff" fill-rule="evenodd"/>
      <path id="Path_51746" data-name="Path 51746" d="M447.929,143.805c-3.145-1.137-6.06-1.046-6.513.2s1.732,3.185,4.876,4.322,6.061,1.046,6.513-.2S451.074,144.943,447.929,143.805Z" transform="translate(-404.268 -132.337)" fill="#c6e8f7" fill-rule="evenodd"/>
      <path id="Path_51747" data-name="Path 51747" d="M317.67,134.463c4.193-1.516,8.262-.895,9.088,1.389s-1.9,5.365-6.1,6.881-8.262.894-9.088-1.39S313.477,135.98,317.67,134.463Z" transform="translate(-311.425 -125.707)" fill="#fff" fill-rule="evenodd"/>
      <path id="Path_51748" data-name="Path 51748" d="M324.184,143.805c3.145-1.137,6.061-1.046,6.513.2s-1.731,3.185-4.876,4.322-6.061,1.046-6.513-.2S321.039,144.943,324.184,143.805Z" transform="translate(-316.959 -132.337)" fill="#c6e8f7" fill-rule="evenodd"/>
      <path id="Path_51749" data-name="Path 51749" d="M379.56,132.487c0,7.8-9.758,14.714-13.646,14.714s-13.646-6.918-13.646-14.714C352.268,118.037,379.56,118.037,379.56,132.487Z" transform="translate(-340.313 -117.23)" fill="#c6e8f7" fill-rule="evenodd"/>
      <line id="Line_2475" data-name="Line 2475" y2="4.896" transform="translate(25.598 21.528)" fill="none" stroke="#4d4d4d" stroke-linecap="round" stroke-linejoin="round" stroke-width="1.5"/>
      <path id="Path_51750" data-name="Path 51750" d="M393.569,188.786c-1.906,3.154-8.028,3.123-9.785,0" transform="translate(-363.078 -164.716)" fill="none" stroke="#4d4d4d" stroke-linecap="round" stroke-linejoin="round" stroke-width="1.5" fill-rule="evenodd"/>
      <path id="Path_51751" data-name="Path 51751" d="M394.865,177.659c1.284,0,2.331-.775,2.331-1.726s-1.047-1.726-2.331-1.726-2.331.775-2.331,1.726S393.581,177.659,394.865,177.659Z" transform="translate(-369.268 -154.404)" fill="#4d4d4d" fill-rule="evenodd"/>
      <path id="Path_51752" data-name="Path 51752" d="M384.3,114.408a3.928,3.928,0,1,0-3.928-3.928A3.936,3.936,0,0,0,384.3,114.408Z" transform="translate(-360.622 -106.552)" fill="#fff" fill-rule="evenodd"/>
      <path id="Path_51753" data-name="Path 51753" d="M362.751,118.852a3.928,3.928,0,1,0-3.928-3.928A3.936,3.936,0,0,0,362.751,118.852Z" transform="translate(-345.247 -109.695)" fill="#fff" fill-rule="evenodd"/>
      <path id="Path_51754" data-name="Path 51754" d="M345.079,129.658a3.928,3.928,0,1,0-3.928-3.928A3.936,3.936,0,0,0,345.079,129.658Z" transform="translate(-332.637 -117.338)" fill="#fff" fill-rule="evenodd"/>
      <circle id="Ellipse_2274" data-name="Ellipse 2274" cx="3.928" cy="3.928" r="3.928" transform="translate(25.994 0.491)" fill="#fff"/>
      <path id="Path_51755" data-name="Path 51755" d="M426.235,125.311a3.928,3.928,0,1,0-3.928-3.928A3.936,3.936,0,0,0,426.235,125.311Z" transform="translate(-390.547 -114.263)" fill="#fff" fill-rule="evenodd"/>
      <g id="Group_56683" data-name="Group 56683" transform="translate(19.342 14.273)">
        <path id="Path_51756" data-name="Path 51756" d="M380.209,155.315c.6,0,1.08.828,1.08,1.85s-.483,1.85-1.08,1.85-1.08-.828-1.08-1.85S379.613,155.315,380.209,155.315Z" transform="translate(-379.129 -155.315)" fill="#4d4d4d" fill-rule="evenodd"/>
        <path id="Path_51757" data-name="Path 51757" d="M415.571,155.315c.6,0,1.079.828,1.079,1.85s-.483,1.85-1.079,1.85-1.08-.828-1.08-1.85S414.975,155.315,415.571,155.315Z" transform="translate(-404.141 -155.315)" fill="#4d4d4d" fill-rule="evenodd"/>
      </g>
    </g>
  </g>
</svg>
