<svg xmlns="http://www.w3.org/2000/svg" width="60" height="60" viewBox="0 0 60 60">
  <g id="Group_56689" data-name="Group 56689" transform="translate(-64.224 -285.695)">
    <circle id="Ellipse_2264" data-name="Ellipse 2264" cx="30" cy="30" r="30" transform="translate(64.224 285.695)" fill="#a16169"/>
    <g id="Group_56668" data-name="Group 56668" transform="translate(74.229 299.184)">
      <path id="Path_51667" data-name="Path 51667" d="M124.432,342.9h0v36.91l4.785,4.785a31.194,31.194,0,0,0,25.963-27.054l-18.25-18.25,0,0-.021-.022-.025-.026-.033-.032-.017-.017h0q-.051-.048-.1-.094l-.029-.024c-.053-.045-.107-.087-.164-.127l-.027-.019c-.057-.041-.116-.078-.177-.113l-.02-.011c-.064-.036-.129-.07-.2-.1s-.143-.06-.215-.086l-.009,0c-.069-.024-.14-.044-.21-.061l-.017,0q-.1-.024-.206-.039l-.024,0c-.068-.009-.136-.016-.205-.02H135.2c-.069,0-.137,0-.207,0h-.026q-.105,0-.212.016l-.023,0c-.071.008-.144.02-.216.033l-.023,0c-.074.014-.147.031-.221.051l-.019,0c-.077.02-.154.044-.232.07l-.016.005c-.077.026-.153.055-.23.085l-.025.01c-.073.03-.145.061-.218.1l-.033.016c-.069.033-.138.067-.206.1l-.049.026q-.1.053-.2.111l-.051.031c-.063.038-.127.077-.19.119l-.059.039c-.061.041-.123.083-.184.126l-.059.042c-.062.044-.123.09-.184.137l-.06.046c-.06.047-.119.1-.179.145l-.08.066c-.054.045-.107.092-.161.14l-.093.083-.145.134-.1.093q-.07.067-.139.136l-.1.1c-.049.05-.1.1-.145.152l-.089.1q-.067.073-.133.148l-.093.107-.119.141c-.04.048-.08.1-.119.145l-.1.12c-.049.061-.1.124-.145.188l-.062.082c-.05.066-.1.133-.148.2l-.056.079c-.052.072-.1.146-.153.22l-.042.062q-.077.114-.152.23l-.04.062c-.05.079-.1.158-.149.238l-.038.063c-.048.08-.1.161-.143.242l-.032.056c-.048.084-.1.169-.143.255v0l-.158-.037q-.226-.052-.455-.1l-.212-.042q-.222-.043-.447-.081l-.21-.035q-.226-.036-.455-.067l-.212-.028q-.227-.028-.455-.052l-.214-.021c-.154-.014-.308-.027-.464-.037l-.209-.013c-.156-.009-.313-.017-.47-.023l-.209-.006q-.233-.007-.466-.007Zm-.106,0h0c-.158,0-.316,0-.474.007l-.191.006q-.244.009-.488.024l-.19.012q-.248.017-.495.04l-.174.017c-.165.017-.33.035-.494.056l-.176.023q-.251.034-.5.074l-.154.025q-.248.042-.495.09l-.173.034q-.247.05-.491.107l-.141.033,0-.009q-.061-.112-.124-.222l-.051-.09c-.043-.073-.086-.146-.129-.218l-.053-.087q-.068-.11-.137-.219l-.051-.08q-.071-.109-.143-.217l-.052-.076q-.072-.1-.144-.207l-.066-.092c-.046-.063-.092-.126-.139-.188l-.072-.1q-.069-.091-.139-.179l-.117-.145c-.032-.039-.064-.078-.1-.116l-.125-.148-.09-.1c-.045-.051-.091-.1-.136-.152l-.086-.094-.146-.153-.09-.092c-.048-.049-.1-.1-.146-.144l-.1-.093-.145-.134-.092-.083c-.055-.049-.11-.1-.165-.143l-.071-.059c-.061-.051-.122-.1-.184-.149l-.057-.044c-.062-.047-.123-.094-.185-.138l-.059-.042c-.061-.044-.123-.086-.184-.127l-.058-.038c-.064-.041-.128-.082-.192-.12l-.05-.03q-.1-.058-.2-.111l-.047-.025c-.069-.037-.138-.071-.207-.1l-.033-.016q-.109-.051-.219-.1l-.025-.01q-.115-.046-.23-.085l-.016-.005q-.117-.039-.232-.07l-.018,0c-.074-.019-.149-.036-.223-.051l-.023,0c-.072-.014-.145-.025-.216-.033l-.023,0c-.071-.008-.142-.013-.212-.016h-.026c-.069,0-.138,0-.206,0h-.027q-.1.006-.2.019l-.024,0q-.1.015-.206.039l-.017,0c-.071.017-.141.038-.21.061l-.009,0c-.072.025-.144.053-.215.086s-.132.065-.2.1l-.02.011c-.06.035-.119.073-.176.113l-.027.019c-.056.04-.11.082-.163.127l-.029.024c-.053.045-.1.093-.154.142l-.025.026c-.051.051-.1.1-.148.16l-.017.02c-.05.059-.1.119-.146.182l-.006.009c-.046.063-.091.128-.134.194l-.013.02c-.043.067-.084.135-.124.206l-.017.029q-.058.1-.111.211l-.021.043c-.034.071-.068.143-.1.218l-.019.044q-.048.114-.093.233l-.014.038q-.045.122-.087.25l-.008.028c-.026.081-.051.164-.075.248l-.011.036c-.023.084-.045.17-.067.256l-.014.059c-.02.084-.038.169-.056.254l-.014.07q-.025.125-.046.253l-.014.083c-.014.085-.027.17-.038.256l-.011.08q-.017.128-.031.258l-.009.088c-.007.074-.014.15-.02.225l-.009.119c-.005.076-.01.152-.014.229l-.005.1c0,.084-.006.169-.008.254l0,.122c0,.081,0,.163,0,.245,0,.044,0,.087,0,.131q0,.122,0,.245c0,.044,0,.089,0,.133,0,.063.005.127.008.191s.007.13.011.2.007.1.011.154c.006.075.011.15.018.225l.015.161c.007.067.014.133.021.2s.013.117.02.176.014.108.021.162q.015.111.031.222c.008.055.017.11.026.164q.018.111.037.222.014.081.029.162l.026.137c.017.084.033.168.051.252l.025.112c.02.089.04.177.061.266l.028.115q.032.127.066.253l.033.122c.019.068.038.135.058.2s.033.113.051.169.033.107.05.16.041.126.062.189l0,.014-.047.082c-.083.148-.163.3-.238.451l-.036.074q-.115.239-.217.486l-.026.064q-.1.255-.192.519l-.017.052q-.09.272-.164.552l-.01.038q-.075.29-.133.589l0,.025q-.059.305-.1.621l0,.016q-.041.321-.061.654v0q-.021.336-.021.683h0q0,.188.005.375h0c0,.125.008.249.015.373h0c.007.124.015.248.025.371l.006.07-3.972-.7a.18.18,0,1,0-.062.354l.253.044,2.788,2.788h-3.431a.179.179,0,0,0,0,.359h.179l2.418,2.418-2.49.439a.18.18,0,1,0,.062.354l.124-.022,18.553,18.553V342.9Z" transform="translate(-105.406 -338.487)" fill="#85444b" fill-rule="evenodd"/>
    </g>
    <g id="Group_56670" data-name="Group 56670" transform="translate(75.406 300.361)">
      <path id="Path_51668" data-name="Path 51668" d="M149.525,354.039c0,8.011-7.055,15.119-14.473,15.119s-14.473-7.108-14.473-15.119a9.7,9.7,0,0,1,1.268-4.911c-1.363-4.017-.97-9.282,1.522-10.42,2.17-.991,5.175,1.494,6.944,4.745a20.747,20.747,0,0,1,9.479,0c1.769-3.252,4.774-5.736,6.944-4.745,2.493,1.138,2.885,6.4,1.522,10.42A9.7,9.7,0,0,1,149.525,354.039Z" transform="translate(-116.026 -338.488)" fill="#e6e6e6" fill-rule="evenodd"/>
      <path id="Path_51669" data-name="Path 51669" d="M124.517,338.708c4.583-2.092,12.891,11.309,5.411,14.723S119.934,340.8,124.517,338.708Z" transform="translate(-117.175 -338.487)" fill="#fc6" fill-rule="evenodd"/>
      <path id="Path_51670" data-name="Path 51670" d="M130.15,346.975c2.574-1.175,7.849,8.008,3.648,9.925S127.576,348.15,130.15,346.975Z" transform="translate(-121.926 -344.355)" fill="#e8ac33" fill-rule="evenodd"/>
      <path id="Path_51671" data-name="Path 51671" d="M188.123,338.708c-4.583-2.092-12.891,11.309-5.411,14.723S192.706,340.8,188.123,338.708Z" transform="translate(-157.414 -338.487)" fill="#fc6" fill-rule="evenodd"/>
      <path id="Path_51672" data-name="Path 51672" d="M192.632,346.975c-2.574-1.175-7.849,8.008-3.647,9.925S195.207,348.15,192.632,346.975Z" transform="translate(-162.805 -344.355)" fill="#e8ac33" fill-rule="evenodd"/>
      <path id="Path_51673" data-name="Path 51673" d="M149.525,364.337c0,8.011-7.055,15.119-14.473,15.119s-14.473-7.108-14.473-15.119C120.578,349.491,149.525,349.491,149.525,364.337Z" transform="translate(-116.026 -348.787)" fill="#fc6" fill-rule="evenodd"/>
      <path id="Path_51674" data-name="Path 51674" d="M154.39,353.964a19.938,19.938,0,0,1,2.009-.327c-.11,4.836-.519,8.43-1.009,8.43S154.51,358.634,154.39,353.964Z" transform="translate(-139.691 -349.091)" fill="#e8ac33" fill-rule="evenodd"/>
      <path id="Path_51675" data-name="Path 51675" d="M177.224,353.717a19.7,19.7,0,0,1,2.007.348c-.122,4.647-.523,8.058-1,8.058S177.334,358.54,177.224,353.717Z" transform="translate(-155.673 -349.147)" fill="#e8ac33" fill-rule="evenodd"/>
      <path id="Path_51676" data-name="Path 51676" d="M165.273,353.238c.671-.033,1.344-.034,2.016,0,.019.838.03,1.714.03,2.616,0,6.082-.465,11.012-1.037,11.012s-1.037-4.931-1.037-11.012C165.244,354.95,165.254,354.076,165.273,353.238Z" transform="translate(-147.288 -348.794)" fill="#e8ac33" fill-rule="evenodd"/>
      <line id="Line_2471" data-name="Line 2471" y2="5.571" transform="translate(19.026 19.67)" fill="none" stroke="#4d4d4d" stroke-linecap="round" stroke-linejoin="round" stroke-width="1.5"/>
      <path id="Path_51677" data-name="Path 51677" d="M159.665,400.417a10.465,10.465,0,0,1,5.488,0c-.294,1.794-1.411,3.128-2.744,3.128S159.959,402.211,159.665,400.417Z" transform="translate(-143.383 -381.576)" fill="#4d4d4d" fill-rule="evenodd"/>
      <path id="Path_51678" data-name="Path 51678" d="M162.125,414.558c-1.954,3.233-8.231,3.2-10.033,0" transform="translate(-138.083 -391.73)" fill="none" stroke="#4d4d4d" stroke-linecap="round" stroke-linejoin="round" stroke-width="1.5" fill-rule="evenodd"/>
      <path id="Path_51679" data-name="Path 51679" d="M199.778,415.28c-2.07-.649-3.332-1.2-3.268-1.5.07-.318,1.691-.259,4.169.092A16.253,16.253,0,0,1,199.778,415.28Z" transform="translate(-169.169 -391.042)" fill="#e8ac33" fill-rule="evenodd"/>
      <path id="Path_51680" data-name="Path 51680" d="M194.265,421.968c-1.949-.811-3.119-1.459-3.03-1.74.1-.313,1.727-.107,4.189.468A16.456,16.456,0,0,1,194.265,421.968Z" transform="translate(-165.476 -395.596)" fill="#e8ac33" fill-rule="evenodd"/>
      <path id="Path_51681" data-name="Path 51681" d="M128.109,415.28c2.07-.65,3.333-1.2,3.269-1.5-.07-.318-1.691-.259-4.169.091A16.269,16.269,0,0,0,128.109,415.28Z" transform="translate(-120.666 -391.042)" fill="#e8ac33" fill-rule="evenodd"/>
      <path id="Path_51682" data-name="Path 51682" d="M133.57,421.968c1.949-.811,3.119-1.459,3.03-1.74-.1-.313-1.727-.107-4.189.468A16.388,16.388,0,0,0,133.57,421.968Z" transform="translate(-124.308 -395.596)" fill="#e8ac33" fill-rule="evenodd"/>
      <path id="Path_51683" data-name="Path 51683" d="M185.77,396.614a.18.18,0,1,1,.062-.354l11.77,2.075a.18.18,0,0,1-.062.354l-11.77-2.075Zm-1.826-1.136a.179.179,0,1,1,0-.359h13.766a.179.179,0,1,1,0,.359Zm1.972-1.18a.18.18,0,1,1-.062-.354l11.4-2.011a.18.18,0,1,1,.062.354Z" transform="translate(-160.25 -375.893)" fill="#fff"/>
      <path id="Path_51684" data-name="Path 51684" d="M117.465,396.26a.18.18,0,1,1,.062.354l-11.77,2.075a.18.18,0,1,1-.062-.354l11.77-2.075Zm1.888-1.14a.179.179,0,1,1,0,.359H105.587a.179.179,0,0,1,0-.359Zm-1.91-1.176a.18.18,0,0,1-.062.354l-11.4-2.011a.18.18,0,0,1,.062-.354Z" transform="translate(-105.408 -375.893)" fill="#fff"/>
      <g id="Group_56669" data-name="Group 56669" transform="translate(12.613 13.702)">
        <path id="Path_51685" data-name="Path 51685" d="M148.546,384.146c.611,0,1.107.849,1.107,1.9s-.5,1.9-1.107,1.9-1.107-.849-1.107-1.9S147.934,384.146,148.546,384.146Z" transform="translate(-147.439 -384.146)" fill="#4d4d4d" fill-rule="evenodd"/>
        <path id="Path_51686" data-name="Path 51686" d="M183.907,384.146c.611,0,1.107.849,1.107,1.9s-.5,1.9-1.107,1.9-1.107-.849-1.107-1.9S183.3,384.146,183.907,384.146Z" transform="translate(-172.189 -384.146)" fill="#4d4d4d" fill-rule="evenodd"/>
      </g>
    </g>
  </g>
</svg>
