<svg xmlns="http://www.w3.org/2000/svg" width="60" height="60" viewBox="0 0 60 60">
  <g id="Group_56704" data-name="Group 56704" transform="translate(-295.57 -517.04)">
    <circle id="Ellipse_2266" data-name="Ellipse 2266" cx="30" cy="30" r="30" transform="translate(295.57 517.04)" fill="#43bc99"/>
    <path id="Path_51701" data-name="Path 51701" d="M357.917,548.3v0l.024.023.048.043c.081.074.161.151.24.232l.032.035.038.041,11.379,11.153.008-.079.007-.065q.028-.273.06-.546l.018-.158q.027-.225.056-.449l.015-.116c.024-.179.049-.357.076-.535l.023-.147c.021-.142.044-.283.066-.424l.023-.14c.029-.174.059-.349.091-.521l.024-.126c.027-.145.055-.289.083-.433l.025-.126q.053-.262.11-.52l.018-.079c.034-.15.068-.3.1-.446l.031-.131c.041-.169.083-.336.127-.5l.008-.028q.062-.232.127-.459l.04-.138q.063-.215.127-.426l.016-.053q.073-.233.15-.458l.041-.121c.043-.125.088-.249.133-.371.011-.029.021-.058.032-.088.053-.144.109-.285.165-.424l.043-.1c.046-.112.093-.222.141-.331.015-.033.029-.067.044-.1q.089-.2.181-.389l.041-.081c.052-.1.1-.207.158-.308l.05-.094c.065-.12.131-.238.2-.352l.03-.05q.091-.15.183-.291l.054-.083a7.442,7.442,0,0,1,.445-.6l.062-.074c.068-.08.138-.157.208-.232l.029-.032c.079-.082.159-.159.24-.233l.063-.056c.069-.061.139-.119.211-.174l.048-.038c.084-.064.17-.123.256-.178l.063-.038c.072-.043.144-.084.218-.122l.064-.033c.09-.044.18-.084.272-.118l.055-.019c.078-.028.156-.052.235-.073l.074-.019a2.818,2.818,0,0,1,.29-.054l.04,0c.088-.01.176-.016.265-.018h.08a2.987,2.987,0,0,1,.309.015,2.839,2.839,0,0,1,.308.049l.09.021c.072.018.143.038.213.06l.086.029a2.75,2.75,0,0,1,.261.11l.012.005a2.551,2.551,0,0,1,.256.145l.073.049c.06.041.12.084.177.129l.069.055c.046.039.091.078.135.119h0l.049.048,0,0,0,0,0,0,0,0,0,0,0,0,.008.009h0l.008.008.01.01,17.769,17.415c.08.876.123,1.762.123,2.658a29.649,29.649,0,0,1-26.968,29.266l-11.967-11.73q-.112-.1-.222-.193t-.239-.216q-.118-.11-.234-.221t-.228-.226c-.075-.076-.149-.153-.223-.23s-.146-.156-.218-.236-.142-.159-.211-.24h0q-.1-.121-.206-.244h0c-.068-.082-.135-.165-.2-.248h0q-.1-.125-.194-.253h0c-.064-.085-.126-.17-.187-.256s-.122-.173-.181-.261h0q-.089-.131-.174-.264h0c-.057-.089-.113-.178-.168-.268h0c-.055-.089-.109-.18-.161-.271s-.1-.182-.155-.275h0q-.075-.138-.147-.278h0q-.072-.14-.14-.281t-.133-.284h0q-.064-.143-.125-.287h0q-.061-.144-.117-.29h0q-.057-.146-.11-.292h0c-.035-.1-.069-.2-.1-.295s-.064-.2-.094-.3h0q-.045-.149-.085-.3t-.077-.3h0q-.036-.152-.068-.3h0c-.021-.1-.041-.2-.06-.306h0c-.018-.1-.035-.2-.051-.307h0c-.016-.1-.029-.206-.042-.309h0c-.012-.1-.023-.207-.033-.311h0c-.009-.1-.017-.208-.024-.313h0q-.009-.156-.014-.314h0q0-.157,0-.315h0q0-.291.02-.573v0q.019-.28.057-.551v-.009q.038-.269.093-.529l0-.013c.038-.173.08-.343.129-.51l0-.009q.072-.249.161-.49l0-.014q.088-.237.192-.465l.011-.025q.1-.223.218-.439l.018-.033q.115-.211.243-.414l.024-.038q.126-.2.263-.386l.031-.043q.137-.186.286-.366l.035-.042q.149-.178.309-.348l.049-.052q.157-.165.323-.324l.059-.055q.16-.15.33-.294l.077-.065.128-.105v0c-.044-.091-.088-.185-.132-.279l-.053-.113c-.043-.093-.086-.188-.128-.283l-.041-.095q-.208-.475-.406-.984l-.049-.127q-.059-.154-.118-.31l-.044-.122q-.191-.517-.37-1.061l-.046-.14q-.053-.163-.1-.327l-.049-.157q-.108-.347-.211-.7l-.017-.058c-.03-.106-.06-.213-.09-.32l-.054-.193q-.044-.16-.087-.321l-.051-.194q-.088-.336-.171-.676l-.025-.1c-.025-.1-.049-.2-.073-.307-.018-.079-.037-.158-.055-.237-.023-.1-.046-.2-.068-.3-.018-.079-.035-.159-.052-.238q-.042-.191-.081-.383c-.027-.133-.054-.265-.08-.4-.018-.092-.035-.184-.053-.276s-.035-.187-.053-.281-.033-.182-.049-.273-.034-.2-.051-.3-.03-.173-.044-.26q-.041-.25-.078-.5c-.012-.078-.023-.156-.034-.233q-.024-.166-.047-.331c-.011-.081-.022-.162-.033-.243-.014-.111-.028-.221-.042-.331-.009-.073-.018-.146-.027-.219q-.03-.26-.057-.518-.009-.093-.018-.185-.018-.182-.033-.362c-.006-.074-.012-.148-.018-.222-.01-.119-.018-.238-.027-.357,0-.06-.009-.121-.013-.182-.011-.174-.021-.347-.029-.518,0-.047,0-.092-.006-.139q-.009-.2-.015-.392l0-.189c0-.123-.005-.245-.006-.367,0-.052,0-.1,0-.155q0-.255,0-.5c0-.032,0-.064,0-.1q0-.2.012-.407c0-.054,0-.106.006-.159.005-.121.012-.241.019-.36,0-.045.005-.09.008-.134q.016-.24.038-.475l.007-.07q.02-.2.043-.395c.005-.045.011-.09.017-.134q.022-.171.048-.338c.006-.039.012-.079.018-.118q.035-.219.077-.43l.012-.055q.037-.182.079-.358c.009-.04.019-.079.029-.118.025-.1.051-.2.079-.3.01-.035.019-.069.029-.1.037-.127.077-.252.118-.373l.015-.041c.037-.107.077-.21.117-.312.014-.034.028-.067.042-.1q.054-.128.111-.25l.04-.086c.052-.107.106-.21.163-.31l.013-.022c.052-.091.107-.177.164-.262.018-.026.036-.052.054-.077q.07-.1.145-.195c.018-.023.036-.046.054-.068.067-.081.137-.159.209-.233l.01-.009c.069-.069.141-.133.214-.194l.067-.053c.058-.046.118-.089.179-.131l.072-.048a2.826,2.826,0,0,1,.257-.145l.009,0a2.742,2.742,0,0,1,.264-.11l.085-.029c.07-.023.142-.042.214-.061l.089-.021a2.751,2.751,0,0,1,.308-.049,3,3,0,0,1,.309-.015h.08c.089,0,.177.008.264.018l.04,0a2.926,2.926,0,0,1,.29.054l.074.019c.079.021.157.045.235.073l.057.019c.092.034.183.074.272.118l.064.033q.11.056.218.122l.063.038c.087.055.172.114.257.178l.049.039C357.784,548.189,357.851,548.244,357.917,548.3Z" transform="translate(-40.73 -21.251)" fill="#2b9e7d" fill-rule="evenodd"/>
    <g id="Group_56675" data-name="Group 56675" transform="translate(311.688 526.168)">
      <path id="Path_51702" data-name="Path 51702" d="M379.344,576.506c0,6.7-6.607,12.653-13.554,12.653s-13.555-5.949-13.555-12.653a7.707,7.707,0,0,1,3.07-6.171c-3.5-7.205-5.511-22.318.142-22.9,5.164-.533,7.312,12.031,6.5,20.1a21.806,21.806,0,0,1,7.689,0c-.814-8.064,1.334-20.628,6.5-20.095,5.653.583,3.645,15.7.142,22.9A7.707,7.707,0,0,1,379.344,576.506Z" transform="translate(-351.907 -547.417)" fill="#d1dae3" fill-rule="evenodd"/>
      <path id="Path_51703" data-name="Path 51703" d="M359.013,574.734c-5.073.536-11.074-26.506-3.568-27.3S364.086,574.2,359.013,574.734Z" transform="translate(-351.906 -547.417)" fill="#c6e8f7" fill-rule="evenodd"/>
      <path id="Path_51704" data-name="Path 51704" d="M364.845,584.867c-2.495.264-6.045-18.032-2.407-18.417S367.34,584.6,364.845,584.867Z" transform="translate(-358.289 -560.948)" fill="#fff" fill-rule="evenodd"/>
      <path id="Path_51705" data-name="Path 51705" d="M415.786,574.734c5.073.536,11.074-26.506,3.568-27.3S410.713,574.2,415.786,574.734Z" transform="translate(-395.128 -547.417)" fill="#c6e8f7" fill-rule="evenodd"/>
      <path id="Path_51706" data-name="Path 51706" d="M422.124,584.867c2.495.264,6.045-18.032,2.407-18.417S419.63,584.6,422.124,584.867Z" transform="translate(-400.916 -560.948)" fill="#fff" fill-rule="evenodd"/>
      <path id="Path_51707" data-name="Path 51707" d="M380.15,627.069c0,6.868-6.607,12.963-13.554,12.963s-13.555-6.094-13.555-12.963C353.041,614.339,380.15,614.339,380.15,627.069Z" transform="translate(-352.713 -598.289)" fill="#c6e8f7" fill-rule="evenodd"/>
      <path id="Path_51708" data-name="Path 51708" d="M373.742,665.9a17.881,17.881,0,0,1,10.652,3.232,13.349,13.349,0,0,1-21.3,0A17.88,17.88,0,0,1,373.742,665.9Z" transform="translate(-359.86 -632.689)" fill="#fff" fill-rule="evenodd"/>
      <line id="Line_2473" data-name="Line 2473" y2="4.831" transform="translate(13.882 33.839)" fill="none" stroke="#4d4d4d" stroke-linecap="round" stroke-linejoin="round" stroke-width="1.5"/>
      <path id="Path_51709" data-name="Path 51709" d="M392.9,676.767c-1.881,3.113-7.924,3.083-9.658,0" transform="translate(-374.191 -640.419)" fill="none" stroke="#4d4d4d" stroke-linecap="round" stroke-linejoin="round" stroke-width="1.5" fill-rule="evenodd"/>
      <path id="Path_51710" data-name="Path 51710" d="M390.526,661.588a4.8,4.8,0,0,1,5.283,0,2.422,2.422,0,0,1-2.558,2.191A2.58,2.58,0,0,1,390.526,661.588Z" transform="translate(-379.369 -628.882)" fill="#4d4d4d" fill-rule="evenodd"/>
      <g id="Group_56674" data-name="Group 56674" transform="translate(7.709 27.134)">
        <path id="Path_51711" data-name="Path 51711" d="M379.657,643.857c.588,0,1.066.817,1.066,1.826s-.477,1.826-1.066,1.826-1.066-.817-1.066-1.826S379.068,643.857,379.657,643.857Z" transform="translate(-378.591 -643.857)" fill="#4d4d4d" fill-rule="evenodd"/>
        <path id="Path_51712" data-name="Path 51712" d="M415.018,643.857c.588,0,1.066.817,1.066,1.826s-.477,1.826-1.066,1.826-1.066-.817-1.066-1.826S414.429,643.857,415.018,643.857Z" transform="translate(-403.737 -643.857)" fill="#4d4d4d" fill-rule="evenodd"/>
      </g>
    </g>
  </g>
</svg>
