<svg xmlns="http://www.w3.org/2000/svg" width="60" height="60" viewBox="0 0 60 60">
  <g id="Group_56705" data-name="Group 56705" transform="translate(-296.06 -285.696)">
    <ellipse id="Ellipse_2263" data-name="Ellipse 2263" cx="30" cy="30" rx="30" ry="30" transform="translate(296.06 285.696)" fill="#fc6"/>
    <path id="Path_51651" data-name="Path 51651" d="M359.47,348.236l4.874-1.333,5.044.627,10.352,10.352c.016.4.026.8.026,1.2a29.646,29.646,0,0,1-23.737,29.049l-7.712-7.711,3.841-4.7-21.92-21.921,7.208.122-6.373-6.373,9.09.153,12.559,12.559c1.516-.934,3.886-1.9,5.178-2.513l-5.509-5.508L359.235,348Z" transform="translate(-23.705 -43.024)" fill="#e8ac33" fill-rule="evenodd"/>
    <g id="Group_56666" data-name="Group 56666" transform="translate(305.476 302.599)">
      <path id="Path_51652" data-name="Path 51652" d="M361.865,355.414c0,5.356-5.425,10.234-10.014,12.05.016.032.031.064.046.1,1.124,2.494.781,6.243-5.323,9.652,2.969-5.486-2.449-4.494-2.282-8.553a4.451,4.451,0,0,1,.279-1.421c-4.464-1.97-9.476-6.677-9.476-11.824a7.871,7.871,0,0,1,.469-2.72,11.621,11.621,0,0,1-2.516-.13c-3.2-.507-5.536-2.149-5.22-3.668s3.167-2.339,6.366-1.833a8.9,8.9,0,0,1,4.347,1.783,12.247,12.247,0,0,1,2.114-1.248c-1.638-1.729-6.322-3.111-9.325-2.945-2.451.136-2.913-.8-.7-1.562,5.018-1.74,11.2.08,13.777,3.3a20.97,20.97,0,0,1,8.15,0c2.577-3.217,8.76-5.038,13.778-3.3,2.211.766,1.748,1.7-.7,1.562-3-.166-7.691,1.218-9.328,2.947a12.357,12.357,0,0,1,2.01,1.173,9.059,9.059,0,0,1,4.262-1.71c3.2-.507,6.049.314,6.366,1.833s-2.02,3.161-5.219,3.668a11.718,11.718,0,0,1-2.321.14A7.867,7.867,0,0,1,361.865,355.414Z" transform="translate(-327.8 -342.417)" fill="#ebdac6" fill-rule="evenodd"/>
      <path id="Path_51653" data-name="Path 51653" d="M436.554,358.329c-3.2.507-5.536,2.149-5.22,3.668s3.167,2.339,6.366,1.833,5.536-2.149,5.22-3.668S439.753,357.822,436.554,358.329Z" transform="translate(-401.778 -353.682)" fill="#fff" fill-rule="evenodd"/>
      <path id="Path_51654" data-name="Path 51654" d="M441,369.195c-2.338.511-4.034,1.268-3.786,1.691s2.344.349,4.682-.162,4.034-1.268,3.786-1.691S443.343,368.683,441,369.195Z" transform="translate(-405.987 -361.243)" fill="#de97a0" fill-rule="evenodd"/>
      <path id="Path_51655" data-name="Path 51655" d="M334.2,358.329c3.2.507,5.536,2.149,5.219,3.668s-3.167,2.339-6.366,1.833-5.536-2.149-5.219-3.668S331,357.822,334.2,358.329Z" transform="translate(-327.8 -353.682)" fill="#fff" fill-rule="evenodd"/>
      <path id="Path_51656" data-name="Path 51656" d="M337.579,369.195c2.338.511,4.034,1.268,3.786,1.691s-2.344.349-4.682-.162-4.033-1.268-3.786-1.691S335.24,368.683,337.579,369.195Z" transform="translate(-331.426 -361.243)" fill="#de97a0" fill-rule="evenodd"/>
      <path id="Path_51657" data-name="Path 51657" d="M387.885,433.866c6.1-3.409,6.447-7.158,5.323-9.652-1.612-3.577-7.416-3.494-7.6,1.1C385.436,429.372,390.854,428.38,387.885,433.866Z" transform="translate(-369.111 -399.071)" fill="#de97a0" fill-rule="evenodd"/>
      <path id="Path_51658" data-name="Path 51658" d="M411.68,346.757c2.385-3.444,8.847-5.472,14.054-3.666,2.211.766,1.748,1.7-.7,1.562-3.071-.17-7.9,1.28-9.432,3.063C413.01,350.727,409.282,350.219,411.68,346.757Z" transform="translate(-387.2 -342.417)" fill="#de97a0" fill-rule="evenodd"/>
      <path id="Path_51659" data-name="Path 51659" d="M348.2,346.757c-2.385-3.444-8.847-5.472-14.054-3.666-2.211.766-1.748,1.7.7,1.562,3.072-.17,7.9,1.28,9.432,3.063C346.868,350.727,350.6,350.219,348.2,346.757Z" transform="translate(-331.317 -342.417)" fill="#de97a0" fill-rule="evenodd"/>
      <path id="Path_51660" data-name="Path 51660" d="M380.144,364.356c0,6.782-8.7,12.8-13.385,12.8s-13.385-6.018-13.385-12.8C353.374,351.785,380.144,351.785,380.144,364.356Z" transform="translate(-346.079 -351.359)" fill="#fff" fill-rule="evenodd"/>
      <path id="Path_51661" data-name="Path 51661" d="M390.86,418.436a9.87,9.87,0,0,1-12.533,0,8.825,8.825,0,0,1,12.533,0Z" transform="translate(-363.913 -394.884)" fill="#de97a0" fill-rule="evenodd"/>
      <path id="Path_51662" data-name="Path 51662" d="M396.376,355.062a99.716,99.716,0,0,1-1.31,22.016,6.176,6.176,0,0,1-2.015,0,99.752,99.752,0,0,1-1.31-22.016A21.224,21.224,0,0,1,396.376,355.062Z" transform="translate(-373.379 -351.364)" fill="#de97a0" fill-rule="evenodd"/>
      <line id="Line_2470" data-name="Line 2470" y2="2.675" transform="translate(20.68 22.641)" fill="none" stroke="#4d4d4d" stroke-linecap="round" stroke-linejoin="round" stroke-width="1.5"/>
      <path id="Path_51663" data-name="Path 51663" d="M395.486,425.778c-1.244,2.058-5.24,2.038-6.386,0" transform="translate(-371.613 -401.997)" fill="none" stroke="#4d4d4d" stroke-linecap="round" stroke-linejoin="round" stroke-width="1.5" fill-rule="evenodd"/>
      <path id="Path_51664" data-name="Path 51664" d="M390.725,416.206a4.965,4.965,0,0,1,5.459,0,2.5,2.5,0,0,1-2.643,2.264A2.667,2.667,0,0,1,390.725,416.206Z" transform="translate(-372.774 -394.571)" fill="#4d4d4d" fill-rule="evenodd"/>
      <g id="Group_56665" data-name="Group 56665" transform="translate(14.584 13.378)">
        <path id="Path_51665" data-name="Path 51665" d="M379.976,389.311c.581,0,1.052.807,1.052,1.8s-.471,1.8-1.052,1.8-1.052-.807-1.052-1.8S379.4,389.311,379.976,389.311Z" transform="translate(-378.924 -389.311)" fill="#4d4d4d" fill-rule="evenodd"/>
        <path id="Path_51666" data-name="Path 51666" d="M415.338,389.311c.581,0,1.052.807,1.052,1.8s-.471,1.8-1.052,1.8-1.052-.807-1.052-1.8S414.757,389.311,415.338,389.311Z" transform="translate(-404.198 -389.311)" fill="#4d4d4d" fill-rule="evenodd"/>
      </g>
    </g>
  </g>
</svg>
