<svg xmlns="http://www.w3.org/2000/svg" width="60" height="60" viewBox="0 0 60 60">
  <g id="Group_56706" data-name="Group 56706" transform="translate(-64.228 -517.537)">
    <circle id="Ellipse_2267" data-name="Ellipse 2267" cx="30" cy="30" r="30" transform="translate(64.228 517.537)" fill="#88c4de"/>
    <g id="Group_56677" data-name="Group 56677" transform="translate(78.854 533.656)">
      <path id="Path_51713" data-name="Path 51713" d="M119.039,594.571h0l-.016-.013-.1-.085,0,0,0,0,0,0,0,0,0,0,0,0,0,0-.048-.041,0,0,0,0,0,0-.038-.033-.045-.039-.106-.091,0,0,0,0,0,0,0,0,0,0,0,0,0,0-.033-.029,0,0,0,0,0,0,0,0,0,0,0,0-.03-.026-.056-.05-.052-.046V577.434l.063.091.069.1.089.131.042.063.161.241.072.108.075.113.06.091.081.125.006.009c.039.06.077.119.114.178a18.223,18.223,0,0,1,7.711-1.722h.054q.243,0,.485,0h.091q.585.009,1.168.05l.152.011c.138.011.276.023.414.037l.193.02q.188.02.374.044l.3.04c.114.016.227.034.34.052l.24.04c.114.019.228.041.342.062l.268.053.294.063c.11.025.219.05.327.076l.227.056c.113.029.225.059.336.09l.273.078c.1.031.209.063.313.1l.233.076c.114.038.227.077.34.117l.182.066q.174.065.346.134l.214.088q.176.074.35.151l.163.075c.1.047.2.095.3.144l.129-.2.055-.085.087-.133.059-.089.122-.183.023-.035,0,0,.018-.027.126-.187.071-.1.084-.123.074-.108.145-.21.01-.014.036-.052.115-.164.074-.1.115-.163.043-.06.174-.243.03-.041.139-.192.071-.1.086-.117.136-.186.112-.152.073-.1.1-.132.078-.106.17-.226,0,0,.167-.221.081-.106.108-.142.059-.077q.179-.234.358-.463l.053-.068q.173-.222.345-.439l.025-.031.029-.036.137-.173.064-.079q.172-.215.341-.422l.03-.038.145-.178.04-.048.156-.189.013-.016v0l.008-.01.154-.184.048-.057.111-.132.057-.067.143-.168.01-.012.03-.035.11-.128.065-.075.1-.111.036-.041.148-.167.013-.014.115-.128.051-.056.119-.13,0,0,.123-.131.044-.047.08-.084.037-.038.109-.111h0l.1-.1.029-.027.076-.072.024-.022.089-.08.013-.011.069-.058.023-.019.058-.045.016-.012c.023-.017.044-.031.063-.044l.014-.008.042-.024.016-.008.037-.015.008,0a.1.1,0,0,1,.035,0l.007,0a.045.045,0,0,1,.019.008l.006,0a.054.054,0,0,1,.015.025h0L156.6,583.989c0,.133.005.267.005.4a29.33,29.33,0,0,1-19.955,27.791l-17.608-17.609Zm-.548-.473-.052-.046Zm-.052-.046-.052-.047,0,0,0,0,0,0,0,0h0l0,0-.031-.028h0l0,0h0l0,0h0l0,0h0l0,0,0,0,0,0,.031.028-.041-.037V577.277l.078.112.007.01.024.035v16.619Zm0,0-.052-.047Zm-.108-.1h0l0,0-.038-.034-.122-.112,0,0-.041-.038,0,0,0,0,0,0,0,0,0,0,0,0-.025-.023,0,0,0,0,0,0,0,0,0,0,0,0-.052-.048-.11-.105-.043-.041,0,0,0,0,0,0,0,0h0l-.023-.022,0,0,0,0,0,0-.079-.077-.092-.09-.038-.038,0,0,0,0,0,0,0,0,0,0-.014-.014,0,0,0,0,0,0,0,0,0,0,0,0,0,0-.071-.071-.1-.1-.027-.028,0,0,0,0,0,0,0,0,0,0,0,0-.018-.019,0,0,0,0,0,0,0,0,0,0,0,0-.071-.075-.122-.129-.012-.013,0,0,0,0,0,0,0,0,0,0,0,0,0,0,0,0,0,0,0,0,0,0,0,0,0,0,0,0-.071-.077c-.05-.054-.1-.108-.147-.163l-.084-.1-.137-.158,0,0v0h0v0l-.078-.091c-.049-.058-.1-.116-.145-.175l-.075-.092q-.074-.092-.146-.184l-.074-.095c-.051-.067-.1-.134-.151-.2l-.055-.075q-.076-.105-.15-.21l-.048-.069q-.072-.1-.141-.209l-.046-.069q-.071-.108-.139-.217l-.036-.059q-.07-.114-.137-.229l-.032-.055q-.071-.123-.138-.246l-.022-.041q-.072-.133-.139-.267l-.015-.031c-.043-.087-.084-.174-.124-.261l-.016-.035c-.039-.086-.076-.172-.112-.258l-.017-.04q-.054-.13-.1-.261l-.013-.034c-.033-.09-.065-.181-.095-.271l-.009-.027c-.031-.1-.061-.192-.088-.288l0-.01c-.028-.1-.054-.2-.077-.3l0-.02q-.033-.141-.061-.283l-.005-.029c-.017-.091-.033-.182-.047-.273l-.006-.039q-.019-.137-.034-.276l0-.027q-.014-.145-.021-.29v-.018c-.005-.1-.008-.2-.008-.308q0-.291.019-.572v0q.019-.28.056-.551v-.005q.037-.27.092-.53l0-.01q.054-.257.125-.506l.005-.017q.07-.245.156-.482l.008-.022q.085-.232.185-.457l.013-.03q.1-.221.211-.433l.018-.034q.113-.21.238-.413l.021-.033.01-.017,0,0-.1-.065-.055-.036-.1-.07-.054-.038-.106-.076-.047-.034-.11-.083-.043-.033-.11-.088-.039-.032-.113-.1-.036-.031c-.039-.034-.077-.068-.115-.1l-.029-.027-.12-.114-.018-.018q-.062-.061-.123-.123l-.025-.025c-.04-.041-.079-.084-.119-.126l-.02-.022c-.041-.045-.081-.09-.121-.137l-.01-.012c-.041-.048-.083-.1-.123-.147l0-.005h0l0-.005q-.061-.075-.12-.153l-.008-.011c-.04-.052-.079-.106-.118-.16l-.007-.01c-.039-.054-.077-.109-.114-.165l-.009-.014c-.037-.055-.073-.111-.109-.168l-.008-.012q-.055-.087-.108-.177l0,0h0c-.037-.063-.073-.126-.109-.188h0c-.036-.062-.071-.124-.1-.186h0c-.034-.062-.067-.123-.1-.184h0l-.1-.182h0c-.031-.061-.062-.121-.091-.181h0c-.03-.06-.059-.119-.087-.179h0c-.029-.06-.056-.119-.084-.177h0q-.041-.088-.079-.176h0q-.039-.087-.075-.174c-.025-.058-.049-.115-.071-.172h0q-.035-.086-.067-.171c-.022-.056-.043-.113-.064-.169s-.041-.112-.06-.168-.038-.111-.056-.167-.036-.111-.053-.165-.033-.109-.049-.164-.031-.109-.046-.162-.029-.108-.042-.161-.027-.107-.039-.16-.025-.106-.036-.159-.022-.105-.033-.158-.02-.1-.029-.157-.018-.1-.027-.156-.016-.1-.024-.154-.014-.1-.02-.154-.012-.1-.018-.152-.01-.1-.015-.152-.008-.1-.012-.151-.006-.1-.009-.15-.005-.1-.007-.149,0-.1,0-.148,0-.1,0-.148,0-.1,0-.147,0-.1,0-.146,0-.1.005-.146,0-.1.007-.145.006-.1.01-.145.007-.1.011-.144.009-.1.014-.144.01-.1.016-.144.011-.1.017-.143.013-.1.019-.143.014-.1.021-.143h0c.007-.048.015-.1.023-.143s.016-.095.025-.142.017-.095.026-.143.018-.095.028-.142.019-.095.029-.142l.03-.142.031-.142.033-.142.034-.143.035-.142.036-.143.037-.143.038-.143.039-.144.04-.144.04-.144.041-.145.041-.145.042-.146.042-.146.043-.147a.053.053,0,0,1,.015-.025l.006,0a.051.051,0,0,1,.019-.008l.007,0a.109.109,0,0,1,.035,0l.008,0a.282.282,0,0,1,.037.015l.016.008.043.024.012.008.064.044.016.012.059.046.02.016.07.06.014.012.088.08.023.021.077.073.028.027.1.1h0l.111.113.03.031.091.1.036.038.122.13.017.018.111.121.043.047.117.129.018.019.147.166.021.024.126.144.046.053.117.135.028.032.011.013.145.17.048.056.126.15.033.039.168.2h0l.156.189.073.088.117.144.04.049.164.2.088.109.075.093.093.117.122.153.034.043.182.231.036.046.138.177.061.078.135.174.038.049.012.016.166.215.091.119.061.08.113.148.011.015.147.194h0l.146.194.019.026.077.1.114.153.063.085.113.154.132.18.087.119.1.132.058.08.1.142,0,0,.14.2.008.011.065.091.106.15.068.1.106.151.059.084.055.08v16.682l-.041-.037.038.034,0,0Zm0,0Z" transform="translate(-111.231 -569.828)" fill="#5d99b3" fill-rule="evenodd"/>
    </g>
    <g id="Group_56679" data-name="Group 56679" transform="translate(78.177 532.979)">
      <path id="Path_51714" data-name="Path 51714" d="M140.536,586.295c0,6.709-10.763,12.663-13.241,12.663S114.054,593,114.054,586.295a7.6,7.6,0,0,1,1.16-4.114,7.06,7.06,0,0,1-2.358-2.421c-2.37-4.037-1.673-6.735-.757-9.878.165-.565,4.763,5.029,7.184,8.814a19.481,19.481,0,0,1,16.026,0c2.421-3.785,7.018-9.377,7.183-8.812.916,3.143,1.614,5.841-.757,9.878a7.056,7.056,0,0,1-2.359,2.422A7.593,7.593,0,0,1,140.536,586.295Z" transform="translate(-111.245 -569.842)" fill="#f0802a" fill-rule="evenodd"/>
      <path id="Path_51715" data-name="Path 51715" d="M199.227,579.76c-2.37,4.037-7.823,4.278-7.887,1.966-.053-1.929,8.419-12.614,8.644-11.844C200.9,573.025,201.6,575.723,199.227,579.76Z" transform="translate(-168.737 -569.842)" fill="#fbd4d9" fill-rule="evenodd"/>
      <path id="Path_51716" data-name="Path 51716" d="M202.22,586.209c-2.064,3.275-4.6,3.33-5.281,2.561-.153-.173,6.09-9.374,6.291-8.207A10.284,10.284,0,0,1,202.22,586.209Z" transform="translate(-172.754 -577.464)" fill="#de97a0" fill-rule="evenodd"/>
      <path id="Path_51717" data-name="Path 51717" d="M112.855,579.76c2.37,4.037,7.823,4.278,7.887,1.966.052-1.929-8.419-12.614-8.644-11.844C111.183,573.025,110.485,575.723,112.855,579.76Z" transform="translate(-111.244 -569.842)" fill="#fbd4d9" fill-rule="evenodd"/>
      <path id="Path_51718" data-name="Path 51718" d="M117.863,586.209c2.064,3.275,4.6,3.33,5.282,2.561.153-.173-6.09-9.374-6.291-8.207A10.281,10.281,0,0,0,117.863,586.209Z" transform="translate(-115.228 -577.464)" fill="#de97a0" fill-rule="evenodd"/>
      <path id="Path_51719" data-name="Path 51719" d="M147.682,604.422c0,6.709-10.763,12.663-13.241,12.663S121.2,611.132,121.2,604.422C121.2,591.988,147.682,591.988,147.682,604.422Z" transform="translate(-118.391 -587.97)" fill="#fbd4d9" fill-rule="evenodd"/>
      <path id="Path_51720" data-name="Path 51720" d="M168.766,642.257A13.832,13.832,0,0,1,181.8,630.179C181.227,636.5,171.464,642,168.766,642.257Z" transform="translate(-152.533 -613.152)" fill="#de97a0" fill-rule="evenodd"/>
      <path id="Path_51721" data-name="Path 51721" d="M121.295,630.159a13.831,13.831,0,0,1,13.181,12.093C132.012,642.2,121.871,636.6,121.295,630.159Z" transform="translate(-118.459 -613.138)" fill="#de97a0" fill-rule="evenodd"/>
      <path id="Path_51722" data-name="Path 51722" d="M158.977,663.464a4.693,4.693,0,0,1,5.161,0,2.366,2.366,0,0,1-2.5,2.14A2.52,2.52,0,0,1,158.977,663.464Z" transform="translate(-145.507 -636.489)" fill="#4d4d4d" fill-rule="evenodd"/>
      <g id="Group_56678" data-name="Group 56678" transform="translate(10.02 15.682)">
        <path id="Path_51723" data-name="Path 51723" d="M147.792,625.412c.575,0,1.041.8,1.041,1.783s-.466,1.783-1.041,1.783-1.041-.8-1.041-1.783S147.217,625.412,147.792,625.412Z" transform="translate(-146.751 -625.412)" fill="#4d4d4d" fill-rule="evenodd"/>
        <path id="Path_51724" data-name="Path 51724" d="M183.153,625.412c.575,0,1.041.8,1.041,1.783s-.466,1.783-1.041,1.783-1.041-.8-1.041-1.783S182.578,625.412,183.153,625.412Z" transform="translate(-172.133 -625.412)" fill="#4d4d4d" fill-rule="evenodd"/>
      </g>
    </g>
  </g>
</svg>
