<svg xmlns="http://www.w3.org/2000/svg" width="19.819" height="19.574" viewBox="0 0 19.819 19.574">
  <g id="Group_56333" data-name="Group 56333" transform="translate(-4.003 -4.347)">
    <path id="Path_51288" data-name="Path 51288" d="M22.665,19h-7.74a.354.354,0,0,1,0-.708h7.1V11.883a7.1,7.1,0,1,0-14.205,0V18.3a.716.716,0,0,1-.771.708,1.479,1.479,0,1,0,0,2.959H22.8a1.483,1.483,0,0,0,1.472-1.607A1.537,1.537,0,0,0,22.665,19ZM17.3,22.674H12.551a2.609,2.609,0,0,0,4.749,0ZM6.515,8.638a.354.354,0,0,0,.691-.157,1.481,1.481,0,0,1,1.1-1.767.354.354,0,1,0-.162-.689A2.193,2.193,0,0,0,6.515,8.638Z" transform="translate(-1.014 -0.28)" fill="#00be55"/>
    <path id="Path_51289" data-name="Path 51289" d="M4.784,8.464A2.867,2.867,0,0,1,6.92,5.046a.354.354,0,1,0-.159-.69A3.563,3.563,0,0,0,4.094,8.623a.354.354,0,0,0,.69-.159Zm15.744-2.03a1.481,1.481,0,0,1,1.1,1.767.354.354,0,1,0,.69.157,2.193,2.193,0,0,0-1.633-2.613.354.354,0,1,0-.162.689Z" transform="translate(0 0)" fill="#00be55"/>
    <path id="Path_51290" data-name="Path 51290" d="M53.629,5.938a3.533,3.533,0,0,0-2.215-1.582.354.354,0,1,0-.159.69,2.868,2.868,0,0,1,2.136,3.418.354.354,0,0,0,.69.159A3.533,3.533,0,0,0,53.629,5.938Z" transform="translate(-30.351 0)" fill="#00be55"/>
  </g>
</svg>
