<svg xmlns="http://www.w3.org/2000/svg" xmlns:xlink="http://www.w3.org/1999/xlink" width="72.749" height="50.81" viewBox="0 0 72.749 50.81">
  <defs>
    <linearGradient id="linear-gradient" x1="12.522" y1="0.351" x2="12.522" y2="0.948" gradientUnits="objectBoundingBox">
      <stop offset="0" stop-color="#8db335"/>
      <stop offset="1" stop-color="#b1ff44"/>
    </linearGradient>
    <linearGradient id="linear-gradient-2" x1="13.713" y1="0.323" x2="13.713" y2="1.16" gradientUnits="objectBoundingBox">
      <stop offset="0" stop-color="#729522"/>
      <stop offset="1" stop-color="#95e12c"/>
    </linearGradient>
    <linearGradient id="linear-gradient-3" x1="12.232" y1="0.443" x2="12.232" y2="1.384" gradientUnits="objectBoundingBox">
      <stop offset="0" stop-color="#475208"/>
      <stop offset="1" stop-color="#7ab724"/>
    </linearGradient>
    <linearGradient id="linear-gradient-4" x1="29.789" y1="-0.512" x2="29.789" y2="2.496" xlink:href="#linear-gradient"/>
    <linearGradient id="linear-gradient-5" x1="2.161" y1="0.213" x2="2.161" y2="0.793" xlink:href="#linear-gradient"/>
    <linearGradient id="linear-gradient-6" x1="2.372" y1="0.178" x2="2.372" y2="0.983" xlink:href="#linear-gradient-2"/>
    <linearGradient id="linear-gradient-7" x1="2.112" y1="0.304" x2="2.112" y2="1.218" xlink:href="#linear-gradient-3"/>
    <linearGradient id="linear-gradient-8" x1="3.786" y1="-0.341" x2="3.786" y2="2.32" xlink:href="#linear-gradient"/>
    <linearGradient id="linear-gradient-9" x1="0.488" y1="0.41" x2="0.436" y2="0.043" xlink:href="#linear-gradient"/>
    <linearGradient id="linear-gradient-10" x1="0.662" y1="3.147" x2="0.422" y2="-0.793" gradientUnits="objectBoundingBox">
      <stop offset="0" stop-color="#8db335"/>
      <stop offset="1" stop-color="#4e7400"/>
    </linearGradient>
    <linearGradient id="linear-gradient-11" x1="0.487" y1="0.409" x2="0.433" y2="0.035" xlink:href="#linear-gradient-3"/>
    <linearGradient id="linear-gradient-12" x1="0.488" y1="0.956" x2="0.497" y2="0.55" gradientUnits="objectBoundingBox">
      <stop offset="0" stop-color="#dc9200"/>
      <stop offset="1" stop-color="#bd6500"/>
    </linearGradient>
    <linearGradient id="linear-gradient-13" x1="0.5" y1="0.129" x2="0.5" y2="0.727" xlink:href="#linear-gradient"/>
    <linearGradient id="linear-gradient-14" x1="0.5" y1="0.089" x2="0.5" y2="0.901" xlink:href="#linear-gradient-2"/>
    <linearGradient id="linear-gradient-15" x1="0.5" y1="0.224" x2="0.5" y2="1.164" xlink:href="#linear-gradient-3"/>
    <linearGradient id="linear-gradient-16" x1="0.5" y1="-0.8" x2="0.5" y2="2.063" xlink:href="#linear-gradient"/>
    <linearGradient id="linear-gradient-17" x1="0.5" y1="0.304" x2="0.5" y2="0.905" xlink:href="#linear-gradient"/>
    <linearGradient id="linear-gradient-18" x1="0.5" y1="0.27" x2="0.5" y2="1.104" xlink:href="#linear-gradient-2"/>
    <linearGradient id="linear-gradient-19" x1="0.5" y1="0.397" x2="0.5" y2="1.345" xlink:href="#linear-gradient-3"/>
    <linearGradient id="linear-gradient-20" x1="0.5" y1="-0.8" x2="0.5" y2="2.063" xlink:href="#linear-gradient"/>
    <linearGradient id="linear-gradient-21" x1="0.46" y1="0.336" x2="0.375" y2="-0.157" xlink:href="#linear-gradient-3"/>
    <linearGradient id="linear-gradient-22" x1="0.461" y1="0.334" x2="0.376" y2="-0.158" xlink:href="#linear-gradient"/>
    <linearGradient id="linear-gradient-23" x1="0.5" y1="-0.59" x2="0.5" y2="1.091" xlink:href="#linear-gradient-10"/>
    <linearGradient id="linear-gradient-24" x1="0.5" y1="0.561" x2="0.5" y2="-0.399" gradientUnits="objectBoundingBox">
      <stop offset="0" stop-color="#303703"/>
      <stop offset="1" stop-color="#669c18"/>
    </linearGradient>
    <linearGradient id="linear-gradient-25" x1="0.5" y1="0.566" x2="0.5" y2="-0.478" xlink:href="#linear-gradient-3"/>
    <linearGradient id="linear-gradient-26" x1="0.5" y1="0.368" x2="0.5" y2="-0.151" xlink:href="#linear-gradient-24"/>
    <linearGradient id="linear-gradient-27" x1="0.5" y1="0.363" x2="0.5" y2="-0.183" xlink:href="#linear-gradient-3"/>
    <linearGradient id="linear-gradient-28" x1="0.5" y1="0.245" x2="0.5" y2="-0.163" xlink:href="#linear-gradient-24"/>
    <linearGradient id="linear-gradient-29" x1="0.5" y1="0.232" x2="0.5" y2="-0.201" xlink:href="#linear-gradient-3"/>
    <linearGradient id="linear-gradient-30" x1="0.5" y1="0.43" x2="0.5" y2="-0.112" xlink:href="#linear-gradient-24"/>
    <linearGradient id="linear-gradient-31" x1="0.5" y1="0.428" x2="0.5" y2="-0.142" xlink:href="#linear-gradient-3"/>
    <linearGradient id="linear-gradient-32" x1="0.456" y1="0.573" x2="0.527" y2="0.013" gradientUnits="objectBoundingBox">
      <stop offset="0" stop-color="#475208"/>
      <stop offset="1" stop-color="#323d08"/>
    </linearGradient>
    <linearGradient id="linear-gradient-33" x1="0.584" y1="0.5" x2="0.455" y2="0.008" xlink:href="#linear-gradient-32"/>
    <linearGradient id="linear-gradient-34" x1="0.484" y1="0.73" x2="0.499" y2="0.19" xlink:href="#linear-gradient-32"/>
    <linearGradient id="linear-gradient-35" x1="0.501" y1="0.758" x2="0.497" y2="-0.259" xlink:href="#linear-gradient-32"/>
    <linearGradient id="linear-gradient-36" x1="-0.916" y1="0.749" x2="-0.83" y2="-0.223" xlink:href="#linear-gradient"/>
    <linearGradient id="linear-gradient-37" x1="7.493" y1="2.308" x2="7.578" y2="1.005" xlink:href="#linear-gradient"/>
    <linearGradient id="linear-gradient-38" x1="4.664" y1="-0.932" x2="4.748" y2="-3.246" xlink:href="#linear-gradient"/>
    <linearGradient id="linear-gradient-39" x1="181.991" y1="41.585" x2="182.371" y2="39.919" xlink:href="#linear-gradient"/>
    <linearGradient id="linear-gradient-40" x1="0.464" y1="0.403" x2="0.422" y2="-0.249" xlink:href="#linear-gradient"/>
    <linearGradient id="linear-gradient-41" x1="0.525" y1="1.841" x2="0.457" y2="-0.542" xlink:href="#linear-gradient-10"/>
    <linearGradient id="linear-gradient-42" x1="0.465" y1="0.402" x2="0.423" y2="-0.247" xlink:href="#linear-gradient-3"/>
    <linearGradient id="linear-gradient-43" x1="0.477" y1="0.365" x2="0.388" y2="-0.101" xlink:href="#linear-gradient"/>
    <linearGradient id="linear-gradient-44" x1="0.326" y1="0.782" x2="0.74" y2="0.342" gradientUnits="objectBoundingBox">
      <stop offset="0" stop-color="#8db335"/>
      <stop offset="1" stop-color="#819d21"/>
    </linearGradient>
    <linearGradient id="linear-gradient-45" x1="0.448" y1="0.7" x2="0.945" y2="0.251" xlink:href="#linear-gradient-44"/>
    <linearGradient id="linear-gradient-46" x1="0.532" y1="0.899" x2="0.498" y2="0.039" xlink:href="#linear-gradient-10"/>
    <linearGradient id="linear-gradient-47" x1="0.477" y1="0.365" x2="0.388" y2="-0.101" xlink:href="#linear-gradient-3"/>
    <linearGradient id="linear-gradient-48" x1="-6.351" y1="1.169" x2="-6.592" y2="1.236" gradientUnits="objectBoundingBox">
      <stop offset="0" stop-color="#1f1f1f"/>
      <stop offset="1" stop-color="#1a171b"/>
    </linearGradient>
    <linearGradient id="linear-gradient-49" x1="5.101" y1="1.27" x2="4.839" y2="1.326" xlink:href="#linear-gradient-48"/>
  </defs>
  <g id="Turtle" transform="translate(-224.435 -72.411)">
    <g id="Group_54482" data-name="Group 54482" transform="translate(224.435 72.411)">
      <g id="Group_54473" data-name="Group 54473" transform="translate(20.34 0)">
        <g id="Group_54457" data-name="Group 54457" transform="translate(26.408 29.066)">
          <g id="Group_54455" data-name="Group 54455" transform="translate(0 0)">
            <path id="Path_48440" data-name="Path 48440" d="M415.319,191.371c.208,1.638-.245,3.444.063,5.2.146.984.844,3.2.83,3.521-.153,3.667-9.286,4.314-10.117-2.236-.549-4.33,1.875-8.088,4.465-12.555Z" transform="translate(-405.857 -185.203)" fill="url(#linear-gradient)"/>
            <path id="Path_48441" data-name="Path 48441" d="M406.095,197.853c-.549-4.33,1.875-8.088,4.465-12.555l4.76,6.073a9.45,9.45,0,0,1,.046,1.536c-2.866,1.378-6.034-.611-6.034-.611-3.13,6.349-.356,9.548-.356,9.548l-.016.266A5.339,5.339,0,0,1,406.095,197.853Z" transform="translate(-405.858 -185.203)" fill="url(#linear-gradient-2)"/>
            <path id="Path_48442" data-name="Path 48442" d="M422.583,242.235a2.7,2.7,0,0,0,.307,1.153,6.16,6.16,0,0,0,1.415-.263,2.877,2.877,0,0,0,.109-.991c-.052-.952-.5-1.7-1.011-1.674S422.53,241.283,422.583,242.235Zm-2.5.111a2.589,2.589,0,0,0,.091.683,6.611,6.611,0,0,0,1.284.311,2.333,2.333,0,0,0,.2-1c0-.82-.357-1.484-.793-1.483S420.084,241.526,420.087,242.346Zm5.1-.719a2.764,2.764,0,0,0,.384.883,2.621,2.621,0,0,0,.932-1.14c-.006-.024-.01-.048-.017-.072-.2-.8-.655-1.366-1.014-1.275S424.981,240.831,425.182,241.627Z" transform="translate(-416.293 -225.784)" fill="#1a171b"/>
            <path id="Path_48443" data-name="Path 48443" d="M414.871,191.1a20.772,20.772,0,0,1-.006,3.54,10.155,10.155,0,0,0,.438,2.953c.286,1.033.866,2.149.335,3.189-.943,1.844-3.625,2.138-5.429,1.8a6.083,6.083,0,0,1-3.04-1.5,5.722,5.722,0,0,1-1.685-3.469,12.1,12.1,0,0,1,1.006-6.183,42.839,42.839,0,0,1,3.537-6.455c.065-.1.21,0,.154.106-2.117,3.971-5.316,8.34-4.275,13.11a5.566,5.566,0,0,0,5.646,4.213c1.515.005,3.633-.577,4.034-2.268a2.7,2.7,0,0,0-.147-1.248c-.162-.674-.337-1.346-.477-2.026-.395-1.918.045-3.831-.106-5.76,0-.01.013-.014.015,0Z" transform="translate(-405.402 -184.93)" fill="url(#linear-gradient-3)"/>
          </g>
          <g id="Group_54456" data-name="Group 54456" transform="translate(4.619 9.593)">
            <path id="Path_48444" data-name="Path 48444" d="M423.5,224.255a.212.212,0,0,0,.132-.037,10.339,10.339,0,0,1,1.85-1.031,4.658,4.658,0,0,1,1.57,1,.194.194,0,0,0,.275-.273,7.062,7.062,0,0,0-1.149-1c.318-.116.645-.221.976-.313a.2.2,0,0,0,.134-.235.2.2,0,0,0-.177-.151.182.182,0,0,0-.05,0,14.329,14.329,0,0,0-1.483.378,7.607,7.607,0,0,0-2.05-.521.218.218,0,0,0-.095.422c.267.094.536.178.8.262.175.056.345.109.512.165a4.9,4.9,0,0,0-1.371.995.212.212,0,0,0-.047.212.2.2,0,0,0,.176.131Z" transform="translate(-423.283 -222.067)" fill="url(#linear-gradient-4)"/>
            <path id="Path_48445" data-name="Path 48445" d="M424.055,222.808a7.352,7.352,0,0,1,2.062.535,13.685,13.685,0,0,1,1.532-.394,0,0,0,0,1,0,.009,13.025,13.025,0,0,0-1.37.462,5.659,5.659,0,0,1,1.457,1.171s0,0,0,0a4.988,4.988,0,0,0-1.707-1.066,10.611,10.611,0,0,0-1.959,1.083.01.01,0,0,1-.013-.015,4.675,4.675,0,0,1,1.651-1.1c.038-.016.078-.029.116-.044-.574-.214-1.175-.38-1.779-.591A.025.025,0,0,1,424.055,222.808Z" transform="translate(-423.836 -222.617)" fill="#fff"/>
          </g>
        </g>
        <g id="Group_54460" data-name="Group 54460" transform="translate(7.685 28.904)">
          <g id="Group_54458" data-name="Group 54458" transform="translate(0 0)">
            <path id="Path_48446" data-name="Path 48446" d="M344.03,188.312a14.673,14.673,0,0,1-.113,4.9c-.215,2.3,1.2,4.647.8,6.92-.474,2.724-4.388,2.909-6.517,2.342a5.536,5.536,0,0,1-4.611-5.42c-.307-4.308,1.815-8.781,4.123-12.351Z" transform="translate(-333.399 -184.597)" fill="url(#linear-gradient-5)"/>
            <path id="Path_48447" data-name="Path 48447" d="M333.595,197.05c-.307-4.308,1.815-8.781,4.123-12.351l6.314,3.612a8.359,8.359,0,0,1,.134,2.641c-2.354.5-6.416-1.579-6.416-1.579-4.539,9.609-.438,12.71-.438,12.71l-.064.1A5.435,5.435,0,0,1,333.595,197.05Z" transform="translate(-333.399 -184.596)" fill="url(#linear-gradient-6)"/>
            <path id="Path_48448" data-name="Path 48448" d="M353.471,243.53a2.622,2.622,0,0,0,.312,1.235,6.972,6.972,0,0,0,1.354-.216,2.8,2.8,0,0,0,.168-1.064c-.023-.953-.452-1.716-.959-1.7S353.448,242.577,353.471,243.53Zm-2.5.034a2.372,2.372,0,0,0,.16.964,7.754,7.754,0,0,0,1.108.2,2.191,2.191,0,0,0,.309-1.121c.023-.82-.312-1.494-.747-1.506S351,242.744,350.973,243.564Zm5.115-.562a2.673,2.673,0,0,0,.395.949,2.706,2.706,0,0,0,.942-1.1c-.008-.047-.017-.095-.028-.142-.177-.8-.613-1.386-.975-1.306S355.911,242.2,356.087,243Z" transform="translate(-346.31 -226.65)" fill="#1a171b"/>
            <path id="Path_48449" data-name="Path 48449" d="M343.562,188.015a10.4,10.4,0,0,1,.138,3.345,12.282,12.282,0,0,0,0,3.463c.339,1.833,1.314,4.008.443,5.831-.624,1.3-2.19,1.777-3.518,1.906a8.671,8.671,0,0,1-4.47-.765,5.459,5.459,0,0,1-2.6-2.575,8.752,8.752,0,0,1-.562-4.561,22.263,22.263,0,0,1,4.172-10.32c.066-.1.234.007.174.108a35.018,35.018,0,0,0-3.136,6.326,13.894,13.894,0,0,0-.81,6.877,5.256,5.256,0,0,0,3.08,3.938,8.335,8.335,0,0,0,4.67.584,3.818,3.818,0,0,0,2.569-1.389c.774-1.082.447-2.672.185-3.869a12.67,12.67,0,0,1-.544-4.164,14.911,14.911,0,0,0,.2-4.733c0-.009.011-.01.013,0Z" transform="translate(-332.924 -184.3)" fill="url(#linear-gradient-7)"/>
          </g>
          <g id="Group_54459" data-name="Group 54459" transform="translate(4.757 9.238)">
            <path id="Path_48450" data-name="Path 48450" d="M351.542,222.661a.254.254,0,0,0,.161-.031,12.327,12.327,0,0,1,2.3-1.039,5.559,5.559,0,0,1,1.766,1.34.228.228,0,0,0,.137.077.233.233,0,0,0,.185-.052.23.23,0,0,0,.031-.322,8.427,8.427,0,0,0-1.265-1.306c.389-.106.788-.2,1.191-.273a.235.235,0,0,0,.184-.266.238.238,0,0,0-.194-.2.22.22,0,0,0-.061,0,16.959,16.959,0,0,0-1.8.3,9.082,9.082,0,0,0-2.384-.826.26.26,0,0,0-.155.492c.308.138.619.266.92.391.2.083.4.165.592.247a5.834,5.834,0,0,0-1.729,1.044.251.251,0,0,0-.076.247.242.242,0,0,0,.2.175Z" transform="translate(-351.339 -220.06)" fill="url(#linear-gradient-8)"/>
            <path id="Path_48451" data-name="Path 48451" d="M352.409,220.943a8.785,8.785,0,0,1,2.4.844,16.363,16.363,0,0,1,1.86-.315.006.006,0,0,1,0,.011,15.465,15.465,0,0,0-1.674.412,6.747,6.747,0,0,1,1.614,1.538s0,0,0,0A5.938,5.938,0,0,0,354.683,222a12.642,12.642,0,0,0-2.438,1.09.012.012,0,0,1-.014-.019,5.569,5.569,0,0,1,2.073-1.145c.047-.014.095-.027.142-.04-.661-.312-1.358-.57-2.054-.882A.03.03,0,0,1,352.409,220.943Z" transform="translate(-351.997 -220.715)" fill="#fff"/>
          </g>
        </g>
        <g id="Group_54461" data-name="Group 54461" transform="translate(46.423 30.713)">
          <path id="Path_48452" data-name="Path 48452" d="M484.506,192.954c1.4.539,3.237-.324,4.424-1.079h.108c.216,2.59-3.453,4.532-5.719,4.1Z" transform="translate(-483.207 -191.728)" fill="url(#linear-gradient-9)"/>
          <path id="Path_48453" data-name="Path 48453" d="M489.043,192.44h-.005a5.7,5.7,0,0,1-4.856,2.443c-.091-.006-.179-.01-.265-.012l-.6,1.523C485.542,196.818,489.113,194.956,489.043,192.44Z" transform="translate(-483.207 -192.147)" fill="url(#linear-gradient-10)"/>
          <path id="Path_48454" data-name="Path 48454" d="M484.182,192.538a3.473,3.473,0,0,0,2.323.044,7.559,7.559,0,0,0,1.227-.488c.186-.09.366-.189.546-.289.137-.077.277-.207.438-.205l-.147-.147c.146,2.708-3.294,4.2-5.572,3.985-.132-.013-.154.2-.031.227a5.254,5.254,0,0,0,3.9-.9,3.783,3.783,0,0,0,2-3.316.149.149,0,0,0-.147-.147c-.26,0-.453.207-.673.336a9.2,9.2,0,0,1-1.229.6,4.071,4.071,0,0,1-2.629.284c-.008,0-.011.01,0,.013Z" transform="translate(-482.884 -191.306)" fill="url(#linear-gradient-11)"/>
        </g>
        <g id="Group_54462" data-name="Group 54462" transform="translate(9.727 26.868)">
          <path id="Path_48455" data-name="Path 48455" d="M378.323,182.571c-2.546,3.774-7.115,5.356-11.336,6.413-9.016,2.256-20.333.5-26.106-7.276a10.624,10.624,0,0,1,.863-3.129c.54-.755,5.611-1.942,7.23-2.158Z" transform="translate(-340.867 -176.421)" fill="#f2c200"/>
          <path id="Path_48456" data-name="Path 48456" d="M378.329,184.214c-2.336,3.463-6.561,4.593-10.434,5.562-8.273,2.07-19.628-.094-24.926-7.229a13.129,13.129,0,0,1,1.079-2.589c.495-.693,5.865-1.189,7.35-1.387Z" transform="translate(-342.416 -178.016)" fill="url(#linear-gradient-12)"/>
          <path id="Path_48457" data-name="Path 48457" d="M340.829,196.854c4.227,6.242,12.406,8.514,19.588,8.31a34.044,34.044,0,0,0,9.589-1.762c3.234-1.056,6.465-2.713,8.382-5.631.086-.131-.119-.246-.207-.121-2.461,3.469-6.493,5.068-10.461,6.127a31.617,31.617,0,0,1-11.287.963,25.543,25.543,0,0,1-8.693-2.407,20.761,20.761,0,0,1-6.888-5.495c-.01-.013-.03,0-.022.017Z" transform="translate(-340.827 -191.56)" fill="#b38b00"/>
        </g>
        <g id="Group_54465" data-name="Group 54465" transform="translate(22.6 33.024)">
          <g id="Group_54463" data-name="Group 54463">
            <path id="Path_48458" data-name="Path 48458" d="M393.811,203.237a14.674,14.674,0,0,0-.647,4.856c-.144,2.3-1.905,4.4-1.867,6.711.046,2.764,3.884,3.554,6.075,3.323a5.535,5.535,0,0,0,5.395-4.639c.971-4.208-.432-8.956-2.158-12.841Z" transform="translate(-391.131 -200.545)" fill="url(#linear-gradient-13)"/>
            <path id="Path_48459" data-name="Path 48459" d="M408.434,213.488c.971-4.208-.432-8.956-2.158-12.841l-6.8,2.59a8.357,8.357,0,0,0-.541,2.588c2.248.857,6.584-.565,6.584-.565,2.994,10.2-1.538,12.624-1.538,12.624l.049.1A5.434,5.434,0,0,0,408.434,213.488Z" transform="translate(-396.799 -200.545)" fill="url(#linear-gradient-14)"/>
            <path id="Path_48460" data-name="Path 48460" d="M394.9,253.843c-.5-.091-1.041.6-1.211,1.535a2.809,2.809,0,0,0,0,1.076,6.991,6.991,0,0,0,1.3.424,2.634,2.634,0,0,0,.5-1.172C395.661,254.768,395.4,253.934,394.9,253.843Zm2.463.71c-.432-.055-.867.559-.972,1.372a2.191,2.191,0,0,0,.131,1.155,7.7,7.7,0,0,0,1.126-.027,2.374,2.374,0,0,0,.308-.927C398.057,255.313,397.792,254.609,397.36,254.553Zm-4.456-1.4c-.345-.135-.866.375-1.165,1.139-.018.045-.034.091-.05.136a2.7,2.7,0,0,0,.761,1.229,2.674,2.674,0,0,0,.537-.876C393.285,254.014,393.249,253.286,392.9,253.151Z" transform="translate(-391.423 -239.47)" fill="#1a171b"/>
            <path id="Path_48461" data-name="Path 48461" d="M393.333,202.942a10.4,10.4,0,0,0-.656,3.283,12.268,12.268,0,0,1-.532,3.421c-.619,1.759-1.919,3.756-1.34,5.692.414,1.386,1.887,2.095,3.18,2.428a8.668,8.668,0,0,0,4.535-.063,5.458,5.458,0,0,0,2.966-2.141,8.754,8.754,0,0,0,1.262-4.419,22.264,22.264,0,0,0-2.521-10.843c-.05-.1-.232-.029-.189.079a35.039,35.039,0,0,1,2.117,6.736,13.892,13.892,0,0,1-.265,6.92,5.256,5.256,0,0,1-3.654,3.413,8.336,8.336,0,0,1-4.7-.147,3.816,3.816,0,0,1-2.322-1.771c-.6-1.189-.028-2.709.416-3.85a12.673,12.673,0,0,0,1.183-4.029,14.9,14.9,0,0,1,.536-4.706c0-.008-.009-.011-.012,0Z" transform="translate(-390.659 -200.252)" fill="url(#linear-gradient-15)"/>
          </g>
          <g id="Group_54464" data-name="Group 54464" transform="translate(2.423 8.854)">
            <path id="Path_48462" data-name="Path 48462" d="M404.64,237.27a.255.255,0,0,1-.154-.055,12.363,12.363,0,0,0-2.114-1.384,5.561,5.561,0,0,0-1.952,1.05.231.231,0,0,1-.3-.348,8.413,8.413,0,0,1,1.452-1.094c-.369-.165-.748-.318-1.134-.454a.236.236,0,0,1,.083-.456.215.215,0,0,1,.06.009,16.983,16.983,0,0,1,1.733.575,9.071,9.071,0,0,1,2.482-.447.258.258,0,0,1,.266.225.26.26,0,0,1-.189.285c-.326.089-.653.167-.97.244-.213.051-.419.1-.623.153a5.828,5.828,0,0,1,1.547,1.3.252.252,0,0,1,.037.257.24.24,0,0,1-.22.142Z" transform="translate(-400.04 -234.528)" fill="url(#linear-gradient-16)"/>
            <path id="Path_48463" data-name="Path 48463" d="M405.458,235.55a8.782,8.782,0,0,0-2.5.462,16.327,16.327,0,0,0-1.788-.6c-.007,0-.01.009,0,.011a15.478,15.478,0,0,1,1.59.666,6.751,6.751,0,0,0-1.833,1.27,0,0,0,0,0,0,0,5.949,5.949,0,0,1,2.122-1.123,12.634,12.634,0,0,1,2.239,1.455.012.012,0,0,0,.017-.017,5.573,5.573,0,0,0-1.871-1.452c-.044-.021-.089-.041-.134-.062.7-.206,1.43-.352,2.166-.552A.03.03,0,0,0,405.458,235.55Z" transform="translate(-400.697 -235.184)" fill="#fff"/>
          </g>
        </g>
        <g id="Group_54468" data-name="Group 54468" transform="translate(38.769 30.01)">
          <g id="Group_54466" data-name="Group 54466" transform="translate(0 0)">
            <path id="Path_48464" data-name="Path 48464" d="M455.17,194.671c-.324,1.619,0,3.453-.432,5.179-.216.971-1.069,3.129-1.079,3.453-.108,3.669,8.956,4.964,10.251-1.511.856-4.28-1.295-8.2-3.561-12.84Z" transform="translate(-453.554 -188.857)" fill="url(#linear-gradient-17)"/>
            <path id="Path_48465" data-name="Path 48465" d="M467.806,201.792c.856-4.28-1.295-8.2-3.561-12.84l-5.179,5.719a9.458,9.458,0,0,0-.155,1.529c2.761,1.578,6.063-.18,6.063-.18,2.671,6.555-.324,9.549-.324,9.549l0,.266A5.341,5.341,0,0,0,467.806,201.792Z" transform="translate(-457.45 -188.857)" fill="url(#linear-gradient-18)"/>
            <path id="Path_48466" data-name="Path 48466" d="M457.2,242.872c-.5-.064-1.007.652-1.127,1.6a2.88,2.88,0,0,0,.039,1,6.151,6.151,0,0,0,1.393.363,2.705,2.705,0,0,0,.388-1.129C458.013,243.754,457.7,242.936,457.2,242.872Zm2.5.577c-.435-.032-.836.6-.9,1.423a2.334,2.334,0,0,0,.132,1.01,6.611,6.611,0,0,0,1.3-.219,2.588,2.588,0,0,0,.139-.675C460.435,244.17,460.132,243.481,459.7,243.449Zm-4.525-1.161c-.352-.116-.845.421-1.1,1.2-.008.024-.014.047-.021.071a2.625,2.625,0,0,0,.848,1.2,2.757,2.757,0,0,0,.446-.854C455.6,243.129,455.524,242.4,455.173,242.288Z" transform="translate(-453.844 -228.403)" fill="#1a171b"/>
            <path id="Path_48467" data-name="Path 48467" d="M454.864,194.4a20.678,20.678,0,0,0-.245,3.532,10.161,10.161,0,0,1-.647,2.914c-.359,1.01-1.017,2.082-.561,3.157.809,1.906,3.464,2.391,5.287,2.185a6.084,6.084,0,0,0,3.139-1.282,5.723,5.723,0,0,0,1.928-3.34,12.1,12.1,0,0,0-.564-6.239,42.913,42.913,0,0,0-3.07-6.691c-.058-.109-.21-.013-.161.095,1.828,4.112,4.709,8.7,3.331,13.381a5.566,5.566,0,0,1-5.932,3.8c-1.511-.1-3.582-.834-3.862-2.549a2.7,2.7,0,0,1,.236-1.235c.21-.661.431-1.319.619-1.987.53-1.885.227-3.825.516-5.738,0-.01-.012-.014-.014,0Z" transform="translate(-453.255 -188.584)" fill="url(#linear-gradient-19)"/>
          </g>
          <g id="Group_54467" data-name="Group 54467" transform="translate(1.978 9.443)">
            <path id="Path_48468" data-name="Path 48468" d="M464.768,227.438a.212.212,0,0,1-.129-.047,10.361,10.361,0,0,0-1.772-1.16,4.658,4.658,0,0,0-1.637.88.191.191,0,0,1-.124.046.194.194,0,0,1-.13-.337,7.034,7.034,0,0,1,1.217-.917c-.309-.138-.627-.266-.951-.381a.2.2,0,0,1-.118-.245.2.2,0,0,1,.187-.138.2.2,0,0,1,.05.007,14.222,14.222,0,0,1,1.453.483,7.612,7.612,0,0,1,2.082-.374.215.215,0,0,1,.223.189.218.218,0,0,1-.159.239c-.273.074-.548.14-.813.2-.178.043-.352.085-.522.128a4.9,4.9,0,0,1,1.3,1.089.211.211,0,0,1,.031.215.2.2,0,0,1-.185.12Z" transform="translate(-460.912 -225.139)" fill="url(#linear-gradient-20)"/>
            <path id="Path_48469" data-name="Path 48469" d="M465.453,226a7.342,7.342,0,0,0-2.1.388,13.733,13.733,0,0,0-1.5-.5,0,0,0,0,0,0,.009,13.033,13.033,0,0,1,1.333.559,5.664,5.664,0,0,0-1.537,1.065s0,0,0,0a4.984,4.984,0,0,1,1.779-.942,10.6,10.6,0,0,1,1.877,1.22.01.01,0,0,0,.014-.014,4.666,4.666,0,0,0-1.569-1.217l-.112-.052c.588-.173,1.2-.3,1.816-.463A.026.026,0,0,0,465.453,226Z" transform="translate(-461.461 -225.691)" fill="#fff"/>
          </g>
        </g>
        <g id="Group_54470" data-name="Group 54470" transform="translate(8.75)">
          <path id="Path_48470" data-name="Path 48470" d="M349.235,94.4a12.7,12.7,0,0,1,5.746-5.989,10.475,10.475,0,0,1,8.174-.89l15.134,1.457a8.656,8.656,0,0,1,4.046,5.665c.566,3.723,2.1,14.729,2.1,14.729l.566,3.8-1.214,3.075s-7.364.4-7.607.4-10.52.567-10.925.647-5.584,1.861-6.151,1.7a47.046,47.046,0,0,1-4.451-3.642l-3.885-5.422Z" transform="translate(-346.087 -83.288)" fill="url(#linear-gradient-21)"/>
          <path id="Path_48471" data-name="Path 48471" d="M360.482,119.56a46.473,46.473,0,0,1-4.186-3.491l-3.749-5.26-1.5-15.3a12.724,12.724,0,0,1,5.472-5.732,10.5,10.5,0,0,1,5-1.344,8.6,8.6,0,0,1,2.791.392.456.456,0,0,0,.12.027l15.144,1.314a8.139,8.139,0,0,1,3.761,5.329c.545,3.722,2.026,14.77,2.04,14.881l.532,3.716L384.82,116.8c-2.953.164-7.144.393-7.358.4-.076,0-10.545.564-11.046.665-.13.026-.478.137-1.253.384a38.509,38.509,0,0,1-4.683,1.317Z" transform="translate(-347.43 -84.293)" fill="url(#linear-gradient-22)"/>
          <path id="Path_48472" data-name="Path 48472" d="M397.909,117.48a5.173,5.173,0,0,0-1.133-.971l-.385.415c0-.057-.011-.115-.019-.172a35.835,35.835,0,0,1,0-5.908,34.887,34.887,0,0,0-.728-7.526,7.336,7.336,0,0,0-1.78-2.1,24.826,24.826,0,0,1-.162,6.232c-.415,3.879.71,8.881,1.043,10.243a19.587,19.587,0,0,0-2.576-1.022c2.016-9.586-.733-14-.733-14L376.3,104.613c-2.089,5.617-.075,12.388.393,13.811a5.808,5.808,0,0,1-2.794,1.539,3.815,3.815,0,0,1-3.077-1.7c.649-.675,4.025-4.66,3.293-13.814a38.771,38.771,0,0,0-3.561,3.642,32.738,32.738,0,0,0-3.156,6.8,5.215,5.215,0,0,0,.744,2.148c-.854.344-1.7.8-1.472,1.2a9.932,9.932,0,0,0,2.589,3.345,4.266,4.266,0,0,0,3.776.971,16.953,16.953,0,0,0,3.688-1.01c1.206-.578,4.945-.393,6.023-.5s8.093.216,8.956.216a19.859,19.859,0,0,0,4.424-.54C396.884,120.393,398.071,117.8,397.909,117.48ZM379.539,99.6c9.792-.566,11.977-5.908,11.977-5.908s-8.174-.809-8.416-.809l-15.619.647S369.746,100.162,379.539,99.6Z" transform="translate(-358.99 -87.591)" fill="url(#linear-gradient-23)"/>
          <g id="Group_54469" data-name="Group 54469">
            <path id="Path_48473" data-name="Path 48473" d="M379.511,83.741c9.064-.432,12.517-5.611,12.517-5.611s-3.668-5.719-12.625-5.719-12.624,5.179-12.624,5.179S370.448,84.173,379.511,83.741Z" transform="translate(-359.099 -72.411)" fill="url(#linear-gradient-24)"/>
            <path id="Path_48474" data-name="Path 48474" d="M380.279,84.62a13.459,13.459,0,0,1-11.323-5.68c.844-.986,4.559-4.753,12.062-4.753s11.214,4.169,12.053,5.254c-.827,1.014-4.4,4.8-11.966,5.159-.277.013-.554.02-.826.02Z" transform="translate(-360.713 -73.728)" fill="url(#linear-gradient-25)"/>
            <path id="Path_48475" data-name="Path 48475" d="M339.548,113.645c-4.64,6.69-1.4,15.538-1.4,15.538l9.064,4.1c6.69-6.366,4.748-16.077,4.748-16.077C344.835,111.7,339.548,113.645,339.548,113.645Z" transform="translate(-337.047 -102.747)" fill="url(#linear-gradient-26)"/>
            <path id="Path_48476" data-name="Path 48476" d="M348.463,134.053l-8.6-3.89c-.41-1.261-2.649-8.929,1.321-14.812a8.181,8.181,0,0,1,2.182-.264c2.138,0,5.516.644,9.516,3.69.206,1.275,1.283,9.611-4.422,15.276Z" transform="translate(-338.396 -104.064)" fill="url(#linear-gradient-27)"/>
            <path id="Path_48477" data-name="Path 48477" d="M471.074,108.334a3.483,3.483,0,0,0-2.374,2.482c.54,1.4,1.079,4.1,1.3,10.9s2.7,7.445,2.7,7.445l.647.324a31.553,31.553,0,0,0,1.834-10.79A15.789,15.789,0,0,0,471.074,108.334Z" transform="translate(-434.691 -99.054)" fill="url(#linear-gradient-28)"/>
            <path id="Path_48478" data-name="Path 48478" d="M474.452,130.424l-.188-.094a.686.686,0,0,0-.078-.03c-.022-.007-2.168-.762-2.366-7.019-.228-7.17-.826-9.688-1.277-10.92a3.066,3.066,0,0,1,1.781-1.895,15.481,15.481,0,0,1,3.758,9.808,32.384,32.384,0,0,1-1.63,10.15Z" transform="translate(-436.058 -100.636)" fill="url(#linear-gradient-29)"/>
            <path id="Path_48479" data-name="Path 48479" d="M402.551,121.931a22.728,22.728,0,0,0,2.266,16.725l11.438-1.079c5.18-9.064.647-18.128.647-18.128A18.617,18.617,0,0,0,402.551,121.931Z" transform="translate(-385.159 -106.933)" fill="url(#linear-gradient-30)"/>
            <path id="Path_48480" data-name="Path 48480" d="M406.393,139.49a22.742,22.742,0,0,1-2.1-15.966,18.191,18.191,0,0,1,13.622-2.361c.592,1.333,3.8,9.342-.608,17.3l-10.914,1.03Z" transform="translate(-386.493 -108.25)" fill="url(#linear-gradient-31)"/>
            <path id="Path_48481" data-name="Path 48481" d="M348.541,157.833a15.353,15.353,0,0,0,4-7.146,6.3,6.3,0,0,0-5.093-3.477c-2.3-.317-4.063.7-6.13,1.479-.833.313-1.376.542-2.12-.021a2.893,2.893,0,0,1-.228-.192,22.235,22.235,0,0,0,.972,5.467Z" transform="translate(-338.474 -127.843)" fill="url(#linear-gradient-32)"/>
            <path id="Path_48482" data-name="Path 48482" d="M477.56,156.858a.638.638,0,0,1,.078.03l.188.094a32.382,32.382,0,0,0,1.63-10.134,3.328,3.328,0,0,0-1.33-.533,3.444,3.444,0,0,0-3.033,1.038c.039.76.074,1.586.1,2.486C475.393,156.1,477.538,156.851,477.56,156.858Z" transform="translate(-439.432 -127.194)" fill="url(#linear-gradient-33)"/>
            <path id="Path_48483" data-name="Path 48483" d="M417.542,165.178a18.065,18.065,0,0,0,2.036-5.852,3.708,3.708,0,0,1-2.753,1c-2.715-.069-5.054-2.328-7.524-3.223a7.149,7.149,0,0,0-5.27.328,21.517,21.517,0,0,0,2.6,8.775Z" transform="translate(-386.728 -134.968)" fill="url(#linear-gradient-34)"/>
            <path id="Path_48484" data-name="Path 48484" d="M393.281,101.994a17.826,17.826,0,0,0,9.836-3.194,18.085,18.085,0,0,0-5.939-1.158,31.387,31.387,0,0,0-8.01,1.782,17.182,17.182,0,0,1-3.8.774,14.026,14.026,0,0,0,7.082,1.816C392.727,102.014,393,102.007,393.281,101.994Z" transform="translate(-372.89 -91.123)" fill="url(#linear-gradient-35)"/>
            <path id="Path_48485" data-name="Path 48485" d="M363.529,119.342c-.088.3-1.3-.214-2.887-.678s-2.95-.7-2.862-1,1.446-.168,3.033.3S363.617,119.042,363.529,119.342Z" transform="translate(-352.422 -105.855)" fill="url(#linear-gradient-36)"/>
            <path id="Path_48486" data-name="Path 48486" d="M427.02,122.987c.057.307-1.257.394-2.882.7s-2.948.705-3.005.4,1.214-.8,2.84-1.1S426.963,122.68,427.02,122.987Z" transform="translate(-399.41 -109.749)" fill="url(#linear-gradient-37)"/>
            <path id="Path_48487" data-name="Path 48487" d="M411.435,76.593c-.006.313-1.31.133-2.963.1s-3.03.095-3.024-.218,1.351-.54,3-.507S411.441,76.281,411.435,76.593Z" transform="translate(-387.778 -75.047)" fill="url(#linear-gradient-38)"/>
            <path id="Path_48488" data-name="Path 48488" d="M474.548,113.738c.167.225-.178.308-.51.554s-.525.561-.692.336-.033-.607.3-.852S474.381,113.513,474.548,113.738Z" transform="translate(-438.084 -102.945)" fill="url(#linear-gradient-39)"/>
          </g>
        </g>
        <g id="Group_54471" data-name="Group 54471" transform="translate(8.406 24.691)">
          <path id="Path_48489" data-name="Path 48489" d="M375.65,171.942a7.533,7.533,0,0,1-2.913,3.561l.254.141-.063.02a21.256,21.256,0,0,0-2.781-1.051c-4.046-1.376-7.526-2.1-11.653-.728-3.237,1.052-5.018,4.613-8.74,3.075-3.561-1.457-3.885-6.07-7.041-7.769-3.561-1.942-6.474.4-6.474,4.046l-.162.566a3.162,3.162,0,0,0,1.538,2.347,2.825,2.825,0,0,1,1.133-1.861l3.8,1.052c1.924,1.925,3.756,3.879,6.492,4.595a13.293,13.293,0,0,0,3.22.423c2.23.009,4.215-1.139,6.329-1.675a10.177,10.177,0,0,1,5.351.331c3.858,1.344,11.04,2.433,12.031-3.511A5.526,5.526,0,0,0,375.65,171.942Z" transform="translate(-335.983 -168.363)" fill="#ffff5d"/>
          <path id="Path_48490" data-name="Path 48490" d="M336.077,178.344a3.162,3.162,0,0,0,1.538,2.347,2.824,2.824,0,0,1,1.133-1.861l3.8,1.052c1.924,1.924,3.756,3.879,6.492,4.595a13.293,13.293,0,0,0,3.22.423c2.23.009,4.215-1.139,6.329-1.675a10.178,10.178,0,0,1,5.351.331c3.858,1.344,11.04,2.433,12.031-3.511a7.075,7.075,0,0,0,.04-2.578c-.018.147-.031.3-.04.474-.243,4.775-5.1,5.988-11.816,4.208s-8.174,1.861-12.867,1.538-5.665-2.833-8.093-5.341-3.318-1.861-4.936-1.942c-1.334-.067-1.184-1.341-1.09-1.788a5.392,5.392,0,0,0-.933,3.164Z" transform="translate(-335.983 -172.903)" fill="#f2c200"/>
          <path id="Path_48491" data-name="Path 48491" d="M350.248,171.294c0,.283-.507.513-1.133.513s-1.133-.229-1.133-.513.507-.513,1.133-.513S350.248,171.01,350.248,171.294Z" transform="translate(-344.813 -170.06)" fill="#fff"/>
          <path id="Path_48492" data-name="Path 48492" d="M438.99,189.777c0,.283-.712.513-1.591.513s-1.591-.23-1.591-.512.712-.513,1.591-.513S438.99,189.494,438.99,189.777Z" transform="translate(-409.95 -183.77)" fill="#fff"/>
          <path id="Path_48493" data-name="Path 48493" d="M375.484,171.511a.121.121,0,0,0-.218.028c-.109.265-.189.557-.322.807a9.259,9.259,0,0,1-.6.958,6.469,6.469,0,0,1-1.872,1.8,32.889,32.889,0,0,0-6.322-2.078,15.081,15.081,0,0,0-6.91.047,9.7,9.7,0,0,0-2.685,1.087c-.725.437-1.4.958-2.087,1.445a7.51,7.51,0,0,1-2.162,1.149,4.149,4.149,0,0,1-2.792-.223c-3.236-1.371-3.648-5.336-6.277-7.353a5,5,0,0,0-4.65-.945,4.3,4.3,0,0,0-2.6,3.4,6.6,6.6,0,0,0-.058,1.232.031.031,0,0,0,.062,0,4.843,4.843,0,0,1,2.442-4.294c1.66-.79,3.714-.036,4.99,1.133a20.811,20.811,0,0,1,2.827,4.031,7.22,7.22,0,0,0,3.551,3.043,4.982,4.982,0,0,0,4.36-.721c.683-.424,1.322-.915,1.992-1.357a9.6,9.6,0,0,1,2.553-1.2,14.722,14.722,0,0,1,7.22-.222,31.729,31.729,0,0,1,3.457.95,36.642,36.642,0,0,1,3.753,1.4c.113.051.214-.115.1-.169-.239-.113-.48-.222-.723-.329a5.669,5.669,0,0,0,1.774-1.577,9.745,9.745,0,0,0,.689-1.051c.128-.225.269-.43.391-.653a5.559,5.559,0,0,1,.219,3.05,6.1,6.1,0,0,1-.764,2.25,5.066,5.066,0,0,1-3.332,2.2,11.769,11.769,0,0,1-4.355.023,42.464,42.464,0,0,1-4.139-1.055,9.836,9.836,0,0,0-5.122-.009c-1.92.546-3.715,1.513-5.75,1.572a10.5,10.5,0,0,1-5.667-1.422,22.4,22.4,0,0,1-4.09-3.576.137.137,0,0,0-.194.194,19.965,19.965,0,0,0,4.831,3.949,10.532,10.532,0,0,0,6.539.922c2.279-.445,4.3-1.693,6.667-1.718a10.234,10.234,0,0,1,3.3.513c.625.206,1.242.416,1.88.579,2.436.621,5.31.937,7.649-.188a4.955,4.955,0,0,0,2.435-2.645,7.746,7.746,0,0,0,.472-2.213A4.64,4.64,0,0,0,375.484,171.511Zm-38.2,4.106a4.4,4.4,0,0,1-.881-.888,4.74,4.74,0,0,1-.512-1.32.087.087,0,0,0-.17.023,2.852,2.852,0,0,0,1.58,2.423c.045.021.121.008.129-.052a3.384,3.384,0,0,1,1.054-1.879.008.008,0,0,0-.01-.013A2.477,2.477,0,0,0,337.284,175.618Z" transform="translate(-335.713 -167.992)" fill="#b38b00"/>
        </g>
        <g id="Group_54472" data-name="Group 54472" transform="translate(0 26.881)">
          <path id="Path_48494" data-name="Path 48494" d="M315.8,178.871a9.7,9.7,0,0,1-7.607-2.347l-4.693,4.694c4.775-1.052,10.682-1.214,15.376.4h0a7.269,7.269,0,0,0-2.752-2.671Z" transform="translate(-303.414 -176.51)" fill="url(#linear-gradient-40)"/>
          <path id="Path_48495" data-name="Path 48495" d="M303.5,181.217c4.775-1.052,10.682-1.214,15.376.4a7.27,7.27,0,0,0-2.752-2.671l-.274-.068a13.6,13.6,0,0,1,1.245,1.606l-1.214-.243a63.3,63.3,0,0,0-6.879-.89l.634-1.824a12.6,12.6,0,0,1-1.444-1.009Z" transform="translate(-303.414 -176.51)" fill="url(#linear-gradient-41)"/>
          <path id="Path_48496" data-name="Path 48496" d="M315.565,178.858c.029-.007.023-.057-.007-.053a10.844,10.844,0,0,1-7.6-2.331c-.012-.009-.028.011-.016.021C310.006,178.253,312.818,179.5,315.565,178.858Zm3.119,2.674c-.452-.485-.789-1.067-1.254-1.549a4.7,4.7,0,0,0-1.537-1.091c-.026-.011-.05.027-.023.039a5.378,5.378,0,0,1,1.488,1.122,6.817,6.817,0,0,1,1.124,1.4,22.109,22.109,0,0,0-7.508-1.183,28.632,28.632,0,0,0-7.741.83c-.107.029-.06.181.045.164,1.267-.213,2.523-.451,3.8-.585a34.376,34.376,0,0,1,3.893-.183,28.554,28.554,0,0,1,7.639,1.161A.073.073,0,0,0,318.685,181.532Z" transform="translate(-303.174 -176.471)" fill="url(#linear-gradient-42)"/>
        </g>
      </g>
      <g id="Group_54481" data-name="Group 54481" transform="translate(0 11.55)">
        <path id="Path_48497" data-name="Path 48497" d="M251.134,131.582a14.568,14.568,0,0,0-.276-6.355c-1.36-5.3-6.207-7.867-11.392-7.565a13.512,13.512,0,0,0-11.855,9.442c-.27.809-.378,1.726-.647,2.589a4.7,4.7,0,0,1-.971,1.673c-.324.377-1.025.755-1.025,1.295,0,1.141,2.482,1.834,3.776,2.32,3.11,1.166,6.42,4.154,8.362,6.42l.034-.023a2.227,2.227,0,0,0,1.584,2.181c1.684.433,3.067-.679,4.036-1.957l.011.015a36.428,36.428,0,0,0,5.827-5.341c.593-.692,3.175-2.967,2.279-4.091l.095-.064C251.027,131.96,251.081,131.8,251.134,131.582Z" transform="translate(-224.83 -117.506)" fill="url(#linear-gradient-43)"/>
        <g id="Group_54474" data-name="Group 54474" transform="translate(0.076 0.675)">
          <path id="Path_48498" data-name="Path 48498" d="M225.224,172.3a10.3,10.3,0,0,1,6.312.486c3.777,1.349,8.362,4.64,17.912.486,0,0-.054.755-.108.971a23.142,23.142,0,0,1-3.453,1.942c-.323.108-5.665,1.4-5.665,1.4l-9.711-2.536s-4.208-1.295-4.37-1.241a5.8,5.8,0,0,1-1.295-.593S224.414,172.729,225.224,172.3Z" transform="translate(-224.731 -158.518)" fill="#49720f"/>
          <path id="Path_48499" data-name="Path 48499" d="M275.678,120.375c.021.4-.807.286-1.819.339s-1.823.255-1.845-.146.782-.771,1.794-.824S275.657,119.974,275.678,120.375Z" transform="translate(-259.799 -119.738)" fill="#d4ff97"/>
          <path id="Path_48500" data-name="Path 48500" d="M284.708,142.742s-1.214-7.931,1.052-11.168l1.133-.162,1.457,1.052s2.59,2.59,2.671,9.954l-1.942.4Z" transform="translate(-268.973 -128.396)" fill="url(#linear-gradient-44)"/>
          <path id="Path_48501" data-name="Path 48501" d="M236.844,139.543a12.557,12.557,0,0,1,2.7-8.093,4.027,4.027,0,0,1,.971-.917,1.687,1.687,0,0,1,1.025.108s1.295,6.852-.971,10.089Z" transform="translate(-233.708 -127.706)" fill="url(#linear-gradient-45)"/>
          <path id="Path_48502" data-name="Path 48502" d="M249.625,174.389s-1.376,1.861-7.769,2.347-8.821-2.347-12.382-2.913a7.886,7.886,0,0,0-4.488.243.634.634,0,0,0-.016.135c0,1.141,2.482,1.834,3.776,2.32,3.11,1.166,6.42,4.154,8.362,6.42l.034-.023a2.227,2.227,0,0,0,1.584,2.181c1.684.433,3.067-.679,4.036-1.957l.011.015a36.428,36.428,0,0,0,5.827-5.341,13.075,13.075,0,0,0,2.311-2.885A2.391,2.391,0,0,0,249.625,174.389Z" transform="translate(-224.908 -159.719)" fill="url(#linear-gradient-46)"/>
          <path id="Path_48503" data-name="Path 48503" d="M278.228,186.729l-.173-.01.011.064c-.378,1.133-.863,2.482-1.3,3.669-.324,1.025-.162,2.212,1.187,2,1.133-.216,1.942-1.457,2.59-2.266,1.259-1.469,2.366-3.394,3.914-4.591A14.62,14.62,0,0,1,278.228,186.729Z" transform="translate(-263.223 -168.58)" fill="#49720f"/>
          <path id="Path_48504" data-name="Path 48504" d="M291.652,185.59a14.378,14.378,0,0,1-5.3,1.138h0a3.4,3.4,0,0,0,.85,2.873l.777.3C289.139,188.472,290.2,186.711,291.652,185.59Z" transform="translate(-270.412 -168.579)" fill="#1a171b"/>
        </g>
        <g id="Group_54475" data-name="Group 54475" transform="translate(14.165 21.252)">
          <path id="Path_48505" data-name="Path 48505" d="M279.27,202.631a4.149,4.149,0,0,1,3.938-3.237s-2.131,3.035-2.7,3.156Z" transform="translate(-279.27 -199.394)" fill="#ff4751"/>
          <path id="Path_48506" data-name="Path 48506" d="M283.879,201.729c.221.254-.347.594-.954,1.123s-1.021,1.046-1.242.792.091-.888.7-1.416S283.658,201.475,283.879,201.729Z" transform="translate(-281.007 -201.048)" fill="#ff7c7e"/>
        </g>
        <g id="Group_54476" data-name="Group 54476">
          <path id="Path_48507" data-name="Path 48507" d="M253.822,176.259a15.416,15.416,0,0,1-5.272,2.845,14.794,14.794,0,0,1-6.179.423,25.359,25.359,0,0,1-6.091-1.88c-1.852-.757-3.86-1.544-5.894-1.2,0,0,0,.009,0,.009,2.273-.235,4.414.8,6.447,1.665a21.457,21.457,0,0,0,6.071,1.732q.381.042.767.064c-.285.783-.561,1.569-.85,2.349a7.029,7.029,0,0,0-.62,2.072,1.313,1.313,0,0,0,.49,1.16,1.6,1.6,0,0,0,1.544-.038,4.539,4.539,0,0,0,1.514-1.37c.443-.553.876-1.117,1.3-1.685a25.182,25.182,0,0,1,2.921-3.52,11.987,11.987,0,0,0,3.92-2.563C253.932,176.282,253.868,176.222,253.822,176.259Zm-6.3,5.22c-.439.573-.874,1.15-1.351,1.693-.412.468-.762.982-1.2,1.426a2.337,2.337,0,0,1-1.733.805c-.658-.033-.8-.709-.764-1.241a7.8,7.8,0,0,1,.592-1.981c.26-.75.523-1.5.756-2.255a14.588,14.588,0,0,0,5.835-.911A16.022,16.022,0,0,0,247.519,181.479Z" transform="translate(-228.846 -160.974)" fill="#1c3a00"/>
          <path id="Path_48508" data-name="Path 48508" d="M248.3,132.4c-.043.007-.033.081.01.076a2.694,2.694,0,0,1,1.756.327c.056.031.1-.046.049-.083A2.254,2.254,0,0,0,248.3,132.4Zm-5.763,5.924a4.052,4.052,0,0,0-3.942,3.285,0,0,0,0,0,.007,0,4.175,4.175,0,0,1,3.935-3.19A.048.048,0,0,0,242.539,138.328Zm8.144-6.559a12.131,12.131,0,0,0,.1-6.143,10.537,10.537,0,0,0-2.273-4.873,11.488,11.488,0,0,0-9.435-3.609,13.17,13.17,0,0,0-9.476,5.038,14.386,14.386,0,0,0-2.6,4.925,10.842,10.842,0,0,1-1.2,3.4,7.23,7.23,0,0,1-.972,1,1.074,1.074,0,0,0-.384.9c.11.858,1.245,1.309,1.926,1.591,1.176.487,2.394.8,3.526,1.4a24.821,24.821,0,0,1,6.794,5.644.026.026,0,0,0,.033.006,2.268,2.268,0,0,0,1.829,2.289c1.626.321,2.979-.837,3.855-2.1a39.232,39.232,0,0,0,3.723-3.055c.949-.895,1.8-1.879,2.709-2.813.645-.663,2.472-2.6,1.8-3.537A.108.108,0,0,0,250.683,131.769Zm-.6,1.788a13.832,13.832,0,0,1-1.712,2.012c-.883.931-1.71,1.9-2.644,2.786-1.04.986-2.134,1.9-3.26,2.786.086-.128.167-.256.243-.384.009-.015-.013-.027-.023-.013-.912,1.193-2.13,2.443-3.743,2.415-1.7-.029-2.363-1.692-2.12-3.162,0-.008-.01-.011-.012,0a3.941,3.941,0,0,0-.094.987,27.414,27.414,0,0,0-4.526-4.255,18.839,18.839,0,0,0-2.786-1.755c-.77-.389-1.58-.666-2.383-.976a4.715,4.715,0,0,1-2.16-1.281c-.291-.4-.077-.771.238-1.077a8.08,8.08,0,0,0,.94-.98,7.912,7.912,0,0,0,1.084-3.208,11.658,11.658,0,0,1,1.109-2.9,13.472,13.472,0,0,1,8.806-6.848,11.881,11.881,0,0,1,10.471,2.42,9.68,9.68,0,0,1,2.847,4.87,12.65,12.65,0,0,1,.124,6.68,1.572,1.572,0,0,0-.705-.293.038.038,0,0,0-.02.073c.461.176.793.41.79.948A2.335,2.335,0,0,1,250.086,133.557Z" transform="translate(-224.435 -117.124)" fill="url(#linear-gradient-47)"/>
        </g>
        <path id="Path_48509" data-name="Path 48509" d="M289.294,129.1a2.667,2.667,0,0,1,.917-1.133,3.062,3.062,0,0,1,1.834,2.1A5.951,5.951,0,0,0,289.294,129.1Z" transform="translate(-272.54 -125.166)" fill="#1a171b"/>
        <path id="Path_48510" data-name="Path 48510" d="M250.2,128.7a2.734,2.734,0,0,0-.329-1.272s-1.007.106-1.857,1.659A3.708,3.708,0,0,1,250.2,128.7Z" transform="translate(-241.925 -124.769)" fill="#1a171b"/>
        <g id="Group_54478" data-name="Group 54478" transform="translate(15.763 8.721)">
          <path id="Path_48511" data-name="Path 48511" d="M287.2,153.46c.526-2.63,3.156-3.52,4.451-1.376a8.037,8.037,0,0,1,.9,4.746c.289.021.517.028.517.028a6.5,6.5,0,0,1-2.833,1.012l.827-.827C289.576,156.56,286.818,155.393,287.2,153.46Z" transform="translate(-286.726 -150.883)" fill="#1a171b"/>
          <path id="Path_48512" data-name="Path 48512" d="M286.661,153.373c-.983,1.538-1.074,3.031-1.074,5.189l.27.216a11.991,11.991,0,0,0,1.78.216,4.382,4.382,0,0,0,2.967-.486l.27-.27c.216-1.349.216-3.777-1.187-5.125A1.8,1.8,0,0,0,286.661,153.373Z" transform="translate(-285.554 -152.019)" fill="#fff"/>
          <g id="Group_54477" data-name="Group 54477" transform="translate(1.55 0.918)">
            <path id="Path_48513" data-name="Path 48513" d="M293.42,160.254c-1.071.008-1.949-1.288-1.961-2.895s.847-2.916,1.918-2.923a1.372,1.372,0,0,1,.659.17l.006.006a4.85,4.85,0,0,1,1.27,3.2C295.17,159.19,294.382,160.247,293.42,160.254Z" transform="translate(-291.459 -154.436)" fill="#1a171b"/>
            <path id="Path_48514" data-name="Path 48514" d="M293.935,155.56c.964-.007,1.754,1.159,1.765,2.605s-.762,2.624-1.726,2.631-1.755-1.159-1.766-2.605S292.971,155.567,293.935,155.56Z" transform="translate(-292.015 -155.27)" fill="url(#linear-gradient-48)"/>
            <path id="Path_48515" data-name="Path 48515" d="M293.125,157.543c0,.6.335,1.091.737,1.089s.726-.5.721-1.1-.335-1.091-.738-1.089S293.12,156.938,293.125,157.543Z" transform="translate(-292.694 -155.924)" fill="#fff"/>
          </g>
          <path id="Path_48516" data-name="Path 48516" d="M290.776,157.9c.254-1.919-.06-5.054-2.322-5.665-1.354-.366-2.141,1.276-2.5,2.3a12.358,12.358,0,0,0-.445,3.69.016.016,0,0,1-.033,0,11.206,11.206,0,0,1,.457-4.165c.36-1.007,1.129-2.273,2.38-2.082a3.275,3.275,0,0,1,2.363,2.474,7.486,7.486,0,0,1,.1,3.449s0,0,0,0Z" transform="translate(-285.457 -151.677)" fill="#1a171b"/>
          <path id="Path_48517" data-name="Path 48517" d="M296.463,175.978a4.165,4.165,0,0,1-2.977.487c-.013,0-.01-.025,0-.023a4.776,4.776,0,0,0,2.961-.484.012.012,0,0,1,.012.02Z" transform="translate(-291.406 -169.479)" fill="#1a171b"/>
        </g>
        <g id="Group_54480" data-name="Group 54480" transform="translate(2.663 7.563)">
          <path id="Path_48518" data-name="Path 48518" d="M239.078,148.892c-.141-2.4-1.88-3.374-2.955-1.526a9.257,9.257,0,0,0-1.021,4.218c-.2,0-.359-.007-.359-.007a3.844,3.844,0,0,0,1.869,1.094l-.5-.8C237.181,151.531,239.181,150.658,239.078,148.892Z" transform="translate(-234.743 -146.401)" fill="#1a171b"/>
          <path id="Path_48519" data-name="Path 48519" d="M238.643,148.419c-1.082,1.125-1.286,3.312-1.252,4.541l.163.26a2.435,2.435,0,0,0,2.006.629,6.451,6.451,0,0,0,1.246-.08l.2-.177a10,10,0,0,0-.3-4.744C240.28,147.714,239.44,147.591,238.643,148.419Z" transform="translate(-236.705 -147.5)" fill="#fff"/>
          <g id="Group_54479" data-name="Group 54479" transform="translate(1.689 0.83)">
            <path id="Path_48520" data-name="Path 48520" d="M242.793,149.614c-.742-.047-1.414,1.093-1.5,2.546s.444,2.67,1.185,2.718,1.415-1.092,1.5-2.546S243.536,149.661,242.793,149.614Z" transform="translate(-241.283 -149.613)" fill="#1a171b"/>
            <path id="Path_48521" data-name="Path 48521" d="M243.172,150.646c-.666-.042-1.271.982-1.349,2.288s.4,2.4,1.065,2.442,1.271-.982,1.349-2.288S243.839,150.689,243.172,150.646Z" transform="translate(-241.677 -150.378)" fill="url(#linear-gradient-49)"/>
            <path id="Path_48522" data-name="Path 48522" d="M247.9,152.578c-.033.546-.285.974-.563.956s-.478-.474-.445-1.02.285-.974.564-.956S247.935,152.032,247.9,152.578Z" transform="translate(-245.441 -151.055)" fill="#fff"/>
          </g>
          <path id="Path_48523" data-name="Path 48523" d="M237.371,152.659c-.013-1.745.468-4.549,2.08-4.953.965-.242,1.369,1.288,1.532,2.232a14.44,14.44,0,0,1,0,3.353c0,.019.02.021.022,0a13.1,13.1,0,0,0,.037-3.781c-.163-.93-.587-2.12-1.466-2.029s-1.508,1.1-1.84,2.077a8.791,8.791,0,0,0-.363,3.1s0,0,0,0Z" transform="translate(-236.682 -147.199)" fill="#1a171b"/>
          <path id="Path_48524" data-name="Path 48524" d="M238.006,168.521a2.321,2.321,0,0,0,2.013.63c.009,0,.009-.022,0-.021a2.647,2.647,0,0,1-2-.627c-.009-.008-.019.01-.01.018Z" transform="translate(-237.161 -162.792)" fill="#1a171b"/>
        </g>
      </g>
    </g>
  </g>
</svg>
