<svg xmlns="http://www.w3.org/2000/svg" xmlns:xlink="http://www.w3.org/1999/xlink" width="388" height="229.453" viewBox="0 0 388 229.453">
  <defs>
    <linearGradient id="linear-gradient" x1="0.047" y1="0.057" x2="1" y2="0.812" gradientUnits="objectBoundingBox">
      <stop offset="0" stop-color="#9dc5e7"/>
      <stop offset="1" stop-color="#bcb888"/>
    </linearGradient>
    <clipPath id="clip-path">
      <path id="Path_50224" data-name="Path 50224" d="M-308,0,80-.1V229.19S55.431,203.53,7.849,203.53-46.56,231.753-81.1,229.19s-51.57-25.66-88.947-25.66-52.566,26.846-87.055,25.66-50.9-30.4-50.9-30.4Z" transform="translate(-88 -441.903)" opacity="0" fill="url(#linear-gradient)"/>
    </clipPath>
    <clipPath id="clip-path-2">
      <rect id="Rectangle_21576" data-name="Rectangle 21576" width="388" height="388" transform="translate(0 0)" fill="#fff"/>
    </clipPath>
    <linearGradient id="linear-gradient-2" x1="-31.562" y1="71.644" x2="43.372" y2="-93.462" gradientUnits="objectBoundingBox">
      <stop offset="0"/>
      <stop offset="1" stop-color="#2e2e2e"/>
    </linearGradient>
    <linearGradient id="linear-gradient-3" x1="-20.689" y1="47.672" x2="54.27" y2="-117.438" xlink:href="#linear-gradient-2"/>
    <linearGradient id="linear-gradient-4" x1="-26.121" y1="59.655" x2="48.811" y2="-105.445" xlink:href="#linear-gradient-2"/>
    <linearGradient id="linear-gradient-5" x1="-15.236" y1="35.682" x2="59.671" y2="-129.413" xlink:href="#linear-gradient-2"/>
    <linearGradient id="linear-gradient-6" x1="11.961" y1="-24.245" x2="86.904" y2="-189.32" xlink:href="#linear-gradient-2"/>
    <linearGradient id="linear-gradient-7" x1="-9.797" y1="23.695" x2="65.109" y2="-141.401" xlink:href="#linear-gradient-2"/>
    <linearGradient id="linear-gradient-8" x1="6.519" y1="-12.263" x2="81.451" y2="-177.363" xlink:href="#linear-gradient-2"/>
    <linearGradient id="linear-gradient-9" x1="-4.36" y1="11.708" x2="70.563" y2="-153.372" xlink:href="#linear-gradient-2"/>
    <linearGradient id="linear-gradient-10" x1="1.08" y1="-0.277" x2="76.041" y2="-165.391" xlink:href="#linear-gradient-2"/>
  </defs>
  <g id="Group_58653" data-name="Group 58653" transform="translate(0 0)">
    <path id="Path_44562" data-name="Path 44562" d="M-308,0,80-.1V229.19S55.431,203.53,7.849,203.53-46.56,231.753-81.1,229.19s-51.57-25.66-88.947-25.66-52.566,26.846-87.055,25.66-50.9-30.4-50.9-30.4Z" transform="translate(308 0.098)" fill="#ffe291"/>
    <g id="Mask_Group_48312" data-name="Mask Group 48312" transform="translate(396 442)" clip-path="url(#clip-path)">
      <g id="_897189_3701" data-name="897189_3701" transform="translate(-340 -546)" opacity="0.3">
        <g id="Group_54829" data-name="Group 54829" transform="translate(-56 4)">
          <g id="Group_54828" data-name="Group 54828" clip-path="url(#clip-path-2)">
            <g id="Group_54790" data-name="Group 54790" transform="translate(-9.99 -10.996)">
              <path id="Path_50151" data-name="Path 50151" d="M6.448-8.162.519-2.778-5.41-8.162h-2L.519-.958l7.935-7.2Z" transform="translate(7.415 8.162)" fill="#fff"/>
              <path id="Path_50152" data-name="Path 50152" d="M42.048-8.162,36.118-2.778l-5.93-5.383H28.182l7.936,7.2,7.934-7.2Z" transform="translate(19.775 8.162)" fill="#fff"/>
              <path id="Path_50153" data-name="Path 50153" d="M113.241-8.162l-5.929,5.383-5.929-5.383H99.377l7.935,7.2,7.935-7.2Z" transform="translate(44.496 8.162)" fill="#fff"/>
              <path id="Path_50154" data-name="Path 50154" d="M77.644-8.162,71.715-2.778,65.786-8.162H63.78l7.935,7.2,7.935-7.2Z" transform="translate(32.135 8.162)" fill="#fff"/>
              <path id="Path_50155" data-name="Path 50155" d="M148.843-8.162l-5.929,5.383-5.93-5.383h-2.006l7.936,7.2,7.935-7.2Z" transform="translate(56.857 8.162)" fill="#fff"/>
              <path id="Path_50156" data-name="Path 50156" d="M291.238-8.162l-5.93,5.383-5.93-5.383h-2.006l7.936,7.2,7.937-7.2Z" transform="translate(106.299 8.162)" fill="#fff"/>
              <path id="Path_50157" data-name="Path 50157" d="M184.442-8.162l-5.929,5.383-5.93-5.383h-2l7.935,7.2,7.934-7.2Z" transform="translate(69.218 8.162)" fill="#fff"/>
              <path id="Path_50158" data-name="Path 50158" d="M255.638-8.162l-5.929,5.383-5.93-5.383h-2.006l7.936,7.2,7.934-7.2Z" transform="translate(93.938 8.162)" fill="#fff"/>
              <path id="Path_50159" data-name="Path 50159" d="M220.036-8.162l-5.929,5.383-5.929-5.383h-2.006l7.935,7.2,7.935-7.2Z" transform="translate(81.577 8.162)" fill="#fff"/>
            </g>
            <g id="Group_54791" data-name="Group 54791" transform="translate(-44.912 -10.996)">
              <path id="Path_50160" data-name="Path 50160" d="M93.819-8.162,75.03,8.9,56.24-8.162H54.234l20.8,18.881L95.824-8.162Z" transform="translate(63.744 8.162)" fill="#fff"/>
              <path id="Path_50161" data-name="Path 50161" d="M129.416-8.162,110.627,8.9,91.837-8.162H89.831l20.8,18.881,20.8-18.881Z" transform="translate(76.104 8.162)" fill="#fff"/>
              <path id="Path_50162" data-name="Path 50162" d="M58.223-8.162,39.433,8.9,20.642-8.162H18.636l20.8,18.881L60.227-8.162Z" transform="translate(51.383 8.162)" fill="#fff"/>
              <path id="Path_50163" data-name="Path 50163" d="M165.018-8.162,146.228,8.9,127.435-8.162h-2l20.8,18.881,20.8-18.881Z" transform="translate(88.464 8.162)" fill="#fff"/>
              <path id="Path_50164" data-name="Path 50164" d="M22.623-8.162,3.833,8.9-14.955-8.162h-2L3.833,10.719l20.8-18.881Z" transform="translate(39.023 8.162)" fill="#fff"/>
              <path id="Path_50165" data-name="Path 50165" d="M-33.337,6.092l15.7-14.254h-2L-33.337,4.27Z" transform="translate(33.337 8.162)" fill="#fff"/>
              <path id="Path_50166" data-name="Path 50166" d="M307.416-8.162,288.622,8.9,269.83-8.162h-2l20.8,18.881,20.8-18.881Z" transform="translate(137.907 8.162)" fill="#fff"/>
              <path id="Path_50167" data-name="Path 50167" d="M236.211-8.162,217.421,8.9,198.633-8.162h-2.006l20.794,18.881L238.216-8.162Z" transform="translate(113.186 8.162)" fill="#fff"/>
              <path id="Path_50168" data-name="Path 50168" d="M200.615-8.162,181.828,8.9,163.037-8.162h-2.006l20.8,18.881L202.621-8.162Z" transform="translate(100.826 8.162)" fill="#fff"/>
              <path id="Path_50169" data-name="Path 50169" d="M271.813-8.162,253.024,8.9,234.23-8.162h-2.006l20.8,18.881L273.818-8.162Z" transform="translate(125.546 8.162)" fill="#fff"/>
            </g>
            <g id="Group_54792" data-name="Group 54792" transform="translate(-44.912 -4.031)">
              <path id="Path_50170" data-name="Path 50170" d="M417.084-2.908,393.192,18.779,369.21-2.992,345.232,18.779,321.249-2.992,297.27,18.779,273.293-2.992,249.317,18.779,225.335-2.992,201.356,18.779,177.373-2.992,153.393,18.779,129.414-2.992,105.436,18.779,81.457-2.992,57.479,18.779,33.5-2.992,9.519,18.779-14.457-2.992-33.337,14.15v1.821l18.88-17.143L9.519,20.6,33.5-1.172,57.479,20.6,81.457-1.172,105.436,20.6,129.414-1.172,153.393,20.6,177.373-1.172,201.356,20.6,225.335-1.172,249.317,20.6,273.293-1.172,297.27,20.6,321.249-1.172,345.232,20.6,369.21-1.172,393.192,20.6,417.084-1.09Z" transform="translate(33.337 2.992)" fill="#fff"/>
            </g>
            <g id="Group_54793" data-name="Group 54793" transform="translate(-44.912 7.647)">
              <path id="Path_50171" data-name="Path 50171" d="M417.084,5.76,393.192,27.447,369.21,5.676,345.232,27.447,321.249,5.676,297.27,27.447,273.293,5.676,249.317,27.447,225.335,5.676,201.356,27.447,177.373,5.676,153.393,27.447,129.414,5.676,105.436,27.447,81.457,5.676,57.479,27.447,33.5,5.676,9.519,27.447-14.457,5.676l-18.88,17.142V24.64L-14.457,7.5,9.519,29.269,33.5,7.5,57.479,29.269,81.457,7.5l23.979,21.772L129.414,7.5l23.979,21.772L177.373,7.5l23.983,21.772L225.335,7.5l23.982,21.772L273.293,7.5,297.27,29.269,321.249,7.5l23.983,21.772L369.21,7.5l23.982,21.772,23.892-21.69Z" transform="translate(33.337 -5.676)" fill="#fff"/>
            </g>
            <g id="Group_54794" data-name="Group 54794" transform="translate(-44.912 19.322)">
              <path id="Path_50172" data-name="Path 50172" d="M417.084,14.426,393.192,36.113,369.21,14.342,345.232,36.113,321.249,14.342,297.27,36.113,273.293,14.342,249.317,36.113,225.335,14.342,201.356,36.113,177.373,14.342,153.393,36.113,129.414,14.342,105.436,36.113,81.457,14.342,57.479,36.113,33.5,14.342,9.519,36.113-14.457,14.342l-18.88,17.142v1.821l18.88-17.143L9.519,37.935,33.5,16.162,57.479,37.935,81.457,16.162l23.979,21.772,23.978-21.772,23.979,21.772,23.979-21.772,23.983,21.772,23.979-21.772,23.982,21.772,23.977-21.772L297.27,37.935l23.979-21.772,23.983,21.772L369.21,16.162l23.982,21.772,23.892-21.69Z" transform="translate(33.337 -14.342)" fill="#fff"/>
            </g>
            <g id="Group_54795" data-name="Group 54795" transform="translate(-44.912 31)">
              <path id="Path_50173" data-name="Path 50173" d="M417.084,23.094,393.192,44.781,369.21,23.01,345.232,44.781,321.249,23.01,297.27,44.781,273.293,23.01,249.317,44.781,225.335,23.01,201.356,44.781,177.373,23.01,153.393,44.781,129.414,23.01,105.436,44.781,81.457,23.01,57.479,44.781,33.5,23.01,9.519,44.781-14.457,23.01l-18.88,17.142v1.821l18.88-17.143L9.519,46.6,33.5,24.83,57.479,46.6,81.457,24.83,105.436,46.6,129.414,24.83,153.393,46.6,177.373,24.83,201.356,46.6,225.335,24.83,249.317,46.6,273.293,24.83,297.27,46.6,321.249,24.83,345.232,46.6,369.21,24.83,393.192,46.6l23.892-21.689Z" transform="translate(33.337 -23.01)" fill="#fff"/>
            </g>
            <g id="Group_54796" data-name="Group 54796" transform="translate(-44.912 42.675)">
              <path id="Path_50174" data-name="Path 50174" d="M417.084,31.76,393.192,53.447,369.21,31.676,345.232,53.447,321.249,31.676,297.27,53.447,273.293,31.676,249.317,53.447,225.335,31.676,201.356,53.447,177.373,31.676,153.393,53.447,129.414,31.676,105.436,53.447,81.457,31.676,57.479,53.447,33.5,31.676,9.519,53.447-14.457,31.676l-18.88,17.142v1.821L-14.457,33.5,9.519,55.269,33.5,33.5,57.479,55.269,81.457,33.5l23.979,21.772L129.414,33.5l23.979,21.772L177.373,33.5l23.983,21.772L225.335,33.5l23.982,21.772L273.293,33.5,297.27,55.269,321.249,33.5l23.983,21.772L369.21,33.5l23.982,21.772,23.892-21.69Z" transform="translate(33.337 -31.676)" fill="#fff"/>
            </g>
            <g id="Group_54797" data-name="Group 54797" transform="translate(-44.912 54.352)">
              <path id="Path_50175" data-name="Path 50175" d="M417.084,40.428,393.192,62.115,369.21,40.344,345.232,62.115,321.249,40.344,297.27,62.115,273.293,40.344,249.317,62.115,225.335,40.344,201.356,62.115,177.373,40.344,153.393,62.115,129.414,40.344,105.436,62.115,81.457,40.344,57.479,62.115,33.5,40.344,9.519,62.115-14.457,40.344l-18.88,17.142v1.821l18.88-17.143L9.519,63.935,33.5,42.164,57.479,63.935,81.457,42.164l23.979,21.771,23.978-21.771,23.979,21.771,23.979-21.771,23.983,21.771,23.979-21.771,23.982,21.771,23.977-21.771L297.27,63.935l23.979-21.771,23.983,21.771L369.21,42.164l23.982,21.771,23.892-21.689Z" transform="translate(33.337 -40.344)" fill="#fff"/>
            </g>
            <g id="Group_54798" data-name="Group 54798" transform="translate(-44.912 66.027)">
              <path id="Path_50176" data-name="Path 50176" d="M417.084,49.094,393.192,70.781,369.21,49.01,345.232,70.781,321.249,49.01,297.27,70.781,273.293,49.01,249.317,70.781,225.335,49.01,201.356,70.781,177.373,49.01,153.393,70.781,129.414,49.01,105.436,70.781,81.457,49.01,57.479,70.781,33.5,49.01,9.519,70.781-14.457,49.01l-18.88,17.142v1.821l18.88-17.143L9.519,72.6,33.5,50.83,57.479,72.6,81.457,50.83,105.436,72.6,129.414,50.83,153.393,72.6,177.373,50.83,201.356,72.6,225.335,50.83,249.317,72.6,273.293,50.83,297.27,72.6,321.249,50.83,345.232,72.6,369.21,50.83,393.192,72.6l23.892-21.689Z" transform="translate(33.337 -49.01)" fill="#fff"/>
            </g>
            <g id="Group_54799" data-name="Group 54799" transform="translate(-44.912 77.705)">
              <path id="Path_50177" data-name="Path 50177" d="M417.084,57.762,393.192,79.449,369.21,57.678,345.232,79.449,321.249,57.678,297.27,79.449,273.293,57.678,249.317,79.449,225.335,57.678,201.356,79.449,177.373,57.678,153.393,79.449,129.414,57.678,105.436,79.449,81.457,57.678,57.479,79.449,33.5,57.678,9.519,79.449-14.457,57.678-33.337,74.82v1.821L-14.457,59.5,9.519,81.269,33.5,59.5,57.479,81.269,81.457,59.5l23.979,21.771L129.414,59.5l23.979,21.771L177.373,59.5l23.983,21.771L225.335,59.5l23.982,21.771L273.293,59.5,297.27,81.269,321.249,59.5l23.983,21.771L369.21,59.5l23.982,21.771L417.084,59.58Z" transform="translate(33.337 -57.678)" fill="#fff"/>
            </g>
            <g id="Group_54800" data-name="Group 54800" transform="translate(-44.912 89.38)">
              <path id="Path_50178" data-name="Path 50178" d="M417.084,66.428,393.192,88.115,369.21,66.344,345.232,88.115,321.249,66.344,297.27,88.115,273.293,66.344,249.317,88.115,225.335,66.344,201.356,88.115,177.373,66.344,153.393,88.115,129.414,66.344,105.436,88.115,81.457,66.344,57.479,88.115,33.5,66.344,9.519,88.115-14.457,66.344l-18.88,17.142v1.821l18.88-17.143L9.519,89.935,33.5,68.164,57.479,89.935,81.457,68.164l23.979,21.771,23.978-21.771,23.979,21.771,23.979-21.771,23.983,21.771,23.979-21.771,23.982,21.771,23.977-21.771L297.27,89.935l23.979-21.771,23.983,21.771L369.21,68.164l23.982,21.771,23.892-21.689Z" transform="translate(33.337 -66.344)" fill="#fff"/>
            </g>
            <g id="Group_54801" data-name="Group 54801" transform="translate(-44.912 101.058)">
              <path id="Path_50179" data-name="Path 50179" d="M417.084,75.1,393.192,96.783,369.21,75.012,345.232,96.783,321.249,75.012,297.27,96.783,273.293,75.012,249.317,96.783,225.335,75.012,201.356,96.783,177.373,75.012,153.393,96.783,129.414,75.012,105.436,96.783,81.457,75.012,57.479,96.783,33.5,75.012,9.519,96.783-14.457,75.012l-18.88,17.142v1.821l18.88-17.143L9.519,98.6,33.5,76.832,57.479,98.6,81.457,76.832,105.436,98.6l23.978-21.771L153.393,98.6l23.979-21.771L201.356,98.6l23.979-21.771L249.317,98.6l23.977-21.771L297.27,98.6l23.979-21.771L345.232,98.6,369.21,76.832,393.192,98.6l23.892-21.689Z" transform="translate(33.337 -75.012)" fill="#fff"/>
            </g>
            <g id="Group_54802" data-name="Group 54802" transform="translate(-44.912 112.733)">
              <path id="Path_50180" data-name="Path 50180" d="M417.084,83.762l-23.892,21.688L369.21,83.678l-23.978,21.771L321.249,83.678,297.27,105.449,273.293,83.678l-23.977,21.771L225.335,83.678l-23.979,21.771L177.373,83.678l-23.979,21.771L129.414,83.678l-23.978,21.771L81.457,83.678,57.479,105.449,33.5,83.678,9.519,105.449-14.457,83.678l-18.88,17.142v1.821L-14.457,85.5,9.519,107.269,33.5,85.5l23.982,21.771L81.457,85.5l23.979,21.771L129.414,85.5l23.979,21.771L177.373,85.5l23.983,21.771L225.335,85.5l23.982,21.771L273.293,85.5l23.977,21.771L321.249,85.5l23.983,21.771L369.21,85.5l23.982,21.771L417.084,85.58Z" transform="translate(33.337 -83.678)" fill="#fff"/>
            </g>
            <g id="Group_54803" data-name="Group 54803" transform="translate(-44.912 124.411)">
              <path id="Path_50181" data-name="Path 50181" d="M417.084,92.43l-23.892,21.688L369.21,92.346l-23.978,21.771L321.249,92.346,297.27,114.117,273.293,92.346l-23.977,21.771L225.335,92.346l-23.979,21.771L177.373,92.346l-23.979,21.771L129.414,92.346l-23.978,21.771L81.457,92.346,57.479,114.117,33.5,92.346,9.519,114.117-14.457,92.346l-18.88,17.142v1.821l18.88-17.143L9.519,115.937,33.5,94.166l23.982,21.771L81.457,94.166l23.979,21.771,23.978-21.771,23.979,21.771,23.979-21.771,23.983,21.771,23.979-21.771,23.982,21.771,23.977-21.771,23.977,21.771,23.979-21.771,23.983,21.771L369.21,94.166l23.982,21.771,23.892-21.689Z" transform="translate(33.337 -92.346)" fill="#fff"/>
            </g>
            <g id="Group_54804" data-name="Group 54804" transform="translate(-44.912 136.086)">
              <path id="Path_50182" data-name="Path 50182" d="M417.084,101.1l-23.892,21.688L369.21,101.012l-23.978,21.771-23.983-21.771L297.27,122.783l-23.977-21.771-23.977,21.771-23.982-21.771-23.979,21.771-23.983-21.771-23.979,21.771-23.979-21.771-23.978,21.771L81.457,101.012,57.479,122.783,33.5,101.012,9.519,122.783l-23.977-21.771-18.88,17.142v1.821l18.88-17.143L9.519,124.6,33.5,102.832,57.479,124.6l23.978-21.771L105.436,124.6l23.978-21.771L153.393,124.6l23.979-21.771L201.356,124.6l23.979-21.771L249.317,124.6l23.977-21.771L297.27,124.6l23.979-21.771L345.232,124.6l23.978-21.771L393.192,124.6l23.892-21.689Z" transform="translate(33.337 -101.012)" fill="#fff"/>
            </g>
            <g id="Group_54805" data-name="Group 54805" transform="translate(-44.912 147.763)">
              <path id="Path_50183" data-name="Path 50183" d="M417.084,109.764l-23.892,21.688L369.21,109.68l-23.978,21.771L321.249,109.68,297.27,131.451,273.293,109.68l-23.977,21.771L225.335,109.68l-23.979,21.771L177.373,109.68l-23.979,21.771L129.414,109.68l-23.978,21.771L81.457,109.68,57.479,131.451,33.5,109.68,9.519,131.451-14.457,109.68l-18.88,17.142v1.821l18.88-17.143L9.519,133.271,33.5,111.5l23.982,21.771L81.457,111.5l23.979,21.771L129.414,111.5l23.979,21.771L177.373,111.5l23.983,21.771L225.335,111.5l23.982,21.771L273.293,111.5l23.977,21.771L321.249,111.5l23.983,21.771L369.21,111.5l23.982,21.771,23.892-21.689Z" transform="translate(33.337 -109.68)" fill="#fff"/>
            </g>
            <g id="Group_54806" data-name="Group 54806" transform="translate(-44.912 159.438)">
              <path id="Path_50184" data-name="Path 50184" d="M417.084,118.43l-23.892,21.688L369.21,118.346l-23.978,21.771-23.983-21.771L297.27,140.117l-23.977-21.771-23.977,21.771-23.982-21.771-23.979,21.771-23.983-21.771-23.979,21.771-23.979-21.771-23.978,21.771L81.457,118.346,57.479,140.117,33.5,118.346,9.519,140.117l-23.977-21.771-18.88,17.142v1.821l18.88-17.143L9.519,141.937,33.5,120.166l23.982,21.771,23.978-21.771,23.979,21.771,23.978-21.771,23.979,21.771,23.979-21.771,23.983,21.771,23.979-21.771,23.982,21.771,23.977-21.771,23.977,21.771,23.979-21.771,23.983,21.771,23.978-21.771,23.982,21.771,23.892-21.689Z" transform="translate(33.337 -118.346)" fill="#fff"/>
            </g>
            <g id="Group_54807" data-name="Group 54807" transform="translate(-44.912 171.116)">
              <path id="Path_50185" data-name="Path 50185" d="M417.084,127.1l-23.892,21.688L369.21,127.014l-23.978,21.771-23.983-21.771L297.27,148.785l-23.977-21.771-23.977,21.771-23.982-21.771-23.979,21.771-23.983-21.771-23.979,21.771-23.979-21.771-23.978,21.771L81.457,127.014,57.479,148.785,33.5,127.014,9.519,148.785l-23.977-21.771-18.88,17.142v1.821l18.88-17.143L9.519,150.605,33.5,128.834l23.982,21.771,23.978-21.771,23.979,21.771,23.978-21.771,23.979,21.771,23.979-21.771,23.983,21.771,23.979-21.771,23.982,21.771,23.977-21.771,23.977,21.771,23.979-21.771,23.983,21.771,23.978-21.771,23.982,21.771,23.892-21.689Z" transform="translate(33.337 -127.014)" fill="#fff"/>
            </g>
            <g id="Group_54808" data-name="Group 54808" transform="translate(-44.912 182.791)">
              <path id="Path_50186" data-name="Path 50186" d="M417.084,135.764l-23.892,21.688L369.21,135.68l-23.978,21.771L321.249,135.68,297.27,157.451,273.293,135.68l-23.977,21.771L225.335,135.68l-23.979,21.771L177.373,135.68l-23.979,21.771L129.414,135.68l-23.978,21.771L81.457,135.68,57.479,157.451,33.5,135.68,9.519,157.451-14.457,135.68l-18.88,17.142v1.821l18.88-17.143L9.519,159.271,33.5,137.5l23.982,21.771L81.457,137.5l23.979,21.771L129.414,137.5l23.979,21.771L177.373,137.5l23.983,21.771L225.335,137.5l23.982,21.771L273.293,137.5l23.977,21.771L321.249,137.5l23.983,21.771L369.21,137.5l23.982,21.771,23.892-21.689Z" transform="translate(33.337 -135.68)" fill="#fff"/>
            </g>
            <g id="Group_54809" data-name="Group 54809" transform="translate(-44.912 194.469)">
              <path id="Path_50187" data-name="Path 50187" d="M417.084,144.432l-23.892,21.688L369.21,144.348l-23.978,21.771-23.983-21.771L297.27,166.119l-23.977-21.771-23.977,21.771-23.982-21.771-23.979,21.771-23.983-21.771-23.979,21.771-23.979-21.771-23.978,21.771L81.457,144.348,57.479,166.119,33.5,144.348,9.519,166.119l-23.977-21.771-18.88,17.142v1.821l18.88-17.143L9.519,167.939,33.5,146.168l23.982,21.771,23.978-21.771,23.979,21.771,23.978-21.771,23.979,21.771,23.979-21.771,23.983,21.771,23.979-21.771,23.982,21.771,23.977-21.771,23.977,21.771,23.979-21.771,23.983,21.771,23.978-21.771,23.982,21.771,23.892-21.689Z" transform="translate(33.337 -144.348)" fill="#fff"/>
            </g>
            <g id="Group_54810" data-name="Group 54810" transform="translate(-44.912 206.144)">
              <path id="Path_50188" data-name="Path 50188" d="M417.084,153.1l-23.892,21.688L369.21,153.014l-23.978,21.771-23.983-21.771L297.27,174.785l-23.977-21.771-23.977,21.771-23.982-21.771-23.979,21.771-23.983-21.771-23.979,21.771-23.979-21.771-23.978,21.771L81.457,153.014,57.479,174.785,33.5,153.014,9.519,174.785l-23.977-21.771-18.88,17.142v1.821l18.88-17.143L9.519,176.605,33.5,154.834l23.982,21.771,23.978-21.771,23.979,21.771,23.978-21.771,23.979,21.771,23.979-21.771,23.983,21.771,23.979-21.771,23.982,21.771,23.977-21.771,23.977,21.771,23.979-21.771,23.983,21.771,23.978-21.771,23.982,21.771,23.892-21.689Z" transform="translate(33.337 -153.014)" fill="#fff"/>
            </g>
            <g id="Group_54811" data-name="Group 54811" transform="translate(-44.912 217.822)">
              <path id="Path_50189" data-name="Path 50189" d="M417.084,161.766l-23.892,21.688L369.21,161.682l-23.978,21.771-23.983-21.771L297.27,183.453l-23.977-21.771-23.977,21.771-23.982-21.771-23.979,21.771-23.983-21.771-23.979,21.771-23.979-21.771-23.978,21.771L81.457,161.682,57.479,183.453,33.5,161.682,9.519,183.453l-23.977-21.771-18.88,17.142v1.821l18.88-17.143L9.519,185.273,33.5,163.5l23.982,21.771L81.457,163.5l23.979,21.771L129.414,163.5l23.979,21.771L177.373,163.5l23.983,21.771L225.335,163.5l23.982,21.771L273.293,163.5l23.977,21.771L321.249,163.5l23.983,21.771L369.21,163.5l23.982,21.771,23.892-21.689Z" transform="translate(33.337 -161.682)" fill="#fff"/>
            </g>
            <g id="Group_54812" data-name="Group 54812" transform="translate(-44.912 229.497)">
              <path id="Path_50190" data-name="Path 50190" d="M417.084,170.432l-23.892,21.688L369.21,170.348l-23.978,21.771-23.983-21.771L297.27,192.119l-23.977-21.771-23.977,21.771-23.982-21.771-23.979,21.771-23.983-21.771-23.979,21.771-23.979-21.771-23.978,21.771L81.457,170.348,57.479,192.119,33.5,170.348,9.519,192.119l-23.977-21.771-18.88,17.142v1.821l18.88-17.143L9.519,193.939,33.5,172.168l23.982,21.771,23.978-21.771,23.979,21.771,23.978-21.771,23.979,21.771,23.979-21.771,23.983,21.771,23.979-21.771,23.982,21.771,23.977-21.771,23.977,21.771,23.979-21.771,23.983,21.771,23.978-21.771,23.982,21.771,23.892-21.689Z" transform="translate(33.337 -170.348)" fill="#fff"/>
            </g>
            <g id="Group_54813" data-name="Group 54813" transform="translate(-44.912 241.174)">
              <path id="Path_50191" data-name="Path 50191" d="M417.084,179.1l-23.892,21.688L369.21,179.016l-23.978,21.771-23.983-21.771L297.27,200.787l-23.977-21.771-23.977,21.771-23.982-21.771-23.979,21.771-23.983-21.771-23.979,21.771-23.979-21.771-23.978,21.771L81.457,179.016,57.479,200.787,33.5,179.016,9.519,200.787l-23.977-21.771-18.88,17.142v1.821l18.88-17.143L9.519,202.607,33.5,180.836l23.982,21.771,23.978-21.771,23.979,21.771,23.978-21.771,23.979,21.771,23.979-21.771,23.983,21.771,23.979-21.771,23.982,21.771,23.977-21.771,23.977,21.771,23.979-21.771,23.983,21.771,23.978-21.771,23.982,21.771,23.892-21.689Z" transform="translate(33.337 -179.016)" fill="#fff"/>
            </g>
            <g id="Group_54814" data-name="Group 54814" transform="translate(-44.912 252.849)">
              <path id="Path_50192" data-name="Path 50192" d="M417.084,187.766l-23.892,21.688L369.21,187.682l-23.978,21.771-23.983-21.771L297.27,209.453l-23.977-21.771-23.977,21.771-23.982-21.771-23.979,21.771-23.983-21.771-23.979,21.771-23.979-21.771-23.978,21.771L81.457,187.682,57.479,209.453,33.5,187.682,9.519,209.453l-23.977-21.771-18.88,17.142v1.821l18.88-17.143L9.519,211.273,33.5,189.5l23.982,21.771L81.457,189.5l23.979,21.771L129.414,189.5l23.979,21.771L177.373,189.5l23.983,21.771L225.335,189.5l23.982,21.771L273.293,189.5l23.977,21.771L321.249,189.5l23.983,21.771L369.21,189.5l23.982,21.771,23.892-21.689Z" transform="translate(33.337 -187.682)" fill="#fff"/>
            </g>
            <g id="Group_54815" data-name="Group 54815" transform="translate(-44.912 264.527)">
              <path id="Path_50193" data-name="Path 50193" d="M417.084,196.434l-23.892,21.688L369.21,196.35l-23.978,21.771L321.249,196.35,297.27,218.121,273.293,196.35l-23.977,21.771L225.335,196.35l-23.979,21.771L177.373,196.35l-23.979,21.771L129.414,196.35l-23.978,21.771L81.457,196.35,57.479,218.121,33.5,196.35,9.519,218.121-14.457,196.35l-18.88,17.142v1.821l18.88-17.143L9.519,219.941,33.5,198.17l23.982,21.771L81.457,198.17l23.979,21.771,23.978-21.771,23.979,21.771,23.979-21.771,23.983,21.771,23.979-21.771,23.982,21.771,23.977-21.771,23.977,21.771,23.979-21.771,23.983,21.771L369.21,198.17l23.982,21.771,23.892-21.689Z" transform="translate(33.337 -196.35)" fill="#fff"/>
            </g>
            <g id="Group_54816" data-name="Group 54816" transform="translate(-44.912 276.202)">
              <path id="Path_50194" data-name="Path 50194" d="M417.084,205.1l-23.892,21.688L369.21,205.016l-23.978,21.771-23.983-21.771L297.27,226.787l-23.977-21.771-23.977,21.771-23.982-21.771-23.979,21.771-23.983-21.771-23.979,21.771-23.979-21.771-23.978,21.771L81.457,205.016,57.479,226.787,33.5,205.016,9.519,226.787l-23.977-21.771-18.88,17.142v1.821l18.88-17.143L9.519,228.607,33.5,206.836l23.982,21.771,23.978-21.771,23.979,21.771,23.978-21.771,23.979,21.771,23.979-21.771,23.983,21.771,23.979-21.771,23.982,21.771,23.977-21.771,23.977,21.771,23.979-21.771,23.983,21.771,23.978-21.771,23.982,21.771,23.892-21.689Z" transform="translate(33.337 -205.016)" fill="#fff"/>
            </g>
            <g id="Group_54817" data-name="Group 54817" transform="translate(-44.912 287.88)">
              <path id="Path_50195" data-name="Path 50195" d="M417.084,213.768l-23.892,21.688L369.21,213.684l-23.978,21.771-23.983-21.771L297.27,235.455l-23.977-21.771-23.977,21.771-23.982-21.771-23.979,21.771-23.983-21.771-23.979,21.771-23.979-21.771-23.978,21.771L81.457,213.684,57.479,235.455,33.5,213.684,9.519,235.455l-23.977-21.771-18.88,17.142v1.821l18.88-17.143L9.519,237.275,33.5,215.5l23.982,21.771L81.457,215.5l23.979,21.771L129.414,215.5l23.979,21.771L177.373,215.5l23.983,21.771L225.335,215.5l23.982,21.771L273.293,215.5l23.977,21.771L321.249,215.5l23.983,21.771L369.21,215.5l23.982,21.771,23.892-21.689Z" transform="translate(33.337 -213.684)" fill="#fff"/>
            </g>
            <g id="Group_54818" data-name="Group 54818" transform="translate(-44.912 299.555)">
              <path id="Path_50196" data-name="Path 50196" d="M417.084,222.434l-23.892,21.688L369.21,222.35l-23.978,21.771L321.249,222.35,297.27,244.121,273.293,222.35l-23.977,21.771L225.335,222.35l-23.979,21.771L177.373,222.35l-23.979,21.771L129.414,222.35l-23.978,21.771L81.457,222.35,57.479,244.121,33.5,222.35,9.519,244.121-14.457,222.35l-18.88,17.142v1.821l18.88-17.143L9.519,245.941,33.5,224.17l23.982,21.771L81.457,224.17l23.979,21.771,23.978-21.771,23.979,21.771,23.979-21.771,23.983,21.771,23.979-21.771,23.982,21.771,23.977-21.771,23.977,21.771,23.979-21.771,23.983,21.771L369.21,224.17l23.982,21.771,23.892-21.689Z" transform="translate(33.337 -222.35)" fill="#fff"/>
            </g>
            <g id="Group_54819" data-name="Group 54819" transform="translate(-44.912 311.233)">
              <path id="Path_50197" data-name="Path 50197" d="M417.084,231.1l-23.892,21.688L369.21,231.018l-23.978,21.771-23.983-21.771L297.27,252.789l-23.977-21.771-23.977,21.771-23.982-21.771-23.979,21.771-23.983-21.771-23.979,21.771-23.979-21.771-23.978,21.771L81.457,231.018,57.479,252.789,33.5,231.018,9.519,252.789l-23.977-21.771-18.88,17.142v1.821l18.88-17.143L9.519,254.609,33.5,232.838l23.982,21.771,23.978-21.771,23.979,21.771,23.978-21.771,23.979,21.771,23.979-21.771,23.983,21.771,23.979-21.771,23.982,21.771,23.977-21.771,23.977,21.771,23.979-21.771,23.983,21.771,23.978-21.771,23.982,21.771,23.892-21.689Z" transform="translate(33.337 -231.018)" fill="#fff"/>
            </g>
            <g id="Group_54820" data-name="Group 54820" transform="translate(-44.912 322.908)">
              <path id="Path_50198" data-name="Path 50198" d="M417.084,239.768l-23.892,21.688L369.21,239.684l-23.978,21.771-23.983-21.771L297.27,261.455l-23.977-21.771-23.977,21.771-23.982-21.771-23.979,21.771-23.983-21.771-23.979,21.771-23.979-21.771-23.978,21.771L81.457,239.684,57.479,261.455,33.5,239.684,9.519,261.455l-23.977-21.771-18.88,17.142v1.821l18.88-17.143L9.519,263.275,33.5,241.5l23.982,21.771L81.457,241.5l23.979,21.771L129.414,241.5l23.979,21.771L177.373,241.5l23.983,21.771L225.335,241.5l23.982,21.771L273.293,241.5l23.977,21.771L321.249,241.5l23.983,21.771L369.21,241.5l23.982,21.771,23.892-21.689Z" transform="translate(33.337 -239.684)" fill="#fff"/>
            </g>
            <g id="Group_54821" data-name="Group 54821" transform="translate(-44.912 334.585)">
              <path id="Path_50199" data-name="Path 50199" d="M417.084,248.436l-23.892,21.688L369.21,248.352l-23.978,21.771-23.983-21.771L297.27,270.123l-23.977-21.771-23.977,21.771-23.982-21.771-23.979,21.771-23.983-21.771-23.979,21.771-23.979-21.771-23.978,21.771L81.457,248.352,57.479,270.123,33.5,248.352,9.519,270.123l-23.977-21.771-18.88,17.142v1.821l18.88-17.143L9.519,271.943,33.5,250.172l23.982,21.771,23.978-21.771,23.979,21.771,23.978-21.771,23.979,21.771,23.979-21.771,23.983,21.771,23.979-21.771,23.982,21.771,23.977-21.771,23.977,21.771,23.979-21.771,23.983,21.771,23.978-21.771,23.982,21.771,23.892-21.689Z" transform="translate(33.337 -248.352)" fill="#fff"/>
            </g>
            <g id="Group_54822" data-name="Group 54822" transform="translate(-44.912 346.26)">
              <path id="Path_50200" data-name="Path 50200" d="M417.084,257.1l-23.892,21.688L369.21,257.018l-23.978,21.771-23.983-21.771L297.27,278.789l-23.977-21.771-23.977,21.771-23.982-21.771-23.979,21.771-23.983-21.771-23.979,21.771-23.979-21.771-23.978,21.771L81.457,257.018,57.479,278.789,33.5,257.018,9.519,278.789l-23.977-21.771-18.88,17.142v1.821l18.88-17.143L9.519,280.609,33.5,258.838l23.982,21.771,23.978-21.771,23.979,21.771,23.978-21.771,23.979,21.771,23.979-21.771,23.983,21.771,23.979-21.771,23.982,21.771,23.977-21.771,23.977,21.771,23.979-21.771,23.983,21.771,23.978-21.771,23.982,21.771,23.892-21.689Z" transform="translate(33.337 -257.018)" fill="#fff"/>
            </g>
            <g id="Group_54823" data-name="Group 54823" transform="translate(-44.912 357.937)">
              <path id="Path_50201" data-name="Path 50201" d="M417.084,265.77l-23.892,21.688L369.21,265.685l-23.978,21.772-23.983-21.772L297.27,287.457l-23.977-21.772-23.977,21.772-23.982-21.772-23.979,21.772-23.983-21.772-23.979,21.772-23.979-21.772-23.978,21.772L81.457,265.685,57.479,287.457,33.5,265.685,9.519,287.457l-23.977-21.772-18.88,17.143v1.821l18.88-17.143L9.519,289.278,33.5,267.506l23.982,21.771,23.978-21.771,23.979,21.771,23.978-21.771,23.979,21.771,23.979-21.771,23.983,21.771,23.979-21.771,23.982,21.771,23.977-21.771,23.977,21.771,23.979-21.771,23.983,21.771,23.978-21.771,23.982,21.771,23.892-21.689Z" transform="translate(33.337 -265.685)" fill="#fff"/>
            </g>
            <g id="Group_54824" data-name="Group 54824" transform="translate(-44.912 369.613)">
              <path id="Path_50202" data-name="Path 50202" d="M417.084,274.436l-23.892,21.688L369.21,274.352l-23.978,21.771-23.983-21.771L297.27,296.123l-23.977-21.771-23.977,21.771-23.982-21.771-23.979,21.771-23.983-21.771-23.979,21.771-23.979-21.771-23.978,21.771L81.457,274.352,57.479,296.123,33.5,274.352,9.519,296.123l-23.977-21.771-18.88,17.142v1.821l18.88-17.143L9.519,297.943,33.5,276.172l23.982,21.771,23.978-21.771,23.979,21.771,23.978-21.771,23.979,21.771,23.979-21.771,23.983,21.771,23.979-21.771,23.982,21.771,23.977-21.771,23.977,21.771,23.979-21.771,23.983,21.771,23.978-21.771,23.982,21.771,23.892-21.689Z" transform="translate(33.337 -274.352)" fill="#fff"/>
            </g>
            <g id="Group_54825" data-name="Group 54825" transform="translate(-44.912 381.291)">
              <path id="Path_50203" data-name="Path 50203" d="M417.084,283.1l-23.892,21.688L369.21,283.02l-23.978,21.771L321.249,283.02,297.27,304.791,273.293,283.02l-23.977,21.771L225.335,283.02l-23.979,21.771L177.373,283.02l-23.979,21.771L129.414,283.02l-23.978,21.771L81.457,283.02,57.479,304.791,33.5,283.02,9.519,304.791-14.457,283.02l-18.88,17.142v1.821l18.88-17.143L9.519,306.611,33.5,284.84l23.982,21.771L81.457,284.84l23.979,21.771,23.978-21.771,23.979,21.771,23.979-21.771,23.983,21.771,23.979-21.771,23.982,21.771,23.977-21.771,23.977,21.771,23.979-21.771,23.983,21.771L369.21,284.84l23.982,21.771,23.892-21.689Z" transform="translate(33.337 -283.02)" fill="#fff"/>
            </g>
            <g id="Group_54826" data-name="Group 54826" transform="translate(-41.096 392.965)">
              <path id="Path_50204" data-name="Path 50204" d="M149.491,305.363l13.059-11.857,13.061,11.857h2L162.55,291.685l-15.065,13.678Z" transform="translate(92.306 -291.685)" fill="#fff"/>
              <path id="Path_50205" data-name="Path 50205" d="M185.09,305.363l13.057-11.857L211.2,305.363h2.006l-15.063-13.678-15.063,13.678Z" transform="translate(104.666 -291.685)" fill="#fff"/>
              <path id="Path_50206" data-name="Path 50206" d="M256.285,305.363l13.059-11.857L282.4,305.363h2.006l-15.067-13.678L254.28,305.363Z" transform="translate(129.387 -291.685)" fill="#fff"/>
              <path id="Path_50207" data-name="Path 50207" d="M220.684,305.363l13.06-11.857L246.8,305.363h2l-15.066-13.678-15.065,13.678Z" transform="translate(117.026 -291.685)" fill="#fff"/>
              <path id="Path_50208" data-name="Path 50208" d="M304.856,291.748,289.88,305.341h2.006l12.97-11.775Z" transform="translate(141.748 -291.663)" fill="#fff"/>
              <path id="Path_50209" data-name="Path 50209" d="M42.695,305.363l13.059-11.857,13.059,11.857h2.006L55.753,291.685,40.69,305.363Z" transform="translate(55.224 -291.685)" fill="#fff"/>
              <path id="Path_50210" data-name="Path 50210" d="M-28.5,305.363l13.059-11.857,13.059,11.857h2l-15.063-13.678L-30.5,305.363Z" transform="translate(30.504 -291.685)" fill="#fff"/>
              <path id="Path_50211" data-name="Path 50211" d="M78.292,305.363,91.35,293.506l13.06,11.857h2L91.35,291.685,76.287,305.363Z" transform="translate(67.584 -291.685)" fill="#fff"/>
              <path id="Path_50212" data-name="Path 50212" d="M113.89,305.363l13.059-11.857,13.061,11.857h2l-15.066-13.678-15.065,13.678Z" transform="translate(79.944 -291.685)" fill="#fff"/>
              <path id="Path_50213" data-name="Path 50213" d="M7.1,305.363l13.057-11.857,13.06,11.857H35.22L20.154,291.685,5.091,305.363Z" transform="translate(42.863 -291.685)" fill="#fff"/>
            </g>
            <g id="Group_54827" data-name="Group 54827" transform="translate(-28.235 404.642)">
              <path id="Path_50214" data-name="Path 50214" d="M265.831,302.354l.2-.179.2.179h2.006l-2.205-2-2.2,2Z" transform="translate(119.841 -300.353)" fill="url(#linear-gradient-2)"/>
              <path id="Path_50215" data-name="Path 50215" d="M194.634,302.354l.2-.179.2.179h2l-2.2-2-2.2,2Z" transform="translate(95.12 -300.353)" fill="url(#linear-gradient-3)"/>
              <path id="Path_50216" data-name="Path 50216" d="M230.23,302.354l.2-.179.2.179h2.006l-2.2-2-2.2,2Z" transform="translate(107.48 -300.353)" fill="url(#linear-gradient-4)"/>
              <path id="Path_50217" data-name="Path 50217" d="M159.037,302.354l.2-.179.2.179h2.006l-2.205-2-2.2,2Z" transform="translate(82.76 -300.353)" fill="url(#linear-gradient-5)"/>
              <path id="Path_50218" data-name="Path 50218" d="M-18.953,302.354l.2-.179.2.179h2l-2.2-2-2.2,2Z" transform="translate(20.958 -300.353)" fill="url(#linear-gradient-6)"/>
              <path id="Path_50219" data-name="Path 50219" d="M123.436,302.354l.2-.179.2.179h2.006l-2.205-2-2.2,2Z" transform="translate(70.398 -300.353)" fill="url(#linear-gradient-7)"/>
              <path id="Path_50220" data-name="Path 50220" d="M16.642,302.354l.2-.179.2.179h2.006l-2.205-2-2.2,2Z" transform="translate(33.317 -300.353)" fill="url(#linear-gradient-8)"/>
              <path id="Path_50221" data-name="Path 50221" d="M87.838,302.354l.2-.179.2.179h2l-2.2-2-2.2,2Z" transform="translate(58.038 -300.353)" fill="url(#linear-gradient-9)"/>
              <path id="Path_50222" data-name="Path 50222" d="M52.241,302.354l.2-.179.2.179h2l-2.2-2-2.2,2Z" transform="translate(45.678 -300.353)" fill="url(#linear-gradient-10)"/>
            </g>
          </g>
        </g>
      </g>
    </g>
  </g>
</svg>
