<?xml version="1.0" encoding="UTF-8"?>
<svg id="Layer_1" data-name="Layer 1" xmlns="http://www.w3.org/2000/svg" viewBox="0 0 100 100">
  <defs>
    <style>
      .cls-1 {
        fill: #00be55;
      }

      .cls-2 {
        fill: #044783;
      }
    </style>
  </defs>
  <path class="cls-2" d="M41.01,17.85h8.29c1.59.06,3-1.02,3.37-2.57l.29-1.63h-15.61c.08.91.31,1.8.68,2.63.66.99,1.78,1.58,2.98,1.57Z"/>
  <path class="cls-1" d="M69.37,27.37c-10.66-.17-20.57,7.81-20.42,17.61.02,3.11.96,6.15,2.7,8.73.54.76.67,1.74.36,2.62l-2.98,7.64c-.25.7.11,1.46.81,1.71.28.1.59.11.88.01l10.7-3.88c.51-.2,1.07-.23,1.61-.09,29.33,7.21,38.47-32.44,6.35-34.35ZM60.47,44.76c.01-.73.61-1.31,1.34-1.3.71.01,1.29.59,1.3,1.3-.01.73-.61,1.31-1.34,1.3-.71-.01-1.29-.59-1.3-1.3h0ZM69.37,46.08c-.73-.01-1.31-.61-1.3-1.34.01-.71.59-1.29,1.3-1.3.73.01,1.31.61,1.29,1.34-.01.71-.58,1.28-1.29,1.29h0ZM76.95,46.08c-.73-.01-1.31-.61-1.3-1.34.01-.71.59-1.29,1.3-1.3.73,0,1.32.59,1.32,1.32,0,.73-.59,1.32-1.32,1.32h0Z"/>
  <path class="cls-2" d="M51.61,68.17c-2.08.71-4.35-.4-5.06-2.48-.3-.87-.29-1.81.03-2.67l2.96-7.65c-9.45-14.11,3.11-30.95,19.83-30.63v-3.95c0-3.94-3.19-7.13-7.12-7.14h-6.6l-.39,2.11c-.58,2.81-3.09,4.8-5.95,4.73h-8.29c-2.87.07-5.38-1.93-5.96-4.74l-.38-2.09h-6.6c-3.93,0-7.12,3.2-7.12,7.14v59.45c0,3.93,3.19,7.13,7.12,7.14h34.18c3.94,0,7.13-3.2,7.12-7.14v-15.01c-2.39,0-4.77-.33-7.07-.99l-10.69,3.92ZM32.9,67.7h7.9c.73.02,1.3.62,1.29,1.35-.02.7-.58,1.27-1.29,1.29h-7.9c-.73-.01-1.31-.61-1.3-1.34.01-.71.59-1.29,1.3-1.3h0ZM46.2,76.43h-13.3c-.73-.01-1.31-.61-1.3-1.34.01-.71.59-1.29,1.3-1.3h13.3c.73,0,1.32.59,1.32,1.32,0,.73-.59,1.32-1.32,1.32Z"/>
</svg>