<?xml version="1.0" encoding="UTF-8"?>
<svg id="Layer_1" data-name="Layer 1" xmlns="http://www.w3.org/2000/svg" viewBox="0 0 100 100">
  <defs>
    <style>
      .cls-1 {
        fill: #00be55;
      }

      .cls-2 {
        fill: #044783;
      }
    </style>
  </defs>
  <path class="cls-2" d="M83.16,21.12H16.84v29.03c0,1.22.99,2.21,2.21,2.21h61.89c1.22,0,2.21-.99,2.21-2.21v-29.03ZM72.1,47.94H27.9c-1.22,0-2.21-.99-2.21-2.21s.99-2.21,2.21-2.21h2.21v-3.98c0-1.22.99-2.21,2.21-2.21s2.21.99,2.21,2.21v3.98h4.42v-11.35c0-1.22.99-2.21,2.21-2.21s2.21.99,2.21,2.21v11.35h4.42v-15.77c0-1.22.99-2.21,2.21-2.21s2.21.99,2.21,2.21v15.77h4.42v-5.45c0-1.22.99-2.21,2.21-2.21s2.21.99,2.21,2.21v5.45h4.42v-11.35c0-1.22.99-2.21,2.21-2.21s2.21.99,2.21,2.21v11.35h2.21c1.22,0,2.21.99,2.21,2.21s-.99,2.21-2.21,2.21Z"/>
  <path class="cls-2" d="M14.63,16.7h70.73c1.22,0,2.21-.99,2.21-2.21s-.99-2.21-2.21-2.21H14.63c-1.22,0-2.21.99-2.21,2.21s.99,2.21,2.21,2.21Z"/>
  <circle class="cls-1" cx="50" cy="64.88" r="6.63"/>
  <path class="cls-1" d="M57.33,73.15c-1.95,1.73-4.52,2.79-7.33,2.79s-5.38-1.06-7.33-2.79c-2.25,1.6-3.72,4.23-3.72,7.21v7.37h22.1v-7.37c0-2.98-1.47-5.61-3.72-7.21Z"/>
  <circle class="cls-1" cx="76.52" cy="64.88" r="6.63"/>
  <path class="cls-1" d="M83.85,73.15c-1.95,1.73-4.52,2.79-7.33,2.79s-5.38-1.06-7.33-2.79c-2.25,1.6-3.72,4.23-3.72,7.21v7.37h19.89c1.22,0,2.21-.99,2.21-2.21v-5.16c0-2.98-1.47-5.61-3.72-7.21Z"/>
  <circle class="cls-1" cx="23.48" cy="64.88" r="6.63"/>
  <path class="cls-1" d="M30.8,73.15c-1.95,1.73-4.52,2.79-7.33,2.79s-5.38-1.06-7.33-2.79c-2.25,1.6-3.72,4.23-3.72,7.21v5.16c0,1.22.99,2.21,2.21,2.21h19.89v-7.37c0-2.98-1.47-5.61-3.72-7.21Z"/>
</svg>