<?xml version="1.0" encoding="UTF-8"?>
<svg id="Layer_1" data-name="Layer 1" xmlns="http://www.w3.org/2000/svg" viewBox="0 0 100 100">
  <defs>
    <style>
      .cls-1 {
        fill: #00be55;
      }

      .cls-2 {
        fill: #044783;
      }
    </style>
  </defs>
  <g id="_1" data-name=" 1">
    <path class="cls-2" d="M87.34,27.6v41.07c0,4.12-3.34,7.47-7.47,7.47-6.24,0-18.44,0-23.78,3.73h31.25c2.06,0,3.73-1.67,3.73-3.73V31.33c0-2.06-1.67-3.73-3.73-3.73Z"/>
    <path class="cls-2" d="M12.66,68.67V27.6c-2.06,0-3.73,1.67-3.73,3.73v44.8c0,2.06,1.67,3.73,3.73,3.73h31.25c-5.3-3.73-17.55-3.73-23.78-3.73-4.12,0-7.47-3.34-7.47-7.47Z"/>
    <path class="cls-2" d="M35.8,48.35c-1.01,1.01-1.01,2.68,0,3.68l2.13,2.11c.5.5.91,1.51.91,2.22v2.99c0,1.44,1.15,2.59,2.59,2.59h2.98c.73,0,1.72.41,2.23.91l1.49,1.51v14.32c-4.87-5.73-16.96-6.29-28-6.29-2.06,0-3.74-1.68-3.74-3.74V23.86c0-2.05,1.68-3.73,3.74-3.73,10.23,0,21.33.5,28,5.07v10.81l-1.49,1.51c-.5.5-1.51.91-2.23.91h-2.98c-1.44,0-2.59,1.15-2.59,2.57v3.01c0,.7-.41,1.71-.91,2.22l-2.13,2.11Z"/>
    <path class="cls-2" d="M83.61,23.86v44.81c0,2.06-1.68,3.74-3.74,3.74-11.03,0-23.13.56-28,6.29v-13.29s.02-.01.03-.02c.19-.09.38-.24.52-.39l2.11-2.13c.5-.5,1.51-.91,2.23-.91h2.98c1.44,0,2.59-1.15,2.59-2.59v-2.99c0-.72.42-1.71.92-2.22l2.12-2.11c1.01-1.01,1.01-2.68,0-3.68l-2.12-2.11c-.5-.5-.92-1.51-.92-2.22v-3.01c0-1.42-1.15-2.57-2.59-2.57h-2.98c-.71,0-1.72-.43-2.23-.91l-2.11-2.13c-.15-.15-.34-.29-.52-.39-.01-.01-.02-.01-.03-.01v-9.79c6.67-4.57,17.77-5.07,28-5.07,2.06,0,3.74,1.68,3.74,3.73Z"/>
  </g>
  <path class="cls-1" d="M65.38,48.35l-2.12-2.11c-.5-.5-.92-1.51-.92-2.22v-3.01c0-1.42-1.15-2.57-2.59-2.57h-2.98c-.71,0-1.72-.43-2.23-.91l-2.11-2.13c-.15-.15-.34-.29-.52-.39-.01-.01-.02-.01-.03-.01-.99-.59-2.27-.45-3.12.4l-.58.58-.04.04-1.49,1.51c-.5.5-1.51.91-2.23.91h-2.98c-1.44,0-2.59,1.15-2.59,2.57v3.01c0,.7-.41,1.71-.91,2.22l-2.13,2.11c-1.01,1.01-1.01,2.68,0,3.68l2.13,2.11c.5.5.91,1.51.91,2.22v2.99c0,1.44,1.15,2.59,2.59,2.59h2.98c.73,0,1.72.41,2.23.91l1.49,1.51.62.62c.85.84,2.13.99,3.12.41.01-.01.02-.01.03-.02.19-.09.38-.24.52-.39l2.11-2.13c.5-.5,1.51-.91,2.23-.91h2.98c1.44,0,2.59-1.15,2.59-2.59v-2.99c0-.72.42-1.71.92-2.22l2.12-2.11c1.01-1.01,1.01-2.68,0-3.68ZM48.53,56.03l-.36-.36-5.35-5.37,1.83-1.83,3.88,3.88,3.38-3.38,4.63-4.61,1.83,1.83-9.84,9.84Z"/>
</svg>