<?xml version="1.0" encoding="UTF-8"?>
<svg id="Layer_1" data-name="Layer 1" xmlns="http://www.w3.org/2000/svg" viewBox="0 0 100 100">
  <defs>
    <style>
      .cls-1 {
        fill: #00be55;
      }

      .cls-2 {
        fill: #044783;
      }
    </style>
  </defs>
  <g>
    <path class="cls-1" d="M88.36,56.48c-2.54-2.54-6.67-2.54-9.21,0l-3.01,3.03,9.21,9.21,3-3c2.56-2.56,2.56-6.67,0-9.23h0Z"/>
    <path class="cls-1" d="M73.23,62.44l-16.07,16.04c-.33.36-.55.8-.63,1.27l-1.21,7.14c-.28,1.57,1.1,2.92,2.67,2.67l7.14-1.21c.47-.08.91-.3,1.24-.63l16.07-16.07-9.21-9.21Z"/>
  </g>
  <g>
    <path class="cls-2" d="M60.95,26.79h-23.7c-2.25,0-4.08-1.83-4.08-4.08v-6.21c0-2.25,1.83-4.08,4.08-4.08h23.7c2.25,0,4.08,1.83,4.08,4.08v6.21c0,2.25-1.83,4.08-4.08,4.08Z"/>
    <path class="cls-2" d="M72.6,19.61h-3.43v3.1c0,4.53-3.68,8.21-8.21,8.21h-23.7c-4.53,0-8.21-3.68-8.21-8.21v-3.1h-3.49c-5.43,0-9.84,4.41-9.84,9.84v50.3c0,5.43,4.41,9.84,9.84,9.84h26.06c-.42-1.08-.58-2.25-.37-3.41l1.21-7.12c.21-1.26.79-2.43,1.66-3.38l17.54-17.52,4.56-4.59c1.69-1.7,3.87-2.7,6.21-2.99v-21.1c0-5.48-4.38-9.87-9.83-9.87h0ZM39.56,67.39c1,1,1,2.61,0,3.6-.5.5-1.15.75-1.8.75s-1.3-.25-1.8-.75l-3.3-3.3-3.3,3.3c-.5.5-1.15.75-1.8.75s-1.3-.25-1.8-.75c-1-1-1-2.61,0-3.6l3.29-3.3-3.3-3.3c-1-1-1-2.61,0-3.6s2.61-1,3.6,0l3.3,3.3,3.3-3.3c1-1,2.61-1,3.6,0s1,2.61,0,3.6l-3.3,3.3,3.29,3.3ZM42.11,42.96l-7.65,7.65c-.5.5-1.15.75-1.8.75s-1.3-.25-1.8-.75l-5.1-5.1c-1-1-1-2.61,0-3.6s2.61-1,3.6,0l3.29,3.3,5.84-5.84c1-1,2.61-1,3.6,0,1,1,1,2.61,0,3.6ZM63.48,45.89h-16.13c-1.17,0-2.13-.95-2.13-2.13h0c0-1.17.95-2.13,2.13-2.13h16.13c1.17,0,2.13.95,2.13,2.13h0c0,1.17-.95,2.13-2.13,2.13ZM57.18,66.95h-9.82c-1.17,0-2.13-.95-2.13-2.13h0c0-1.17.95-2.13,2.13-2.13h9.82c1.17,0,2.13.95,2.13,2.13h0c0,1.17-.95,2.13-2.13,2.13Z"/>
  </g>
</svg>