<?xml version="1.0" encoding="UTF-8"?>
<svg id="Layer_1" data-name="Layer 1" xmlns="http://www.w3.org/2000/svg" viewBox="0 0 100 100">
  <defs>
    <style>
      .cls-1 {
        fill: #00be55;
      }

      .cls-2 {
        fill: #044783;
      }
    </style>
  </defs>
  <path class="cls-2" d="M85.53,21.39l2.8-5.24c.24-.49.12-.97-.12-1.34-2.44-2.8-3.29-3.29-6.94-3.78-.49-.12-.97.24-1.22.61l-2.8,5.24-6.34,11.82-20.71-17.42c-.49-.37-1.1-.37-1.58,0L12.43,42.71c-.85.73-1.1,1.83-.73,2.92s1.34,1.71,2.44,1.71h1.71v37.16c0,2.44,2.07,4.51,4.51,4.51h57.99c2.44,0,4.51-2.07,4.51-4.51v-37.16h1.83c1.1,0,2.07-.73,2.44-1.71s.12-2.19-.73-2.92l-8.28-7.31s-.12,0-.12-.12l7.55-13.89q-.12,0,0,0h0ZM48.25,79.98c-4.02-1.58-8.04-2.31-12.06-2.31s-8.04.73-12.06,2.31v-32.28c8.65-2.68,16.81-2.68,24,0v32.28h.12ZM74.69,79.98c-7.92-3.05-16.08-3.05-24,0v-32.28c3.53-1.34,7.31-1.95,11.21-1.95l-.73,1.34c-.12.12-.12.24-.12.37v.12l-.97,9.26c0,.49.24.97.61,1.22.12.12.37.12.61.12s.61-.12.73-.24l7.07-5.97c.12-.12.24-.24.24-.37l2.44-4.51c.97.24,1.83.49,2.8.73v32.16h.12ZM67.99,49.28l-4.02-2.19,14.74-27.9,4.02,2.19-14.74,27.9Z"/>
  <path class="cls-1" d="M43.74,53.18v6.09c0,.73-.49,1.22-1.22,1.22h-12.67c-.73,0-1.22-.49-1.22-1.22v-6.09c0-.73.49-1.22,1.22-1.22h12.67c.73,0,1.22.61,1.22,1.22Z"/>
  <path class="cls-1" d="M42.52,65.12h-12.67c-.73,0-1.22.49-1.22,1.22s.49,1.22,1.22,1.22h12.67c.73,0,1.22-.49,1.22-1.22s-.49-1.22-1.22-1.22Z"/>
  <path class="cls-1" d="M42.52,71.94h-12.67c-.73,0-1.22.49-1.22,1.22s.49,1.22,1.22,1.22h12.67c.73,0,1.22-.49,1.22-1.22s-.49-1.22-1.22-1.22Z"/>
  <path class="cls-1" d="M56.9,67.44h12.06c.73,0,1.22-.49,1.22-1.22s-.49-1.22-1.22-1.22h-12.06c-.73,0-1.22.49-1.22,1.22s.61,1.22,1.22,1.22h0Z"/>
  <path class="cls-1" d="M70.3,72.92c0-.73-.49-1.22-1.22-1.22h-12.06c-.73,0-1.22.49-1.22,1.22s.49,1.22,1.22,1.22h12.06c.61,0,1.22-.49,1.22-1.22h0Z"/>
</svg>