<?xml version="1.0" encoding="UTF-8"?>
<svg id="Layer_1" data-name="Layer 1" xmlns="http://www.w3.org/2000/svg" viewBox="0 0 100 100">
  <defs>
    <style>
      .cls-1 {
        fill: #00be55;
      }

      .cls-2 {
        fill: #044783;
      }
    </style>
  </defs>
  <g>
    <path class="cls-2" d="M61.8,28.48c-4.73-3.8-10.71-6.07-17.22-6.07-15.21,0-27.59,12.37-27.59,27.59s12.37,27.59,27.59,27.59,27.58-12.37,27.58-27.59c0-3.17-.54-6.21-1.53-9.04l7.99-5.64c1.95,4.5,3.03,9.46,3.03,14.67,0,20.45-16.63,37.07-37.07,37.07S7.51,70.45,7.51,50,24.14,12.93,44.59,12.93c9.73,0,18.58,3.77,25.2,9.92"/>
    <path class="cls-2" d="M66.67,50c0,12.17-9.91,22.08-22.08,22.08s-22.09-9.91-22.09-22.08,9.91-22.08,22.09-22.08c4.64,0,8.95,1.44,12.5,3.89l-7.3,5.15-.15.38c-1.56-.63-3.26-.97-5.05-.97-7.52,0-13.65,6.11-13.65,13.63s6.12,13.63,13.65,13.63,13.63-6.11,13.63-13.63c0-.18,0-.36-.02-.53l.4-.02,7.31-5.16c.49,1.82.75,3.74.75,5.71Z"/>
    <path class="cls-2" d="M51.91,50c0,4.05-3.27,7.33-7.32,7.33s-7.33-3.28-7.33-7.33,3.27-7.33,7.33-7.33c.95,0,1.86.18,2.7.53l-2.74,6.83,7.35-.31c.01.1.01.18.01.28Z"/>
  </g>
  <g>
    <polygon class="cls-2" points="46.72 47.06 48.08 48.99 45.9 49.08 46.72 47.06"/>
    <polygon class="cls-1" points="50.5 37.61 58.22 48.56 49.19 48.95 47.13 46.03 50.5 37.61"/>
    <path class="cls-2" d="M82.58,14.92l.8-.57c1.42-1,3.37-.66,4.37.76l4.16,5.9c1,1.42.66,3.37-.76,4.37l-.8.57-7.78-11.03Z"/>
    <rect class="cls-1" x="51.7" y="25.01" width="37.43" height="13.49" transform="translate(-5.43 46.4) rotate(-35.2)"/>
  </g>
</svg>