<?xml version="1.0" encoding="UTF-8"?>
<svg id="Layer_1" data-name="Layer 1" xmlns="http://www.w3.org/2000/svg" viewBox="0 0 100 100">
  <defs>
    <style>
      .cls-1 {
        fill: #044783;
      }

      .cls-1, .cls-2 {
        fill-rule: evenodd;
      }

      .cls-2 {
        fill: #00be55;
      }
    </style>
  </defs>
  <g id="Layer_1-2" data-name="Layer_1">
    <path class="cls-1" d="M73.66,85.41h-39.98c.08-.21.12-.46.12-.66v-12.83c0-1.12-.95-2.08-2.08-2.08h-11.96c-.25,0-.5.04-.71.12V21.85c0-.37.29-.71.71-.71h53.89c.37,0,.66.33.66.71v62.9c0,.37-.29.66-.66.66ZM66.48,29.28H26.96c-.37,0-.71-.33-.71-.71s.33-.71.71-.71h39.52c.37,0,.66.33.66.71s-.29.71-.66.71ZM66.48,78.69h-23.33c-.37,0-.71-.29-.71-.71,0-.37.33-.66.71-.66h23.33c.37,0,.66.29.66.66,0,.42-.29.71-.66.71ZM66.48,68.81h-26.24c-.37,0-.71-.29-.71-.71,0-.37.33-.66.71-.66h26.24c.37,0,.66.29.66.66,0,.42-.29.71-.66.71ZM66.48,58.93H26.96c-.37,0-.71-.29-.71-.71,0-.37.33-.66.71-.66h39.52c.37,0,.66.29.66.66,0,.42-.29.71-.66.71ZM66.48,49.05H26.96c-.37,0-.71-.33-.71-.71s.33-.66.71-.66h39.52c.37,0,.66.29.66.66s-.29.71-.66.71ZM66.48,39.16H26.96c-.37,0-.71-.33-.71-.71s.33-.66.71-.66h39.52c.37,0,.66.29.66.66s-.29.71-.66.71Z"/>
    <path class="cls-2" d="M31.73,85.41c-.21,0-.37-.08-.5-.21l-12-12.79c-.17-.21-.21-.5-.12-.79.12-.25.37-.42.66-.42h11.96c.37,0,.66.33.66.71v12.83c0,.29-.17.54-.42.62-.08.04-.17.04-.25.04Z"/>
    <path class="cls-2" d="M80.22,78.85h-4.48V21.85c0-1.16-.95-2.08-2.08-2.08H25.67v-4.53c0-.37.29-.66.66-.66h53.89c.42,0,.71.29.71.66v62.9c0,.37-.29.71-.71.71Z"/>
  </g>
</svg>