<?xml version="1.0" encoding="UTF-8"?>
<svg id="Layer_1" data-name="Layer 1" xmlns="http://www.w3.org/2000/svg" viewBox="0 0 100 100">
  <defs>
    <style>
      .cls-1 {
        fill: #00be55;
      }

      .cls-2 {
        fill: #044783;
      }
    </style>
  </defs>
  <path class="cls-1" d="M33.21,56.25v-20.28c0-2.67-2.17-4.84-4.84-4.84h-12.03c-1.21,0-2.19.98-2.19,2.19v19.37c0,1.21.98,2.19,2.19,2.19h12.03c1.78,0,3.43.5,4.84,1.38ZM26.02,49.88h-4.69c-2.9-.12-2.9-4.26,0-4.38h4.69c2.9.12,2.9,4.26,0,4.38ZM26.02,40.5h-4.69c-2.9-.12-2.9-4.26,0-4.38h4.69c2.9.12,2.9,4.26,0,4.38Z"/>
  <path class="cls-1" d="M54.46,54.88c1.21,0,2.19-.98,2.19-2.19v-19.37c0-1.21-.98-2.19-2.19-2.19h-12.03c-2.67,0-4.84,2.17-4.84,4.84v20.28c1.41-.87,3.07-1.38,4.84-1.38h12.03ZM44.77,36.13h4.69c2.9.12,2.9,4.26,0,4.38h-4.69c-2.9-.12-2.9-4.26,0-4.38ZM44.77,45.5h4.69c2.9.12,2.9,4.26,0,4.38h-4.69c-2.9-.12-2.9-4.26,0-4.38Z"/>
  <path class="cls-2" d="M83.82,46.14l-8.75-8.75c-.48-13.69-11.72-24.7-25.61-24.7s-22.41,9.15-25.59,14.06h4.49c2.82,0,5.34,1.27,7.03,3.27,1.69-2,4.22-3.27,7.03-3.27h12.03c3.62,0,6.56,2.94,6.56,6.56v19.37c0,3.62-2.94,6.56-6.56,6.56h-12.03c-2.67,0-4.84,2.17-4.84,4.84-.16,3.05-4.51,2.83-4.38-.24l-5.2,20.81c-.16.65-.02,1.35.4,1.88.41.53,1.05.84,1.72.84h25.2c1,0,1.88-.68,2.12-1.66l3.1-12.41h17.04c1.21,0,2.19-.98,2.19-2.19v-17.84l4.05-4.05c.85-.85.85-2.24,0-3.09Z"/>
</svg>