<?xml version="1.0" encoding="UTF-8"?>
<svg id="Layer_1" data-name="Layer 1" xmlns="http://www.w3.org/2000/svg" viewBox="0 0 100 100">
  <defs>
    <style>
      .cls-1 {
        fill: #00be55;
      }

      .cls-2 {
        fill: #044783;
      }
    </style>
  </defs>
  <path class="cls-2" d="M17.51,71.52l-3.71,3.71c-3.03,3.03-3.03,7.95,0,10.98,1.51,1.51,3.5,2.27,5.49,2.27,1.99,0,3.98-.76,5.49-2.27l3.71-3.71-10.98-10.98Z"/>
  <path class="cls-1" d="M71.06,28.95c-3.65-3.65-8.45-5.48-13.25-5.48s-9.59,1.83-13.25,5.48c-7.3,7.3-7.3,19.19,0,26.49,7.3,7.3,19.19,7.3,26.49,0,7.3-7.3,7.3-19.19,0-26.49ZM66.01,44.44h-10.44v-16.1h4.5v11.6h5.95v4.5Z"/>
  <path class="cls-2" d="M79.51,20.5c-5.79-5.79-13.5-8.98-21.69-8.98s-15.9,3.19-21.69,8.98c-10.06,10.06-11.66,25.44-4.79,37.18l-10.65,10.65,10.98,10.98,10.65-10.65c4.65,2.73,9.96,4.19,15.5,4.19,8.19,0,15.9-3.19,21.69-8.98,11.96-11.96,11.96-31.42,0-43.38h0ZM74.24,58.62c-4.53,4.53-10.48,6.79-16.43,6.79s-11.9-2.26-16.43-6.79c-9.06-9.06-9.06-23.8,0-32.85,9.06-9.06,23.8-9.06,32.85,0,9.06,9.06,9.06,23.8,0,32.85h0Z"/>
</svg>