<?xml version="1.0" encoding="UTF-8"?>
<svg id="Layer_1" data-name="Layer 1" xmlns="http://www.w3.org/2000/svg" viewBox="0 0 100 100">
  <defs>
    <style>
      .cls-1 {
        fill: #00be55;
      }

      .cls-2 {
        fill: #044783;
      }
    </style>
  </defs>
  <path class="cls-2" d="M17.76,55.26h16.16v16.31h-15.97c-.09,0-.19-.08-.19-.19v-16.12Z"/>
  <path class="cls-1" d="M44.69,41.54l.02,32.94c5.89.32,11.86,2.08,17.79,5.25v-32.39c-5.93-3.51-11.92-5.46-17.81-5.8ZM60.56,72.28c-.83,1.35-2.25.79-2.57.6-3.27-2.03-6.57-3.06-9.78-3.06-1.03,0-1.86-.83-1.86-1.86s.83-1.86,1.86-1.86c3.92,0,7.86,1.22,11.73,3.6.88.54,1.16,1.69.62,2.57h0ZM60.56,65.6c-.83,1.35-2.25.79-2.57.6-3.27-2.03-6.57-3.06-9.78-3.06-1.03,0-1.86-.83-1.86-1.86s.83-1.86,1.86-1.86c3.92,0,7.86,1.22,11.73,3.6.88.54,1.16,1.69.62,2.57h0ZM60.56,58.92c-.84,1.35-2.25.79-2.57.6-3.27-2.03-6.57-3.06-9.78-3.06-1.03,0-1.86-.83-1.86-1.86s.83-1.86,1.86-1.86c3.92,0,7.86,1.22,11.73,3.6.88.54,1.16,1.69.62,2.57h0ZM60.56,52.24c-.84,1.35-2.25.79-2.57.6-3.27-2.03-6.57-3.06-9.78-3.06-1.03,0-1.86-.83-1.86-1.86s.83-1.86,1.86-1.86c3.92,0,7.86,1.22,11.73,3.6.88.54,1.16,1.69.62,2.57h0Z"/>
  <path class="cls-1" d="M66.23,47.34v32.39c5.91-3.17,11.88-4.94,17.77-5.25v-32.73c0-.11-.09-.19-.21-.19-5.8.36-11.71,2.31-17.57,5.78h0ZM80.5,69.82c-3.21,0-6.51,1.03-9.78,3.06-.3.19-1.76.69-2.57-.6-.54-.88-.26-2.03.6-2.57,3.87-2.4,7.83-3.6,11.73-3.6,1.03,0,1.86.83,1.86,1.86.02,1.03-.81,1.86-1.84,1.86h0ZM80.5,63.14c-3.21,0-6.51,1.03-9.78,3.06-.3.19-1.76.69-2.57-.6-.54-.88-.26-2.03.6-2.57,3.87-2.4,7.83-3.6,11.73-3.6,1.03,0,1.86.83,1.86,1.86.02,1.03-.81,1.86-1.84,1.86h0ZM80.5,56.46c-3.21,0-6.51,1.03-9.78,3.06-.3.19-1.76.69-2.57-.6-.54-.88-.26-2.03.6-2.57,3.87-2.4,7.83-3.6,11.73-3.6,1.03,0,1.86.83,1.86,1.86.02,1.03-.81,1.86-1.84,1.86h0ZM80.5,49.78c-3.21,0-6.51,1.03-9.78,3.06-.3.19-1.76.69-2.57-.6-.54-.88-.26-2.03.6-2.57,3.87-2.4,7.83-3.6,11.73-3.6,1.03,0,1.86.83,1.86,1.86s-.81,1.86-1.84,1.86h0Z"/>
  <path class="cls-2" d="M91.06,45.22v35.53c0,.08-.06.15-.13.19l-26.52,7.21h-.09l-26.52-7.23c-.08-.02-.13-.09-.13-.19v-35.75l3.32.9v28.6c0,1.97,1.56,3.6,3.53,3.72,5.91.32,11.95,2.27,17.96,5.8,1.16.68,2.61.68,3.77,0,6.01-3.53,12.05-5.48,17.96-5.8,1.99-.11,3.53-1.75,3.53-3.72v-28.6l3.1-.84c.11-.02.23.06.23.19h0Z"/>
  <path class="cls-2" d="M66.83,15.36v15.95c0,.09-.08.19-.19.19H17.95c-.09,0-.19-.08-.19-.19v-15.95c0-.09.08-.19.19-.19h48.7c.11,0,.19.08.19.19Z"/>
  <path class="cls-2" d="M12.77,35.22h-2.8c-1.03,0-1.86.83-1.86,1.86s.83,1.86,1.86,1.86h2.8v8.86h-2.8c-1.03,0-1.86.83-1.86,1.86s.83,1.86,1.86,1.86h23.97v-6.55c0-1.82,1.78-4.39,4.71-3.6l2.35.64v-.47c0-1.01.43-2.01,1.16-2.72.73-.69,1.75-1.07,2.76-1.01,4.19.24,8.41,1.2,12.59,2.89v-5.5H12.77v.04Z"/>
</svg>