<?xml version="1.0" encoding="UTF-8"?>
<svg id="Layer_1" data-name="Layer 1" xmlns="http://www.w3.org/2000/svg" viewBox="0 0 100 100">
  <defs>
    <style>
      .cls-1, .cls-2, .cls-3 {
        fill-rule: evenodd;
      }

      .cls-1, .cls-4 {
        fill: #044783;
      }

      .cls-2 {
        fill: #fff;
      }

      .cls-3 {
        fill: #00be55;
      }
    </style>
  </defs>
  <path class="cls-1" d="M81.82,40.44v23.28c0,3.17-2.56,5.75-5.74,5.75H18.92c-3.17,0-5.75-2.57-5.75-5.75V29.53c0-3.17,2.57-5.75,5.75-5.75h47.91v5.62l2.31.89c.2.62.45,1.22.75,1.79l-1.01,2.26,4.04,4.03,2.26-1c.58.3,1.18.56,1.79.75l.89,2.32h3.97Z"/>
  <path class="cls-4" d="M65.64,79.89h-8.7v-6.22h-18.88v6.22h-8.7c-1.57,0-2.84,1.27-2.84,2.84s1.27,2.84,2.84,2.84h36.29c1.57,0,2.84-1.27,2.84-2.84s-1.27-2.84-2.84-2.84Z"/>
  <g>
    <path class="cls-2" d="M48.18,36.57v20.91c3.8-1.72,8.89-2.23,13.92-2.23v-20.54c-7.1,0-9.31.6-13.92,1.85h0Z"/>
    <path class="cls-2" d="M31.75,34.72v20.54c5.03,0,10.12.51,13.92,2.23v-20.91c-4.61-1.25-6.82-1.85-13.92-1.85Z"/>
  </g>
  <path class="cls-3" d="M90.82,24.13c-.26-1.07-.69-2.09-1.26-3.03l.87-1.96-2.32-2.32-1.97.87c-.93-.57-1.96-1-3.02-1.26l-.78-2.01h-3.29l-.77,2.01c-1.07.26-2.1.69-3.03,1.26l-1.97-.87-2.32,2.32.87,1.96c-.57.94-1,1.96-1.25,3.03l-2.01.78v3.28l2.01.78c.26,1.07.68,2.1,1.25,3.03l-.87,1.96,2.32,2.33,1.97-.87c.93.57,1.96,1,3.03,1.25l.77,2.01h3.29l.78-2.01c1.07-.26,2.09-.68,3.03-1.25l1.96.87,2.32-2.32-.87-1.97c.57-.93,1-1.96,1.25-3.03l2.02-.78v-3.28l-2.01-.78ZM80.71,32.27c-3.16,0-5.73-2.56-5.73-5.73s2.56-5.72,5.73-5.72,5.72,2.56,5.72,5.72-2.56,5.73-5.72,5.73Z"/>
</svg>