<?xml version="1.0" encoding="UTF-8"?>
<svg id="Layer_1" data-name="Layer 1" xmlns="http://www.w3.org/2000/svg" viewBox="0 0 100 100">
  <defs>
    <style>
      .cls-1 {
        fill: #044783;
      }

      .cls-1, .cls-2 {
        fill-rule: evenodd;
      }

      .cls-2 {
        fill: #00be55;
      }
    </style>
  </defs>
  <path class="cls-2" d="M41.42,35.25v-12.25c0-4.06,3.29-7.35,7.35-7.35h29.42c4.06,0,7.35,3.29,7.35,7.35v24.5c0,4.06-3.29,7.35-7.35,7.35h-26.97c1.37-1.83,2.25-4.05,2.42-6.47l8.91-5.72c3.42-2.2,4.4-6.75,2.21-10.16-2.2-3.41-6.75-4.4-10.17-2.21l-8.91,5.72c-1.33-.5-2.77-.77-4.27-.77h0ZM42.75,49.56c-1.14.73-2.65.4-3.39-.73-.73-1.14-.4-2.65.74-3.39l17.16-11.03c1.14-.73,2.66-.4,3.39.74.73,1.14.4,2.65-.74,3.39l-17.16,11.02Z"/>
  <path class="cls-1" d="M25.48,15.73c6.09,0,11.03,4.94,11.03,11.03s-4.94,11.03-11.03,11.03-11.03-4.94-11.03-11.03,4.94-11.03,11.03-11.03ZM48.76,47.59c0,4.06-3.29,7.35-7.35,7.35h-4.9c-1.35,0-2.45,1.1-2.45,2.45v19.61c0,4.06-3.29,7.35-7.35,7.35h-4.9c-4.06,0-7.35-3.29-7.35-7.35v-29.41c0-4.06,3.29-7.35,7.35-7.35h19.61c4.06,0,7.35,3.29,7.35,7.35Z"/>
</svg>