<?xml version="1.0" encoding="UTF-8"?>
<svg id="Layer_1" data-name="Layer 1" xmlns="http://www.w3.org/2000/svg" viewBox="0 0 100 100">
  <defs>
    <style>
      .cls-1 {
        fill: #00be55;
      }

      .cls-2 {
        fill: #044783;
      }
    </style>
  </defs>
  <path class="cls-1" d="M72.38,57.4c-9.04,0-16.38,7.33-16.38,16.38s7.33,16.38,16.38,16.38,16.38-7.33,16.38-16.38h0c0-9.04-7.33-16.38-16.38-16.38ZM81.72,71.07l-9.84,10.34c-.54.57-1.29.89-2.08.9h-.01c-.78,0-1.53-.32-2.07-.88l-5.22-5.38c-1.13-1.13-1.12-2.96,0-4.08s2.96-1.12,4.08,0c.02.02.04.04.05.06l3.13,3.23,7.77-8.16c1.14-1.12,2.97-1.1,4.08.04,1.06,1.08,1.1,2.8.1,3.93h0Z"/>
  <path class="cls-2" d="M50.87,73.74c0-11.88,9.63-21.52,21.52-21.52,4.14,0,8.2,1.2,11.68,3.44.02-1.6.04-3.3.04-5.13,0-9.44-.32-15.33-.96-21.43-.43-4.16-2.21-8.08-5.17-11.04-1.87-1.87-4.13-3.31-6.61-4.23-.17-.06-.34-.12-.51-.18-1.27-.43-2.58-.71-3.91-.85h-.13c-5.08-.54-5.89-.95-16.6-.95s-12.43.42-17.51.95h-.13c-1.4.16-2.77.47-4.1.93v-.07c-6.75,2.29-11.55,8.31-12.29,15.41-.64,6.12-.96,12.01-.96,21.47s.32,15.35.96,21.47c.89,8.6,7.69,15.4,16.29,16.29h.13c5.08.54,5.89.96,16.6.96,3.55,0,6.11-.05,8.13-.13-4.15-4.04-6.48-9.59-6.48-15.39h0ZM42.93,28.22h25.41c2.01,0,3.64,1.63,3.64,3.64,0,2.01-1.63,3.64-3.64,3.64h-25.41c-2.01,0-3.64-1.63-3.64-3.64,0-2.01,1.63-3.64,3.64-3.64h0ZM42.93,51.09c-2.01,0-3.64-1.63-3.64-3.64,0-2.01,1.63-3.64,3.64-3.64h9.08c2.01,0,3.64,1.63,3.64,3.64,0,2.01-1.63,3.64-3.64,3.64h-9.08ZM31,35.51c-2.01,0-3.64-1.63-3.64-3.64,0-2.01,1.63-3.64,3.64-3.64,2.01,0,3.64,1.63,3.64,3.64,0,2.01-1.63,3.64-3.64,3.64ZM31,51.09c-2.01,0-3.64-1.63-3.64-3.64,0-2.01,1.63-3.64,3.64-3.64,2.01,0,3.64,1.63,3.64,3.64,0,2.01-1.63,3.64-3.64,3.64Z"/>
</svg>