<?xml version="1.0" encoding="UTF-8"?>
<svg id="Layer_1" data-name="Layer 1" xmlns="http://www.w3.org/2000/svg" viewBox="0 0 100 100">
  <defs>
    <style>
      .cls-1 {
        fill: #00be55;
      }

      .cls-2 {
        fill: #044783;
      }
    </style>
  </defs>
  <g id="_40_Puzzle_puzzle_pieces_jigsaw_contribute_puzzle_game_hobbies_and_free_time_creativity" data-name="40, Puzzle, puzzle pieces, jigsaw, contribute, puzzle game, hobbies and free time, creativity">
    <g>
      <path class="cls-2" d="M28.64,58.26c2.5,0,4.53-2.03,4.53-4.53h12.84v-12.84c-2.5,0-4.53-2.03-4.53-4.53s2.03-4.53,4.53-4.53v-7.55c0-.83-.68-1.51-1.51-1.51h-26.43c-1.67,0-3.02,1.35-3.02,3.02v27.94h9.06c0,2.5,2.03,4.53,4.53,4.53Z"/>
      <path class="cls-2" d="M50.54,74.12c0-2.5-2.03-4.53-4.53-4.53v-12.84h-10.45c-1.17,2.66-3.83,4.53-6.92,4.53s-5.75-1.87-6.92-4.53h-6.67v27.94c0,1.67,1.35,3.02,3.02,3.02h27.94v-9.06c2.5,0,4.53-2.03,4.53-4.53Z"/>
      <path class="cls-2" d="M78.48,56.75h-7.55c0-2.5-2.03-4.53-4.53-4.53s-4.53,2.03-4.53,4.53h-12.84v10.45c2.66,1.17,4.53,3.83,4.53,6.92s-1.87,5.75-4.53,6.92v6.67h27.94c1.67,0,3.02-1.35,3.02-3.02v-26.43c0-.83-.68-1.51-1.51-1.51Z"/>
      <path class="cls-1" d="M86.4,16.48l-26.1-4.17c-.82-.13-1.6.43-1.73,1.25l-1.19,7.46c-2.47-.39-4.79,1.29-5.19,3.76s1.29,4.79,3.76,5.19l-2.03,12.68,12.68,2.03c.39-2.47,2.72-4.15,5.19-3.76s4.15,2.72,3.76,5.19l7.46,1.19c.82.13,1.6-.43,1.73-1.25l4.17-26.1c.26-1.65-.86-3.2-2.51-3.46Z"/>
    </g>
  </g>
</svg>