<svg xmlns="http://www.w3.org/2000/svg" width="48.723" height="48.723" viewBox="0 0 48.723 48.723">
  <g id="Group_54711" data-name="Group 54711" transform="translate(-1339 -152)">
    <path id="Path_45881" data-name="Path 45881" d="M39.587,48.723H9.135A9.135,9.135,0,0,1,0,39.587V9.135A9.135,9.135,0,0,1,9.135,0H39.587a9.135,9.135,0,0,1,9.135,9.135V39.587A9.135,9.135,0,0,1,39.587,48.723Z" transform="translate(1339 152)" fill="#fea6a6"/>
    <g id="Group_54678" data-name="Group 54678" transform="translate(1287.57 68.878)">
      <path id="Path_45882" data-name="Path 45882" d="M148.969,177.159a11.559,11.559,0,0,0-5.16-1.281.425.425,0,1,0,.019.85,10.748,10.748,0,0,1,4.741,1.18.425.425,0,1,0,.4-.75Zm0,3.6a11.575,11.575,0,0,0-5.16-1.281.425.425,0,1,0,.019.85,10.77,10.77,0,0,1,4.741,1.18.425.425,0,0,0,.4-.75Zm0,3.6a11.573,11.573,0,0,0-5.16-1.281.425.425,0,1,0,.019.85,10.764,10.764,0,0,1,4.741,1.18.425.425,0,1,0,.4-.75Z" transform="translate(-75.225 -74.103)" fill="#4b3e2c"/>
      <path id="Path_45883" data-name="Path 45883" d="M86.951,99.75V96.141l-.625-.012c-6.39-.128-9.125,1.781-10.176,2.9-1.016-1.086-3.609-2.909-9.573-2.909q-.3,0-.605.006l-.625.012V99.75H62.43v19.034H73.416a.638.638,0,1,0,0-1.276h-9.71V101.026h1.642v13.832l.651-.013c7.9-.16,9.563,2.933,9.574,2.956a.637.637,0,0,0,.849.3.629.629,0,0,0,.237-.2c.008-.01.016-.021.023-.032s.018-.028.026-.043.01-.016.015-.024c.016-.031,1.6-2.97,9-2.97.189,0,.382,0,.579.006l.65.013V101.026h1.641v16.483h-9.71a.638.638,0,0,0,0,1.276H89.868V99.75ZM66.623,113.563V97.4c6.573.011,8.533,2.345,8.888,2.867v15.623C74.192,114.838,71.576,113.571,66.623,113.563Zm19.052,0c-4.953.008-7.569,1.276-8.889,2.325V100.264c.355-.521,2.313-2.856,8.889-2.867Z" fill="#4b3e2c"/>
      <path id="Path_45884" data-name="Path 45884" d="M292.14,175.877a11.566,11.566,0,0,0-5.161,1.281.425.425,0,0,0,.4.75,10.87,10.87,0,0,1,4.712-1.181h.038a.425.425,0,0,0,.01-.85Zm0,3.6a11.565,11.565,0,0,0-5.161,1.281.425.425,0,0,0,.4.75,10.808,10.808,0,0,1,4.741-1.18.433.433,0,0,0,.434-.416A.425.425,0,0,0,292.14,179.473Zm0,3.6a11.566,11.566,0,0,0-5.161,1.281.425.425,0,0,0,.4.75,10.87,10.87,0,0,1,4.712-1.181h.038a.425.425,0,0,0,.01-.851Z" transform="translate(-208.426 -74.103)" fill="#4b3e2c"/>
    </g>
  </g>
</svg>
