<svg xmlns="http://www.w3.org/2000/svg" width="26.82" height="21.4" viewBox="0 0 26.82 21.4">
  <g id="Group_55376" data-name="Group 55376" transform="translate(-104 -878)">
    <path id="Path_52291" data-name="Path 52291" d="M13.554,27.131h8.152a1.783,1.783,0,0,1,1.528.977,3.238,3.238,0,0,1,.537,1.492.659.659,0,1,0,1.277,0,3.23,3.23,0,0,1,.538-1.491,1.78,1.78,0,0,1,1.528-.978h8.152c1.41,0,2.553-1.475,2.554-3.292V12.316c0-1.818-1.144-3.29-2.554-3.292H13.554C12.144,9.025,11,10.5,11,12.316V23.839C11,25.656,12.144,27.129,13.554,27.131ZM12.277,12.316a1.5,1.5,0,0,1,1.277-1.646H35.266a1.5,1.5,0,0,1,1.277,1.646V23.839a1.5,1.5,0,0,1-1.277,1.646H27.114a3.1,3.1,0,0,0-2.7,1.919,3.1,3.1,0,0,0-2.7-1.919H13.554a1.5,1.5,0,0,1-1.277-1.646Z" transform="translate(93 868.977)"/>
    <path id="Path_52292" data-name="Path 52292" d="M18.112,17.042a.681.681,0,0,1,0-.964l2.727-2.727a.682.682,0,1,1,.964.964L19.558,16.56,21.8,18.805a.682.682,0,1,1-.964.964ZM29.02,18.805l2.245-2.245L29.02,14.315a.682.682,0,1,1,.964-.964l2.727,2.727a.681.681,0,0,1,0,.964l-2.727,2.727a.682.682,0,1,1-.964-.964Zm-5.292,1.68L25.773,12.3a.681.681,0,0,1,1.322.331L25.05,20.816a.681.681,0,0,1-1.322-.331Z" transform="translate(92.04 870.974)"/>
  </g>
</svg>
