<svg xmlns="http://www.w3.org/2000/svg" width="49.2" height="49.2" viewBox="0 0 49.2 49.2">
  <g id="Group_52264" data-name="Group 52264" transform="translate(-1080.4 -120.4)">
    <path id="Path_43881" data-name="Path 43881" d="M24.6,0A24.6,24.6,0,1,1,0,24.6,24.6,24.6,0,0,1,24.6,0Z" transform="translate(1080.4 120.4)" fill="#247edc"/>
    <g id="Group_52318" data-name="Group 52318" transform="translate(1081 121)">
      <path id="Path_43890" data-name="Path 43890" d="M16.135,13.988a1.3,1.3,0,0,0-1.28,1.319v4.076a1.3,1.3,0,0,0,2.6,0V15.307a1.3,1.3,0,0,0-1.32-1.319Z" fill="#fff"/>
      <path id="Path_43891" data-name="Path 43891" d="M23.93,10.85a1.3,1.3,0,0,0-.81.343L8.75,24.443a1.3,1.3,0,0,0,.9,2.256l3-.033v5.186a5.092,5.092,0,0,0,4.834,5.3H30.518a5.092,5.092,0,0,0,4.834-5.3V26.666l3,.033a1.3,1.3,0,0,0,.894-2.256L24.88,11.193a1.3,1.3,0,0,0-.95-.343ZM24,13.916,35,24.06l-.936-.01a1.3,1.3,0,0,0-1.314,1.3v6.5a2.476,2.476,0,0,1-2.234,2.7H17.484a2.476,2.476,0,0,1-2.234-2.7v-6.5a1.3,1.3,0,0,0-1.314-1.3L13,24.06,24,13.915Z" fill="#fff"/>
      <path id="Path_43892" data-name="Path 43892" d="M21.387,23.074a1.3,1.3,0,0,0-.9,2.229l.006.008a1.3,1.3,0,0,0,1.836-1.837l-.008,0a1.3,1.3,0,0,0-.931-.4Zm5.058.131a1.293,1.293,0,0,0-.892.393l-4.94,4.94a1.3,1.3,0,1,0,1.836,1.833l4.938-4.938a1.3,1.3,0,0,0-.942-2.228Zm.135,5.06a1.3,1.3,0,0,0-.9,2.23l.006.007a1.3,1.3,0,1,0,1.836-1.836l-.008-.006a1.3,1.3,0,0,0-.93-.395Z" fill="#fff"/>
    </g>
  </g>
</svg>
