<svg xmlns="http://www.w3.org/2000/svg" width="50" height="50" viewBox="0 0 50 50">
  <g id="Group_51810" data-name="Group 51810" transform="translate(-450.421 -218)">
    <path id="Path_42597" data-name="Path 42597" d="M25,0A25,25,0,1,1,0,25,25,25,0,0,1,25,0Z" transform="translate(450.421 218)" fill="#70adfd"/>
    <g id="Group_55279" data-name="Group 55279" transform="translate(462.421 230)">
      <path id="Path_46312" data-name="Path 46312" d="M12.811,0A12.811,12.811,0,1,0,25.622,12.811,12.811,12.811,0,0,0,12.811,0ZM6.406,22.086a4.146,4.146,0,0,1,4.138-4.553h4.535a4.146,4.146,0,0,1,4.138,4.553,11.24,11.24,0,0,1-12.811,0ZM20.7,20.846A5.691,5.691,0,0,0,15.063,16h-4.52a5.7,5.7,0,0,0-5.637,4.85,11.274,11.274,0,1,1,15.793,0Z" fill="#423739" stroke="#423739" stroke-width="0.5"/>
      <path id="Path_46313" data-name="Path 46313" d="M36.7,20.5a4.581,4.581,0,1,0,4.581,4.581A4.581,4.581,0,0,0,36.7,20.5Zm0,7.623a3.044,3.044,0,1,1,3.044-3.041A3.044,3.044,0,0,1,36.7,28.123Z" transform="translate(-23.89 -15.247)" fill="#423739" stroke="#423739" stroke-width="0.5"/>
    </g>
  </g>
</svg>
