<svg xmlns="http://www.w3.org/2000/svg" xmlns:xlink="http://www.w3.org/1999/xlink" width="49.2" height="49.2" viewBox="0 0 49.2 49.2">
  <defs>
    <clipPath id="clip-path">
      <rect id="Rectangle_20588" data-name="Rectangle 20588" width="24" height="26" transform="translate(0 -0.5)" fill="#d86745" stroke="#d86745" stroke-width="1"/>
    </clipPath>
  </defs>
  <g id="Group_52269" data-name="Group 52269" transform="translate(-1080.4 -120.4)">
    <path id="Path_43881" data-name="Path 43881" d="M24.6,0A24.6,24.6,0,1,1,0,24.6,24.6,24.6,0,0,1,24.6,0Z" transform="translate(1080.4 120.4)" fill="#d2dfc6"/>
    <g id="Group_52267" data-name="Group 52267" transform="translate(1093.4 132.9)" clip-path="url(#clip-path)">
      <path id="Path_43885" data-name="Path 43885" d="M11.5,24.5a.5.5,0,0,1-.242-.063C10.879,24.228,2,19.243,2,13V2.156a.5.5,0,0,1,.834-.372A5.486,5.486,0,0,0,6.5,3.184,5.5,5.5,0,0,0,11.085.723a.5.5,0,0,1,.833,0A5.486,5.486,0,0,0,16.5,3.185a5.492,5.492,0,0,0,3.635-1.371.527.527,0,0,1,.832.164A.517.517,0,0,1,21,2.2V13c0,6.243-8.88,11.229-9.258,11.438A.517.517,0,0,1,11.5,24.5ZM3,3.163V13c0,5.122,7.088,9.584,8.5,10.422C12.91,22.584,20,18.117,20,13V3.164a6.494,6.494,0,0,1-3.5,1.021,6.488,6.488,0,0,1-5-2.348,6.484,6.484,0,0,1-5,2.348A6.493,6.493,0,0,1,3,3.163Z" fill="#30c768" stroke="#2fc265" stroke-width="1"/>
      <path id="Path_43888" data-name="Path 43888" d="M13.251,5.158a.558.558,0,0,1,.012.789L7.122,12.274a.558.558,0,0,1-.806-.006L3.152,8.919a.558.558,0,1,1,.812-.767l2.763,2.926,5.735-5.908A.558.558,0,0,1,13.251,5.158Z" transform="translate(3.79 3.356)" fill="#30c768" stroke="#30c768" stroke-width="1" fill-rule="evenodd"/>
    </g>
  </g>
</svg>
