<svg xmlns="http://www.w3.org/2000/svg" width="14.207" height="19.462" viewBox="0 0 14.207 19.462">
  <g id="Group_53741" data-name="Group 53741" transform="translate(-6.03 -2.32)">
    <path id="Path_44795" data-name="Path 44795" d="M13.634,20.136l-.291-.383c-.213-.284-5.191-6.971-5.461-10.361A6.929,6.929,0,0,1,9.656,4.25a5.39,5.39,0,0,1,3.979-1.83A5.461,5.461,0,0,1,17.705,4.3a6.7,6.7,0,0,1,1.667,5.1c-.34,3.312-5.248,10.063-5.454,10.347Zm0-17.021a4.688,4.688,0,0,0-3.454,1.567A6.213,6.213,0,0,0,8.6,9.313c.213,2.737,3.95,8.127,5.035,9.624,1.064-1.511,4.759-6.922,5.042-9.61h0a5.979,5.979,0,0,0-1.5-4.553,4.759,4.759,0,0,0-3.546-1.645Z" transform="translate(-0.505)" stroke="#000" stroke-width="0.2"/>
    <path id="Path_44796" data-name="Path 44796" d="M13.13,12.495a3.347,3.347,0,1,1,3.347-3.347,3.347,3.347,0,0,1-3.347,3.347Zm0-5.986a2.638,2.638,0,1,0,2.638,2.638A2.638,2.638,0,0,0,13.13,6.509Zm0,16.155c-.284,0-7,0-7-1.738,0-.759,1.3-1.291,3.851-1.574l.078.709c-2.269.248-3.149.709-3.22.886.149.34,2.376,1.007,6.3,1.007s6.149-.667,6.3-1.043c-.078-.156-1.021-.631-3.454-.872l.071-.709c1.865.184,4.085.617,4.085,1.6C20.129,22.643,13.413,22.665,13.13,22.665Z" transform="translate(0 -0.983)" stroke="#000" stroke-width="0.2"/>
  </g>
</svg>
